<?xml version="1.0" encoding="UTF-8"?>
<svg xmlns="http://www.w3.org/2000/svg" xmlns:xlink="http://www.w3.org/1999/xlink" width="50px" height="50px" viewBox="0 0 50 50" version="1.1">
<g id="surface1">
<path style=" stroke:none;fill-rule:nonzero;fill:rgb(0%,32.156863%,70.588235%);fill-opacity:1;" d="M 50 25 C 50 38.808594 38.808594 50 25 50 C 11.191406 50 0 38.808594 0 25 C 0 25.007812 25 0.00390625 25 0 C 38.808594 0 50 11.191406 50 25 Z M 50 25 "/>
<path style=" stroke:none;fill-rule:nonzero;fill:rgb(94.117647%,94.117647%,94.117647%);fill-opacity:1;" d="M 24.933594 25 L 25 25 C 25 24.976562 25 24.957031 25 24.933594 C 24.976562 24.957031 24.957031 24.976562 24.933594 25 Z M 24.933594 25 "/>
<path style=" stroke:none;fill-rule:nonzero;fill:rgb(94.117647%,94.117647%,94.117647%);fill-opacity:1;" d="M 25 13.042969 C 25 8.644531 25 5.761719 25 0 L 24.996094 0 C 11.191406 0.00390625 0 11.195312 0 25 L 13.042969 25 L 13.042969 17.65625 L 20.386719 25 L 24.933594 25 C 24.957031 24.976562 24.976562 24.957031 25 24.933594 C 25 23.25 25 21.746094 25 20.386719 L 17.65625 13.042969 Z M 25 13.042969 "/>
<path style=" stroke:none;fill-rule:nonzero;fill:rgb(84.705882%,0%,15.294118%);fill-opacity:1;" d="M 12.648438 3.261719 C 8.738281 5.488281 5.488281 8.738281 3.261719 12.648438 L 3.261719 25 L 9.78125 25 L 9.78125 9.78125 L 25 9.78125 C 25 7.726562 25 5.765625 25 3.261719 Z M 12.648438 3.261719 "/>
<path style=" stroke:none;fill-rule:nonzero;fill:rgb(84.705882%,0%,15.294118%);fill-opacity:1;" d="M 25 21.925781 L 16.117188 13.042969 L 13.042969 13.042969 L 25 25 C 25 25 25 22.878906 25 21.925781 Z M 25 21.925781 "/>
<path style=" stroke:none;fill-rule:nonzero;fill:rgb(94.117647%,94.117647%,94.117647%);fill-opacity:1;" d="M 15.078125 29.347656 L 16.449219 32.21875 L 19.546875 31.5 L 18.160156 34.363281 L 20.652344 36.339844 L 17.550781 37.039062 L 17.558594 40.21875 L 15.078125 38.226562 L 12.597656 40.21875 L 12.605469 37.039062 L 9.503906 36.339844 L 11.996094 34.363281 L 10.605469 31.5 L 13.707031 32.21875 Z M 15.078125 29.347656 "/>
<path style=" stroke:none;fill-rule:nonzero;fill:rgb(94.117647%,94.117647%,94.117647%);fill-opacity:1;" d="M 37.429688 34.78125 L 38.117188 36.21875 L 39.664062 35.859375 L 38.972656 37.289062 L 40.21875 38.277344 L 38.667969 38.628906 L 38.671875 40.21875 L 37.429688 39.222656 L 36.191406 40.21875 L 36.195312 38.628906 L 34.644531 38.277344 L 35.890625 37.289062 L 35.195312 35.859375 L 36.742188 36.21875 Z M 37.429688 34.78125 "/>
<path style=" stroke:none;fill-rule:nonzero;fill:rgb(94.117647%,94.117647%,94.117647%);fill-opacity:1;" d="M 31.046875 19.566406 L 31.734375 21 L 33.285156 20.640625 L 32.589844 22.074219 L 33.835938 23.058594 L 32.285156 23.410156 L 32.289062 25 L 31.046875 24.003906 L 29.808594 25 L 29.8125 23.410156 L 28.261719 23.058594 L 29.507812 22.074219 L 28.8125 20.640625 L 30.363281 21 Z M 31.046875 19.566406 "/>
<path style=" stroke:none;fill-rule:nonzero;fill:rgb(94.117647%,94.117647%,94.117647%);fill-opacity:1;" d="M 37.429688 10.871094 L 38.117188 12.304688 L 39.664062 11.945312 L 38.972656 13.375 L 40.21875 14.363281 L 38.667969 14.714844 L 38.671875 16.304688 L 37.429688 15.308594 L 36.191406 16.304688 L 36.195312 14.714844 L 34.644531 14.363281 L 35.886719 13.375 L 35.195312 11.945312 L 36.742188 12.304688 Z M 37.429688 10.871094 "/>
<path style=" stroke:none;fill-rule:nonzero;fill:rgb(94.117647%,94.117647%,94.117647%);fill-opacity:1;" d="M 43.003906 17.390625 L 43.691406 18.824219 L 45.238281 18.46875 L 44.546875 19.898438 L 45.792969 20.886719 L 44.242188 21.234375 L 44.246094 22.824219 L 43.003906 21.832031 L 41.765625 22.824219 L 41.769531 21.234375 L 40.21875 20.886719 L 41.464844 19.898438 L 40.769531 18.46875 L 42.320312 18.824219 Z M 43.003906 17.390625 "/>
<path style=" stroke:none;fill-rule:nonzero;fill:rgb(94.117647%,94.117647%,94.117647%);fill-opacity:1;" d="M 39.019531 25 L 39.558594 26.660156 L 41.304688 26.660156 L 39.890625 27.6875 L 40.429688 29.347656 L 39.019531 28.320312 L 37.605469 29.347656 L 38.144531 27.6875 L 36.734375 26.660156 L 38.480469 26.660156 Z M 39.019531 25 "/>
</g>
</svg>
