<?xml version="1.0" encoding="UTF-8"?>
<svg xmlns="http://www.w3.org/2000/svg" xmlns:xlink="http://www.w3.org/1999/xlink" width="50px" height="50px" viewBox="0 0 50 50" version="1.1">
<g id="surface1">
<path style=" stroke:none;fill-rule:nonzero;fill:rgb(94.117647%,94.117647%,94.117647%);fill-opacity:1;" d="M 25 50 C 38.808594 50 50 38.808594 50 25 C 50 11.191406 38.808594 0 25 0 C 11.191406 0 0 11.191406 0 25 C 0 38.808594 11.191406 50 25 50 Z M 25 50 "/>
<path style=" stroke:none;fill-rule:nonzero;fill:rgb(100%,85.490196%,26.666667%);fill-opacity:1;" d="M 7.320312 7.320312 C 1.964844 12.679688 -0.453125 19.863281 0.0703125 26.871094 L 26.871094 0.0703125 C 19.863281 -0.453125 12.679688 1.964844 7.320312 7.320312 Z M 7.320312 7.320312 "/>
<path style=" stroke:none;fill-rule:nonzero;fill:rgb(0%,32.156863%,70.588235%);fill-opacity:1;" d="M 8.925781 44.148438 C 18.75 52.410156 33.433594 51.921875 42.679688 42.675781 C 51.921875 33.433594 52.410156 18.75 44.148438 8.925781 Z M 8.925781 44.148438 "/>
<path style=" stroke:none;fill-rule:nonzero;fill:rgb(0%,0%,0%);fill-opacity:1;" d="M 24.910156 23.992188 L 27.066406 22.824219 L 24.910156 21.660156 C 24.40625 18.390625 21.824219 15.808594 18.558594 15.304688 L 17.390625 13.152344 L 16.222656 15.304688 C 12.957031 15.808594 10.375 18.390625 9.871094 21.660156 L 7.71875 22.824219 L 9.871094 23.992188 C 10.375 27.261719 12.957031 29.84375 16.222656 30.34375 L 17.390625 32.5 L 18.558594 30.34375 C 21.824219 29.84375 24.40625 27.261719 24.910156 23.992188 Z M 17.390625 27.175781 C 14.988281 27.175781 13.042969 25.226562 13.042969 22.824219 C 13.042969 20.425781 14.988281 18.476562 17.390625 18.476562 C 19.792969 18.476562 21.738281 20.425781 21.738281 22.824219 C 21.738281 25.226562 19.792969 27.175781 17.390625 27.175781 Z M 17.390625 27.175781 "/>
<path style=" stroke:none;fill-rule:nonzero;fill:rgb(84.705882%,0%,15.294118%);fill-opacity:1;" d="M 17.390625 19.566406 L 18.332031 21.195312 L 20.214844 21.195312 L 19.273438 22.824219 L 20.214844 24.457031 L 18.332031 24.457031 L 17.390625 26.085938 L 16.449219 24.457031 L 14.566406 24.457031 L 15.507812 22.824219 L 14.566406 21.195312 L 16.449219 21.195312 Z M 17.390625 19.566406 "/>
</g>
</svg>
