<?xml version="1.0" encoding="UTF-8"?>
<svg xmlns="http://www.w3.org/2000/svg" xmlns:xlink="http://www.w3.org/1999/xlink" width="50px" height="50px" viewBox="0 0 50 50" version="1.1">
<g id="surface1">
<path style=" stroke:none;fill-rule:nonzero;fill:rgb(94.117647%,94.117647%,94.117647%);fill-opacity:1;" d="M 25 50 C 38.808594 50 50 38.808594 50 25 C 50 11.191406 38.808594 0 25 0 C 11.191406 0 0 11.191406 0 25 C 0 38.808594 11.191406 50 25 50 Z M 25 50 "/>
<path style=" stroke:none;fill-rule:nonzero;fill:rgb(100%,85.490196%,26.666667%);fill-opacity:1;" d="M 25 0 C 16.136719 0 8.347656 4.613281 3.910156 11.570312 L 37.8125 46.46875 C 45.113281 42.105469 50 34.125 50 25 C 50 11.191406 38.808594 0 25 0 Z M 25 0 "/>
<path style=" stroke:none;fill-rule:nonzero;fill:rgb(0%,32.156863%,70.588235%);fill-opacity:1;" d="M 50 25 C 50 18.511719 47.53125 12.605469 43.476562 8.160156 L 43.476562 41.839844 C 47.53125 37.394531 50 31.488281 50 25 Z M 50 25 "/>
<path style=" stroke:none;fill-rule:nonzero;fill:rgb(0%,32.156863%,70.588235%);fill-opacity:1;" d="M 31.230469 47.058594 L 33.847656 47.054688 L 34.65625 44.566406 L 35.464844 47.054688 L 36.78125 47.054688 C 37.585938 46.625 38.363281 46.148438 39.113281 45.636719 L 4.363281 10.886719 C 3.792969 11.722656 3.269531 12.59375 2.800781 13.5 L 3.109375 14.445312 L 5.726562 14.445312 L 3.609375 15.984375 L 4.421875 18.476562 L 2.300781 16.9375 L 1.035156 17.855469 C 0.363281 20.121094 0 22.519531 0 25 C 0 38.808594 11.191406 50 25 50 C 27.917969 50 30.722656 49.5 33.324219 48.578125 Z M 5.574219 23.914062 L 6.382812 21.421875 L 4.265625 19.882812 L 6.882812 19.882812 L 7.691406 17.390625 L 8.5 19.882812 L 11.121094 19.878906 L 9.003906 21.421875 L 9.8125 23.910156 L 7.695312 22.371094 Z M 10.96875 29.347656 L 11.777344 26.855469 L 9.65625 25.320312 L 12.277344 25.316406 L 13.082031 22.824219 L 13.894531 25.316406 L 16.511719 25.3125 L 14.394531 26.855469 L 15.207031 29.34375 L 13.085938 27.808594 Z M 16.363281 34.78125 L 17.167969 32.292969 L 15.050781 30.753906 L 17.667969 30.75 L 18.476562 28.261719 L 19.289062 30.75 L 21.90625 30.75 L 19.789062 32.289062 L 20.597656 34.78125 L 18.480469 33.242188 Z M 23.871094 38.675781 L 21.753906 40.21875 L 22.5625 37.726562 L 20.445312 36.1875 L 23.0625 36.1875 L 23.871094 33.695312 L 24.679688 36.1875 L 27.300781 36.183594 L 25.179688 37.722656 L 25.992188 40.214844 Z M 27.148438 45.652344 L 27.957031 43.160156 L 25.835938 41.625 L 28.453125 41.621094 L 29.261719 39.128906 L 30.074219 41.621094 L 32.691406 41.617188 L 30.574219 43.160156 L 31.386719 45.648438 L 29.265625 44.109375 Z M 27.148438 45.652344 "/>
</g>
</svg>
