<?xml version="1.0" encoding="UTF-8"?>
<svg xmlns="http://www.w3.org/2000/svg" xmlns:xlink="http://www.w3.org/1999/xlink" width="50px" height="50px" viewBox="0 0 50 50" version="1.1">
<g id="surface1">
<path style=" stroke:none;fill-rule:nonzero;fill:rgb(94.117647%,94.117647%,94.117647%);fill-opacity:1;" d="M 1.179688 17.390625 C 0.414062 19.789062 0 22.347656 0 25 C 0 27.652344 0.414062 30.210938 1.179688 32.609375 L 25 33.695312 L 48.820312 32.609375 C 49.585938 30.210938 50 27.652344 50 25 C 50 22.347656 49.585938 19.789062 48.820312 17.390625 L 25 16.304688 Z M 1.179688 17.390625 "/>
<path style=" stroke:none;fill-rule:nonzero;fill:rgb(0%,0%,0%);fill-opacity:1;" d="M 50 25 C 50 23.515625 49.871094 22.0625 49.621094 20.652344 L 0.378906 20.652344 C 0.128906 22.0625 0 23.515625 0 25 C 0 26.484375 0.128906 27.9375 0.378906 29.347656 L 49.621094 29.347656 C 49.871094 27.9375 50 26.484375 50 25 Z M 50 25 "/>
<path style=" stroke:none;fill-rule:nonzero;fill:rgb(20%,54.117647%,95.294118%);fill-opacity:1;" d="M 25 50 C 36.152344 50 45.601562 42.695312 48.820312 32.609375 L 1.179688 32.609375 C 4.398438 42.695312 13.847656 50 25 50 Z M 25 50 "/>
<path style=" stroke:none;fill-rule:nonzero;fill:rgb(20%,54.117647%,95.294118%);fill-opacity:1;" d="M 25 0 C 13.847656 0 4.398438 7.304688 1.179688 17.390625 L 48.820312 17.390625 C 45.601562 7.304688 36.152344 0 25 0 Z M 25 0 "/>
</g>
</svg>
