<?xml version="1.0" encoding="UTF-8"?>
<svg xmlns="http://www.w3.org/2000/svg" xmlns:xlink="http://www.w3.org/1999/xlink" width="50px" height="50px" viewBox="0 0 50 50" version="1.1">
<g id="surface1">
<path style=" stroke:none;fill-rule:nonzero;fill:rgb(42.745098%,64.705882%,26.666667%);fill-opacity:1;" d="M 25 50 C 38.808594 50 50 38.808594 50 25 C 50 11.191406 38.808594 0 25 0 C 11.191406 0 0 11.191406 0 25 C 0 38.808594 11.191406 50 25 50 Z M 25 50 "/>
<path style=" stroke:none;fill-rule:nonzero;fill:rgb(100%,85.490196%,26.666667%);fill-opacity:1;" d="M 25 9.78125 L 45.652344 25 L 25 40.21875 L 4.347656 25 Z M 25 9.78125 "/>
<path style=" stroke:none;fill-rule:nonzero;fill:rgb(94.117647%,94.117647%,94.117647%);fill-opacity:1;" d="M 25 33.695312 C 29.800781 33.695312 33.695312 29.800781 33.695312 25 C 33.695312 20.199219 29.800781 16.304688 25 16.304688 C 20.199219 16.304688 16.304688 20.199219 16.304688 25 C 16.304688 29.800781 20.199219 33.695312 25 33.695312 Z M 25 33.695312 "/>
<path style=" stroke:none;fill-rule:nonzero;fill:rgb(0%,32.156863%,70.588235%);fill-opacity:1;" d="M 20.652344 24.457031 C 19.140625 24.457031 17.679688 24.6875 16.308594 25.113281 C 16.367188 29.863281 20.234375 33.695312 25 33.695312 C 27.945312 33.695312 30.546875 32.230469 32.121094 29.988281 C 29.429688 26.617188 25.289062 24.457031 20.652344 24.457031 Z M 20.652344 24.457031 "/>
<path style=" stroke:none;fill-rule:nonzero;fill:rgb(0%,32.156863%,70.588235%);fill-opacity:1;" d="M 33.535156 26.664062 C 33.640625 26.125 33.695312 25.570312 33.695312 25 C 33.695312 20.199219 29.800781 16.304688 25 16.304688 C 21.417969 16.304688 18.339844 18.472656 17.007812 21.566406 C 18.1875 21.324219 19.40625 21.195312 20.652344 21.195312 C 25.703125 21.195312 30.273438 23.296875 33.535156 26.664062 Z M 33.535156 26.664062 "/>
</g>
</svg>
