<?xml version="1.0" encoding="UTF-8"?>
<svg xmlns="http://www.w3.org/2000/svg" xmlns:xlink="http://www.w3.org/1999/xlink" width="50px" height="50px" viewBox="0 0 50 50" version="1.1">
<g id="surface1">
<path style=" stroke:none;fill-rule:nonzero;fill:rgb(94.117647%,94.117647%,94.117647%);fill-opacity:1;" d="M 0 25 C 0 11.191406 11.191406 0 25 0 C 38.808594 0 50 11.191406 50 25 Z M 0 25 "/>
<path style=" stroke:none;fill-rule:nonzero;fill:rgb(0%,32.156863%,70.588235%);fill-opacity:1;" d="M 18.476562 23.632812 L 17.113281 25 L 18.476562 25 Z M 18.476562 23.632812 "/>
<path style=" stroke:none;fill-rule:nonzero;fill:rgb(0%,32.156863%,70.588235%);fill-opacity:1;" d="M 31.523438 23.632812 L 31.523438 25 L 32.886719 25 Z M 31.523438 23.632812 "/>
<path style=" stroke:none;fill-rule:nonzero;fill:rgb(0%,32.156863%,70.588235%);fill-opacity:1;" d="M 0.722656 19.023438 C 0.25 20.9375 0 22.9375 0 25 L 7.886719 25 L 13.867188 19.023438 Z M 0.722656 19.023438 "/>
<path style=" stroke:none;fill-rule:nonzero;fill:rgb(0%,32.156863%,70.588235%);fill-opacity:1;" d="M 36.132812 19.023438 L 42.113281 25 L 50 25 C 50 22.9375 49.75 20.9375 49.277344 19.023438 Z M 36.132812 19.023438 "/>
<path style=" stroke:none;fill-rule:nonzero;fill:rgb(84.705882%,0%,15.294118%);fill-opacity:1;" d="M 34.597656 19.023438 L 31.523438 19.023438 L 37.5 25 L 40.574219 25 Z M 34.597656 19.023438 "/>
<path style=" stroke:none;fill-rule:nonzero;fill:rgb(84.705882%,0%,15.294118%);fill-opacity:1;" d="M 18.476562 22.097656 L 18.476562 19.023438 L 12.5 25 L 15.574219 25 Z M 18.476562 22.097656 "/>
<path style=" stroke:none;fill-rule:nonzero;fill:rgb(0%,32.156863%,70.588235%);fill-opacity:1;" d="M 11.710938 3.824219 C 10.679688 4.46875 9.699219 5.191406 8.777344 5.976562 L 13.867188 5.976562 Z M 11.710938 3.824219 "/>
<path style=" stroke:none;fill-rule:nonzero;fill:rgb(0%,32.156863%,70.588235%);fill-opacity:1;" d="M 41.222656 5.976562 C 40.300781 5.191406 39.320312 4.46875 38.289062 3.824219 L 36.132812 5.976562 Z M 41.222656 5.976562 "/>
<path style=" stroke:none;fill-rule:nonzero;fill:rgb(84.705882%,0%,15.294118%);fill-opacity:1;" d="M 28.261719 15.761719 L 48.238281 15.761719 C 47.292969 13.386719 45.992188 11.191406 44.40625 9.238281 L 28.261719 9.238281 L 28.261719 0.210938 C 27.195312 0.0742188 26.105469 0 25 0 C 23.894531 0 22.804688 0.0742188 21.738281 0.210938 L 21.738281 9.238281 L 5.59375 9.238281 C 4.007812 11.191406 2.707031 13.386719 1.761719 15.761719 L 21.738281 15.761719 L 21.738281 25 L 28.261719 25 Z M 28.261719 15.761719 "/>
<path style=" stroke:none;fill-rule:nonzero;fill:rgb(84.705882%,0%,15.294118%);fill-opacity:1;" d="M 18.476562 5.976562 L 14.710938 2.210938 C 14.011719 2.523438 13.332031 2.871094 12.671875 3.246094 L 15.402344 5.976562 Z M 18.476562 5.976562 "/>
<path style=" stroke:none;fill-rule:nonzero;fill:rgb(84.705882%,0%,15.294118%);fill-opacity:1;" d="M 31.523438 5.976562 L 35.289062 2.210938 C 34.574219 1.886719 33.839844 1.59375 33.085938 1.335938 L 31.523438 2.902344 Z M 31.523438 5.976562 "/>
<path style=" stroke:none;fill-rule:nonzero;fill:rgb(94.117647%,94.117647%,94.117647%);fill-opacity:1;" d="M 50 25 C 50 38.808594 38.808594 50 25 50 C 11.191406 50 0 38.808594 0 25 Z M 50 25 "/>
<path style=" stroke:none;fill-rule:nonzero;fill:rgb(0%,32.156863%,70.588235%);fill-opacity:1;" d="M 45.832031 28.1875 C 43.75 28.1875 43.75 26.285156 41.667969 26.285156 C 39.582031 26.285156 39.582031 28.1875 37.5 28.1875 C 35.417969 28.1875 35.417969 26.285156 33.332031 26.285156 C 31.25 26.285156 31.25 28.1875 29.167969 28.1875 C 27.082031 28.1875 27.082031 26.285156 25 26.285156 C 22.917969 26.285156 22.917969 28.1875 20.832031 28.1875 C 18.75 28.1875 18.75 26.285156 16.667969 26.285156 C 14.582031 26.285156 14.582031 28.1875 12.5 28.1875 C 10.417969 28.1875 10.417969 26.285156 8.332031 26.285156 C 6.25 26.285156 6.25 28.1875 4.167969 28.1875 C 2.09375 28.1875 2.082031 26.304688 0.03125 26.285156 C 0.0898438 27.429688 0.226562 28.550781 0.433594 29.648438 C 2.09375 29.894531 2.238281 31.523438 4.167969 31.523438 C 6.25 31.523438 6.25 29.617188 8.332031 29.617188 C 10.417969 29.617188 10.417969 31.523438 12.5 31.523438 C 14.582031 31.523438 14.582031 29.617188 16.667969 29.617188 C 18.75 29.617188 18.75 31.523438 20.832031 31.523438 C 22.917969 31.523438 22.917969 29.617188 25 29.617188 C 27.082031 29.617188 27.082031 31.523438 29.167969 31.523438 C 31.25 31.523438 31.25 29.617188 33.332031 29.617188 C 35.417969 29.617188 35.417969 31.523438 37.5 31.523438 C 39.582031 31.523438 39.582031 29.617188 41.667969 29.617188 C 43.75 29.617188 43.75 31.523438 45.832031 31.523438 C 47.761719 31.523438 47.90625 29.894531 49.566406 29.648438 C 49.773438 28.550781 49.910156 27.429688 49.96875 26.285156 C 47.917969 26.304688 47.90625 28.1875 45.832031 28.1875 Z M 45.832031 28.1875 "/>
<path style=" stroke:none;fill-rule:nonzero;fill:rgb(0%,32.156863%,70.588235%);fill-opacity:1;" d="M 41.667969 32.804688 C 39.582031 32.804688 39.582031 34.710938 37.5 34.710938 C 35.417969 34.710938 35.417969 32.804688 33.332031 32.804688 C 31.25 32.804688 31.25 34.710938 29.167969 34.710938 C 27.082031 34.710938 27.082031 32.804688 25 32.804688 C 22.917969 32.804688 22.917969 34.710938 20.832031 34.710938 C 18.75 34.710938 18.75 32.804688 16.667969 32.804688 C 14.582031 32.804688 14.582031 34.710938 12.5 34.710938 C 10.417969 34.710938 10.417969 32.804688 8.332031 32.804688 C 6.25 32.804688 6.25 34.710938 4.167969 34.710938 C 2.679688 34.710938 2.253906 33.738281 1.371094 33.183594 C 1.957031 34.878906 2.722656 36.492188 3.640625 37.996094 C 3.800781 38.027344 3.972656 38.042969 4.167969 38.042969 C 6.25 38.042969 6.25 36.140625 8.332031 36.140625 C 10.417969 36.140625 10.417969 38.042969 12.5 38.042969 C 14.582031 38.042969 14.582031 36.140625 16.667969 36.140625 C 18.75 36.140625 18.75 38.042969 20.832031 38.042969 C 22.917969 38.042969 22.917969 36.140625 25 36.140625 C 27.082031 36.140625 27.082031 38.042969 29.167969 38.042969 C 31.25 38.042969 31.25 36.140625 33.332031 36.140625 C 35.417969 36.140625 35.417969 38.042969 37.5 38.042969 C 39.582031 38.042969 39.582031 36.140625 41.667969 36.140625 C 43.75 36.140625 43.75 38.042969 45.832031 38.042969 C 46.023438 38.042969 46.199219 38.027344 46.359375 37.996094 C 47.277344 36.492188 48.042969 34.878906 48.628906 33.183594 C 47.746094 33.738281 47.320312 34.710938 45.832031 34.710938 C 43.75 34.710938 43.75 32.804688 41.667969 32.804688 Z M 41.667969 32.804688 "/>
<path style=" stroke:none;fill-rule:nonzero;fill:rgb(94.117647%,94.117647%,94.117647%);fill-opacity:1;" d="M 49.988281 24.214844 C 49.988281 24.285156 49.992188 24.351562 49.992188 24.421875 C 49.992188 24.355469 49.988281 24.285156 49.988281 24.214844 Z M 49.988281 24.214844 "/>
<path style=" stroke:none;fill-rule:nonzero;fill:rgb(94.117647%,94.117647%,94.117647%);fill-opacity:1;" d="M 0.0078125 24.421875 C 0.0078125 24.351562 0.0117188 24.285156 0.0117188 24.214844 C 0.0117188 24.285156 0.0078125 24.355469 0.0078125 24.421875 Z M 0.0078125 24.421875 "/>
<path style=" stroke:none;fill-rule:nonzero;fill:rgb(94.117647%,94.117647%,94.117647%);fill-opacity:1;" d="M 0 25 C 0 24.808594 0.00390625 24.613281 0.0078125 24.421875 C 0.00390625 24.613281 0 24.808594 0 25 Z M 0 25 "/>
<path style=" stroke:none;fill-rule:nonzero;fill:rgb(94.117647%,94.117647%,94.117647%);fill-opacity:1;" d="M 0 25 C 0 25.457031 0.0117188 25.90625 0.0390625 26.355469 C 2.082031 26.378906 2.097656 28.261719 4.167969 28.261719 C 6.25 28.261719 6.25 26.355469 8.332031 26.355469 C 10.417969 26.355469 10.417969 28.261719 12.5 28.261719 C 14.582031 28.261719 14.582031 26.355469 16.667969 26.355469 C 18.75 26.355469 18.75 28.261719 20.832031 28.261719 C 22.917969 28.261719 22.917969 26.355469 25 26.355469 C 27.082031 26.355469 27.082031 28.261719 29.167969 28.261719 C 31.25 28.261719 31.25 26.355469 33.332031 26.355469 C 35.417969 26.355469 35.417969 28.261719 37.5 28.261719 C 39.582031 28.261719 39.582031 26.355469 41.667969 26.355469 C 43.75 26.355469 43.75 28.261719 45.832031 28.261719 C 47.902344 28.261719 47.917969 26.378906 49.964844 26.355469 C 49.988281 25.90625 50 25.457031 50 25 Z M 0 25 "/>
<path style=" stroke:none;fill-rule:nonzero;fill:rgb(94.117647%,94.117647%,94.117647%);fill-opacity:1;" d="M 49.992188 24.421875 C 49.996094 24.613281 50 24.808594 50 25 C 50 24.808594 49.996094 24.613281 49.992188 24.421875 Z M 49.992188 24.421875 "/>
<path style=" stroke:none;fill-rule:nonzero;fill:rgb(0%,32.156863%,70.588235%);fill-opacity:1;" d="M 41.667969 39.328125 C 39.582031 39.328125 39.582031 41.230469 37.5 41.230469 C 35.417969 41.230469 35.417969 39.328125 33.332031 39.328125 C 31.25 39.328125 31.25 41.230469 29.167969 41.230469 C 27.082031 41.230469 27.082031 39.328125 25 39.328125 C 22.917969 39.328125 22.917969 41.230469 20.832031 41.230469 C 18.75 41.230469 18.75 39.328125 16.667969 39.328125 C 14.582031 39.328125 14.582031 41.230469 12.5 41.230469 C 10.417969 41.230469 10.417969 39.328125 8.332031 39.328125 C 6.894531 39.328125 6.449219 40.234375 5.625 40.796875 C 7.8125 43.476562 10.542969 45.691406 13.648438 47.277344 L 25 46.707031 L 36.351562 47.277344 C 39.457031 45.691406 42.1875 43.476562 44.375 40.796875 C 43.550781 40.234375 43.105469 39.328125 41.667969 39.328125 Z M 41.667969 39.328125 "/>
<path style=" stroke:none;fill-rule:nonzero;fill:rgb(100%,85.490196%,26.666667%);fill-opacity:1;" d="M 38.867188 39.921875 L 31.261719 41.378906 L 30.296875 33.695312 L 25 39.34375 L 19.703125 33.695312 L 18.738281 41.378906 L 11.132812 39.921875 L 14.863281 46.707031 L 13.644531 47.277344 C 17.054688 49.019531 20.910156 50 25 50 C 29.089844 50 32.945312 49.019531 36.355469 47.277344 L 35.136719 46.707031 Z M 38.867188 39.921875 "/>
</g>
</svg>
