<?xml version="1.0" encoding="UTF-8"?>
<svg xmlns="http://www.w3.org/2000/svg" xmlns:xlink="http://www.w3.org/1999/xlink" width="50px" height="50px" viewBox="0 0 50 50" version="1.1">
<g id="surface1">
<path style=" stroke:none;fill-rule:nonzero;fill:rgb(94.117647%,94.117647%,94.117647%);fill-opacity:1;" d="M 25 50 C 38.808594 50 50 38.808594 50 25 C 50 11.191406 38.808594 0 25 0 C 11.191406 0 0 11.191406 0 25 C 0 38.808594 11.191406 50 25 50 Z M 25 50 "/>
<path style=" stroke:none;fill-rule:nonzero;fill:rgb(0%,32.156863%,70.588235%);fill-opacity:1;" d="M 45.832031 27.992188 C 43.75 27.992188 43.75 26.085938 41.667969 26.085938 C 39.582031 26.085938 39.582031 27.992188 37.5 27.992188 C 35.417969 27.992188 35.417969 26.085938 33.332031 26.085938 C 31.25 26.085938 31.25 27.992188 29.167969 27.992188 C 27.082031 27.992188 27.082031 26.085938 25 26.085938 C 22.917969 26.085938 22.917969 27.992188 20.832031 27.992188 C 18.75 27.992188 18.75 26.085938 16.667969 26.085938 C 14.582031 26.085938 14.582031 27.992188 12.5 27.992188 C 10.417969 27.992188 10.417969 26.085938 8.332031 26.085938 C 6.25 26.085938 6.25 27.992188 4.167969 27.992188 C 2.09375 27.992188 2.082031 26.109375 0.03125 26.089844 C 0.0898438 27.230469 0.226562 28.355469 0.433594 29.453125 C 2.09375 29.695312 2.238281 31.324219 4.167969 31.324219 C 6.25 31.324219 6.25 29.421875 8.332031 29.421875 C 10.417969 29.421875 10.417969 31.324219 12.5 31.324219 C 14.582031 31.324219 14.582031 29.421875 16.667969 29.421875 C 18.75 29.421875 18.75 31.324219 20.832031 31.324219 C 22.917969 31.324219 22.917969 29.421875 25 29.421875 C 27.082031 29.421875 27.082031 31.324219 29.167969 31.324219 C 31.25 31.324219 31.25 29.421875 33.332031 29.421875 C 35.417969 29.421875 35.417969 31.324219 37.5 31.324219 C 39.582031 31.324219 39.582031 29.421875 41.667969 29.421875 C 43.75 29.421875 43.75 31.324219 45.832031 31.324219 C 47.761719 31.324219 47.90625 29.695312 49.566406 29.453125 C 49.773438 28.355469 49.910156 27.230469 49.96875 26.089844 C 47.917969 26.109375 47.90625 27.992188 45.832031 27.992188 Z M 45.832031 27.992188 "/>
<path style=" stroke:none;fill-rule:nonzero;fill:rgb(0%,32.156863%,70.588235%);fill-opacity:1;" d="M 41.667969 32.609375 C 39.582031 32.609375 39.582031 34.511719 37.5 34.511719 C 35.417969 34.511719 35.417969 32.609375 33.332031 32.609375 C 31.25 32.609375 31.25 34.511719 29.167969 34.511719 C 27.082031 34.511719 27.082031 32.609375 25 32.609375 C 22.917969 32.609375 22.917969 34.511719 20.832031 34.511719 C 18.75 34.511719 18.75 32.609375 16.667969 32.609375 C 14.582031 32.609375 14.582031 34.511719 12.5 34.511719 C 10.417969 34.511719 10.417969 32.609375 8.332031 32.609375 C 6.25 32.609375 6.25 34.511719 4.167969 34.511719 C 2.632812 34.511719 2.226562 33.480469 1.285156 32.9375 C 1.855469 34.636719 2.605469 36.257812 3.507812 37.773438 C 3.703125 37.820312 3.917969 37.847656 4.167969 37.847656 C 6.25 37.847656 6.25 35.941406 8.332031 35.941406 C 10.417969 35.941406 10.417969 37.847656 12.5 37.847656 C 14.582031 37.847656 14.582031 35.941406 16.667969 35.941406 C 18.75 35.941406 18.75 37.847656 20.832031 37.847656 C 22.917969 37.847656 22.917969 35.941406 25 35.941406 C 27.082031 35.941406 27.082031 37.847656 29.167969 37.847656 C 31.25 37.847656 31.25 35.941406 33.332031 35.941406 C 35.417969 35.941406 35.417969 37.847656 37.5 37.847656 C 39.582031 37.847656 39.582031 35.941406 41.667969 35.941406 C 43.75 35.941406 43.75 37.847656 45.832031 37.847656 C 46.082031 37.847656 46.296875 37.820312 46.492188 37.773438 C 47.394531 36.257812 48.144531 34.636719 48.710938 32.9375 C 47.773438 33.480469 47.367188 34.511719 45.832031 34.511719 C 43.75 34.511719 43.75 32.609375 41.667969 32.609375 Z M 41.667969 32.609375 "/>
<path style=" stroke:none;fill-rule:nonzero;fill:rgb(0%,32.156863%,70.588235%);fill-opacity:1;" d="M 49.417969 19.625 C 47.894531 19.9375 47.703125 21.46875 45.832031 21.46875 C 43.75 21.46875 43.75 19.566406 41.667969 19.566406 C 39.582031 19.566406 39.582031 21.46875 37.5 21.46875 C 35.417969 21.46875 35.417969 19.566406 33.332031 19.566406 C 31.25 19.566406 31.25 21.46875 29.167969 21.46875 C 27.082031 21.46875 27.082031 19.566406 25 19.566406 C 23.875 19.566406 23.355469 20.121094 22.789062 20.632812 L 22.789062 23.964844 C 23.355469 23.453125 23.875 22.898438 25 22.898438 C 27.082031 22.898438 27.082031 24.804688 29.167969 24.804688 C 31.25 24.804688 31.25 22.898438 33.332031 22.898438 C 35.417969 22.898438 35.417969 24.804688 37.5 24.804688 C 39.582031 24.804688 39.582031 22.898438 41.667969 22.898438 C 43.75 22.898438 43.75 24.804688 45.832031 24.804688 C 47.761719 24.804688 47.90625 23.175781 49.566406 22.929688 C 49.671875 22.929688 49.792969 22.929688 49.914062 22.929688 C 49.820312 21.804688 49.65625 20.699219 49.417969 19.625 Z M 49.417969 19.625 "/>
<path style=" stroke:none;fill-rule:nonzero;fill:rgb(0%,32.156863%,70.588235%);fill-opacity:1;" d="M 47.59375 14.285156 C 47.160156 14.648438 46.660156 14.949219 45.832031 14.949219 C 43.75 14.949219 43.75 13.042969 41.667969 13.042969 C 39.582031 13.042969 39.582031 14.949219 37.5 14.949219 C 35.417969 14.949219 35.417969 13.042969 33.332031 13.042969 C 31.25 13.042969 31.25 14.949219 29.167969 14.949219 C 27.082031 14.949219 27.082031 13.042969 25 13.042969 C 23.875 13.042969 23.355469 13.597656 22.789062 14.109375 L 22.789062 17.445312 C 23.355469 16.933594 23.875 16.375 25 16.375 C 27.082031 16.375 27.082031 18.28125 29.167969 18.28125 C 31.25 18.28125 31.25 16.375 33.332031 16.375 C 35.417969 16.375 35.417969 18.28125 37.5 18.28125 C 39.582031 18.28125 39.582031 16.375 41.667969 16.375 C 43.75 16.375 43.75 18.28125 45.832031 18.28125 C 47.3125 18.28125 47.742188 17.324219 48.609375 16.765625 C 48.316406 15.917969 47.976562 15.089844 47.59375 14.285156 Z M 47.59375 14.285156 "/>
<path style=" stroke:none;fill-rule:nonzero;fill:rgb(0%,32.156863%,70.588235%);fill-opacity:1;" d="M 41.84375 6.527344 C 41.785156 6.523438 41.726562 6.523438 41.667969 6.523438 C 39.582031 6.523438 39.582031 8.425781 37.5 8.425781 C 35.417969 8.425781 35.417969 6.523438 33.332031 6.523438 C 31.25 6.523438 31.25 8.425781 29.167969 8.425781 C 27.082031 8.425781 27.082031 6.523438 25 6.523438 C 23.875 6.523438 23.355469 7.078125 22.789062 7.589844 L 22.789062 10.921875 C 23.355469 10.410156 23.875 9.855469 25 9.855469 C 27.082031 9.855469 27.082031 11.761719 29.167969 11.761719 C 31.25 11.761719 31.25 9.855469 33.332031 9.855469 C 35.417969 9.855469 35.417969 11.761719 37.5 11.761719 C 39.582031 11.761719 39.582031 9.855469 41.667969 9.855469 C 43.75 9.855469 43.75 11.761719 45.832031 11.761719 C 45.960938 11.761719 46.082031 11.753906 46.195312 11.738281 C 44.984375 9.808594 43.519531 8.054688 41.84375 6.527344 Z M 41.84375 6.527344 "/>
<path style=" stroke:none;fill-rule:nonzero;fill:rgb(0%,32.156863%,70.588235%);fill-opacity:1;" d="M 31.390625 0.824219 C 30.816406 1.339844 30.300781 1.90625 29.167969 1.90625 C 27.082031 1.90625 27.082031 0 25 0 C 23.921875 0 23.402344 0.507812 22.863281 1 L 22.863281 4.335938 C 23.402344 3.84375 23.921875 3.332031 25 3.332031 C 27.082031 3.332031 27.082031 5.238281 29.167969 5.238281 C 31.25 5.238281 31.25 3.332031 33.332031 3.332031 C 35.417969 3.332031 35.417969 5.238281 37.5 5.238281 C 38.375 5.238281 38.882812 4.902344 39.328125 4.511719 C 36.953125 2.847656 34.273438 1.585938 31.390625 0.824219 Z M 31.390625 0.824219 "/>
<path style=" stroke:none;fill-rule:nonzero;fill:rgb(0%,32.156863%,70.588235%);fill-opacity:1;" d="M 29.167969 47.558594 C 27.082031 47.558594 27.082031 45.652344 25 45.652344 C 22.917969 45.652344 22.917969 47.558594 20.832031 47.558594 C 18.75 47.558594 18.75 45.652344 16.667969 45.652344 C 15.070312 45.652344 14.695312 46.769531 13.671875 47.292969 C 16.496094 48.730469 19.625 49.644531 22.941406 49.914062 C 23.453125 49.445312 23.976562 48.984375 25 48.984375 C 26.023438 48.984375 26.546875 49.445312 27.058594 49.914062 C 30.371094 49.644531 33.503906 48.730469 36.328125 47.292969 C 35.304688 46.769531 34.929688 45.652344 33.332031 45.652344 C 31.25 45.652344 31.25 47.558594 29.167969 47.558594 Z M 29.167969 47.558594 "/>
<path style=" stroke:none;fill-rule:nonzero;fill:rgb(0%,32.156863%,70.588235%);fill-opacity:1;" d="M 37.5 41.035156 C 35.417969 41.035156 35.417969 39.128906 33.332031 39.128906 C 31.25 39.128906 31.25 41.035156 29.167969 41.035156 C 27.082031 41.035156 27.082031 39.128906 25 39.128906 C 22.917969 39.128906 22.917969 41.035156 20.832031 41.035156 C 18.75 41.035156 18.75 39.128906 16.667969 39.128906 C 14.582031 39.128906 14.582031 41.035156 12.5 41.035156 C 10.417969 41.035156 10.417969 39.128906 8.332031 39.128906 C 6.835938 39.128906 6.414062 40.117188 5.519531 40.667969 C 6.082031 41.363281 6.675781 42.03125 7.304688 42.660156 C 7.585938 42.539062 7.917969 42.464844 8.332031 42.464844 C 10.417969 42.464844 10.417969 44.367188 12.5 44.367188 C 14.582031 44.367188 14.582031 42.464844 16.667969 42.464844 C 18.75 42.464844 18.75 44.367188 20.832031 44.367188 C 22.917969 44.367188 22.917969 42.464844 25 42.464844 C 27.082031 42.464844 27.082031 44.367188 29.167969 44.367188 C 31.25 44.367188 31.25 42.464844 33.332031 42.464844 C 35.417969 42.464844 35.417969 44.367188 37.5 44.367188 C 39.582031 44.367188 39.582031 42.464844 41.667969 42.464844 C 42.082031 42.464844 42.410156 42.539062 42.695312 42.660156 C 43.324219 42.03125 43.917969 41.363281 44.480469 40.667969 C 43.585938 40.117188 43.164062 39.128906 41.667969 39.128906 C 39.582031 39.128906 39.582031 41.035156 37.5 41.035156 Z M 37.5 41.035156 "/>
<path style=" stroke:none;fill-rule:nonzero;fill:rgb(94.117647%,94.117647%,94.117647%);fill-opacity:1;" d="M 24.933594 25 L 25 25 C 25 24.976562 25 24.957031 25 24.933594 C 24.976562 24.957031 24.957031 24.976562 24.933594 25 Z M 24.933594 25 "/>
<path style=" stroke:none;fill-rule:nonzero;fill:rgb(0%,32.156863%,70.588235%);fill-opacity:1;" d="M 25 13.042969 L 25 20.386719 L 16.304688 11.957031 Z M 25 13.042969 "/>
<path style=" stroke:none;fill-rule:nonzero;fill:rgb(0%,32.156863%,70.588235%);fill-opacity:1;" d="M 13.042969 25 L 20.386719 25 L 13.042969 15.21875 L 11.957031 22.824219 Z M 13.042969 25 "/>
<path style=" stroke:none;fill-rule:nonzero;fill:rgb(94.117647%,94.117647%,94.117647%);fill-opacity:1;" d="M 25 13.042969 C 25 8.644531 25 5.761719 25 0 L 24.996094 0 C 11.191406 0.00390625 0 11.195312 0 25 L 13.042969 25 L 13.042969 17.65625 L 20.386719 25 L 24.933594 25 C 24.957031 24.976562 24.976562 24.957031 25 24.933594 C 25 23.25 25 21.746094 25 20.386719 L 17.65625 13.042969 Z M 25 13.042969 "/>
<path style=" stroke:none;fill-rule:nonzero;fill:rgb(84.705882%,0%,15.294118%);fill-opacity:1;" d="M 12.648438 3.261719 C 8.738281 5.488281 5.488281 8.738281 3.261719 12.648438 L 3.261719 25 L 9.78125 25 L 9.78125 9.78125 L 25 9.78125 C 25 7.726562 25 5.765625 25 3.261719 Z M 12.648438 3.261719 "/>
<path style=" stroke:none;fill-rule:nonzero;fill:rgb(84.705882%,0%,15.294118%);fill-opacity:1;" d="M 25 21.925781 L 16.117188 13.042969 L 13.042969 13.042969 L 25 25 C 25 25 25 22.878906 25 21.925781 Z M 25 21.925781 "/>
<path style=" stroke:none;fill-rule:nonzero;fill:rgb(42.745098%,64.705882%,26.666667%);fill-opacity:1;" d="M 32.609375 13.042969 L 42.390625 13.042969 L 37.5 17.933594 Z M 32.609375 13.042969 "/>
<path style=" stroke:none;fill-rule:nonzero;fill:rgb(63.529412%,0%,11.372549%);fill-opacity:1;" d="M 36.414062 16.847656 L 38.585938 16.847656 L 38.585938 22.824219 L 36.414062 22.824219 Z M 36.414062 16.847656 "/>
<path style=" stroke:none;fill-rule:nonzero;fill:rgb(63.529412%,0%,11.372549%);fill-opacity:1;" d="M 36.414062 32.609375 L 38.585938 32.609375 L 38.585938 38.585938 L 36.414062 38.585938 Z M 36.414062 32.609375 "/>
<path style=" stroke:none;fill-rule:nonzero;fill:rgb(100%,85.490196%,26.666667%);fill-opacity:1;" d="M 44.023438 29.347656 C 44.023438 27.546875 42.5625 26.085938 40.761719 26.085938 C 39.925781 26.085938 39.164062 26.402344 38.585938 26.917969 L 38.585938 25 L 39.675781 25 L 39.675781 22.824219 L 38.585938 22.824219 L 38.585938 21.738281 L 36.414062 21.738281 L 36.414062 22.824219 L 35.328125 22.824219 L 35.328125 25 L 36.414062 25 L 36.414062 26.917969 C 35.835938 26.402344 35.074219 26.085938 34.238281 26.085938 C 32.4375 26.085938 30.976562 27.546875 30.976562 29.347656 C 30.976562 30.3125 31.398438 31.179688 32.066406 31.777344 L 32.066406 33.695312 L 42.933594 33.695312 L 42.933594 31.777344 C 43.601562 31.179688 44.023438 30.3125 44.023438 29.347656 Z M 44.023438 29.347656 "/>
<path style=" stroke:none;fill-rule:nonzero;fill:rgb(84.705882%,0%,15.294118%);fill-opacity:1;" d="M 40.761719 28.261719 C 40.417969 28.261719 40.179688 28.410156 40.035156 28.539062 L 38.585938 29.835938 L 36.414062 29.835938 L 34.964844 28.539062 C 34.820312 28.410156 34.582031 28.261719 34.238281 28.261719 C 33.640625 28.261719 33.152344 28.75 33.152344 29.347656 C 33.152344 29.769531 33.378906 30.035156 33.515625 30.15625 L 34.238281 30.804688 L 34.238281 31.523438 L 40.761719 31.523438 L 40.761719 30.804688 L 41.484375 30.15625 C 41.621094 30.035156 41.847656 29.769531 41.847656 29.347656 C 41.847656 28.75 41.359375 28.261719 40.761719 28.261719 Z M 40.761719 28.261719 "/>
</g>
</svg>
