<?xml version="1.0" encoding="UTF-8"?>
<svg xmlns="http://www.w3.org/2000/svg" xmlns:xlink="http://www.w3.org/1999/xlink" width="50px" height="50px" viewBox="0 0 50 50" version="1.1">
<g id="surface1">
<path style=" stroke:none;fill-rule:nonzero;fill:rgb(0%,32.156863%,70.588235%);fill-opacity:1;" d="M 50 25 C 50 38.808594 38.808594 50 25 50 C 11.191406 50 0 38.808594 0 25 C 0 25.007812 25 0.00390625 25 0 C 38.808594 0 50 11.191406 50 25 Z M 50 25 "/>
<path style=" stroke:none;fill-rule:nonzero;fill:rgb(94.117647%,94.117647%,94.117647%);fill-opacity:1;" d="M 24.933594 25 L 25 25 C 25 24.976562 25 24.957031 25 24.933594 C 24.976562 24.957031 24.957031 24.976562 24.933594 25 Z M 24.933594 25 "/>
<path style=" stroke:none;fill-rule:nonzero;fill:rgb(94.117647%,94.117647%,94.117647%);fill-opacity:1;" d="M 25 13.042969 C 25 8.644531 25 5.761719 25 0 L 24.996094 0 C 11.191406 0.00390625 0 11.195312 0 25 L 13.042969 25 L 13.042969 17.65625 L 20.386719 25 L 24.933594 25 C 24.957031 24.976562 24.976562 24.957031 25 24.933594 C 25 23.25 25 21.746094 25 20.386719 L 17.65625 13.042969 Z M 25 13.042969 "/>
<path style=" stroke:none;fill-rule:nonzero;fill:rgb(84.705882%,0%,15.294118%);fill-opacity:1;" d="M 12.648438 3.261719 C 8.738281 5.488281 5.488281 8.738281 3.261719 12.648438 L 3.261719 25 L 9.78125 25 L 9.78125 9.78125 L 25 9.78125 C 25 7.726562 25 5.765625 25 3.261719 Z M 12.648438 3.261719 "/>
<path style=" stroke:none;fill-rule:nonzero;fill:rgb(100%,85.490196%,26.666667%);fill-opacity:1;" d="M 35.871094 25 L 29.113281 31.757812 C 30.378906 34.199219 32.929688 35.871094 35.871094 35.871094 C 38.8125 35.871094 41.359375 34.199219 42.625 31.757812 Z M 35.871094 25 "/>
<path style=" stroke:none;fill-rule:nonzero;fill:rgb(84.705882%,0%,15.294118%);fill-opacity:1;" d="M 25 21.925781 L 16.117188 13.042969 L 13.042969 13.042969 L 25 25 C 25 25 25 22.878906 25 21.925781 Z M 25 21.925781 "/>
<path style=" stroke:none;fill-rule:nonzero;fill:rgb(42.745098%,64.705882%,26.666667%);fill-opacity:1;" d="M 28.261719 13.042969 L 28.261719 25 C 28.261719 30.824219 35.871094 32.609375 35.871094 32.609375 C 35.871094 32.609375 43.476562 30.824219 43.476562 25 L 43.476562 13.042969 Z M 28.261719 13.042969 "/>
<path style=" stroke:none;fill-rule:nonzero;fill:rgb(94.117647%,94.117647%,94.117647%);fill-opacity:1;" d="M 34.238281 18.476562 L 37.5 18.476562 L 37.5 27.171875 L 34.238281 27.171875 Z M 34.238281 18.476562 "/>
<path style=" stroke:none;fill-rule:nonzero;fill:rgb(63.529412%,0%,11.372549%);fill-opacity:1;" d="M 35.871094 20.109375 C 36.769531 20.109375 37.5 19.378906 37.5 18.476562 C 37.5 17.578125 36.769531 16.847656 35.871094 16.847656 C 34.96875 16.847656 34.238281 17.578125 34.238281 18.476562 C 34.238281 19.378906 34.96875 20.109375 35.871094 20.109375 Z M 35.871094 20.109375 "/>
<path style=" stroke:none;fill-rule:nonzero;fill:rgb(100%,85.490196%,26.666667%);fill-opacity:1;" d="M 30.433594 15.21875 L 32.609375 15.21875 L 32.609375 17.390625 L 30.433594 17.390625 Z M 30.433594 15.21875 "/>
<path style=" stroke:none;fill-rule:nonzero;fill:rgb(100%,85.490196%,26.666667%);fill-opacity:1;" d="M 30.433594 20.109375 L 32.609375 20.109375 L 32.609375 22.28125 L 30.433594 22.28125 Z M 30.433594 20.109375 "/>
<path style=" stroke:none;fill-rule:nonzero;fill:rgb(100%,85.490196%,26.666667%);fill-opacity:1;" d="M 30.433594 25 L 32.609375 25 L 32.609375 27.175781 L 30.433594 27.175781 Z M 30.433594 25 "/>
<path style=" stroke:none;fill-rule:nonzero;fill:rgb(100%,85.490196%,26.666667%);fill-opacity:1;" d="M 39.128906 15.21875 L 41.304688 15.21875 L 41.304688 17.390625 L 39.128906 17.390625 Z M 39.128906 15.21875 "/>
<path style=" stroke:none;fill-rule:nonzero;fill:rgb(100%,85.490196%,26.666667%);fill-opacity:1;" d="M 39.128906 20.109375 L 41.304688 20.109375 L 41.304688 22.28125 L 39.128906 22.28125 Z M 39.128906 20.109375 "/>
<path style=" stroke:none;fill-rule:nonzero;fill:rgb(100%,85.490196%,26.666667%);fill-opacity:1;" d="M 39.128906 25 L 41.304688 25 L 41.304688 27.175781 L 39.128906 27.175781 Z M 39.128906 25 "/>
</g>
</svg>
