<?xml version="1.0" encoding="UTF-8"?>
<svg xmlns="http://www.w3.org/2000/svg" xmlns:xlink="http://www.w3.org/1999/xlink" width="50px" height="50px" viewBox="0 0 50 50" version="1.1">
<g id="surface1">
<path style=" stroke:none;fill-rule:nonzero;fill:rgb(94.117647%,94.117647%,94.117647%);fill-opacity:1;" d="M 25 49.996094 C 38.804688 49.996094 49.996094 38.804688 49.996094 25 C 49.996094 11.195312 38.804688 0.00390625 25 0.00390625 C 11.195312 0.00390625 0.00390625 11.195312 0.00390625 25 C 0.00390625 38.804688 11.195312 49.996094 25 49.996094 Z M 25 49.996094 "/>
<path style=" stroke:none;fill-rule:nonzero;fill:rgb(0%,0%,0%);fill-opacity:1;" d="M 3.351562 12.5 C 2.222656 14.457031 1.390625 16.5 0.835938 18.578125 L 42.640625 42.714844 C 44.164062 41.195312 45.519531 39.449219 46.644531 37.496094 Z M 3.351562 12.5 "/>
<path style=" stroke:none;fill-rule:nonzero;fill:rgb(100%,85.490196%,26.666667%);fill-opacity:1;" d="M 37.496094 3.351562 C 27.496094 -2.421875 15.164062 -0.496094 7.359375 7.285156 L 49.160156 31.417969 C 52 20.769531 47.5 9.125 37.496094 3.351562 Z M 37.496094 3.351562 "/>
<path style=" stroke:none;fill-rule:nonzero;fill:rgb(100%,85.490196%,26.666667%);fill-opacity:1;" d="M 12.5 46.648438 C 22.503906 52.421875 34.835938 50.496094 42.640625 42.714844 L 0.839844 18.578125 C -2 29.230469 2.5 40.871094 12.5 46.648438 Z M 12.5 46.648438 "/>
<path style=" stroke:none;fill-rule:nonzero;fill:rgb(84.705882%,0%,15.294118%);fill-opacity:1;" d="M 32.0625 22.28125 C 32.0625 26.183594 28.902344 29.347656 25 29.347656 C 21.097656 29.347656 17.933594 26.183594 17.933594 22.28125 C 17.933594 21.066406 18.242188 19.921875 18.785156 18.921875 C 17.25 20.488281 16.304688 22.632812 16.304688 25 C 16.304688 29.800781 20.199219 33.695312 25 33.695312 C 29.800781 33.695312 33.695312 29.800781 33.695312 25 C 33.695312 22.632812 32.746094 20.488281 31.214844 18.921875 C 31.757812 19.921875 32.0625 21.066406 32.0625 22.28125 Z M 32.0625 22.28125 "/>
<path style=" stroke:none;fill-rule:nonzero;fill:rgb(84.705882%,0%,15.294118%);fill-opacity:1;" d="M 23.371094 14.132812 L 26.628906 14.132812 L 26.628906 30.433594 L 23.371094 30.433594 Z M 23.371094 14.132812 "/>
<path style=" stroke:none;fill-rule:nonzero;fill:rgb(84.705882%,0%,15.294118%);fill-opacity:1;" d="M 30.433594 17.390625 L 19.566406 17.390625 C 19.566406 18.140625 20.21875 18.75 20.96875 18.75 L 20.925781 18.75 C 20.925781 19.5 21.53125 20.109375 22.28125 20.109375 C 22.28125 20.859375 22.890625 21.46875 23.640625 21.46875 L 26.359375 21.46875 C 27.109375 21.46875 27.714844 20.859375 27.714844 20.109375 C 28.46875 20.109375 29.074219 19.5 29.074219 18.75 L 29.03125 18.75 C 29.78125 18.75 30.433594 18.140625 30.433594 17.390625 Z M 30.433594 17.390625 "/>
<path style=" stroke:none;fill-rule:nonzero;fill:rgb(84.705882%,0%,15.294118%);fill-opacity:1;" d="M 17.390625 31.519531 L 32.605469 31.519531 L 32.605469 34.78125 L 17.390625 34.78125 Z M 17.390625 31.519531 "/>
<path style=" stroke:none;fill-rule:nonzero;fill:rgb(84.705882%,0%,15.294118%);fill-opacity:1;" d="M 28.261719 32.605469 L 34.78125 32.605469 L 34.78125 35.867188 L 28.261719 35.867188 Z M 28.261719 32.605469 "/>
<path style=" stroke:none;fill-rule:nonzero;fill:rgb(84.705882%,0%,15.294118%);fill-opacity:1;" d="M 15.21875 32.605469 L 21.738281 32.605469 L 21.738281 35.867188 L 15.21875 35.867188 Z M 15.21875 32.605469 "/>
</g>
</svg>
