<?xml version="1.0" encoding="UTF-8"?>
<svg xmlns="http://www.w3.org/2000/svg" xmlns:xlink="http://www.w3.org/1999/xlink" width="50px" height="50px" viewBox="0 0 50 49" version="1.1">
<defs>
<clipPath id="clip1">
  <path d="M 0.0976562 14 L 50 14 L 50 35 L 0.0976562 35 Z M 0.0976562 14 "/>
</clipPath>
</defs>
<g id="surface1">
<g clip-path="url(#clip1)" clip-rule="nonzero">
<path style=" stroke:none;fill-rule:nonzero;fill:rgb(28.627451%,43.137255%,17.647059%);fill-opacity:1;" d="M 50 24.5 C 50 21.503906 49.449219 18.632812 48.445312 15.976562 L 25.046875 14.914062 L 1.648438 15.976562 C 0.644531 18.632812 0.0976562 21.503906 0.0976562 24.5 C 0.0976562 27.496094 0.644531 30.367188 1.648438 33.023438 L 25.046875 34.085938 L 48.445312 33.023438 C 49.449219 30.367188 50 27.496094 50 24.5 Z M 50 24.5 "/>
</g>
<path style=" stroke:none;fill-rule:nonzero;fill:rgb(84.705882%,0%,15.294118%);fill-opacity:1;" d="M 25.046875 49 C 35.777344 49 44.921875 42.351562 48.445312 33.023438 L 1.648438 33.023438 C 5.171875 42.351562 14.320312 49 25.046875 49 Z M 25.046875 49 "/>
<path style=" stroke:none;fill-rule:nonzero;fill:rgb(94.117647%,94.117647%,94.117647%);fill-opacity:1;" d="M 1.648438 15.976562 L 48.445312 15.976562 C 44.921875 6.648438 35.777344 0 25.046875 0 C 14.320312 0 5.171875 6.648438 1.648438 15.976562 Z M 1.648438 15.976562 "/>
</g>
</svg>
