<?xml version="1.0" encoding="UTF-8"?>
<svg xmlns="http://www.w3.org/2000/svg" xmlns:xlink="http://www.w3.org/1999/xlink" width="50px" height="50px" viewBox="0 0 50 49" version="1.1">
<defs>
<clipPath id="clip1">
  <path d="M 0.0976562 0 L 50 0 L 50 28 L 0.0976562 28 Z M 0.0976562 0 "/>
</clipPath>
<clipPath id="clip2">
  <path d="M 0.0976562 24 L 50 24 L 50 49 L 0.0976562 49 Z M 0.0976562 24 "/>
</clipPath>
</defs>
<g id="surface1">
<g clip-path="url(#clip1)" clip-rule="nonzero">
<path style=" stroke:none;fill-rule:nonzero;fill:rgb(84.705882%,0%,15.294118%);fill-opacity:1;" d="M 0.0976562 24.5 C 0.0976562 10.96875 11.265625 0 25.046875 0 C 38.828125 0 50 10.96875 50 24.5 C 48.914062 24.5 25.046875 27.695312 25.046875 27.695312 Z M 0.0976562 24.5 "/>
</g>
<g clip-path="url(#clip2)" clip-rule="nonzero">
<path style=" stroke:none;fill-rule:nonzero;fill:rgb(42.745098%,64.705882%,26.666667%);fill-opacity:1;" d="M 50 24.5 C 50 38.03125 38.828125 49 25.046875 49 C 11.265625 49 0.0976562 38.03125 0.0976562 24.5 "/>
</g>
<path style=" stroke:none;fill-rule:nonzero;fill:rgb(100%,85.490196%,26.666667%);fill-opacity:1;" d="M 25.046875 15.976562 L 26.933594 21.675781 L 33.03125 21.675781 L 28.097656 25.195312 L 29.980469 30.890625 L 25.046875 27.371094 L 20.113281 30.890625 L 21.996094 25.195312 L 17.0625 21.675781 L 23.164062 21.675781 Z M 25.046875 15.976562 "/>
</g>
</svg>
