<?xml version="1.0" encoding="UTF-8"?>
<svg xmlns="http://www.w3.org/2000/svg" xmlns:xlink="http://www.w3.org/1999/xlink" width="50px" height="50px" viewBox="0 0 50 50" version="1.1">
<g id="surface1">
<path style=" stroke:none;fill-rule:nonzero;fill:rgb(94.117647%,94.117647%,94.117647%);fill-opacity:1;" d="M 25 50 C 38.808594 50 50 38.808594 50 25 C 50 11.191406 38.808594 0 25 0 C 11.191406 0 0 11.191406 0 25 C 0 38.808594 11.191406 50 25 50 Z M 25 50 "/>
<path style=" stroke:none;fill-rule:nonzero;fill:rgb(84.705882%,0%,15.294118%);fill-opacity:1;" d="M 40.222656 5.167969 C 31.273438 -1.722656 18.726562 -1.722656 9.777344 5.167969 L 25 20.386719 Z M 40.222656 5.167969 "/>
<path style=" stroke:none;fill-rule:nonzero;fill:rgb(84.705882%,0%,15.294118%);fill-opacity:1;" d="M 25 29.613281 L 9.777344 44.832031 C 18.726562 51.722656 31.273438 51.722656 40.222656 44.832031 Z M 25 29.613281 "/>
<path style=" stroke:none;fill-rule:nonzero;fill:rgb(42.745098%,64.705882%,26.666667%);fill-opacity:1;" d="M 20.386719 25 L 5.167969 9.777344 C -1.722656 18.726562 -1.722656 31.273438 5.167969 40.222656 Z M 20.386719 25 "/>
<path style=" stroke:none;fill-rule:nonzero;fill:rgb(42.745098%,64.705882%,26.666667%);fill-opacity:1;" d="M 29.613281 25 L 44.832031 40.222656 C 51.722656 31.273438 51.722656 18.726562 44.832031 9.777344 Z M 29.613281 25 "/>
<path style=" stroke:none;fill-rule:nonzero;fill:rgb(94.117647%,94.117647%,94.117647%);fill-opacity:1;" d="M 25 35.871094 C 31.003906 35.871094 35.871094 31.003906 35.871094 25 C 35.871094 18.996094 31.003906 14.128906 25 14.128906 C 18.996094 14.128906 14.128906 18.996094 14.128906 25 C 14.128906 31.003906 18.996094 35.871094 25 35.871094 Z M 25 35.871094 "/>
<path style=" stroke:none;fill-rule:nonzero;fill:rgb(84.705882%,0%,15.294118%);fill-opacity:1;" d="M 25 17.390625 L 25.941406 19.023438 L 27.824219 19.023438 L 26.882812 20.652344 L 27.824219 22.28125 L 25.941406 22.28125 L 25 23.914062 L 24.058594 22.28125 L 22.175781 22.28125 L 23.117188 20.652344 L 22.175781 19.023438 L 24.058594 19.023438 Z M 25 17.390625 "/>
<path style=" stroke:none;fill-rule:nonzero;fill:rgb(84.705882%,0%,15.294118%);fill-opacity:1;" d="M 20.214844 25 L 21.15625 26.628906 L 23.039062 26.628906 L 22.097656 28.261719 L 23.039062 29.890625 L 21.15625 29.890625 L 20.214844 31.523438 L 19.273438 29.890625 L 17.390625 29.890625 L 18.332031 28.261719 L 17.390625 26.628906 L 19.273438 26.628906 Z M 20.214844 25 "/>
<path style=" stroke:none;fill-rule:nonzero;fill:rgb(84.705882%,0%,15.294118%);fill-opacity:1;" d="M 29.785156 25 L 30.726562 26.628906 L 32.609375 26.628906 L 31.667969 28.261719 L 32.609375 29.890625 L 30.726562 29.890625 L 29.785156 31.523438 L 28.84375 29.890625 L 26.960938 29.890625 L 27.902344 28.261719 L 26.960938 26.628906 L 28.84375 26.628906 Z M 29.785156 25 "/>
</g>
</svg>
