<?xml version="1.0" encoding="UTF-8"?>
<svg xmlns="http://www.w3.org/2000/svg" xmlns:xlink="http://www.w3.org/1999/xlink" width="50px" height="50px" viewBox="0 0 50 50" version="1.1">
<g id="surface1">
<path style=" stroke:none;fill-rule:nonzero;fill:rgb(84.705882%,0%,15.294118%);fill-opacity:1;" d="M 0 25 C 0 29.332031 1.101562 33.40625 3.039062 36.957031 L 25 39.128906 L 46.960938 36.957031 C 48.898438 33.40625 50 29.332031 50 25 C 50 20.667969 48.898438 16.59375 46.960938 13.042969 L 25 10.871094 L 3.039062 13.042969 C 1.101562 16.59375 0 20.667969 0 25 Z M 0 25 "/>
<path style=" stroke:none;fill-rule:nonzero;fill:rgb(0%,32.156863%,70.588235%);fill-opacity:1;" d="M 3.039062 13.042969 L 46.960938 13.042969 C 42.71875 5.273438 34.476562 0 25 0 C 15.523438 0 7.28125 5.273438 3.039062 13.042969 Z M 3.039062 13.042969 "/>
<path style=" stroke:none;fill-rule:nonzero;fill:rgb(0%,32.156863%,70.588235%);fill-opacity:1;" d="M 25 50 C 34.476562 50 42.71875 44.726562 46.960938 36.957031 L 3.039062 36.957031 C 7.28125 44.726562 15.523438 50 25 50 Z M 25 50 "/>
<path style=" stroke:none;fill-rule:nonzero;fill:rgb(94.117647%,94.117647%,94.117647%);fill-opacity:1;" d="M 33.695312 29.890625 L 33.695312 26.628906 L 31.523438 26.628906 L 31.523438 22.28125 L 29.347656 20.109375 L 27.175781 22.28125 L 27.175781 17.933594 L 25 15.761719 L 22.824219 17.933594 L 22.824219 22.28125 L 20.652344 20.109375 L 18.476562 22.28125 L 18.476562 26.628906 L 16.304688 26.628906 L 16.304688 29.890625 L 14.128906 29.890625 L 14.128906 33.152344 L 35.871094 33.152344 L 35.871094 29.890625 Z M 33.695312 29.890625 "/>
</g>
</svg>
