<?xml version="1.0" encoding="UTF-8"?>
<svg xmlns="http://www.w3.org/2000/svg" xmlns:xlink="http://www.w3.org/1999/xlink" width="50px" height="50px" viewBox="0 0 50 50" version="1.1">
<g id="surface1">
<path style=" stroke:none;fill-rule:nonzero;fill:rgb(94.117647%,94.117647%,94.117647%);fill-opacity:1;" d="M 25 50 C 38.808594 50 50 38.808594 50 25 C 50 11.191406 38.808594 0 25 0 C 11.191406 0 0 11.191406 0 25 C 0 38.808594 11.191406 50 25 50 Z M 25 50 "/>
<path style=" stroke:none;fill-rule:nonzero;fill:rgb(84.705882%,0%,15.294118%);fill-opacity:1;" d="M 50 25 C 50 15.089844 44.230469 6.523438 35.871094 2.480469 L 35.871094 47.519531 C 44.230469 43.476562 50 34.910156 50 25 Z M 50 25 "/>
<path style=" stroke:none;fill-rule:nonzero;fill:rgb(84.705882%,0%,15.294118%);fill-opacity:1;" d="M 0 25 C 0 34.910156 5.769531 43.476562 14.128906 47.519531 L 14.128906 2.480469 C 5.769531 6.523438 0 15.089844 0 25 Z M 0 25 "/>
<path style=" stroke:none;fill-rule:nonzero;fill:rgb(84.705882%,0%,15.294118%);fill-opacity:1;" d="M 29.347656 28.261719 L 33.695312 26.085938 L 31.523438 25 L 31.523438 22.824219 L 27.175781 25 L 29.347656 20.652344 L 27.175781 20.652344 L 25 17.390625 L 22.824219 20.652344 L 20.652344 20.652344 L 22.824219 25 L 18.476562 22.824219 L 18.476562 25 L 16.304688 26.085938 L 20.652344 28.261719 L 19.566406 30.433594 L 23.914062 30.433594 L 23.914062 33.695312 L 26.085938 33.695312 L 26.085938 30.433594 L 30.433594 30.433594 Z M 29.347656 28.261719 "/>
</g>
</svg>
