<?xml version="1.0" encoding="UTF-8"?>
<svg xmlns="http://www.w3.org/2000/svg" xmlns:xlink="http://www.w3.org/1999/xlink" width="50px" height="50px" viewBox="0 0 50 50" version="1.1">
<g id="surface1">
<path style=" stroke:none;fill-rule:nonzero;fill:rgb(94.117647%,94.117647%,94.117647%);fill-opacity:1;" d="M 25 50 C 38.808594 50 50 38.808594 50 25 C 50 11.191406 38.808594 0 25 0 C 11.191406 0 0 11.191406 0 25 C 0 38.808594 11.191406 50 25 50 Z M 25 50 "/>
<path style=" stroke:none;fill-rule:nonzero;fill:rgb(0%,32.156863%,70.588235%);fill-opacity:1;" d="M 25 50 C 32.578125 50 39.367188 46.628906 43.953125 41.304688 L 6.046875 41.304688 C 10.632812 46.628906 17.421875 50 25 50 Z M 25 50 "/>
<path style=" stroke:none;fill-rule:nonzero;fill:rgb(0%,32.156863%,70.588235%);fill-opacity:1;" d="M 50 25 C 50 11.191406 38.808594 0 25 0 C 11.191406 0 0 11.191406 0 25 C 0 27.257812 0.300781 29.441406 0.859375 31.523438 L 49.140625 31.523438 C 49.699219 29.441406 50 27.257812 50 25 Z M 50 25 "/>
<path style=" stroke:none;fill-rule:nonzero;fill:rgb(84.705882%,0%,15.294118%);fill-opacity:1;" d="M 1.988281 34.78125 C 2.46875 35.914062 3.03125 37.003906 3.667969 38.042969 L 46.332031 38.042969 C 46.96875 37.003906 47.53125 35.914062 48.011719 34.78125 Z M 1.988281 34.78125 "/>
<path style=" stroke:none;fill-rule:nonzero;fill:rgb(100%,85.490196%,26.666667%);fill-opacity:1;" d="M 17.871094 26.628906 L 18.273438 27.875 L 19.585938 27.875 L 18.523438 28.644531 L 18.929688 29.890625 L 17.871094 29.121094 L 16.8125 29.890625 L 17.214844 28.644531 L 16.15625 27.875 L 17.464844 27.875 Z M 17.871094 26.628906 "/>
<path style=" stroke:none;fill-rule:nonzero;fill:rgb(100%,85.490196%,26.666667%);fill-opacity:1;" d="M 17.871094 42.933594 L 18.273438 44.179688 L 19.585938 44.179688 L 18.523438 44.949219 L 18.929688 46.195312 L 17.871094 45.425781 L 16.8125 46.195312 L 17.214844 44.949219 L 16.15625 44.179688 L 17.464844 44.179688 Z M 17.871094 42.933594 "/>
<path style=" stroke:none;fill-rule:nonzero;fill:rgb(100%,85.490196%,26.666667%);fill-opacity:1;" d="M 10.28125 37.421875 L 10.683594 38.667969 L 11.996094 38.667969 L 10.9375 39.4375 L 11.339844 40.679688 L 10.28125 39.910156 L 9.222656 40.679688 L 9.625 39.4375 L 8.566406 38.667969 L 9.875 38.667969 Z M 10.28125 37.421875 "/>
<path style=" stroke:none;fill-rule:nonzero;fill:rgb(100%,85.490196%,26.666667%);fill-opacity:1;" d="M 13.179688 28.261719 L 13.585938 29.507812 L 14.894531 29.507812 L 13.835938 30.277344 L 14.238281 31.523438 L 13.179688 30.75 L 12.121094 31.523438 L 12.523438 30.277344 L 11.464844 29.507812 L 12.773438 29.507812 Z M 13.179688 28.261719 "/>
<path style=" stroke:none;fill-rule:nonzero;fill:rgb(100%,85.490196%,26.666667%);fill-opacity:1;" d="M 8.566406 33.390625 L 9.875 33.390625 L 10.28125 32.144531 L 10.683594 33.390625 L 11.996094 33.390625 L 10.933594 34.160156 L 11.339844 35.40625 L 10.28125 34.636719 L 9.222656 35.40625 L 9.625 34.160156 Z M 8.566406 33.390625 "/>
<path style=" stroke:none;fill-rule:nonzero;fill:rgb(100%,85.490196%,26.666667%);fill-opacity:1;" d="M 12.121094 44.328125 L 12.523438 43.082031 L 11.464844 42.3125 L 12.773438 42.3125 L 13.179688 41.066406 L 13.585938 42.3125 L 14.894531 42.3125 L 13.835938 43.082031 L 14.238281 44.328125 L 13.179688 43.558594 Z M 12.121094 44.328125 "/>
<path style=" stroke:none;fill-rule:nonzero;fill:rgb(100%,85.490196%,26.666667%);fill-opacity:1;" d="M 25.457031 37.421875 L 25.050781 38.667969 L 23.742188 38.667969 L 24.800781 39.4375 L 24.398438 40.679688 L 25.457031 39.910156 L 26.515625 40.679688 L 26.113281 39.4375 L 27.171875 38.667969 L 25.863281 38.667969 Z M 25.457031 37.421875 "/>
<path style=" stroke:none;fill-rule:nonzero;fill:rgb(100%,85.490196%,26.666667%);fill-opacity:1;" d="M 22.558594 28.261719 L 22.152344 29.507812 L 20.84375 29.507812 L 21.902344 30.277344 L 21.5 31.523438 L 22.558594 30.75 L 23.617188 31.523438 L 23.210938 30.277344 L 24.273438 29.507812 L 22.960938 29.507812 Z M 22.558594 28.261719 "/>
<path style=" stroke:none;fill-rule:nonzero;fill:rgb(100%,85.490196%,26.666667%);fill-opacity:1;" d="M 27.171875 33.390625 L 25.863281 33.390625 L 25.457031 32.144531 L 25.050781 33.390625 L 23.742188 33.390625 L 24.800781 34.160156 L 24.398438 35.40625 L 25.457031 34.636719 L 26.515625 35.40625 L 26.113281 34.160156 Z M 27.171875 33.390625 "/>
<path style=" stroke:none;fill-rule:nonzero;fill:rgb(100%,85.490196%,26.666667%);fill-opacity:1;" d="M 23.617188 44.328125 L 23.210938 43.082031 L 24.273438 42.3125 L 22.960938 42.3125 L 22.558594 41.066406 L 22.152344 42.3125 L 20.84375 42.3125 L 21.902344 43.082031 L 21.5 44.328125 L 22.558594 43.558594 Z M 23.617188 44.328125 "/>
</g>
</svg>
