<?xml version="1.0" encoding="UTF-8"?>
<svg xmlns="http://www.w3.org/2000/svg" xmlns:xlink="http://www.w3.org/1999/xlink" width="50px" height="50px" viewBox="0 0 50 50" version="1.1">
<g id="surface1">
<path style=" stroke:none;fill-rule:nonzero;fill:rgb(0%,32.156863%,70.588235%);fill-opacity:1;" d="M 50 25 C 50 38.808594 38.808594 50 25 50 C 11.191406 50 0 38.808594 0 25 C 0 25.007812 25 0.00390625 25 0 C 38.808594 0 50 11.191406 50 25 Z M 50 25 "/>
<path style=" stroke:none;fill-rule:nonzero;fill:rgb(94.117647%,94.117647%,94.117647%);fill-opacity:1;" d="M 24.933594 25 L 25 25 C 25 24.976562 25 24.957031 25 24.933594 C 24.976562 24.957031 24.957031 24.976562 24.933594 25 Z M 24.933594 25 "/>
<path style=" stroke:none;fill-rule:nonzero;fill:rgb(94.117647%,94.117647%,94.117647%);fill-opacity:1;" d="M 25 13.042969 C 25 8.644531 25 5.761719 25 0 L 24.996094 0 C 11.191406 0.00390625 0 11.195312 0 25 L 13.042969 25 L 13.042969 17.65625 L 20.386719 25 L 24.933594 25 C 24.957031 24.976562 24.976562 24.957031 25 24.933594 C 25 23.25 25 21.746094 25 20.386719 L 17.65625 13.042969 Z M 25 13.042969 "/>
<path style=" stroke:none;fill-rule:nonzero;fill:rgb(42.745098%,64.705882%,26.666667%);fill-opacity:1;" d="M 35.871094 18.476562 C 38.269531 18.476562 40.21875 16.53125 40.21875 14.128906 C 40.21875 11.730469 38.269531 9.78125 35.871094 9.78125 C 33.46875 9.78125 31.523438 11.730469 31.523438 14.128906 C 31.523438 16.53125 33.46875 18.476562 35.871094 18.476562 Z M 35.871094 18.476562 "/>
<path style=" stroke:none;fill-rule:nonzero;fill:rgb(84.705882%,0%,15.294118%);fill-opacity:1;" d="M 12.648438 3.261719 C 8.738281 5.488281 5.488281 8.738281 3.261719 12.648438 L 3.261719 25 L 9.78125 25 L 9.78125 9.78125 L 25 9.78125 C 25 7.726562 25 5.765625 25 3.261719 Z M 12.648438 3.261719 "/>
<path style=" stroke:none;fill-rule:nonzero;fill:rgb(84.705882%,0%,15.294118%);fill-opacity:1;" d="M 25 21.925781 L 16.117188 13.042969 L 13.042969 13.042969 L 25 25 C 25 25 25 22.878906 25 21.925781 Z M 25 21.925781 "/>
<path style=" stroke:none;fill-rule:nonzero;fill:rgb(84.705882%,0%,15.294118%);fill-opacity:1;" d="M 28.261719 13.042969 L 43.476562 13.042969 L 43.476562 19.566406 L 28.261719 19.566406 Z M 28.261719 13.042969 "/>
<path style=" stroke:none;fill-rule:nonzero;fill:rgb(100%,85.490196%,26.666667%);fill-opacity:1;" d="M 28.261719 29.347656 L 28.261719 33.695312 L 30.546875 33.695312 C 31.921875 35.039062 33.796875 35.871094 35.871094 35.871094 C 37.941406 35.871094 39.820312 35.039062 41.191406 33.695312 L 43.476562 33.695312 L 43.476562 29.347656 Z M 28.261719 29.347656 "/>
<path style=" stroke:none;fill-rule:nonzero;fill:rgb(20%,54.117647%,95.294118%);fill-opacity:1;" d="M 28.261719 18.476562 L 28.261719 25 C 28.261719 30.824219 35.871094 32.609375 35.871094 32.609375 C 35.871094 32.609375 43.476562 30.824219 43.476562 25 L 43.476562 18.476562 Z M 28.261719 18.476562 "/>
<path style=" stroke:none;fill-rule:nonzero;fill:rgb(95.294118%,95.294118%,95.294118%);fill-opacity:1;" d="M 35.867188 21.960938 C 33.96875 21.960938 33.96875 23.699219 32.066406 23.699219 C 30.164062 23.699219 30.164062 21.960938 28.261719 21.960938 L 28.261719 25.003906 C 30.164062 25.003906 30.164062 26.746094 32.066406 26.746094 C 33.96875 26.746094 33.96875 25.003906 35.867188 25.003906 C 37.769531 25.003906 37.769531 26.746094 39.671875 26.746094 C 41.574219 26.746094 41.574219 25.003906 43.476562 25.003906 L 43.476562 21.960938 C 41.574219 21.960938 41.574219 23.699219 39.671875 23.699219 C 37.769531 23.699219 37.769531 21.960938 35.867188 21.960938 Z M 35.867188 21.960938 "/>
<path style=" stroke:none;fill-rule:nonzero;fill:rgb(95.294118%,95.294118%,95.294118%);fill-opacity:1;" d="M 35.867188 15.871094 C 33.96875 15.871094 33.96875 17.609375 32.066406 17.609375 C 30.164062 17.609375 30.164062 15.871094 28.261719 15.871094 L 28.261719 18.914062 C 30.164062 18.914062 30.164062 20.652344 32.066406 20.652344 C 33.96875 20.652344 33.96875 18.914062 35.867188 18.914062 C 37.769531 18.914062 37.769531 20.652344 39.671875 20.652344 C 41.574219 20.652344 41.574219 18.914062 43.476562 18.914062 L 43.476562 15.871094 C 41.574219 15.871094 41.574219 17.609375 39.671875 17.609375 C 37.769531 17.609375 37.769531 15.871094 35.867188 15.871094 Z M 35.867188 15.871094 "/>
</g>
</svg>
