<?xml version="1.0" encoding="UTF-8"?>
<svg xmlns="http://www.w3.org/2000/svg" xmlns:xlink="http://www.w3.org/1999/xlink" width="50px" height="50px" viewBox="0 0 50 50" version="1.1">
<defs>
<clipPath id="clip1">
  <path d="M 0 0.0976562 L 50 0.0976562 L 50 50 L 0 50 Z M 0 0.0976562 "/>
</clipPath>
<clipPath id="clip2">
  <path d="M 30 0.0976562 L 47 0.0976562 L 47 14 L 30 14 Z M 30 0.0976562 "/>
</clipPath>
<clipPath id="clip3">
  <path d="M 3 0.0976562 L 20 0.0976562 L 20 14 L 3 14 Z M 3 0.0976562 "/>
</clipPath>
<clipPath id="clip4">
  <path d="M 18 0.0976562 L 32 0.0976562 L 32 50 L 18 50 Z M 18 0.0976562 "/>
</clipPath>
</defs>
<g id="surface1">
<g clip-path="url(#clip1)" clip-rule="nonzero">
<path style=" stroke:none;fill-rule:nonzero;fill:rgb(94.117647%,94.117647%,94.117647%);fill-opacity:1;" d="M 25 50 C 38.808594 50 50 38.828125 50 25.046875 C 50 11.265625 38.808594 0.0976562 25 0.0976562 C 11.191406 0.0976562 0 11.265625 0 25.046875 C 0 38.828125 11.191406 50 25 50 Z M 25 50 "/>
</g>
<g clip-path="url(#clip2)" clip-rule="nonzero">
<path style=" stroke:none;fill-rule:nonzero;fill:rgb(0%,32.156863%,70.588235%);fill-opacity:1;" d="M 46.960938 13.113281 C 43.730469 7.207031 38.175781 2.746094 31.523438 0.953125 L 30.433594 13.113281 Z M 46.960938 13.113281 "/>
</g>
<g clip-path="url(#clip3)" clip-rule="nonzero">
<path style=" stroke:none;fill-rule:nonzero;fill:rgb(0%,32.156863%,70.588235%);fill-opacity:1;" d="M 3.039062 13.113281 L 19.566406 13.113281 L 18.476562 0.953125 C 11.824219 2.746094 6.269531 7.207031 3.039062 13.113281 Z M 3.039062 13.113281 "/>
</g>
<path style=" stroke:none;fill-rule:nonzero;fill:rgb(42.745098%,64.705882%,26.666667%);fill-opacity:1;" d="M 30.433594 25.046875 L 30.433594 36.980469 L 46.960938 36.980469 C 48.898438 33.4375 50 29.371094 50 25.046875 Z M 30.433594 25.046875 "/>
<path style=" stroke:none;fill-rule:nonzero;fill:rgb(42.745098%,64.705882%,26.666667%);fill-opacity:1;" d="M 19.566406 25.046875 L 0 25.046875 C 0 29.371094 1.101562 33.4375 3.039062 36.980469 L 19.566406 36.980469 Z M 19.566406 25.046875 "/>
<path style=" stroke:none;fill-rule:nonzero;fill:rgb(100%,85.490196%,26.666667%);fill-opacity:1;" d="M 3.039062 36.980469 C 6.269531 42.890625 11.824219 47.351562 18.476562 49.140625 L 19.566406 38.507812 Z M 3.039062 36.980469 "/>
<path style=" stroke:none;fill-rule:nonzero;fill:rgb(100%,85.490196%,26.666667%);fill-opacity:1;" d="M 31.523438 49.140625 C 38.175781 47.351562 43.730469 42.890625 46.960938 36.980469 L 30.433594 38.507812 Z M 31.523438 49.140625 "/>
<path style=" stroke:none;fill-rule:nonzero;fill:rgb(100%,85.490196%,26.666667%);fill-opacity:1;" d="M 30.433594 38.507812 L 46.960938 36.980469 L 30.433594 36.980469 Z M 30.433594 38.507812 "/>
<path style=" stroke:none;fill-rule:nonzero;fill:rgb(100%,85.490196%,26.666667%);fill-opacity:1;" d="M 19.566406 36.980469 L 3.039062 36.980469 L 19.566406 38.507812 Z M 19.566406 36.980469 "/>
<g clip-path="url(#clip4)" clip-rule="nonzero">
<path style=" stroke:none;fill-rule:nonzero;fill:rgb(84.705882%,0%,15.294118%);fill-opacity:1;" d="M 25 0.0976562 C 22.742188 0.0976562 20.558594 0.398438 18.476562 0.957031 L 18.476562 49.140625 C 20.558594 49.699219 22.742188 50 25 50 C 27.257812 50 29.441406 49.699219 31.523438 49.140625 L 31.523438 0.957031 C 29.441406 0.398438 27.257812 0.0976562 25 0.0976562 Z M 25 0.0976562 "/>
</g>
<path style=" stroke:none;fill-rule:nonzero;fill:rgb(100%,85.490196%,26.666667%);fill-opacity:1;" d="M 13.445312 5.519531 L 14.121094 7.59375 L 16.304688 7.59375 L 14.539062 8.871094 L 15.214844 10.945312 L 13.445312 9.664062 L 11.679688 10.945312 L 12.355469 8.871094 L 10.589844 7.59375 L 12.773438 7.59375 Z M 13.445312 5.519531 "/>
</g>
</svg>
