<?xml version="1.0" encoding="UTF-8"?>
<svg xmlns="http://www.w3.org/2000/svg" xmlns:xlink="http://www.w3.org/1999/xlink" width="50px" height="50px" viewBox="0 0 50 50" version="1.1">
<g id="surface1">
<path style=" stroke:none;fill-rule:nonzero;fill:rgb(84.705882%,0%,15.294118%);fill-opacity:1;" d="M 25 50 C 38.808594 50 50 38.808594 50 25 C 50 11.191406 38.808594 0 25 0 C 11.191406 0 0 11.191406 0 25 C 0 38.808594 11.191406 50 25 50 Z M 25 50 "/>
<path style=" stroke:none;fill-rule:nonzero;fill:rgb(100%,85.490196%,26.666667%);fill-opacity:1;" d="M 13.679688 15.214844 L 15.839844 21.855469 L 22.820312 21.855469 L 17.179688 25.964844 L 19.335938 32.609375 L 13.679688 28.503906 L 8.027344 32.609375 L 10.195312 25.964844 L 4.539062 21.855469 L 11.523438 21.855469 Z M 13.679688 15.214844 "/>
<path style=" stroke:none;fill-rule:nonzero;fill:rgb(100%,85.490196%,26.666667%);fill-opacity:1;" d="M 29.640625 38.71875 L 27.988281 36.6875 L 25.546875 37.636719 L 26.964844 35.4375 L 25.3125 33.398438 L 27.84375 34.070312 L 29.265625 31.875 L 29.40625 34.492188 L 31.945312 35.164062 L 29.492188 36.101562 Z M 29.640625 38.71875 "/>
<path style=" stroke:none;fill-rule:nonzero;fill:rgb(100%,85.490196%,26.666667%);fill-opacity:1;" d="M 32.921875 32.765625 L 33.703125 30.261719 L 31.5625 28.75 L 34.179688 28.710938 L 34.953125 26.210938 L 35.800781 28.691406 L 38.417969 28.664062 L 36.320312 30.226562 L 37.15625 32.703125 L 35.019531 31.191406 Z M 32.921875 32.765625 "/>
<path style=" stroke:none;fill-rule:nonzero;fill:rgb(100%,85.490196%,26.666667%);fill-opacity:1;" d="M 37.34375 18.351562 L 36.191406 20.703125 L 38.066406 22.53125 L 35.476562 22.15625 L 34.328125 24.5 L 33.875 21.921875 L 31.28125 21.554688 L 33.601562 20.332031 L 33.15625 17.742188 L 35.03125 19.570312 Z M 37.34375 18.351562 "/>
<path style=" stroke:none;fill-rule:nonzero;fill:rgb(100%,85.490196%,26.666667%);fill-opacity:1;" d="M 29.707031 11.21875 L 29.511719 13.828125 L 31.945312 14.8125 L 29.394531 15.4375 L 29.210938 18.054688 L 27.832031 15.828125 L 25.28125 16.453125 L 26.972656 14.453125 L 25.585938 12.234375 L 28.015625 13.222656 Z M 29.707031 11.21875 "/>
</g>
</svg>
