<?xml version="1.0" encoding="UTF-8"?>
<svg xmlns="http://www.w3.org/2000/svg" xmlns:xlink="http://www.w3.org/1999/xlink" width="50px" height="50px" viewBox="0 0 50 50" version="1.1">
<g id="surface1">
<path style=" stroke:none;fill-rule:nonzero;fill:rgb(42.745098%,64.705882%,26.666667%);fill-opacity:1;" d="M 25 50 C 38.808594 50 50 38.808594 50 25 C 50 11.191406 38.808594 0 25 0 C 11.191406 0 0 11.191406 0 25 C 0 38.808594 11.191406 50 25 50 Z M 25 50 "/>
<path style=" stroke:none;fill-rule:nonzero;fill:rgb(100%,85.490196%,26.666667%);fill-opacity:1;" d="M 38.378906 35.871094 L 39.0625 37.304688 L 40.613281 36.945312 L 39.917969 38.375 L 41.164062 39.363281 L 39.613281 39.714844 L 39.617188 41.304688 L 38.378906 40.308594 L 37.136719 41.304688 L 37.140625 39.714844 L 35.589844 39.363281 L 36.835938 38.375 L 36.140625 36.945312 L 37.691406 37.304688 Z M 38.378906 35.871094 "/>
<path style=" stroke:none;fill-rule:nonzero;fill:rgb(100%,85.490196%,26.666667%);fill-opacity:1;" d="M 31.996094 20.652344 L 32.679688 22.085938 L 34.230469 21.726562 L 33.535156 23.160156 L 34.78125 24.148438 L 33.230469 24.496094 L 33.234375 26.085938 L 31.996094 25.09375 L 30.753906 26.085938 L 30.757812 24.496094 L 29.207031 24.148438 L 30.453125 23.160156 L 29.761719 21.726562 L 31.308594 22.085938 Z M 31.996094 20.652344 "/>
<path style=" stroke:none;fill-rule:nonzero;fill:rgb(100%,85.490196%,26.666667%);fill-opacity:1;" d="M 38.378906 11.957031 L 39.0625 13.390625 L 40.613281 13.03125 L 39.917969 14.464844 L 41.164062 15.453125 L 39.613281 15.800781 L 39.617188 17.390625 L 38.378906 16.398438 L 37.136719 17.390625 L 37.140625 15.800781 L 35.589844 15.453125 L 36.835938 14.464844 L 36.140625 13.03125 L 37.691406 13.390625 Z M 38.378906 11.957031 "/>
<path style=" stroke:none;fill-rule:nonzero;fill:rgb(100%,85.490196%,26.666667%);fill-opacity:1;" d="M 43.953125 18.476562 L 44.636719 19.914062 L 46.1875 19.554688 L 45.492188 20.984375 L 46.738281 21.972656 L 45.1875 22.324219 L 45.191406 23.914062 L 43.953125 22.917969 L 42.710938 23.914062 L 42.714844 22.324219 L 41.164062 21.972656 L 42.410156 20.984375 L 41.714844 19.554688 L 43.265625 19.914062 Z M 43.953125 18.476562 "/>
<path style=" stroke:none;fill-rule:nonzero;fill:rgb(100%,85.490196%,26.666667%);fill-opacity:1;" d="M 39.964844 26.085938 L 40.503906 27.746094 L 42.25 27.746094 L 40.839844 28.773438 L 41.378906 30.433594 L 39.964844 29.410156 L 38.554688 30.433594 L 39.09375 28.773438 L 37.679688 27.746094 L 39.425781 27.746094 Z M 39.964844 26.085938 "/>
<path style=" stroke:none;fill-rule:nonzero;fill:rgb(100%,85.490196%,26.666667%);fill-opacity:1;" d="M 27.71875 32.066406 C 23.816406 32.066406 20.652344 28.902344 20.652344 25 C 20.652344 21.097656 23.816406 17.933594 27.71875 17.933594 C 28.933594 17.933594 30.078125 18.242188 31.078125 18.785156 C 29.511719 17.25 27.367188 16.304688 25 16.304688 C 20.199219 16.304688 16.304688 20.199219 16.304688 25 C 16.304688 29.800781 20.199219 33.695312 25 33.695312 C 27.367188 33.695312 29.511719 32.75 31.078125 31.214844 C 30.078125 31.757812 28.933594 32.066406 27.71875 32.066406 Z M 27.71875 32.066406 "/>
<path style=" stroke:none;fill-rule:nonzero;fill:rgb(100%,85.490196%,26.666667%);fill-opacity:1;" d="M 15.722656 9.78125 C 14.96875 8.484375 13.566406 7.609375 11.957031 7.609375 C 10.347656 7.609375 8.945312 8.484375 8.191406 9.78125 Z M 15.722656 9.78125 "/>
<path style=" stroke:none;fill-rule:nonzero;fill:rgb(100%,85.490196%,26.666667%);fill-opacity:1;" d="M 15.734375 9.808594 L 11.957031 13.585938 L 8.175781 9.808594 C 7.816406 10.441406 7.609375 11.175781 7.609375 11.957031 C 7.609375 14.359375 9.554688 16.304688 11.957031 16.304688 C 14.359375 16.304688 16.304688 14.359375 16.304688 11.957031 C 16.304688 11.175781 16.097656 10.441406 15.734375 9.808594 Z M 15.734375 9.808594 "/>
<path style=" stroke:none;fill-rule:nonzero;fill:rgb(63.529412%,0%,11.372549%);fill-opacity:1;" d="M 10.871094 12.5 L 10.871094 16.167969 C 11.21875 16.257812 11.582031 16.304688 11.957031 16.304688 C 12.332031 16.304688 12.695312 16.257812 13.042969 16.167969 L 13.042969 12.5 Z M 10.871094 12.5 "/>
</g>
</svg>
