<?xml version="1.0" encoding="UTF-8"?>
<svg xmlns="http://www.w3.org/2000/svg" xmlns:xlink="http://www.w3.org/1999/xlink" width="50px" height="50px" viewBox="0 0 50 50" version="1.1">
<g id="surface1">
<path style=" stroke:none;fill-rule:nonzero;fill:rgb(94.117647%,94.117647%,94.117647%);fill-opacity:1;" d="M 25 50 C 38.808594 50 50 38.808594 50 25 C 50 11.191406 38.808594 0 25 0 C 11.191406 0 0 11.191406 0 25 C 0 38.808594 11.191406 50 25 50 Z M 25 50 "/>
<path style=" stroke:none;fill-rule:nonzero;fill:rgb(84.705882%,0%,15.294118%);fill-opacity:1;" d="M 50 24.925781 L 22.898438 24.925781 C 17.519531 30.308594 14.265625 34.460938 10.941406 37.785156 L 25.074219 39.058594 L 47 36.882812 C 48.914062 33.347656 50 29.300781 50 25 C 50 24.976562 50 24.953125 50 24.925781 Z M 50 24.925781 "/>
<path style=" stroke:none;fill-rule:nonzero;fill:rgb(100%,85.490196%,26.666667%);fill-opacity:1;" d="M 10.941406 12.972656 L 46.917969 12.972656 C 42.667969 5.238281 34.445312 0 25 0 C 18.113281 0 11.878906 2.785156 7.359375 7.289062 Z M 10.941406 12.972656 "/>
<path style=" stroke:none;fill-rule:nonzero;fill:rgb(0%,32.156863%,70.588235%);fill-opacity:1;" d="M 12.027344 36.882812 C 9.78125 39.132812 8.914062 41.015625 7.285156 42.640625 C 11.8125 47.1875 18.078125 50 25 50 C 34.503906 50 42.769531 44.695312 47 36.882812 Z M 12.027344 36.882812 "/>
<path style=" stroke:none;fill-rule:nonzero;fill:rgb(42.745098%,64.705882%,26.666667%);fill-opacity:1;" d="M 7.320312 7.25 C -2.441406 17.011719 -2.441406 32.84375 7.320312 42.605469 C 11.355469 38.570312 15.238281 34.691406 25 24.925781 Z M 7.320312 7.25 "/>
<path style=" stroke:none;fill-rule:nonzero;fill:rgb(94.117647%,94.117647%,94.117647%);fill-opacity:1;" d="M 6.59375 24.925781 C 6.59375 21.285156 9.152344 18.242188 12.574219 17.496094 C 12.046875 17.382812 11.5 17.320312 10.941406 17.320312 C 6.738281 17.320312 3.332031 20.726562 3.332031 24.925781 C 3.332031 29.128906 6.738281 32.535156 10.941406 32.535156 C 11.5 32.535156 12.046875 32.472656 12.574219 32.359375 C 9.152344 31.613281 6.59375 28.570312 6.59375 24.925781 Z M 6.59375 24.925781 "/>
<path style=" stroke:none;fill-rule:nonzero;fill:rgb(94.117647%,94.117647%,94.117647%);fill-opacity:1;" d="M 12.488281 18.40625 L 12.894531 19.652344 L 14.203125 19.652344 L 13.144531 20.421875 L 13.546875 21.667969 L 12.488281 20.898438 L 11.429688 21.667969 L 11.832031 20.421875 L 10.773438 19.652344 L 12.082031 19.652344 Z M 12.488281 18.40625 "/>
<path style=" stroke:none;fill-rule:nonzero;fill:rgb(94.117647%,94.117647%,94.117647%);fill-opacity:1;" d="M 12.488281 21.667969 L 12.894531 22.914062 L 14.203125 22.914062 L 13.144531 23.683594 L 13.546875 24.925781 L 12.488281 24.15625 L 11.429688 24.925781 L 11.832031 23.683594 L 10.773438 22.914062 L 12.082031 22.914062 Z M 12.488281 21.667969 "/>
<path style=" stroke:none;fill-rule:nonzero;fill:rgb(94.117647%,94.117647%,94.117647%);fill-opacity:1;" d="M 12.488281 24.925781 L 12.894531 26.171875 L 14.203125 26.171875 L 13.144531 26.941406 L 13.546875 28.1875 L 12.488281 27.417969 L 11.429688 28.1875 L 11.832031 26.941406 L 10.773438 26.171875 L 12.082031 26.171875 Z M 12.488281 24.925781 "/>
<path style=" stroke:none;fill-rule:nonzero;fill:rgb(94.117647%,94.117647%,94.117647%);fill-opacity:1;" d="M 12.488281 28.1875 L 12.894531 29.433594 L 14.203125 29.433594 L 13.144531 30.203125 L 13.546875 31.449219 L 12.488281 30.679688 L 11.429688 31.449219 L 11.832031 30.203125 L 10.773438 29.433594 L 12.082031 29.433594 Z M 12.488281 28.1875 "/>
</g>
</svg>
