<?xml version="1.0" encoding="UTF-8"?>
<svg xmlns="http://www.w3.org/2000/svg" xmlns:xlink="http://www.w3.org/1999/xlink" width="50px" height="50px" viewBox="0 0 50 50" version="1.1">
<g id="surface1">
<path style=" stroke:none;fill-rule:nonzero;fill:rgb(0%,32.156863%,70.588235%);fill-opacity:1;" d="M 50 25 C 50 38.808594 38.808594 50 25 50 C 11.191406 50 0 38.808594 0 25 C 0 25.007812 25 0.00390625 25 0 C 38.808594 0 50 11.191406 50 25 Z M 50 25 "/>
<path style=" stroke:none;fill-rule:nonzero;fill:rgb(94.117647%,94.117647%,94.117647%);fill-opacity:1;" d="M 24.933594 25 L 25 25 C 25 24.976562 25 24.957031 25 24.933594 C 24.976562 24.957031 24.957031 24.976562 24.933594 25 Z M 24.933594 25 "/>
<path style=" stroke:none;fill-rule:nonzero;fill:rgb(94.117647%,94.117647%,94.117647%);fill-opacity:1;" d="M 25 13.042969 C 25 8.644531 25 5.761719 25 0 L 24.996094 0 C 11.191406 0.00390625 0 11.195312 0 25 L 13.042969 25 L 13.042969 17.65625 L 20.386719 25 L 24.933594 25 C 24.957031 24.976562 24.976562 24.957031 25 24.933594 C 25 23.25 25 21.746094 25 20.386719 L 17.65625 13.042969 Z M 25 13.042969 "/>
<path style=" stroke:none;fill-rule:nonzero;fill:rgb(84.705882%,0%,15.294118%);fill-opacity:1;" d="M 12.648438 3.261719 C 8.738281 5.488281 5.488281 8.738281 3.261719 12.648438 L 3.261719 25 L 9.78125 25 L 9.78125 9.78125 L 25 9.78125 C 25 7.726562 25 5.765625 25 3.261719 Z M 12.648438 3.261719 "/>
<path style=" stroke:none;fill-rule:nonzero;fill:rgb(84.705882%,0%,15.294118%);fill-opacity:1;" d="M 25 21.925781 L 16.117188 13.042969 L 13.042969 13.042969 L 25 25 C 25 25 25 22.878906 25 21.925781 Z M 25 21.925781 "/>
<path style=" stroke:none;fill-rule:nonzero;fill:rgb(94.117647%,94.117647%,94.117647%);fill-opacity:1;" d="M 33.695312 25 L 34.160156 26.421875 L 35.65625 26.421875 L 34.445312 27.304688 L 34.90625 28.726562 L 33.695312 27.847656 L 32.484375 28.726562 L 32.945312 27.304688 L 31.738281 26.421875 L 33.234375 26.421875 Z M 33.695312 25 "/>
<path style=" stroke:none;fill-rule:nonzero;fill:rgb(94.117647%,94.117647%,94.117647%);fill-opacity:1;" d="M 27.546875 27.546875 L 28.878906 28.226562 L 29.9375 27.167969 L 29.703125 28.644531 L 31.039062 29.324219 L 29.558594 29.558594 L 29.324219 31.039062 L 28.644531 29.703125 L 27.167969 29.9375 L 28.226562 28.878906 Z M 27.546875 27.546875 "/>
<path style=" stroke:none;fill-rule:nonzero;fill:rgb(94.117647%,94.117647%,94.117647%);fill-opacity:1;" d="M 25 33.695312 L 26.421875 33.234375 L 26.421875 31.738281 L 27.304688 32.945312 L 28.726562 32.484375 L 27.847656 33.695312 L 28.726562 34.90625 L 27.304688 34.445312 L 26.421875 35.65625 L 26.421875 34.160156 Z M 25 33.695312 "/>
<path style=" stroke:none;fill-rule:nonzero;fill:rgb(94.117647%,94.117647%,94.117647%);fill-opacity:1;" d="M 27.546875 39.84375 L 28.226562 38.511719 L 27.167969 37.453125 L 28.644531 37.6875 L 29.324219 36.351562 L 29.558594 37.832031 L 31.039062 38.066406 L 29.703125 38.746094 L 29.9375 40.222656 L 28.878906 39.164062 Z M 27.546875 39.84375 "/>
<path style=" stroke:none;fill-rule:nonzero;fill:rgb(94.117647%,94.117647%,94.117647%);fill-opacity:1;" d="M 33.695312 42.390625 L 33.234375 40.96875 L 31.738281 40.96875 L 32.945312 40.089844 L 32.484375 38.664062 L 33.695312 39.542969 L 34.90625 38.664062 L 34.445312 40.089844 L 35.65625 40.96875 L 34.160156 40.96875 Z M 33.695312 42.390625 "/>
<path style=" stroke:none;fill-rule:nonzero;fill:rgb(94.117647%,94.117647%,94.117647%);fill-opacity:1;" d="M 39.84375 39.84375 L 38.511719 39.164062 L 37.453125 40.222656 L 37.6875 38.746094 L 36.351562 38.066406 L 37.832031 37.832031 L 38.066406 36.351562 L 38.746094 37.6875 L 40.222656 37.453125 L 39.164062 38.511719 Z M 39.84375 39.84375 "/>
<path style=" stroke:none;fill-rule:nonzero;fill:rgb(94.117647%,94.117647%,94.117647%);fill-opacity:1;" d="M 42.390625 33.695312 L 40.96875 34.160156 L 40.96875 35.65625 L 40.089844 34.445312 L 38.664062 34.90625 L 39.542969 33.695312 L 38.664062 32.484375 L 40.089844 32.945312 L 40.96875 31.738281 L 40.96875 33.234375 Z M 42.390625 33.695312 "/>
<path style=" stroke:none;fill-rule:nonzero;fill:rgb(94.117647%,94.117647%,94.117647%);fill-opacity:1;" d="M 39.84375 27.546875 L 39.164062 28.878906 L 40.222656 29.9375 L 38.746094 29.703125 L 38.066406 31.039062 L 37.832031 29.558594 L 36.351562 29.324219 L 37.6875 28.644531 L 37.453125 27.167969 L 38.511719 28.226562 Z M 39.84375 27.546875 "/>
</g>
</svg>
