<?xml version="1.0" encoding="UTF-8"?>
<svg xmlns="http://www.w3.org/2000/svg" xmlns:xlink="http://www.w3.org/1999/xlink" width="50px" height="50px" viewBox="0 0 50 50" version="1.1">
<defs>
<clipPath id="clip1">
  <path d="M 0 0.0976562 L 50 0.0976562 L 50 50 L 0 50 Z M 0 0.0976562 "/>
</clipPath>
</defs>
<g id="surface1">
<g clip-path="url(#clip1)" clip-rule="nonzero">
<path style=" stroke:none;fill-rule:nonzero;fill:rgb(98.823529%,98.823529%,98.823529%);fill-opacity:1;" d="M 25 50 C 38.808594 50 50 38.828125 50 25.046875 C 50 11.265625 38.808594 0.0976562 25 0.0976562 C 11.191406 0.0976562 0 11.265625 0 25.046875 C 0 38.828125 11.191406 50 25 50 Z M 25 50 "/>
</g>
<path style=" stroke:none;fill-rule:nonzero;fill:rgb(0%,0%,0%);fill-opacity:1;" d="M 33.703125 21.230469 C 33.703125 15.953125 29.417969 11.675781 24.132812 11.675781 C 20.230469 11.675781 16.875 14.003906 15.382812 17.347656 L 14.203125 21.621094 L 15.289062 22.703125 L 13.117188 27.042969 L 15.289062 28.128906 L 14.203125 29.214844 L 14.203125 30.296875 L 15.289062 31.382812 L 15.289062 33.550781 L 16.375 34.636719 L 19.636719 33.550781 C 19.636719 33.550781 19.636719 34.636719 20.722656 35.722656 C 21.8125 36.808594 22.898438 38.976562 22.898438 38.976562 C 22.898438 38.976562 26.160156 40.0625 28.332031 36.808594 C 30.507812 33.550781 32.679688 32.46875 32.679688 32.46875 L 30.585938 28.285156 C 32.5 26.539062 33.703125 24.023438 33.703125 21.230469 Z M 33.703125 21.230469 "/>
<path style=" stroke:none;fill-rule:nonzero;fill:rgb(67.45098%,67.058824%,69.411765%);fill-opacity:1;" d="M 34.484375 24.882812 C 38.902344 24.140625 39.636719 15.507812 39.636719 15.507812 L 33.550781 15.507812 C 36.703125 23.101562 33.402344 23.613281 33.402344 23.613281 C 32.957031 23.28125 16.960938 15.71875 16.453125 15.527344 C 16.332031 15.6875 15.882812 16.117188 15.335938 17.453125 C 14.789062 18.785156 14.652344 19.988281 14.652344 19.988281 C 14.910156 20.152344 31.898438 26.074219 32.347656 26.121094 C 33.238281 26.703125 34.335938 28.441406 33.722656 33.597656 L 39.582031 31.949219 C 39.582031 31.949219 37.59375 26.671875 34.484375 24.882812 Z M 34.484375 24.882812 "/>
</g>
</svg>
