<?xml version="1.0" encoding="UTF-8"?>
<svg xmlns="http://www.w3.org/2000/svg" xmlns:xlink="http://www.w3.org/1999/xlink" width="50px" height="50px" viewBox="0 0 50 50" version="1.1">
<g id="surface1">
<path style=" stroke:none;fill-rule:nonzero;fill:rgb(94.117647%,94.117647%,94.117647%);fill-opacity:1;" d="M 25 50 C 38.808594 50 50 38.808594 50 25 C 50 11.191406 38.808594 0 25 0 C 11.191406 0 0 11.191406 0 25 C 0 38.808594 11.191406 50 25 50 Z M 25 50 "/>
<path style=" stroke:none;fill-rule:nonzero;fill:rgb(84.705882%,0%,15.294118%);fill-opacity:1;" d="M 48.445312 16.304688 L 1.554688 16.304688 C 0.550781 19.011719 0 21.941406 0 25 C 0 28.058594 0.550781 30.988281 1.554688 33.695312 L 48.445312 33.695312 C 49.449219 30.988281 50 28.058594 50 25 C 50 21.941406 49.449219 19.011719 48.445312 16.304688 Z M 48.445312 16.304688 "/>
<path style=" stroke:none;fill-rule:nonzero;fill:rgb(0%,32.156863%,70.588235%);fill-opacity:1;" d="M 25 0 C 17.421875 0 10.632812 3.371094 6.046875 8.695312 L 43.953125 8.695312 C 39.367188 3.371094 32.578125 0 25 0 Z M 25 0 "/>
<path style=" stroke:none;fill-rule:nonzero;fill:rgb(0%,32.156863%,70.588235%);fill-opacity:1;" d="M 43.953125 41.304688 L 6.046875 41.304688 C 10.632812 46.628906 17.421875 50 25 50 C 32.578125 50 39.367188 46.628906 43.953125 41.304688 Z M 43.953125 41.304688 "/>
</g>
</svg>
