<?xml version="1.0" encoding="UTF-8"?>
<svg xmlns="http://www.w3.org/2000/svg" xmlns:xlink="http://www.w3.org/1999/xlink" width="50px" height="50px" viewBox="0 0 50 50" version="1.1">
<g id="surface1">
<path style=" stroke:none;fill-rule:nonzero;fill:rgb(94.117647%,94.117647%,94.117647%);fill-opacity:1;" d="M 50 25 C 50 21.941406 49.449219 19.011719 48.445312 16.304688 L 25 15.21875 L 1.554688 16.304688 C 0.550781 19.011719 0 21.941406 0 25 C 0 28.058594 0.550781 30.988281 1.554688 33.695312 L 25 34.78125 L 48.445312 33.695312 C 49.449219 30.988281 50 28.058594 50 25 Z M 50 25 "/>
<path style=" stroke:none;fill-rule:nonzero;fill:rgb(0%,32.156863%,70.588235%);fill-opacity:1;" d="M 25 50 C 35.75 50 44.914062 43.214844 48.445312 33.695312 L 1.554688 33.695312 C 5.085938 43.214844 14.25 50 25 50 Z M 25 50 "/>
<path style=" stroke:none;fill-rule:nonzero;fill:rgb(84.705882%,0%,15.294118%);fill-opacity:1;" d="M 1.554688 16.304688 L 48.445312 16.304688 C 44.914062 6.785156 35.75 0 25 0 C 14.25 0 5.085938 6.785156 1.554688 16.304688 Z M 1.554688 16.304688 "/>
<path style=" stroke:none;fill-rule:nonzero;fill:rgb(20%,54.117647%,95.294118%);fill-opacity:1;" d="M 31.523438 17.390625 L 27.175781 17.390625 L 27.898438 11.957031 L 30.796875 9.78125 L 33.695312 11.957031 L 33.695312 16.304688 Z M 31.523438 17.390625 "/>
<path style=" stroke:none;fill-rule:nonzero;fill:rgb(20%,54.117647%,95.294118%);fill-opacity:1;" d="M 18.476562 17.390625 L 22.824219 17.390625 L 22.101562 11.957031 L 19.203125 9.78125 L 16.304688 11.957031 L 16.304688 16.304688 Z M 18.476562 17.390625 "/>
<path style=" stroke:none;fill-rule:nonzero;fill:rgb(0%,32.156863%,70.588235%);fill-opacity:1;" d="M 27.898438 17.390625 L 22.101562 17.390625 L 22.101562 11.957031 L 25 9.78125 L 27.898438 11.957031 Z M 27.898438 17.390625 "/>
<path style=" stroke:none;fill-rule:nonzero;fill:rgb(94.117647%,94.117647%,94.117647%);fill-opacity:1;" d="M 16.304688 16.304688 L 16.304688 28.261719 C 16.304688 31.109375 17.679688 33.640625 19.800781 35.226562 L 21.324219 34.847656 L 23.242188 36.777344 C 23.8125 36.894531 24.398438 36.957031 25 36.957031 C 25.597656 36.957031 26.183594 36.894531 26.75 36.78125 L 28.941406 34.953125 L 30.199219 35.222656 C 32.320312 33.636719 33.695312 31.105469 33.695312 28.261719 L 33.695312 16.304688 Z M 16.304688 16.304688 "/>
<path style=" stroke:none;fill-rule:nonzero;fill:rgb(84.705882%,0%,15.294118%);fill-opacity:1;" d="M 16.304688 16.304688 L 19.78125 16.304688 L 19.78125 19.78125 L 16.304688 19.78125 Z M 16.304688 16.304688 "/>
<path style=" stroke:none;fill-rule:nonzero;fill:rgb(84.705882%,0%,15.294118%);fill-opacity:1;" d="M 23.261719 16.304688 L 26.738281 16.304688 L 26.738281 19.78125 L 23.261719 19.78125 Z M 23.261719 16.304688 "/>
<path style=" stroke:none;fill-rule:nonzero;fill:rgb(84.705882%,0%,15.294118%);fill-opacity:1;" d="M 30.21875 16.304688 L 33.695312 16.304688 L 33.695312 19.78125 L 30.21875 19.78125 Z M 30.21875 16.304688 "/>
<path style=" stroke:none;fill-rule:nonzero;fill:rgb(84.705882%,0%,15.294118%);fill-opacity:1;" d="M 19.78125 19.78125 L 23.261719 19.78125 L 23.261719 23.261719 L 19.78125 23.261719 Z M 19.78125 19.78125 "/>
<path style=" stroke:none;fill-rule:nonzero;fill:rgb(84.705882%,0%,15.294118%);fill-opacity:1;" d="M 26.738281 19.78125 L 30.21875 19.78125 L 30.21875 23.261719 L 26.738281 23.261719 Z M 26.738281 19.78125 "/>
<path style=" stroke:none;fill-rule:nonzero;fill:rgb(84.705882%,0%,15.294118%);fill-opacity:1;" d="M 16.304688 23.261719 L 19.78125 23.261719 L 19.78125 26.738281 L 16.304688 26.738281 Z M 16.304688 23.261719 "/>
<path style=" stroke:none;fill-rule:nonzero;fill:rgb(84.705882%,0%,15.294118%);fill-opacity:1;" d="M 19.78125 26.738281 L 23.261719 26.738281 L 23.261719 30.214844 L 19.78125 30.214844 Z M 19.78125 26.738281 "/>
<path style=" stroke:none;fill-rule:nonzero;fill:rgb(84.705882%,0%,15.294118%);fill-opacity:1;" d="M 23.261719 23.261719 L 26.738281 23.261719 L 26.738281 26.738281 L 23.261719 26.738281 Z M 23.261719 23.261719 "/>
<path style=" stroke:none;fill-rule:nonzero;fill:rgb(84.705882%,0%,15.294118%);fill-opacity:1;" d="M 30.21875 23.261719 L 33.695312 23.261719 L 33.695312 26.738281 L 30.21875 26.738281 Z M 30.21875 23.261719 "/>
<path style=" stroke:none;fill-rule:nonzero;fill:rgb(84.705882%,0%,15.294118%);fill-opacity:1;" d="M 26.738281 26.738281 L 30.21875 26.738281 L 30.21875 30.214844 L 26.738281 30.214844 Z M 26.738281 26.738281 "/>
<path style=" stroke:none;fill-rule:nonzero;fill:rgb(84.705882%,0%,15.294118%);fill-opacity:1;" d="M 23.261719 30.214844 L 26.738281 30.214844 L 26.738281 33.695312 L 23.261719 33.695312 Z M 23.261719 30.214844 "/>
<path style=" stroke:none;fill-rule:nonzero;fill:rgb(84.705882%,0%,15.294118%);fill-opacity:1;" d="M 19.78125 30.214844 L 16.527344 30.214844 C 16.828125 31.507812 17.414062 32.691406 18.21875 33.695312 L 19.78125 33.695312 Z M 19.78125 30.214844 "/>
<path style=" stroke:none;fill-rule:nonzero;fill:rgb(84.705882%,0%,15.294118%);fill-opacity:1;" d="M 30.21875 33.695312 L 31.78125 33.695312 C 32.585938 32.691406 33.171875 31.507812 33.472656 30.214844 L 30.21875 30.214844 Z M 30.21875 33.695312 "/>
<path style=" stroke:none;fill-rule:nonzero;fill:rgb(84.705882%,0%,15.294118%);fill-opacity:1;" d="M 19.78125 33.695312 L 19.78125 35.210938 C 20.792969 35.972656 21.976562 36.519531 23.261719 36.78125 L 23.261719 33.695312 Z M 19.78125 33.695312 "/>
<path style=" stroke:none;fill-rule:nonzero;fill:rgb(84.705882%,0%,15.294118%);fill-opacity:1;" d="M 26.738281 33.695312 L 26.738281 36.78125 C 28.023438 36.519531 29.207031 35.972656 30.21875 35.210938 L 30.21875 33.695312 Z M 26.738281 33.695312 "/>
</g>
</svg>
