<?xml version="1.0" encoding="UTF-8"?>
<svg xmlns="http://www.w3.org/2000/svg" xmlns:xlink="http://www.w3.org/1999/xlink" width="50px" height="50px" viewBox="0 0 50 50" version="1.1">
<g id="surface1">
<path style=" stroke:none;fill-rule:nonzero;fill:rgb(100%,85.490196%,26.666667%);fill-opacity:1;" d="M 25 50 C 38.808594 50 50 38.808594 50 25 C 50 11.191406 38.808594 0 25 0 C 11.191406 0 0 11.191406 0 25 C 0 38.808594 11.191406 50 25 50 Z M 25 50 "/>
<path style=" stroke:none;fill-rule:nonzero;fill:rgb(0%,32.156863%,70.588235%);fill-opacity:1;" d="M 25 50 C 33.203125 50 40.484375 46.050781 45.042969 39.945312 L 4.957031 39.945312 C 9.515625 46.050781 16.796875 50 25 50 Z M 25 50 "/>
<path style=" stroke:none;fill-rule:nonzero;fill:rgb(0%,32.156863%,70.588235%);fill-opacity:1;" d="M 50 25 C 50 11.191406 38.808594 0 25 0 C 11.191406 0 0 11.191406 0 25 C 0 27.957031 0.515625 30.792969 1.457031 33.425781 L 48.542969 33.425781 C 49.484375 30.792969 50 27.957031 50 25 Z M 50 25 "/>
<path style=" stroke:none;fill-rule:nonzero;fill:rgb(94.117647%,94.117647%,94.117647%);fill-opacity:1;" d="M 17.113281 16.035156 L 18.460938 20.183594 L 22.824219 20.183594 L 19.292969 22.75 L 20.644531 26.902344 L 17.113281 24.335938 L 13.578125 26.902344 L 14.929688 22.75 L 11.398438 20.183594 L 15.761719 20.183594 Z M 17.113281 16.035156 "/>
<path style=" stroke:none;fill-rule:nonzero;fill:rgb(94.117647%,94.117647%,94.117647%);fill-opacity:1;" d="M 9.613281 11.6875 L 10.425781 14.175781 L 13.042969 14.175781 L 10.925781 15.714844 L 11.734375 18.207031 L 9.613281 16.667969 L 7.496094 18.207031 L 8.304688 15.714844 L 6.1875 14.175781 L 8.804688 14.175781 Z M 9.613281 11.6875 "/>
</g>
</svg>
