<?xml version="1.0" encoding="UTF-8"?>
<svg xmlns="http://www.w3.org/2000/svg" xmlns:xlink="http://www.w3.org/1999/xlink" width="50px" height="50px" viewBox="0 0 50 50" version="1.1">
<g id="surface1">
<path style=" stroke:none;fill-rule:nonzero;fill:rgb(98.823529%,98.823529%,98.823529%);fill-opacity:1;" d="M 25 50 C 38.808594 50 50 38.808594 50 25 C 50 11.191406 38.808594 0 25 0 C 11.191406 0 0 11.191406 0 25 C 0 38.808594 11.191406 50 25 50 Z M 25 50 "/>
<path style=" stroke:none;fill-rule:nonzero;fill:rgb(42.745098%,64.705882%,26.666667%);fill-opacity:1;" d="M 39.128906 21.738281 C 38.371094 21.738281 37.425781 21.738281 35.871094 21.738281 C 35.871094 27.742188 31.003906 32.609375 25 32.609375 C 18.996094 32.609375 14.128906 27.742188 14.128906 21.738281 C 13.078125 21.738281 11.921875 21.738281 10.871094 21.738281 C 10.871094 28.207031 15.214844 33.65625 21.140625 35.335938 C 20.492188 36.570312 20.589844 38.125 21.519531 39.285156 C 22.738281 38.308594 24 37.296875 25.074219 36.4375 C 26.144531 37.296875 27.40625 38.308594 28.625 39.285156 C 29.5625 38.113281 29.65625 36.539062 28.984375 35.300781 C 34.847656 33.578125 39.128906 28.160156 39.128906 21.738281 Z M 39.128906 21.738281 "/>
<path style=" stroke:none;fill-rule:nonzero;fill:rgb(100%,85.490196%,26.666667%);fill-opacity:1;" d="M 16.304688 20.652344 C 16.304688 20.652344 16.304688 26.085938 21.738281 26.085938 L 22.824219 27.171875 L 25 27.171875 C 25 27.171875 26.085938 23.914062 28.261719 23.914062 C 28.261719 23.914062 28.261719 21.738281 30.433594 21.738281 C 32.609375 21.738281 33.695312 21.738281 33.695312 21.738281 C 33.695312 21.738281 32.609375 17.390625 38.042969 14.128906 L 35.871094 13.042969 C 35.871094 13.042969 28.261719 18.476562 22.824219 17.390625 L 22.824219 19.566406 L 20.652344 19.566406 L 19.566406 18.476562 Z M 16.304688 20.652344 "/>
</g>
</svg>
