<?xml version="1.0" encoding="UTF-8"?>
<svg xmlns="http://www.w3.org/2000/svg" xmlns:xlink="http://www.w3.org/1999/xlink" width="50px" height="50px" viewBox="0 0 50 50" version="1.1">
<g id="surface1">
<path style=" stroke:none;fill-rule:nonzero;fill:rgb(100%,85.490196%,26.666667%);fill-opacity:1;" d="M 47.222656 13.535156 C 46.070312 11.296875 44.554688 9.199219 42.679688 7.320312 C 40.800781 5.445312 38.703125 3.929688 36.464844 2.777344 L 18.851562 18.851562 L 2.777344 36.464844 C 3.929688 38.703125 5.445312 40.800781 7.320312 42.679688 C 9.199219 44.554688 11.296875 46.070312 13.535156 47.222656 L 31.148438 31.148438 Z M 47.222656 13.535156 "/>
<path style=" stroke:none;fill-rule:nonzero;fill:rgb(84.705882%,0%,15.294118%);fill-opacity:1;" d="M 7.320312 42.679688 C 8.371094 43.726562 9.488281 44.664062 10.664062 45.484375 L 45.484375 10.664062 C 44.664062 9.488281 43.726562 8.371094 42.679688 7.320312 C 41.628906 6.273438 40.511719 5.335938 39.335938 4.515625 L 4.515625 39.335938 C 5.335938 40.511719 6.273438 41.628906 7.320312 42.679688 Z M 7.320312 42.679688 "/>
<path style=" stroke:none;fill-rule:nonzero;fill:rgb(20%,54.117647%,95.294118%);fill-opacity:1;" d="M 7.320312 7.320312 C -0.566406 15.207031 -2.078125 27.054688 2.777344 36.464844 L 36.464844 2.777344 C 27.054688 -2.078125 15.207031 -0.566406 7.320312 7.320312 Z M 7.320312 7.320312 "/>
<path style=" stroke:none;fill-rule:nonzero;fill:rgb(20%,54.117647%,95.294118%);fill-opacity:1;" d="M 42.679688 42.679688 C 50.566406 34.792969 52.078125 22.945312 47.222656 13.535156 L 13.535156 47.222656 C 22.945312 52.078125 34.792969 50.566406 42.679688 42.679688 Z M 42.679688 42.679688 "/>
<path style=" stroke:none;fill-rule:nonzero;fill:rgb(100%,85.490196%,26.666667%);fill-opacity:1;" d="M 13.324219 7.609375 L 14.671875 11.761719 L 19.039062 11.761719 L 15.503906 14.324219 L 16.855469 18.476562 L 13.324219 15.910156 L 9.789062 18.476562 L 11.140625 14.324219 L 7.609375 11.761719 L 11.972656 11.761719 Z M 13.324219 7.609375 "/>
</g>
</svg>
