<?xml version="1.0" encoding="UTF-8"?>
<svg xmlns="http://www.w3.org/2000/svg" xmlns:xlink="http://www.w3.org/1999/xlink" width="50px" height="50px" viewBox="0 0 50 50" version="1.1">
<g id="surface1">
<path style=" stroke:none;fill-rule:nonzero;fill:rgb(94.117647%,94.117647%,94.117647%);fill-opacity:1;" d="M 25 50 C 38.808594 50 50 38.808594 50 25 C 50 11.191406 38.808594 0 25 0 C 11.191406 0 0 11.191406 0 25 C 0 38.808594 11.191406 50 25 50 Z M 25 50 "/>
<path style=" stroke:none;fill-rule:nonzero;fill:rgb(84.705882%,0%,15.294118%);fill-opacity:1;" d="M 19.566406 21.738281 L 49.789062 21.738281 C 48.191406 9.472656 37.703125 0 25 0 C 23.132812 0 21.316406 0.207031 19.566406 0.59375 Z M 19.566406 21.738281 "/>
<path style=" stroke:none;fill-rule:nonzero;fill:rgb(84.705882%,0%,15.294118%);fill-opacity:1;" d="M 13.042969 21.738281 L 13.042969 3.039062 C 6.179688 6.785156 1.265625 13.65625 0.210938 21.738281 Z M 13.042969 21.738281 "/>
<path style=" stroke:none;fill-rule:nonzero;fill:rgb(84.705882%,0%,15.294118%);fill-opacity:1;" d="M 13.042969 28.261719 L 0.210938 28.261719 C 1.265625 36.34375 6.179688 43.214844 13.042969 46.960938 Z M 13.042969 28.261719 "/>
<path style=" stroke:none;fill-rule:nonzero;fill:rgb(84.705882%,0%,15.294118%);fill-opacity:1;" d="M 19.566406 28.261719 L 19.566406 49.40625 C 21.316406 49.792969 23.132812 50 25 50 C 37.703125 50 48.191406 40.527344 49.789062 28.261719 Z M 19.566406 28.261719 "/>
</g>
</svg>
