<?xml version="1.0" encoding="UTF-8"?>
<svg xmlns="http://www.w3.org/2000/svg" xmlns:xlink="http://www.w3.org/1999/xlink" width="50px" height="50px" viewBox="0 0 50 50" version="1.1">
<g id="surface1">
<path style=" stroke:none;fill-rule:nonzero;fill:rgb(20%,54.117647%,95.294118%);fill-opacity:1;" d="M 22.824219 27.175781 C 22.824219 27.175781 7.335938 7.320312 7.320312 7.324219 C 11.847656 2.796875 18.097656 0 25 0 C 38.808594 0 50 11.191406 50 25 Z M 22.824219 27.175781 "/>
<path style=" stroke:none;fill-rule:nonzero;fill:rgb(42.745098%,64.705882%,26.666667%);fill-opacity:1;" d="M 22.824219 25 C 22.824219 25 7.335938 42.679688 7.320312 42.675781 C 11.847656 47.203125 18.097656 50 25 50 C 38.808594 50 50 38.808594 50 25 Z M 22.824219 25 "/>
<path style=" stroke:none;fill-rule:nonzero;fill:rgb(94.117647%,94.117647%,94.117647%);fill-opacity:1;" d="M 7.320312 7.320312 C -2.441406 17.085938 -2.441406 32.914062 7.320312 42.679688 C 11.355469 38.644531 15.238281 34.761719 25 25 Z M 7.320312 7.320312 "/>
<path style=" stroke:none;fill-rule:nonzero;fill:rgb(84.705882%,0%,15.294118%);fill-opacity:1;" d="M 10.117188 18.476562 L 11.738281 23.460938 L 16.976562 23.460938 L 12.738281 26.539062 L 14.355469 31.523438 L 10.117188 28.441406 L 5.878906 31.523438 L 7.5 26.539062 L 3.261719 23.460938 L 8.5 23.460938 Z M 10.117188 18.476562 "/>
</g>
</svg>
