<?xml version="1.0" encoding="UTF-8"?>
<svg xmlns="http://www.w3.org/2000/svg" xmlns:xlink="http://www.w3.org/1999/xlink" width="50px" height="50px" viewBox="0 0 50 50" version="1.1">
<defs>
<clipPath id="clip1">
  <path d="M 0 0.0976562 L 50 0.0976562 L 50 50 L 0 50 Z M 0 0.0976562 "/>
</clipPath>
<clipPath id="clip2">
  <path d="M 29 0.0976562 L 50 0.0976562 L 50 21 L 29 21 Z M 29 0.0976562 "/>
</clipPath>
<clipPath id="clip3">
  <path d="M 0 0.0976562 L 21 0.0976562 L 21 21 L 0 21 Z M 0 0.0976562 "/>
</clipPath>
<clipPath id="clip4">
  <path d="M 20 0.0976562 L 24 0.0976562 L 24 21 L 20 21 Z M 20 0.0976562 "/>
</clipPath>
<clipPath id="clip5">
  <path d="M 23 0.0976562 L 27 0.0976562 L 27 21 L 23 21 Z M 23 0.0976562 "/>
</clipPath>
</defs>
<g id="surface1">
<g clip-path="url(#clip1)" clip-rule="nonzero">
<path style=" stroke:none;fill-rule:nonzero;fill:rgb(94.117647%,94.117647%,94.117647%);fill-opacity:1;" d="M 25 50 C 38.808594 50 50 38.828125 50 25.046875 C 50 11.265625 38.808594 0.0976562 25 0.0976562 C 11.191406 0.0976562 0 11.265625 0 25.046875 C 0 38.828125 11.191406 50 25 50 Z M 25 50 "/>
</g>
<path style=" stroke:none;fill-rule:nonzero;fill:rgb(28.627451%,43.137255%,17.647059%);fill-opacity:1;" d="M 29.890625 49.519531 C 39.773438 47.5625 47.558594 39.792969 49.519531 29.929688 L 29.890625 29.929688 Z M 29.890625 49.519531 "/>
<path style=" stroke:none;fill-rule:nonzero;fill:rgb(28.627451%,43.137255%,17.647059%);fill-opacity:1;" d="M 0.480469 29.929688 C 2.441406 39.792969 10.226562 47.5625 20.109375 49.519531 L 20.109375 29.929688 Z M 0.480469 29.929688 "/>
<g clip-path="url(#clip2)" clip-rule="nonzero">
<path style=" stroke:none;fill-rule:nonzero;fill:rgb(28.627451%,43.137255%,17.647059%);fill-opacity:1;" d="M 49.519531 20.164062 C 47.558594 10.300781 39.773438 2.53125 29.890625 0.574219 L 29.890625 20.164062 Z M 49.519531 20.164062 "/>
</g>
<g clip-path="url(#clip3)" clip-rule="nonzero">
<path style=" stroke:none;fill-rule:nonzero;fill:rgb(28.627451%,43.137255%,17.647059%);fill-opacity:1;" d="M 20.109375 0.574219 C 10.226562 2.53125 2.441406 10.300781 0.480469 20.164062 L 20.109375 20.164062 Z M 20.109375 0.574219 "/>
</g>
<path style=" stroke:none;fill-rule:nonzero;fill:rgb(100%,85.490196%,26.666667%);fill-opacity:1;" d="M 23.371094 29.929688 L 20.109375 29.929688 L 20.109375 49.519531 C 21.171875 49.730469 22.261719 49.875 23.371094 49.945312 Z M 23.371094 29.929688 "/>
<g clip-path="url(#clip4)" clip-rule="nonzero">
<path style=" stroke:none;fill-rule:nonzero;fill:rgb(100%,85.490196%,26.666667%);fill-opacity:1;" d="M 23.371094 20.164062 L 23.371094 0.152344 C 22.261719 0.222656 21.171875 0.363281 20.109375 0.574219 L 20.109375 20.164062 Z M 23.371094 20.164062 "/>
</g>
<g clip-path="url(#clip5)" clip-rule="nonzero">
<path style=" stroke:none;fill-rule:nonzero;fill:rgb(0%,0%,0%);fill-opacity:1;" d="M 26.628906 0.152344 C 26.089844 0.117188 25.546875 0.0976562 25 0.0976562 C 24.453125 0.0976562 23.910156 0.117188 23.371094 0.152344 L 23.371094 20.164062 L 26.628906 20.164062 Z M 26.628906 0.152344 "/>
</g>
<path style=" stroke:none;fill-rule:nonzero;fill:rgb(0%,0%,0%);fill-opacity:1;" d="M 23.371094 49.945312 C 23.910156 49.980469 24.453125 50 25 50 C 25.546875 50 26.089844 49.980469 26.628906 49.945312 L 26.628906 29.929688 L 23.371094 29.929688 Z M 23.371094 49.945312 "/>
<path style=" stroke:none;fill-rule:nonzero;fill:rgb(100%,85.490196%,26.666667%);fill-opacity:1;" d="M 20.109375 23.421875 L 20.109375 20.164062 L 0.480469 20.164062 C 0.269531 21.226562 0.125 22.3125 0.0546875 23.421875 Z M 20.109375 23.421875 "/>
<path style=" stroke:none;fill-rule:nonzero;fill:rgb(100%,85.490196%,26.666667%);fill-opacity:1;" d="M 29.890625 23.421875 L 49.945312 23.421875 C 49.875 22.3125 49.730469 21.226562 49.519531 20.164062 L 29.890625 20.164062 Z M 29.890625 23.421875 "/>
<path style=" stroke:none;fill-rule:nonzero;fill:rgb(0%,0%,0%);fill-opacity:1;" d="M 29.890625 26.675781 L 49.945312 26.675781 C 49.980469 26.136719 50 25.59375 50 25.046875 C 50 24.5 49.980469 23.957031 49.945312 23.421875 L 29.890625 23.421875 Z M 29.890625 26.675781 "/>
<path style=" stroke:none;fill-rule:nonzero;fill:rgb(0%,0%,0%);fill-opacity:1;" d="M 0.0546875 23.421875 C 0.0195312 23.957031 0 24.5 0 25.046875 C 0 25.59375 0.0195312 26.136719 0.0546875 26.675781 L 20.109375 26.675781 L 20.109375 23.421875 Z M 0.0546875 23.421875 "/>
<path style=" stroke:none;fill-rule:nonzero;fill:rgb(84.705882%,0%,15.294118%);fill-opacity:1;" d="M 25 36.980469 C 31.601562 36.980469 36.957031 31.636719 36.957031 25.046875 C 36.957031 18.457031 31.601562 13.113281 25 13.113281 C 18.398438 13.113281 13.042969 18.457031 13.042969 25.046875 C 13.042969 31.636719 18.398438 36.980469 25 36.980469 Z M 25 36.980469 "/>
<path style=" stroke:none;fill-rule:nonzero;fill:rgb(28.627451%,43.137255%,17.647059%);fill-opacity:1;" d="M 27.722656 26.378906 C 26.835938 24.605469 25.679688 22.804688 25.679688 22.804688 C 25.679688 22.804688 25.707031 21.984375 25.707031 21.496094 C 25.707031 20.761719 25.109375 20.164062 24.375 20.164062 C 23.675781 20.164062 23.105469 20.699219 23.046875 21.382812 C 22.496094 21.417969 22.0625 21.871094 22.0625 22.429688 C 22.0625 22.835938 22.292969 23.183594 22.628906 23.359375 C 22.796875 22.96875 23.121094 22.664062 23.527344 22.527344 C 23.59375 22.582031 23.664062 22.628906 23.742188 22.667969 L 23.910156 22.75 C 23.910156 22.75 23.277344 24.535156 23.277344 25.492188 C 23.277344 28.183594 25.054688 29.015625 25.054688 29.015625 L 25.054688 29.042969 L 24.167969 29.929688 L 25.945312 29.929688 L 25.945312 28.152344 L 26.835938 29.042969 C 26.84375 29.023438 28.519531 27.96875 27.722656 26.378906 Z M 27.722656 26.378906 "/>
<path style=" stroke:none;fill-rule:nonzero;fill:rgb(28.627451%,43.137255%,17.647059%);fill-opacity:1;" d="M 25 15.285156 L 25.40625 16.527344 L 26.714844 16.527344 L 25.65625 17.296875 L 26.058594 18.539062 L 25 17.769531 L 23.941406 18.539062 L 24.34375 17.296875 L 23.285156 16.527344 L 24.59375 16.527344 Z M 25 15.285156 "/>
<path style=" stroke:none;fill-rule:nonzero;fill:rgb(28.627451%,43.137255%,17.647059%);fill-opacity:1;" d="M 19.25 17.148438 L 20.308594 17.917969 L 21.367188 17.148438 L 20.964844 18.390625 L 22.023438 19.160156 L 20.714844 19.160156 L 20.308594 20.402344 L 19.90625 19.160156 L 18.59375 19.160156 L 19.65625 18.390625 Z M 19.25 17.148438 "/>
<path style=" stroke:none;fill-rule:nonzero;fill:rgb(28.627451%,43.137255%,17.647059%);fill-opacity:1;" d="M 15.695312 22.03125 L 17.003906 22.03125 L 17.410156 20.789062 L 17.816406 22.03125 L 19.125 22.03125 L 18.066406 22.800781 L 18.46875 24.042969 L 17.410156 23.273438 L 16.351562 24.042969 L 16.753906 22.800781 Z M 15.695312 22.03125 "/>
<path style=" stroke:none;fill-rule:nonzero;fill:rgb(28.627451%,43.137255%,17.647059%);fill-opacity:1;" d="M 15.695312 28.066406 L 16.753906 27.296875 L 16.351562 26.054688 L 17.410156 26.820312 L 18.46875 26.054688 L 18.066406 27.296875 L 19.125 28.066406 L 17.816406 28.066406 L 17.410156 29.308594 L 17.003906 28.066406 Z M 15.695312 28.066406 "/>
<path style=" stroke:none;fill-rule:nonzero;fill:rgb(28.627451%,43.137255%,17.647059%);fill-opacity:1;" d="M 19.25 32.945312 L 19.65625 31.703125 L 18.59375 30.933594 L 19.90625 30.933594 L 20.308594 29.691406 L 20.714844 30.933594 L 22.023438 30.933594 L 20.964844 31.703125 L 21.367188 32.945312 L 20.308594 32.179688 Z M 19.25 32.945312 "/>
<path style=" stroke:none;fill-rule:nonzero;fill:rgb(28.627451%,43.137255%,17.647059%);fill-opacity:1;" d="M 25 34.8125 L 24.59375 33.566406 L 23.285156 33.566406 L 24.34375 32.800781 L 23.941406 31.558594 L 25 32.324219 L 26.058594 31.558594 L 25.65625 32.800781 L 26.714844 33.566406 L 25.40625 33.566406 Z M 25 34.8125 "/>
<path style=" stroke:none;fill-rule:nonzero;fill:rgb(28.627451%,43.137255%,17.647059%);fill-opacity:1;" d="M 30.75 32.945312 L 29.691406 32.179688 L 28.632812 32.945312 L 29.035156 31.703125 L 27.976562 30.933594 L 29.285156 30.933594 L 29.691406 29.691406 L 30.09375 30.933594 L 31.40625 30.933594 L 30.34375 31.703125 Z M 30.75 32.945312 "/>
<path style=" stroke:none;fill-rule:nonzero;fill:rgb(28.627451%,43.137255%,17.647059%);fill-opacity:1;" d="M 34.304688 28.066406 L 32.996094 28.066406 L 32.589844 29.308594 L 32.183594 28.066406 L 30.875 28.066406 L 31.933594 27.296875 L 31.53125 26.054688 L 32.589844 26.820312 L 33.648438 26.054688 L 33.246094 27.296875 Z M 34.304688 28.066406 "/>
<path style=" stroke:none;fill-rule:nonzero;fill:rgb(28.627451%,43.137255%,17.647059%);fill-opacity:1;" d="M 34.304688 22.03125 L 33.246094 22.800781 L 33.648438 24.042969 L 32.589844 23.273438 L 31.53125 24.042969 L 31.933594 22.800781 L 30.875 22.03125 L 32.183594 22.03125 L 32.589844 20.789062 L 32.996094 22.03125 Z M 34.304688 22.03125 "/>
<path style=" stroke:none;fill-rule:nonzero;fill:rgb(28.627451%,43.137255%,17.647059%);fill-opacity:1;" d="M 30.75 17.148438 L 30.34375 18.390625 L 31.40625 19.160156 L 30.09375 19.160156 L 29.691406 20.402344 L 29.285156 19.160156 L 27.976562 19.160156 L 29.035156 18.390625 L 28.632812 17.148438 L 29.691406 17.917969 Z M 30.75 17.148438 "/>
</g>
</svg>
