<?xml version="1.0" encoding="UTF-8"?>
<svg xmlns="http://www.w3.org/2000/svg" xmlns:xlink="http://www.w3.org/1999/xlink" width="50px" height="50px" viewBox="0 0 50 50" version="1.1">
<g id="surface1">
<path style=" stroke:none;fill-rule:nonzero;fill:rgb(94.117647%,94.117647%,94.117647%);fill-opacity:1;" d="M 25 50 C 38.808594 50 50 38.808594 50 25 C 50 11.191406 38.808594 0 25 0 C 11.191406 0 0 11.191406 0 25 C 0 38.808594 11.191406 50 25 50 Z M 25 50 "/>
<path style=" stroke:none;fill-rule:nonzero;fill:rgb(84.705882%,0%,15.294118%);fill-opacity:1;" d="M 0.859375 31.523438 C 3.167969 40.085938 9.914062 46.832031 18.476562 49.140625 L 18.476562 31.523438 Z M 0.859375 31.523438 "/>
<path style=" stroke:none;fill-rule:nonzero;fill:rgb(0%,32.156863%,70.588235%);fill-opacity:1;" d="M 18.476562 0.859375 C 9.914062 3.167969 3.167969 9.914062 0.859375 18.476562 L 18.476562 18.476562 Z M 18.476562 0.859375 "/>
<path style=" stroke:none;fill-rule:nonzero;fill:rgb(84.705882%,0%,15.294118%);fill-opacity:1;" d="M 49.140625 18.476562 C 46.832031 9.914062 40.085938 3.167969 31.523438 0.859375 L 31.523438 18.476562 Z M 49.140625 18.476562 "/>
<path style=" stroke:none;fill-rule:nonzero;fill:rgb(0%,32.156863%,70.588235%);fill-opacity:1;" d="M 31.523438 49.140625 C 40.085938 46.832031 46.832031 40.085938 49.140625 31.523438 L 31.523438 31.523438 Z M 31.523438 49.140625 "/>
<path style=" stroke:none;fill-rule:nonzero;fill:rgb(28.627451%,43.137255%,17.647059%);fill-opacity:1;" d="M 31.523438 25 C 31.523438 28.601562 28.601562 31.523438 25 31.523438 C 21.398438 31.523438 18.476562 28.601562 18.476562 25 C 18.476562 21.398438 25 18.476562 25 18.476562 C 25 18.476562 31.523438 21.398438 31.523438 25 Z M 31.523438 25 "/>
<path style=" stroke:none;fill-rule:nonzero;fill:rgb(0%,32.156863%,70.588235%);fill-opacity:1;" d="M 18.476562 25 C 18.476562 21.398438 21.398438 18.476562 25 18.476562 C 28.601562 18.476562 31.523438 21.398438 31.523438 25 "/>
<path style=" stroke:none;fill-rule:nonzero;fill:rgb(84.705882%,0%,15.294118%);fill-opacity:1;" d="M 21.332031 21.738281 L 21.332031 25.816406 C 21.332031 27.839844 22.972656 29.484375 25 29.484375 C 27.027344 29.484375 28.667969 27.839844 28.667969 25.816406 L 28.667969 21.738281 Z M 21.332031 21.738281 "/>
</g>
</svg>
