<?xml version="1.0" encoding="UTF-8"?>
<svg xmlns="http://www.w3.org/2000/svg" xmlns:xlink="http://www.w3.org/1999/xlink" width="50px" height="50px" viewBox="0 0 50 50" version="1.1">
<g id="surface1">
<path style=" stroke:none;fill-rule:nonzero;fill:rgb(100%,85.490196%,26.666667%);fill-opacity:1;" d="M 0 25 C 0 11.191406 11.191406 0 25 0 C 38.808594 0 50 11.191406 50 25 L 25 27.175781 Z M 0 25 "/>
<path style=" stroke:none;fill-rule:nonzero;fill:rgb(84.705882%,0%,15.294118%);fill-opacity:1;" d="M 3.34375 37.5 C 7.667969 44.972656 15.746094 50 25 50 C 34.253906 50 42.332031 44.972656 46.65625 37.5 L 25 35.871094 Z M 3.34375 37.5 "/>
<path style=" stroke:none;fill-rule:nonzero;fill:rgb(0%,32.156863%,70.588235%);fill-opacity:1;" d="M 46.65625 37.5 C 48.78125 33.824219 50 29.554688 50 25 L 0 25 C 0 29.554688 1.21875 33.824219 3.34375 37.5 Z M 46.65625 37.5 "/>
<path style=" stroke:none;fill-rule:nonzero;fill:rgb(100%,85.490196%,26.666667%);fill-opacity:1;" d="M 25 33.695312 C 29.800781 33.695312 33.695312 29.800781 33.695312 25 C 33.695312 20.199219 29.800781 16.304688 25 16.304688 C 20.199219 16.304688 16.304688 20.199219 16.304688 25 C 16.304688 29.800781 20.199219 33.695312 25 33.695312 Z M 25 33.695312 "/>
<path style=" stroke:none;fill-rule:nonzero;fill:rgb(20%,54.117647%,95.294118%);fill-opacity:1;" d="M 25 30.433594 C 22.003906 30.433594 19.566406 27.996094 19.566406 25 L 19.566406 21.738281 C 19.566406 18.742188 22.003906 16.304688 25 16.304688 C 27.996094 16.304688 30.433594 18.742188 30.433594 21.738281 L 30.433594 25 C 30.433594 27.996094 27.996094 30.433594 25 30.433594 Z M 25 30.433594 "/>
<path style=" stroke:none;fill-rule:nonzero;fill:rgb(0%,0%,0%);fill-opacity:1;" d="M 33.695312 11.957031 L 27.171875 11.957031 C 27.171875 10.757812 26.199219 9.78125 25 9.78125 C 23.800781 9.78125 22.824219 10.757812 22.824219 11.957031 L 16.304688 11.957031 C 16.304688 13.15625 17.351562 14.128906 18.550781 14.128906 L 18.476562 14.128906 C 18.476562 15.332031 19.453125 16.304688 20.652344 16.304688 C 20.652344 17.503906 21.625 18.476562 22.824219 18.476562 L 27.171875 18.476562 C 28.375 18.476562 29.347656 17.503906 29.347656 16.304688 C 30.546875 16.304688 31.523438 15.332031 31.523438 14.128906 L 31.449219 14.128906 C 32.648438 14.128906 33.695312 13.15625 33.695312 11.957031 Z M 33.695312 11.957031 "/>
</g>
</svg>
