<?xml version="1.0" encoding="UTF-8"?>
<svg xmlns="http://www.w3.org/2000/svg" xmlns:xlink="http://www.w3.org/1999/xlink" width="50px" height="50px" viewBox="0 0 50 50" version="1.1">
<g id="surface1">
<path style=" stroke:none;fill-rule:nonzero;fill:rgb(94.117647%,94.117647%,94.117647%);fill-opacity:1;" d="M 25 50 C 38.808594 50 50 38.808594 50 25 C 50 11.191406 38.808594 0 25 0 C 11.191406 0 0 11.191406 0 25 C 0 38.808594 11.191406 50 25 50 Z M 25 50 "/>
<path style=" stroke:none;fill-rule:nonzero;fill:rgb(84.705882%,0%,15.294118%);fill-opacity:1;" d="M 25 0 C 14.25 0 5.085938 6.785156 1.554688 16.304688 L 48.445312 16.304688 C 44.914062 6.785156 35.75 0 25 0 Z M 25 0 "/>
<path style=" stroke:none;fill-rule:nonzero;fill:rgb(0%,0%,0%);fill-opacity:1;" d="M 25 50 C 35.75 50 44.914062 43.214844 48.445312 33.695312 L 1.554688 33.695312 C 5.085938 43.214844 14.25 50 25 50 Z M 25 50 "/>
<path style=" stroke:none;fill-rule:nonzero;fill:rgb(100%,59.607843%,6.666667%);fill-opacity:1;" d="M 33.695312 22.28125 L 27.171875 22.28125 C 27.171875 21.082031 26.199219 20.109375 25 20.109375 C 23.800781 20.109375 22.824219 21.082031 22.824219 22.28125 L 16.304688 22.28125 C 16.304688 23.484375 17.351562 24.457031 18.550781 24.457031 L 18.476562 24.457031 C 18.476562 25.65625 19.453125 26.628906 20.652344 26.628906 C 20.652344 27.832031 21.625 28.804688 22.824219 28.804688 L 27.171875 28.804688 C 28.375 28.804688 29.347656 27.832031 29.347656 26.628906 C 30.546875 26.628906 31.523438 25.65625 31.523438 24.457031 L 31.449219 24.457031 C 32.648438 24.457031 33.695312 23.484375 33.695312 22.28125 Z M 33.695312 22.28125 "/>
</g>
</svg>
