<?xml version="1.0" encoding="UTF-8"?>
<svg xmlns="http://www.w3.org/2000/svg" xmlns:xlink="http://www.w3.org/1999/xlink" width="50px" height="50px" viewBox="0 0 50 50" version="1.1">
<g id="surface1">
<path style=" stroke:none;fill-rule:nonzero;fill:rgb(94.117647%,94.117647%,94.117647%);fill-opacity:1;" d="M 25 50 C 38.808594 50 50 38.808594 50 25 C 50 11.191406 38.808594 0 25 0 C 11.191406 0 0 11.191406 0 25 C 0 38.808594 11.191406 50 25 50 Z M 25 50 "/>
<path style=" stroke:none;fill-rule:nonzero;fill:rgb(0%,32.156863%,70.588235%);fill-opacity:1;" d="M 25 0 C 15.089844 0 6.523438 5.769531 2.480469 14.128906 L 47.519531 14.128906 C 43.476562 5.769531 34.910156 0 25 0 Z M 25 0 "/>
<path style=" stroke:none;fill-rule:nonzero;fill:rgb(0%,32.156863%,70.588235%);fill-opacity:1;" d="M 25 50 C 34.910156 50 43.476562 44.230469 47.519531 35.871094 L 2.480469 35.871094 C 6.523438 44.230469 15.089844 50 25 50 Z M 25 50 "/>
<path style=" stroke:none;fill-rule:nonzero;fill:rgb(100%,85.490196%,26.666667%);fill-opacity:1;" d="M 19.980469 26.085938 L 25 17.390625 L 30.019531 26.085938 Z M 19.980469 26.085938 "/>
<path style=" stroke:none;fill-rule:nonzero;fill:rgb(42.745098%,64.705882%,26.666667%);fill-opacity:1;" d="M 31.523438 28.957031 L 25 32.21875 L 18.476562 28.957031 L 18.476562 24.609375 L 31.523438 24.609375 Z M 31.523438 28.957031 "/>
<path style=" stroke:none;fill-rule:nonzero;fill:rgb(100%,85.490196%,26.666667%);fill-opacity:1;" d="M 31.148438 17.765625 L 28.84375 20.070312 C 29.828125 21.054688 30.433594 22.414062 30.433594 23.914062 C 30.433594 26.914062 28 29.347656 25 29.347656 C 22 29.347656 19.566406 26.914062 19.566406 23.914062 C 19.566406 22.414062 20.171875 21.054688 21.15625 20.070312 L 18.851562 17.765625 C 17.277344 19.335938 16.304688 21.511719 16.304688 23.914062 C 16.304688 28.714844 20.199219 32.609375 25 32.609375 C 29.800781 32.609375 33.695312 28.714844 33.695312 23.914062 C 33.695312 21.511719 32.722656 19.335938 31.148438 17.765625 Z M 31.148438 17.765625 "/>
</g>
</svg>
