<?xml version="1.0" encoding="UTF-8"?>
<svg xmlns="http://www.w3.org/2000/svg" xmlns:xlink="http://www.w3.org/1999/xlink" width="50px" height="50px" viewBox="0 0 50 50" version="1.1">
<g id="surface1">
<path style=" stroke:none;fill-rule:nonzero;fill:rgb(94.117647%,94.117647%,94.117647%);fill-opacity:1;" d="M 25 50 C 38.808594 50 50 38.808594 50 25 C 50 11.191406 38.808594 0 25 0 C 11.191406 0 0 11.191406 0 25 C 0 38.808594 11.191406 50 25 50 Z M 25 50 "/>
<path style=" stroke:none;fill-rule:nonzero;fill:rgb(84.705882%,0%,15.294118%);fill-opacity:1;" d="M 49.789062 21.738281 L 28.261719 21.738281 L 28.261719 0.210938 C 27.195312 0.0742188 26.105469 0 25 0 C 23.894531 0 22.804688 0.0742188 21.738281 0.210938 L 21.738281 21.738281 L 0.210938 21.738281 C 0.0742188 22.804688 0 23.894531 0 25 C 0 26.105469 0.0742188 27.195312 0.210938 28.261719 L 21.738281 28.261719 L 21.738281 49.789062 C 22.804688 49.925781 23.894531 50 25 50 C 26.105469 50 27.195312 49.925781 28.261719 49.789062 L 28.261719 28.261719 L 49.789062 28.261719 C 49.925781 27.195312 50 26.105469 50 25 C 50 23.894531 49.925781 22.804688 49.789062 21.738281 Z M 49.789062 21.738281 "/>
</g>
</svg>
