<?xml version="1.0" encoding="UTF-8"?>
<svg xmlns="http://www.w3.org/2000/svg" xmlns:xlink="http://www.w3.org/1999/xlink" width="50px" height="50px" viewBox="0 0 50 50" version="1.1">
<g id="surface1">
<path style=" stroke:none;fill-rule:nonzero;fill:rgb(94.117647%,94.117647%,94.117647%);fill-opacity:1;" d="M 25 50 C 38.808594 50 50 38.808594 50 25 C 50 11.191406 38.808594 0 25 0 C 11.191406 0 0 11.191406 0 25 C 0 38.808594 11.191406 50 25 50 Z M 25 50 "/>
<path style=" stroke:none;fill-rule:nonzero;fill:rgb(42.745098%,64.705882%,26.666667%);fill-opacity:1;" d="M 15.21875 16.304688 L 48.445312 16.304688 C 44.914062 6.785156 35.75 0 25 0 C 18.097656 0 11.847656 2.796875 7.324219 7.324219 Z M 15.21875 16.304688 "/>
<path style=" stroke:none;fill-rule:nonzero;fill:rgb(84.705882%,0%,15.294118%);fill-opacity:1;" d="M 15.21875 33.695312 L 48.445312 33.695312 C 44.914062 43.214844 35.75 50 25 50 C 18.097656 50 11.847656 47.203125 7.324219 42.675781 Z M 15.21875 33.695312 "/>
<path style=" stroke:none;fill-rule:nonzero;fill:rgb(0%,32.156863%,70.588235%);fill-opacity:1;" d="M 7.320312 7.320312 C -2.441406 17.085938 -2.441406 32.914062 7.320312 42.679688 C 11.355469 38.644531 15.238281 34.761719 25 25 Z M 7.320312 7.320312 "/>
<path style=" stroke:none;fill-rule:nonzero;fill:rgb(87.058824%,86.666667%,87.843137%);fill-opacity:1;" d="M 29.347656 20.652344 L 29.347656 26.085938 C 29.347656 29.414062 33.695312 30.433594 33.695312 30.433594 C 33.695312 30.433594 38.042969 29.414062 38.042969 26.085938 L 38.042969 20.652344 Z M 29.347656 20.652344 "/>
<path style=" stroke:none;fill-rule:nonzero;fill:rgb(47.058824%,38.039216%,27.058824%);fill-opacity:1;" d="M 32.609375 25.109375 L 34.78125 25.109375 L 34.78125 28.261719 L 32.609375 28.261719 Z M 32.609375 25.109375 "/>
<path style=" stroke:none;fill-rule:nonzero;fill:rgb(42.745098%,64.705882%,26.666667%);fill-opacity:1;" d="M 35.871094 23.914062 C 35.871094 22.710938 34.894531 21.738281 33.695312 21.738281 C 32.496094 21.738281 31.523438 22.710938 31.523438 23.914062 C 30.921875 23.914062 30.433594 24.398438 30.433594 25 C 30.433594 25.601562 30.921875 26.085938 31.523438 26.085938 L 35.871094 26.085938 C 36.46875 26.085938 36.957031 25.601562 36.957031 25 C 36.957031 24.398438 36.46875 23.914062 35.871094 23.914062 Z M 35.871094 23.914062 "/>
</g>
</svg>
