<?xml version="1.0" encoding="UTF-8"?>
<svg xmlns="http://www.w3.org/2000/svg" xmlns:xlink="http://www.w3.org/1999/xlink" width="50px" height="50px" viewBox="0 0 50 50" version="1.1">
<g id="surface1">
<path style=" stroke:none;fill-rule:nonzero;fill:rgb(20%,54.117647%,95.294118%);fill-opacity:1;" d="M 22.824219 22.824219 C 22.824219 22.824219 7.335938 42.679688 7.320312 42.675781 C 11.847656 47.203125 18.097656 50 25 50 C 38.808594 50 50 38.808594 50 25 Z M 22.824219 22.824219 "/>
<path style=" stroke:none;fill-rule:nonzero;fill:rgb(42.745098%,64.705882%,26.666667%);fill-opacity:1;" d="M 22.824219 25 C 22.824219 25 7.335938 7.320312 7.320312 7.324219 C 11.847656 2.796875 18.097656 0 25 0 C 38.808594 0 50 11.191406 50 25 Z M 22.824219 25 "/>
<path style=" stroke:none;fill-rule:nonzero;fill:rgb(84.705882%,0%,15.294118%);fill-opacity:1;" d="M 7.320312 7.320312 C -2.441406 17.085938 -2.441406 32.914062 7.320312 42.679688 C 7.320312 42.683594 50 25 50 25 Z M 7.320312 7.320312 "/>
<path style=" stroke:none;fill-rule:nonzero;fill:rgb(100%,85.490196%,26.666667%);fill-opacity:1;" d="M 13.042969 14.675781 C 8.25 14.675781 4.347656 18.574219 4.347656 23.371094 L 4.347656 26.628906 C 4.347656 31.425781 8.25 35.324219 13.042969 35.324219 C 17.839844 35.324219 21.738281 31.425781 21.738281 26.628906 L 21.738281 23.371094 C 21.738281 18.574219 17.839844 14.675781 13.042969 14.675781 Z M 18.476562 26.628906 C 18.476562 29.058594 16.875 31.121094 14.671875 31.816406 L 14.671875 28.261719 L 16.980469 25.953125 L 14.675781 23.648438 L 14.671875 22.828125 L 14.671875 21.738281 L 11.414062 21.738281 L 11.414062 25 L 9.109375 27.304688 L 11.414062 29.609375 L 11.414062 31.816406 C 9.210938 31.121094 7.609375 29.058594 7.609375 26.628906 L 7.609375 23.371094 C 7.609375 20.371094 10.046875 17.933594 13.042969 17.933594 C 16.039062 17.933594 18.476562 20.375 18.476562 23.371094 Z M 18.476562 26.628906 "/>
</g>
</svg>
