<?xml version="1.0" encoding="UTF-8"?>
<svg xmlns="http://www.w3.org/2000/svg" xmlns:xlink="http://www.w3.org/1999/xlink" width="50px" height="50px" viewBox="0 0 50 50" version="1.1">
<defs>
<clipPath id="clip1">
  <path d="M 1 0.0976562 L 49 0.0976562 L 49 17 L 1 17 Z M 1 0.0976562 "/>
</clipPath>
</defs>
<g id="surface1">
<path style=" stroke:none;fill-rule:nonzero;fill:rgb(100%,85.490196%,26.666667%);fill-opacity:1;" d="M 0 25.046875 C 0 28.101562 0.550781 31.023438 1.554688 33.726562 L 25 35.894531 L 48.445312 33.726562 C 49.449219 31.023438 50 28.101562 50 25.046875 C 50 22.039062 49.464844 19.152344 48.488281 16.480469 L 25 14.199219 L 1.511719 16.480469 C 0.535156 19.152344 0 22.039062 0 25.046875 Z M 0 25.046875 "/>
<path style=" stroke:none;fill-rule:nonzero;fill:rgb(84.705882%,0%,15.294118%);fill-opacity:1;" d="M 25 50 C 35.75 50 44.914062 43.226562 48.445312 33.726562 L 1.554688 33.726562 C 5.085938 43.226562 14.25 50 25 50 Z M 25 50 "/>
<g clip-path="url(#clip1)" clip-rule="nonzero">
<path style=" stroke:none;fill-rule:nonzero;fill:rgb(42.745098%,64.705882%,26.666667%);fill-opacity:1;" d="M 25 0.0976562 C 14.25 0.0976562 5.085938 6.867188 1.554688 16.367188 L 48.445312 16.367188 C 44.914062 6.867188 35.75 0.0976562 25 0.0976562 Z M 25 0.0976562 "/>
</g>
<path style=" stroke:none;fill-rule:nonzero;fill:rgb(0%,32.156863%,70.588235%);fill-opacity:1;" d="M 25 36.980469 C 31.601562 36.980469 36.957031 31.636719 36.957031 25.046875 C 36.957031 18.457031 31.601562 13.113281 25 13.113281 C 18.398438 13.113281 13.042969 18.457031 13.042969 25.046875 C 13.042969 31.636719 18.398438 36.980469 25 36.980469 Z M 25 36.980469 "/>
<path style=" stroke:none;fill-rule:nonzero;fill:rgb(100%,85.490196%,26.666667%);fill-opacity:1;" d="M 24.996094 15.808594 L 27.15625 22.4375 L 34.152344 22.4375 L 28.488281 26.535156 L 30.664062 33.183594 L 24.996094 29.066406 L 19.339844 33.175781 L 21.503906 26.535156 L 15.847656 22.4375 L 22.839844 22.4375 Z M 24.996094 15.808594 "/>
<path style=" stroke:none;fill-rule:nonzero;fill:rgb(100%,85.490196%,26.666667%);fill-opacity:1;" d="M 33.605469 26.699219 L 26.757812 24.476562 L 30.992188 18.664062 L 29.230469 17.390625 L 25 23.203125 L 20.769531 17.390625 L 19.007812 18.664062 L 23.242188 24.476562 L 16.394531 26.699219 L 17.066406 28.761719 L 23.914062 26.539062 L 23.914062 33.726562 L 26.085938 33.726562 L 26.085938 26.539062 L 32.933594 28.761719 Z M 33.605469 26.699219 "/>
</g>
</svg>
