<?xml version="1.0" encoding="UTF-8"?>
<svg xmlns="http://www.w3.org/2000/svg" xmlns:xlink="http://www.w3.org/1999/xlink" width="50px" height="50px" viewBox="0 0 50 50" version="1.1">
<g id="surface1">
<path style=" stroke:none;fill-rule:nonzero;fill:rgb(0%,32.156863%,70.588235%);fill-opacity:1;" d="M 25 50 C 38.808594 50 50 38.808594 50 25 C 50 11.191406 38.808594 0 25 0 C 11.191406 0 0 11.191406 0 25 C 0 38.808594 11.191406 50 25 50 Z M 25 50 "/>
<path style=" stroke:none;fill-rule:nonzero;fill:rgb(100%,85.490196%,26.666667%);fill-opacity:1;" d="M 25 9.78125 L 25.808594 12.273438 L 28.429688 12.273438 L 26.308594 13.8125 L 27.117188 16.304688 L 25 14.765625 L 22.882812 16.304688 L 23.691406 13.8125 L 21.570312 12.273438 L 24.191406 12.273438 Z M 25 9.78125 "/>
<path style=" stroke:none;fill-rule:nonzero;fill:rgb(100%,85.490196%,26.666667%);fill-opacity:1;" d="M 14.238281 14.238281 L 16.574219 15.429688 L 18.425781 13.578125 L 18.015625 16.164062 L 20.351562 17.351562 L 17.761719 17.761719 L 17.351562 20.351562 L 16.164062 18.015625 L 13.578125 18.425781 L 15.429688 16.574219 Z M 14.238281 14.238281 "/>
<path style=" stroke:none;fill-rule:nonzero;fill:rgb(100%,85.490196%,26.666667%);fill-opacity:1;" d="M 9.78125 25 L 12.273438 24.191406 L 12.273438 21.570312 L 13.8125 23.691406 L 16.304688 22.882812 L 14.765625 25 L 16.304688 27.117188 L 13.8125 26.308594 L 12.273438 28.429688 L 12.273438 25.808594 Z M 9.78125 25 "/>
<path style=" stroke:none;fill-rule:nonzero;fill:rgb(100%,85.490196%,26.666667%);fill-opacity:1;" d="M 14.238281 35.761719 L 15.429688 33.425781 L 13.578125 31.574219 L 16.164062 31.984375 L 17.351562 29.648438 L 17.761719 32.238281 L 20.351562 32.648438 L 18.015625 33.835938 L 18.425781 36.421875 L 16.574219 34.570312 Z M 14.238281 35.761719 "/>
<path style=" stroke:none;fill-rule:nonzero;fill:rgb(100%,85.490196%,26.666667%);fill-opacity:1;" d="M 25 40.21875 L 24.191406 37.726562 L 21.570312 37.726562 L 23.691406 36.1875 L 22.882812 33.695312 L 25 35.234375 L 27.117188 33.695312 L 26.308594 36.1875 L 28.429688 37.726562 L 25.808594 37.726562 Z M 25 40.21875 "/>
<path style=" stroke:none;fill-rule:nonzero;fill:rgb(100%,85.490196%,26.666667%);fill-opacity:1;" d="M 35.761719 35.761719 L 33.425781 34.570312 L 31.574219 36.421875 L 31.984375 33.835938 L 29.652344 32.648438 L 32.238281 32.238281 L 32.648438 29.648438 L 33.835938 31.984375 L 36.421875 31.574219 L 34.570312 33.425781 Z M 35.761719 35.761719 "/>
<path style=" stroke:none;fill-rule:nonzero;fill:rgb(100%,85.490196%,26.666667%);fill-opacity:1;" d="M 40.21875 25 L 37.726562 25.808594 L 37.726562 28.429688 L 36.1875 26.308594 L 33.695312 27.117188 L 35.234375 25 L 33.695312 22.882812 L 36.1875 23.691406 L 37.726562 21.570312 L 37.726562 24.191406 Z M 40.21875 25 "/>
<path style=" stroke:none;fill-rule:nonzero;fill:rgb(100%,85.490196%,26.666667%);fill-opacity:1;" d="M 35.761719 14.238281 L 34.570312 16.574219 L 36.421875 18.425781 L 33.835938 18.015625 L 32.648438 20.351562 L 32.238281 17.761719 L 29.652344 17.351562 L 31.984375 16.164062 L 31.574219 13.578125 L 33.425781 15.429688 Z M 35.761719 14.238281 "/>
</g>
</svg>
