<?xml version="1.0" encoding="UTF-8"?>
<svg xmlns="http://www.w3.org/2000/svg" xmlns:xlink="http://www.w3.org/1999/xlink" width="50px" height="50px" viewBox="0 0 50 50" version="1.1">
<g id="surface1">
<path style=" stroke:none;fill-rule:nonzero;fill:rgb(94.117647%,94.117647%,94.117647%);fill-opacity:1;" d="M 25 50 C 38.808594 50 50 38.808594 50 25 C 50 11.191406 38.808594 0 25 0 C 11.191406 0 0 11.191406 0 25 C 0 38.808594 11.191406 50 25 50 Z M 25 50 "/>
<path style=" stroke:none;fill-rule:nonzero;fill:rgb(84.705882%,0%,15.294118%);fill-opacity:1;" d="M 3.039062 13.042969 L 46.960938 13.042969 C 42.71875 5.273438 34.476562 0 25 0 C 15.523438 0 7.28125 5.273438 3.039062 13.042969 Z M 3.039062 13.042969 "/>
<path style=" stroke:none;fill-rule:nonzero;fill:rgb(84.705882%,0%,15.294118%);fill-opacity:1;" d="M 25 50 C 34.476562 50 42.71875 44.726562 46.960938 36.957031 L 3.039062 36.957031 C 7.28125 44.726562 15.523438 50 25 50 Z M 25 50 "/>
<path style=" stroke:none;fill-rule:nonzero;fill:rgb(100%,85.490196%,26.666667%);fill-opacity:1;" d="M 33.695312 25 C 33.695312 29.800781 29.800781 32.609375 25 32.609375 C 20.199219 32.609375 16.304688 29.800781 16.304688 25 C 16.304688 20.199219 20.199219 16.304688 25 16.304688 C 29.800781 16.304688 33.695312 20.199219 33.695312 25 Z M 33.695312 25 "/>
<path style=" stroke:none;fill-rule:nonzero;fill:rgb(0%,32.156863%,70.588235%);fill-opacity:1;" d="M 33.695312 25 C 33.695312 29.800781 29.800781 33.695312 25 33.695312 C 20.199219 33.695312 16.304688 29.800781 16.304688 25 "/>
<path style=" stroke:none;fill-rule:nonzero;fill:rgb(84.705882%,0%,15.294118%);fill-opacity:1;" d="M 19.566406 22.824219 L 21.738281 22.824219 L 21.738281 27.175781 L 19.566406 27.175781 Z M 19.566406 22.824219 "/>
<path style=" stroke:none;fill-rule:nonzero;fill:rgb(84.705882%,0%,15.294118%);fill-opacity:1;" d="M 28.261719 22.824219 L 30.433594 22.824219 L 30.433594 27.175781 L 28.261719 27.175781 Z M 28.261719 22.824219 "/>
<path style=" stroke:none;fill-rule:nonzero;fill:rgb(84.705882%,0%,15.294118%);fill-opacity:1;" d="M 23.914062 19.566406 L 26.085938 19.566406 L 26.085938 27.175781 L 23.914062 27.175781 Z M 23.914062 19.566406 "/>
</g>
</svg>
