<?xml version="1.0" encoding="UTF-8"?>
<svg xmlns="http://www.w3.org/2000/svg" xmlns:xlink="http://www.w3.org/1999/xlink" width="50px" height="50px" viewBox="0 0 50 50" version="1.1">
<defs>
<clipPath id="clip1">
  <path d="M 0 0.0976562 L 50 0.0976562 L 50 50 L 0 50 Z M 0 0.0976562 "/>
</clipPath>
<clipPath id="clip2">
  <path d="M 1 0.0976562 L 49 0.0976562 L 49 16 L 1 16 Z M 1 0.0976562 "/>
</clipPath>
</defs>
<g id="surface1">
<g clip-path="url(#clip1)" clip-rule="nonzero">
<path style=" stroke:none;fill-rule:nonzero;fill:rgb(94.117647%,94.117647%,94.117647%);fill-opacity:1;" d="M 25 50 C 38.808594 50 50 38.828125 50 25.046875 C 50 11.265625 38.808594 0.0976562 25 0.0976562 C 11.191406 0.0976562 0 11.265625 0 25.046875 C 0 38.828125 11.191406 50 25 50 Z M 25 50 "/>
</g>
<g clip-path="url(#clip2)" clip-rule="nonzero">
<path style=" stroke:none;fill-rule:nonzero;fill:rgb(63.529412%,0%,11.372549%);fill-opacity:1;" d="M 25 0.0976562 C 14.664062 0.0976562 5.792969 6.355469 1.988281 15.285156 L 48.011719 15.285156 C 44.207031 6.355469 35.335938 0.0976562 25 0.0976562 Z M 25 0.0976562 "/>
</g>
<path style=" stroke:none;fill-rule:nonzero;fill:rgb(28.627451%,43.137255%,17.647059%);fill-opacity:1;" d="M 25 50 C 35.335938 50 44.207031 43.738281 48.011719 34.8125 L 1.988281 34.8125 C 5.792969 43.738281 14.664062 50 25 50 Z M 25 50 "/>
<path style=" stroke:none;fill-rule:nonzero;fill:rgb(0%,32.156863%,70.588235%);fill-opacity:1;" d="M 49.140625 18.539062 L 0.859375 18.539062 C 0.300781 20.613281 0 22.796875 0 25.046875 C 0 27.300781 0.300781 29.480469 0.859375 31.558594 L 49.140625 31.558594 C 49.699219 29.480469 50 27.300781 50 25.046875 C 50 22.796875 49.699219 20.613281 49.140625 18.539062 Z M 49.140625 18.539062 "/>
</g>
</svg>
