<?xml version="1.0" encoding="UTF-8"?>
<svg xmlns="http://www.w3.org/2000/svg" xmlns:xlink="http://www.w3.org/1999/xlink" width="50px" height="50px" viewBox="0 0 50 50" version="1.1">
<g id="surface1">
<path style=" stroke:none;fill-rule:nonzero;fill:rgb(94.117647%,94.117647%,94.117647%);fill-opacity:1;" d="M 0 25 C 0 11.191406 11.191406 0 25 0 C 38.808594 0 50 11.191406 50 25 C 48.914062 25 25 28.261719 25 28.261719 Z M 0 25 "/>
<path style=" stroke:none;fill-rule:nonzero;fill:rgb(84.705882%,0%,15.294118%);fill-opacity:1;" d="M 50 25 C 50 38.808594 38.808594 50 25 50 C 11.191406 50 0 38.808594 0 25 "/>
<path style=" stroke:none;fill-rule:nonzero;fill:rgb(94.117647%,94.117647%,94.117647%);fill-opacity:1;" d="M 17.390625 36.957031 C 23.996094 36.957031 29.347656 31.601562 29.347656 25 C 29.347656 18.398438 23.996094 13.042969 17.390625 13.042969 C 10.789062 13.042969 5.433594 18.398438 5.433594 25 C 5.433594 31.601562 10.789062 36.957031 17.390625 36.957031 Z M 17.390625 36.957031 "/>
<path style=" stroke:none;fill-rule:nonzero;fill:rgb(84.705882%,0%,15.294118%);fill-opacity:1;" d="M 5.433594 25 C 5.433594 18.398438 10.789062 13.042969 17.390625 13.042969 C 23.996094 13.042969 29.347656 18.398438 29.347656 25 "/>
</g>
</svg>
