<?xml version="1.0" encoding="UTF-8"?>
<svg xmlns="http://www.w3.org/2000/svg" xmlns:xlink="http://www.w3.org/1999/xlink" width="50px" height="50px" viewBox="0 0 50 50" version="1.1">
<g id="surface1">
<path style=" stroke:none;fill-rule:nonzero;fill:rgb(100%,85.490196%,26.666667%);fill-opacity:1;" d="M 25 50 C 38.808594 50 50 38.808594 50 25 C 50 11.191406 38.808594 0 25 0 C 11.191406 0 0 11.191406 0 25 C 0 38.808594 11.191406 50 25 50 Z M 25 50 "/>
<path style=" stroke:none;fill-rule:nonzero;fill:rgb(63.529412%,0%,11.372549%);fill-opacity:1;" d="M 10.910156 4.347656 C 14.921875 1.605469 19.773438 0 25 0 C 30.226562 0 35.078125 1.605469 39.089844 4.347656 L 25 5.433594 Z M 10.910156 4.347656 "/>
<path style=" stroke:none;fill-rule:nonzero;fill:rgb(0%,32.156863%,70.588235%);fill-opacity:1;" d="M 25 25 L 23.40625 23.40625 L 22.980469 24.164062 Z M 25 25 "/>
<path style=" stroke:none;fill-rule:nonzero;fill:rgb(28.627451%,43.137255%,17.647059%);fill-opacity:1;" d="M 7.320312 7.320312 C -2.441406 17.085938 -2.441406 32.914062 7.320312 42.679688 C 11.355469 38.644531 15.238281 34.761719 25 25 Z M 7.320312 7.320312 "/>
<path style=" stroke:none;fill-rule:nonzero;fill:rgb(28.627451%,43.137255%,17.647059%);fill-opacity:1;" d="M 42.679688 7.320312 C 52.441406 17.085938 52.441406 32.914062 42.679688 42.679688 C 38.644531 38.644531 34.761719 34.761719 25 25 Z M 42.679688 7.320312 "/>
<path style=" stroke:none;fill-rule:nonzero;fill:rgb(63.529412%,0%,11.372549%);fill-opacity:1;" d="M 25 33.695312 C 29.800781 33.695312 33.695312 29.800781 33.695312 25 C 33.695312 20.199219 29.800781 16.304688 25 16.304688 C 20.199219 16.304688 16.304688 20.199219 16.304688 25 C 16.304688 29.800781 20.199219 33.695312 25 33.695312 Z M 25 33.695312 "/>
<path style=" stroke:none;fill-rule:nonzero;fill:rgb(100%,85.490196%,26.666667%);fill-opacity:1;" d="M 25 16.304688 L 26.949219 22.304688 L 33.257812 22.304688 L 28.152344 26.011719 L 30.101562 32.011719 L 25 28.304688 L 19.894531 32.011719 L 21.847656 26.011719 L 16.742188 22.304688 L 23.050781 22.304688 Z M 25 16.304688 "/>
<path style=" stroke:none;fill-rule:nonzero;fill:rgb(63.529412%,0%,11.372549%);fill-opacity:1;" d="M 25.007812 0 L 24.992188 0 C 18.09375 0.00390625 11.847656 2.800781 7.324219 7.320312 L 42.675781 7.320312 C 38.152344 2.800781 31.90625 0.00390625 25.007812 0 Z M 25.007812 0 "/>
<path style=" stroke:none;fill-rule:nonzero;fill:rgb(63.529412%,0%,11.372549%);fill-opacity:1;" d="M 7.324219 42.679688 C 11.847656 47.203125 18.097656 50 25 50 C 31.902344 50 38.152344 47.203125 42.675781 42.679688 Z M 7.324219 42.679688 "/>
<path style=" stroke:none;fill-rule:nonzero;fill:rgb(100%,85.490196%,26.666667%);fill-opacity:1;" d="M 25 2.71875 L 25.40625 3.960938 L 26.714844 3.960938 L 25.65625 4.734375 L 26.058594 5.976562 L 25 5.207031 L 23.941406 5.976562 L 24.34375 4.734375 L 23.285156 3.960938 L 24.59375 3.960938 Z M 25 2.71875 "/>
<path style=" stroke:none;fill-rule:nonzero;fill:rgb(100%,85.490196%,26.666667%);fill-opacity:1;" d="M 18.9375 2.71875 L 19.34375 3.960938 L 20.652344 3.960938 L 19.59375 4.734375 L 19.996094 5.976562 L 18.9375 5.207031 L 17.878906 5.976562 L 18.28125 4.734375 L 17.222656 3.960938 L 18.53125 3.960938 Z M 18.9375 2.71875 "/>
<path style=" stroke:none;fill-rule:nonzero;fill:rgb(100%,85.490196%,26.666667%);fill-opacity:1;" d="M 31.0625 2.71875 L 31.46875 3.960938 L 32.777344 3.960938 L 31.71875 4.734375 L 32.121094 5.976562 L 31.0625 5.207031 L 30.003906 5.976562 L 30.40625 4.734375 L 29.347656 3.960938 L 30.65625 3.960938 Z M 31.0625 2.71875 "/>
<path style=" stroke:none;fill-rule:nonzero;fill:rgb(100%,85.490196%,26.666667%);fill-opacity:1;" d="M 25 44.023438 L 25.40625 45.265625 L 26.714844 45.265625 L 25.65625 46.035156 L 26.058594 47.28125 L 25 46.511719 L 23.941406 47.28125 L 24.34375 46.035156 L 23.285156 45.265625 L 24.59375 45.265625 Z M 25 44.023438 "/>
<path style=" stroke:none;fill-rule:nonzero;fill:rgb(100%,85.490196%,26.666667%);fill-opacity:1;" d="M 18.9375 44.023438 L 19.34375 45.265625 L 20.652344 45.265625 L 19.59375 46.035156 L 19.996094 47.28125 L 18.9375 46.511719 L 17.878906 47.28125 L 18.28125 46.035156 L 17.222656 45.265625 L 18.53125 45.265625 Z M 18.9375 44.023438 "/>
<path style=" stroke:none;fill-rule:nonzero;fill:rgb(100%,85.490196%,26.666667%);fill-opacity:1;" d="M 31.0625 44.023438 L 31.46875 45.265625 L 32.777344 45.265625 L 31.71875 46.035156 L 32.121094 47.28125 L 31.0625 46.511719 L 30.003906 47.28125 L 30.40625 46.035156 L 29.347656 45.265625 L 30.65625 45.265625 Z M 31.0625 44.023438 "/>
<path style=" stroke:none;fill-rule:nonzero;fill:rgb(100%,85.490196%,26.666667%);fill-opacity:1;" d="M 7.617188 24.585938 C 8.257812 25.601562 7.957031 26.945312 6.941406 27.585938 C 5.929688 28.230469 4.585938 27.925781 3.945312 26.914062 C 2.78125 25.074219 3.457031 22.078125 3.457031 22.078125 C 3.457031 22.078125 6.453125 22.75 7.617188 24.585938 Z M 7.617188 24.585938 "/>
<path style=" stroke:none;fill-rule:nonzero;fill:rgb(63.529412%,0%,11.372549%);fill-opacity:1;" d="M 6.363281 27.753906 C 6.960938 27.753906 7.449219 27.269531 7.449219 26.667969 C 7.449219 26.066406 6.960938 25.582031 6.363281 25.582031 C 5.761719 25.582031 5.273438 26.066406 5.273438 26.667969 C 5.273438 27.269531 5.761719 27.753906 6.363281 27.753906 Z M 6.363281 27.753906 "/>
</g>
</svg>
