<?xml version="1.0" encoding="UTF-8"?>
<svg xmlns="http://www.w3.org/2000/svg" xmlns:xlink="http://www.w3.org/1999/xlink" width="50px" height="50px" viewBox="0 0 50 50" version="1.1">
<g id="surface1">
<path style=" stroke:none;fill-rule:nonzero;fill:rgb(84.705882%,0%,15.294118%);fill-opacity:1;" d="M 10.910156 45.652344 C 14.921875 48.394531 19.773438 50 25 50 C 30.226562 50 35.078125 48.394531 39.089844 45.652344 L 25 43.476562 Z M 10.910156 45.652344 "/>
<path style=" stroke:none;fill-rule:nonzero;fill:rgb(84.705882%,0%,15.294118%);fill-opacity:1;" d="M 39.089844 4.347656 C 35.078125 1.605469 30.226562 0 25 0 C 19.773438 0 14.921875 1.605469 10.910156 4.347656 L 25 6.523438 Z M 39.089844 4.347656 "/>
<path style=" stroke:none;fill-rule:nonzero;fill:rgb(0%,32.156863%,70.588235%);fill-opacity:1;" d="M 50 25 C 50 16.726562 45.046875 8.421875 39.089844 4.347656 L 10.910156 4.347656 C 4.324219 8.851562 0 16.421875 0 25 C 0 33.582031 4.324219 41.148438 10.910156 45.652344 L 39.089844 45.652344 C 45.675781 41.148438 50 33.582031 50 25 Z M 50 25 "/>
<path style=" stroke:none;fill-rule:nonzero;fill:rgb(84.705882%,0%,15.294118%);fill-opacity:1;" d="M 23.585938 40.78125 C 23.242188 40.488281 15.21875 33.511719 15.21875 25 C 15.21875 16.488281 23.242188 9.511719 23.585938 9.21875 L 25 8.007812 L 26.414062 9.21875 C 26.757812 9.511719 34.78125 16.488281 34.78125 25 C 34.78125 33.511719 26.757812 40.488281 26.414062 40.78125 L 25 41.992188 Z M 23.585938 40.78125 "/>
<path style=" stroke:none;fill-rule:nonzero;fill:rgb(20%,54.117647%,95.294118%);fill-opacity:1;" d="M 32.609375 25 C 32.609375 17.390625 25 10.871094 25 10.871094 C 25 10.871094 17.390625 17.390625 17.390625 25 C 17.390625 27.328125 18.105469 29.554688 19.09375 31.523438 L 30.90625 31.523438 C 31.894531 29.554688 32.609375 27.328125 32.609375 25 Z M 32.609375 25 "/>
<path style=" stroke:none;fill-rule:nonzero;fill:rgb(0%,32.156863%,70.588235%);fill-opacity:1;" d="M 32.609375 25 C 32.609375 27.328125 31.894531 29.554688 30.90625 31.523438 L 25 32.609375 L 19.09375 31.523438 C 18.105469 29.554688 17.390625 27.328125 17.390625 25 Z M 32.609375 25 "/>
<path style=" stroke:none;fill-rule:nonzero;fill:rgb(100%,85.490196%,26.666667%);fill-opacity:1;" d="M 25 39.128906 C 25 39.128906 28.664062 35.988281 30.90625 31.523438 L 19.09375 31.523438 C 21.335938 35.988281 25 39.128906 25 39.128906 Z M 25 39.128906 "/>
<path style=" stroke:none;fill-rule:nonzero;fill:rgb(42.745098%,64.705882%,26.666667%);fill-opacity:1;" d="M 20.109375 20.652344 L 29.890625 20.652344 L 25 25.542969 Z M 20.109375 20.652344 "/>
<path style=" stroke:none;fill-rule:nonzero;fill:rgb(63.529412%,0%,11.372549%);fill-opacity:1;" d="M 23.371094 23.914062 L 26.628906 23.914062 L 26.628906 33.695312 L 23.371094 33.695312 Z M 23.371094 23.914062 "/>
</g>
</svg>
