<?xml version="1.0" encoding="UTF-8"?>
<svg xmlns="http://www.w3.org/2000/svg" xmlns:xlink="http://www.w3.org/1999/xlink" width="50px" height="50px" viewBox="0 0 50 50" version="1.1">
<g id="surface1">
<path style=" stroke:none;fill-rule:nonzero;fill:rgb(94.117647%,94.117647%,94.117647%);fill-opacity:1;" d="M 25 50 C 38.808594 50 50 38.808594 50 25 C 50 11.191406 38.808594 0 25 0 C 11.191406 0 0 11.191406 0 25 C 0 38.808594 11.191406 50 25 50 Z M 25 50 "/>
<path style=" stroke:none;fill-rule:nonzero;fill:rgb(20%,54.117647%,95.294118%);fill-opacity:1;" d="M 50 25 C 50 15.089844 44.230469 6.523438 35.871094 2.480469 L 35.871094 47.519531 C 44.230469 43.476562 50 34.910156 50 25 Z M 50 25 "/>
<path style=" stroke:none;fill-rule:nonzero;fill:rgb(20%,54.117647%,95.294118%);fill-opacity:1;" d="M 0 25 C 0 34.910156 5.769531 43.476562 14.128906 47.519531 L 14.128906 2.480469 C 5.769531 6.523438 0 15.089844 0 25 Z M 0 25 "/>
<path style=" stroke:none;fill-rule:nonzero;fill:rgb(67.45098%,67.058824%,69.411765%);fill-opacity:1;" d="M 31.53125 29.226562 L 27.304688 25 L 31.328125 20.976562 L 31.148438 18.851562 L 29.996094 17.699219 L 25 22.695312 L 20.003906 17.699219 L 18.851562 18.851562 L 18.671875 20.976562 L 22.695312 25 L 18.46875 29.226562 L 20.773438 31.53125 L 25 27.304688 L 29.226562 31.53125 Z M 31.53125 29.226562 "/>
<path style=" stroke:none;fill-rule:nonzero;fill:rgb(42.745098%,64.705882%,26.666667%);fill-opacity:1;" d="M 31.148438 18.851562 L 28.84375 21.15625 C 29.828125 22.140625 30.433594 23.5 30.433594 25 C 30.433594 28 28 30.433594 25 30.433594 C 22 30.433594 19.566406 28 19.566406 25 C 19.566406 23.5 20.171875 22.140625 21.15625 21.15625 L 18.851562 18.851562 C 17.277344 20.425781 16.304688 22.597656 16.304688 25 C 16.304688 29.800781 20.199219 33.695312 25 33.695312 C 29.800781 33.695312 33.695312 29.800781 33.695312 25 C 33.695312 22.597656 32.722656 20.425781 31.148438 18.851562 Z M 31.148438 18.851562 "/>
</g>
</svg>
