<?xml version="1.0" encoding="UTF-8"?>
<svg xmlns="http://www.w3.org/2000/svg" xmlns:xlink="http://www.w3.org/1999/xlink" width="50px" height="50px" viewBox="0 0 50 50" version="1.1">
<defs>
<clipPath id="clip1">
  <path d="M 0 0.0976562 L 50 0.0976562 L 50 50 L 0 50 Z M 0 0.0976562 "/>
</clipPath>
</defs>
<g id="surface1">
<g clip-path="url(#clip1)" clip-rule="nonzero">
<path style=" stroke:none;fill-rule:nonzero;fill:rgb(94.117647%,94.117647%,94.117647%);fill-opacity:1;" d="M 25 50 C 38.808594 50 50 38.828125 50 25.046875 C 50 11.265625 38.808594 0.0976562 25 0.0976562 C 11.191406 0.0976562 0 11.265625 0 25.046875 C 0 38.828125 11.191406 50 25 50 Z M 25 50 "/>
<path style=" stroke:none;fill-rule:nonzero;fill:rgb(84.705882%,0%,15.294118%);fill-opacity:1;" d="M 49.789062 21.792969 L 28.261719 21.792969 L 28.261719 0.308594 C 27.195312 0.167969 26.105469 0.0976562 25 0.0976562 C 23.894531 0.0976562 22.804688 0.167969 21.738281 0.308594 L 21.738281 21.792969 L 0.210938 21.792969 C 0.0742188 22.859375 0 23.945312 0 25.046875 C 0 26.152344 0.0742188 27.238281 0.210938 28.300781 L 21.738281 28.300781 L 21.738281 49.789062 C 22.804688 49.925781 23.894531 50 25 50 C 26.105469 50 27.195312 49.925781 28.261719 49.789062 L 28.261719 28.300781 L 49.789062 28.300781 C 49.925781 27.238281 50 26.152344 50 25.046875 C 50 23.945312 49.925781 22.859375 49.789062 21.792969 Z M 49.789062 21.792969 "/>
</g>
<path style=" stroke:none;fill-rule:nonzero;fill:rgb(100%,85.490196%,26.666667%);fill-opacity:1;" d="M 32.066406 26.132812 L 33.695312 27.21875 L 33.695312 22.878906 L 32.066406 23.960938 L 26.085938 23.960938 L 26.085938 17.996094 L 27.175781 16.367188 L 22.824219 16.367188 L 23.914062 17.996094 L 23.914062 23.960938 L 17.933594 23.960938 L 16.304688 22.878906 L 16.304688 27.21875 L 17.933594 26.132812 L 23.914062 26.132812 L 23.914062 32.097656 L 22.824219 33.726562 L 27.175781 33.726562 L 26.085938 32.097656 L 26.085938 26.132812 Z M 32.066406 26.132812 "/>
</g>
</svg>
