<?xml version="1.0" encoding="UTF-8"?>
<svg xmlns="http://www.w3.org/2000/svg" xmlns:xlink="http://www.w3.org/1999/xlink" width="50px" height="50px" viewBox="0 0 50 50" version="1.1">
<g id="surface1">
<path style=" stroke:none;fill-rule:nonzero;fill:rgb(100%,85.490196%,26.666667%);fill-opacity:1;" d="M 33.695312 1.554688 C 30.988281 0.550781 28.058594 0 25 0 C 21.941406 0 19.011719 0.550781 16.304688 1.554688 L 15.21875 25 L 16.304688 48.445312 C 19.011719 49.449219 21.941406 50 25 50 C 28.058594 50 30.988281 49.449219 33.695312 48.445312 L 34.78125 25 Z M 33.695312 1.554688 "/>
<path style=" stroke:none;fill-rule:nonzero;fill:rgb(84.705882%,0%,15.294118%);fill-opacity:1;" d="M 0 25 C 0 35.75 6.785156 44.914062 16.304688 48.445312 L 16.304688 1.554688 C 6.785156 5.085938 0 14.25 0 25 Z M 0 25 "/>
<path style=" stroke:none;fill-rule:nonzero;fill:rgb(42.745098%,64.705882%,26.666667%);fill-opacity:1;" d="M 50 25 C 50 14.25 43.214844 5.085938 33.695312 1.554688 L 33.695312 48.445312 C 43.214844 44.914062 50 35.75 50 25 Z M 50 25 "/>
</g>
</svg>
