<?xml version="1.0" encoding="UTF-8"?>
<svg xmlns="http://www.w3.org/2000/svg" xmlns:xlink="http://www.w3.org/1999/xlink" width="50px" height="50px" viewBox="0 0 50 50" version="1.1">
<g id="surface1">
<path style=" stroke:none;fill-rule:nonzero;fill:rgb(100%,85.490196%,26.666667%);fill-opacity:1;" d="M 25 0 C 22.742188 0 20.558594 0.300781 18.476562 0.859375 L 16.304688 25 L 18.476562 49.140625 C 20.558594 49.699219 22.742188 50 25 50 C 38.808594 50 50 38.808594 50 25 C 50 11.191406 38.808594 0 25 0 Z M 25 0 "/>
<path style=" stroke:none;fill-rule:nonzero;fill:rgb(42.745098%,64.705882%,26.666667%);fill-opacity:1;" d="M 16.304688 25 L 18.476562 49.140625 C 20.558594 49.699219 22.742188 50 25 50 C 38.808594 50 50 38.808594 50 25 Z M 16.304688 25 "/>
<path style=" stroke:none;fill-rule:nonzero;fill:rgb(84.705882%,0%,15.294118%);fill-opacity:1;" d="M 0 25 C 0 34.476562 5.273438 42.71875 13.042969 46.960938 L 13.042969 3.039062 C 5.273438 7.28125 0 15.523438 0 25 Z M 0 25 "/>
<path style=" stroke:none;fill-rule:nonzero;fill:rgb(84.705882%,0%,15.294118%);fill-opacity:1;" d="M 0 25 C 0 36.550781 7.835938 46.269531 18.476562 49.140625 L 18.476562 0.859375 C 7.835938 3.730469 0 13.449219 0 25 Z M 0 25 "/>
<path style=" stroke:none;fill-rule:nonzero;fill:rgb(0%,0%,0%);fill-opacity:1;" d="M 9.445312 18.476562 L 11.066406 23.460938 L 16.304688 23.460938 L 12.066406 26.539062 L 13.683594 31.523438 L 9.445312 28.441406 L 5.207031 31.523438 L 6.828125 26.539062 L 2.589844 23.460938 L 7.828125 23.460938 Z M 9.445312 18.476562 "/>
</g>
</svg>
