<?xml version="1.0" encoding="UTF-8"?>
<svg xmlns="http://www.w3.org/2000/svg" xmlns:xlink="http://www.w3.org/1999/xlink" width="50px" height="50px" viewBox="0 0 50 50" version="1.1">
<g id="surface1">
<path style=" stroke:none;fill-rule:nonzero;fill:rgb(94.117647%,94.117647%,94.117647%);fill-opacity:1;" d="M 25 50 C 38.808594 50 50 38.808594 50 25 C 50 11.191406 38.808594 0 25 0 C 11.191406 0 0 11.191406 0 25 C 0 38.808594 11.191406 50 25 50 Z M 25 50 "/>
<path style=" stroke:none;fill-rule:nonzero;fill:rgb(42.745098%,64.705882%,26.666667%);fill-opacity:1;" d="M 25 0 C 20.578125 0 16.429688 1.148438 12.824219 3.160156 L 12.824219 46.839844 C 16.429688 48.851562 20.578125 50 25 50 C 38.808594 50 50 38.808594 50 25 C 50 11.191406 38.808594 0 25 0 Z M 25 0 "/>
<path style=" stroke:none;fill-rule:nonzero;fill:rgb(94.117647%,94.117647%,94.117647%);fill-opacity:1;" d="M 12.898438 3.121094 C 11.328125 3.992188 9.859375 5.027344 8.515625 6.207031 C 8.652344 6.085938 8.789062 5.96875 8.925781 5.851562 L 28.074219 25 L 8.925781 44.148438 C 8.789062 44.03125 8.652344 43.914062 8.515625 43.792969 C 9.859375 44.972656 11.328125 46.007812 12.898438 46.878906 L 50 25 Z M 12.898438 3.121094 "/>
<path style=" stroke:none;fill-rule:nonzero;fill:rgb(100%,85.490196%,26.666667%);fill-opacity:1;" d="M 10.789062 4.433594 C 10.027344 4.960938 9.292969 5.527344 8.59375 6.136719 L 25 25 L 8.59375 43.863281 C 9.292969 44.472656 10.027344 45.039062 10.789062 45.566406 L 45.71875 25 Z M 10.789062 4.433594 "/>
<path style=" stroke:none;fill-rule:nonzero;fill:rgb(0%,0%,0%);fill-opacity:1;" d="M 8.925781 5.851562 C 8.371094 6.320312 7.835938 6.808594 7.320312 7.324219 L 22.824219 25 L 7.320312 42.679688 C 7.835938 43.191406 8.371094 43.679688 8.925781 44.148438 L 28.074219 25 Z M 8.925781 5.851562 "/>
<path style=" stroke:none;fill-rule:nonzero;fill:rgb(84.705882%,0%,15.294118%);fill-opacity:1;" d="M 7.320312 7.320312 C -2.441406 17.085938 -2.441406 32.914062 7.320312 42.679688 C 11.355469 38.644531 15.238281 34.761719 25 25 Z M 7.320312 7.320312 "/>
</g>
</svg>
