<?xml version="1.0" encoding="UTF-8"?>
<svg xmlns="http://www.w3.org/2000/svg" xmlns:xlink="http://www.w3.org/1999/xlink" width="50px" height="50px" viewBox="0 0 50 50" version="1.1">
<g id="surface1">
<path style=" stroke:none;fill-rule:nonzero;fill:rgb(63.529412%,0%,11.372549%);fill-opacity:1;" d="M 50 25 C 50 38.808594 38.808594 50 25 50 C 11.191406 50 0 38.808594 0 25 C 0 11.191406 25 0 25 0 C 25 0 50 11.191406 50 25 Z M 50 25 "/>
<path style=" stroke:none;fill-rule:nonzero;fill:rgb(0%,32.156863%,70.588235%);fill-opacity:1;" d="M 0 25 C 0 11.191406 11.191406 0 25 0 C 38.808594 0 50 11.191406 50 25 "/>
<path style=" stroke:none;fill-rule:nonzero;fill:rgb(94.117647%,94.117647%,94.117647%);fill-opacity:1;" d="M 33.695312 31.523438 L 25 30.433594 L 16.304688 31.523438 L 16.304688 18.476562 L 33.695312 18.476562 Z M 33.695312 31.523438 "/>
<path style=" stroke:none;fill-rule:nonzero;fill:rgb(0%,32.156863%,70.588235%);fill-opacity:1;" d="M 25 30.433594 C 27.402344 30.433594 29.347656 28.488281 29.347656 26.085938 C 29.347656 23.6875 27.402344 21.738281 25 21.738281 C 22.597656 21.738281 20.652344 23.6875 20.652344 26.085938 C 20.652344 28.488281 22.597656 30.433594 25 30.433594 Z M 25 30.433594 "/>
<path style=" stroke:none;fill-rule:nonzero;fill:rgb(63.529412%,0%,11.372549%);fill-opacity:1;" d="M 25 28.261719 C 26.199219 28.261719 27.175781 27.289062 27.175781 26.085938 C 27.175781 24.886719 26.199219 23.914062 25 23.914062 C 23.800781 23.914062 22.824219 24.886719 22.824219 26.085938 C 22.824219 27.289062 23.800781 28.261719 25 28.261719 Z M 25 28.261719 "/>
<path style=" stroke:none;fill-rule:nonzero;fill:rgb(42.745098%,64.705882%,26.666667%);fill-opacity:1;" d="M 21.738281 20.652344 L 28.261719 20.652344 L 25 23.914062 Z M 21.738281 20.652344 "/>
<path style=" stroke:none;fill-rule:nonzero;fill:rgb(100%,85.490196%,26.666667%);fill-opacity:1;" d="M 23.914062 22.824219 L 26.085938 22.824219 L 26.085938 29.347656 L 23.914062 29.347656 Z M 23.914062 22.824219 "/>
<path style=" stroke:none;fill-rule:nonzero;fill:rgb(42.745098%,64.705882%,26.666667%);fill-opacity:1;" d="M 28.476562 28.695312 L 21.523438 28.695312 L 16.304688 31.523438 L 33.695312 31.523438 Z M 28.476562 28.695312 "/>
</g>
</svg>
