<?xml version="1.0" encoding="UTF-8"?>
<svg xmlns="http://www.w3.org/2000/svg" xmlns:xlink="http://www.w3.org/1999/xlink" width="50px" height="50px" viewBox="0 0 50 50" version="1.1">
<g id="surface1">
<path style=" stroke:none;fill-rule:nonzero;fill:rgb(94.117647%,94.117647%,94.117647%);fill-opacity:1;" d="M 25 50 C 38.808594 50 50 38.808594 50 25 C 50 11.191406 38.808594 0 25 0 C 11.191406 0 0 11.191406 0 25 C 0 38.808594 11.191406 50 25 50 Z M 25 50 "/>
<path style=" stroke:none;fill-rule:nonzero;fill:rgb(84.705882%,0%,15.294118%);fill-opacity:1;" d="M 25 50 C 31.339844 50 37.125 47.640625 41.535156 43.75 L 8.464844 43.75 C 12.875 47.640625 18.660156 50 25 50 Z M 25 50 "/>
<path style=" stroke:none;fill-rule:nonzero;fill:rgb(0%,32.156863%,70.588235%);fill-opacity:1;" d="M 0.789062 31.25 C 1.359375 33.46875 2.226562 35.566406 3.34375 37.5 L 46.65625 37.5 C 47.773438 35.566406 48.640625 33.46875 49.210938 31.25 L 25 29.347656 Z M 0.789062 31.25 "/>
<path style=" stroke:none;fill-rule:nonzero;fill:rgb(0%,32.156863%,70.588235%);fill-opacity:1;" d="M 49.210938 18.75 C 48.640625 16.53125 47.773438 14.433594 46.65625 12.5 L 25 11.957031 C 25 7.589844 25 3.464844 25 0 C 23.144531 0 21.332031 0.203125 19.589844 0.585938 C 19.558594 0.59375 3.261719 13.449219 3.261719 25 C 3.675781 25.074219 25 27.175781 25 27.175781 C 25 27.175781 25 22.414062 25 18.75 Z M 49.210938 18.75 "/>
<path style=" stroke:none;fill-rule:nonzero;fill:rgb(94.117647%,94.117647%,94.117647%);fill-opacity:1;" d="M 25 15.597656 L 25 3.097656 L 17.082031 3.097656 L 19.59375 0.589844 C 9.289062 2.859375 1.375 11.484375 0.164062 22.148438 C 0.0585938 23.082031 0 24.035156 0 25 L 12.664062 25 L 12.664062 20.015625 L 17.695312 25 L 26.640625 25 L 17.082031 15.597656 Z M 25 15.597656 "/>
<path style=" stroke:none;fill-rule:nonzero;fill:rgb(84.705882%,0%,15.294118%);fill-opacity:1;" d="M 25.011719 25 L 15.609375 15.597656 L 12.664062 15.597656 L 22.066406 25 L 9.511719 25 L 9.511719 12.5 L 46.65625 12.5 C 45.292969 10.148438 43.558594 8.039062 41.535156 6.25 L 9.511719 6.25 L 9.511719 5.378906 C 6.988281 7.371094 4.859375 9.84375 3.261719 12.652344 L 3.261719 25 L 0 25 C 0 27.15625 0.273438 29.253906 0.789062 31.25 L 49.210938 31.25 C 49.726562 29.253906 50 27.15625 50 25 Z M 25.011719 25 "/>
</g>
</svg>
