<?xml version="1.0" encoding="UTF-8"?>
<svg xmlns="http://www.w3.org/2000/svg" xmlns:xlink="http://www.w3.org/1999/xlink" width="50px" height="50px" viewBox="0 0 50 50" version="1.1">
<g id="surface1">
<path style=" stroke:none;fill-rule:nonzero;fill:rgb(94.117647%,94.117647%,94.117647%);fill-opacity:1;" d="M 25 50 C 38.808594 50 50 38.808594 50 25 C 50 11.191406 38.808594 0 25 0 C 11.191406 0 0 11.191406 0 25 C 0 38.808594 11.191406 50 25 50 Z M 25 50 "/>
<path style=" stroke:none;fill-rule:nonzero;fill:rgb(20%,54.117647%,95.294118%);fill-opacity:1;" d="M 25 50 C 34.910156 50 43.476562 44.230469 47.519531 35.871094 L 2.480469 35.871094 C 6.523438 44.230469 15.089844 50 25 50 Z M 25 50 "/>
<path style=" stroke:none;fill-rule:nonzero;fill:rgb(20%,54.117647%,95.294118%);fill-opacity:1;" d="M 25 0 C 15.089844 0 6.523438 5.769531 2.480469 14.128906 L 47.519531 14.128906 C 43.476562 5.769531 34.910156 0 25 0 Z M 25 0 "/>
<path style=" stroke:none;fill-rule:nonzero;fill:rgb(20%,54.117647%,95.294118%);fill-opacity:1;" d="M 15.386719 16.304688 L 16.195312 18.796875 L 18.8125 18.796875 L 16.695312 20.335938 L 17.503906 22.824219 L 15.386719 21.285156 L 13.265625 22.824219 L 14.074219 20.335938 L 11.957031 18.796875 L 14.574219 18.796875 Z M 15.386719 16.304688 "/>
<path style=" stroke:none;fill-rule:nonzero;fill:rgb(20%,54.117647%,95.294118%);fill-opacity:1;" d="M 15.386719 27.175781 L 16.195312 29.664062 L 18.8125 29.664062 L 16.695312 31.203125 L 17.503906 33.695312 L 15.386719 32.15625 L 13.265625 33.695312 L 14.074219 31.203125 L 11.957031 29.664062 L 14.574219 29.664062 Z M 15.386719 27.175781 "/>
<path style=" stroke:none;fill-rule:nonzero;fill:rgb(20%,54.117647%,95.294118%);fill-opacity:1;" d="M 34.613281 16.304688 L 35.425781 18.796875 L 38.042969 18.796875 L 35.925781 20.335938 L 36.734375 22.824219 L 34.613281 21.285156 L 32.496094 22.824219 L 33.304688 20.335938 L 31.1875 18.796875 L 33.804688 18.796875 Z M 34.613281 16.304688 "/>
<path style=" stroke:none;fill-rule:nonzero;fill:rgb(20%,54.117647%,95.294118%);fill-opacity:1;" d="M 34.613281 27.175781 L 35.425781 29.664062 L 38.042969 29.664062 L 35.925781 31.203125 L 36.734375 33.695312 L 34.613281 32.15625 L 32.496094 33.695312 L 33.304688 31.203125 L 31.1875 29.664062 L 33.804688 29.664062 Z M 34.613281 27.175781 "/>
<path style=" stroke:none;fill-rule:nonzero;fill:rgb(20%,54.117647%,95.294118%);fill-opacity:1;" d="M 25 21.738281 L 25.808594 24.230469 L 28.429688 24.230469 L 26.308594 25.769531 L 27.117188 28.261719 L 25 26.722656 L 22.882812 28.261719 L 23.691406 25.769531 L 21.570312 24.230469 L 24.191406 24.230469 Z M 25 21.738281 "/>
</g>
</svg>
