<?xml version="1.0" encoding="UTF-8"?>
<svg xmlns="http://www.w3.org/2000/svg" xmlns:xlink="http://www.w3.org/1999/xlink" width="50px" height="50px" viewBox="0 0 50 50" version="1.1">
<g id="surface1">
<path style=" stroke:none;fill-rule:nonzero;fill:rgb(84.705882%,0%,15.294118%);fill-opacity:1;" d="M 25 50 C 38.808594 50 50 38.808594 50 25 C 50 11.191406 38.808594 0 25 0 C 11.191406 0 0 11.191406 0 25 C 0 38.808594 11.191406 50 25 50 Z M 25 50 "/>
<path style=" stroke:none;fill-rule:nonzero;fill:rgb(94.117647%,94.117647%,94.117647%);fill-opacity:1;" d="M 27.582031 18.914062 C 27.011719 21.277344 26.003906 20.824219 25.507812 22.886719 C 22.589844 22.183594 20.792969 19.25 21.492188 16.332031 C 22.195312 13.414062 25.128906 11.617188 28.046875 12.316406 C 27.058594 16.441406 28.089844 16.800781 27.582031 18.914062 Z M 27.582031 18.914062 "/>
<path style=" stroke:none;fill-rule:nonzero;fill:rgb(94.117647%,94.117647%,94.117647%);fill-opacity:1;" d="M 20.007812 20.664062 C 22.082031 21.933594 21.339844 22.753906 23.148438 23.863281 C 21.578125 26.421875 18.230469 27.222656 15.671875 25.65625 C 13.113281 24.085938 12.3125 20.738281 13.878906 18.179688 C 17.496094 20.398438 18.15625 19.527344 20.007812 20.664062 Z M 20.007812 20.664062 "/>
<path style=" stroke:none;fill-rule:nonzero;fill:rgb(94.117647%,94.117647%,94.117647%);fill-opacity:1;" d="M 19.332031 28.40625 C 21.183594 26.828125 21.734375 27.789062 23.347656 26.410156 C 25.296875 28.695312 25.023438 32.125 22.742188 34.074219 C 20.457031 36.023438 17.027344 35.75 15.078125 33.46875 C 18.304688 30.714844 17.679688 29.820312 19.332031 28.40625 Z M 19.332031 28.40625 "/>
<path style=" stroke:none;fill-rule:nonzero;fill:rgb(94.117647%,94.117647%,94.117647%);fill-opacity:1;" d="M 26.488281 31.441406 C 25.558594 29.195312 26.640625 28.96875 25.832031 27.007812 C 28.605469 25.859375 31.785156 27.179688 32.929688 29.953125 C 34.078125 32.726562 32.761719 35.90625 29.988281 37.050781 C 28.367188 33.136719 27.320312 33.449219 26.488281 31.441406 Z M 26.488281 31.441406 "/>
<path style=" stroke:none;fill-rule:nonzero;fill:rgb(94.117647%,94.117647%,94.117647%);fill-opacity:1;" d="M 31.585938 25.574219 C 29.164062 25.765625 29.28125 24.664062 27.167969 24.832031 C 26.933594 21.839844 29.167969 19.222656 32.160156 18.988281 C 35.152344 18.753906 37.769531 20.988281 38.003906 23.980469 C 33.777344 24.3125 33.753906 25.402344 31.585938 25.574219 Z M 31.585938 25.574219 "/>
</g>
</svg>
