<?xml version="1.0" encoding="UTF-8"?>
<svg xmlns="http://www.w3.org/2000/svg" xmlns:xlink="http://www.w3.org/1999/xlink" width="50px" height="50px" viewBox="0 0 50 50" version="1.1">
<g id="surface1">
<path style=" stroke:none;fill-rule:nonzero;fill:rgb(94.117647%,94.117647%,94.117647%);fill-opacity:1;" d="M 25 50 C 38.808594 50 50 38.808594 50 25 C 50 11.191406 38.808594 0 25 0 C 11.191406 0 0 11.191406 0 25 C 0 38.808594 11.191406 50 25 50 Z M 25 50 "/>
<path style=" stroke:none;fill-rule:nonzero;fill:rgb(0%,32.156863%,70.588235%);fill-opacity:1;" d="M 0.859375 31.523438 C 2.308594 36.890625 5.496094 41.539062 9.78125 44.835938 L 9.78125 31.523438 Z M 0.859375 31.523438 "/>
<path style=" stroke:none;fill-rule:nonzero;fill:rgb(0%,32.156863%,70.588235%);fill-opacity:1;" d="M 22.824219 49.90625 C 23.542969 49.964844 24.265625 50 25 50 C 36.550781 50 46.269531 42.164062 49.140625 31.523438 L 22.824219 31.523438 Z M 22.824219 49.90625 "/>
<path style=" stroke:none;fill-rule:nonzero;fill:rgb(0%,32.156863%,70.588235%);fill-opacity:1;" d="M 49.140625 18.476562 C 46.269531 7.835938 36.550781 0 25 0 C 24.265625 0 23.542969 0.0351562 22.824219 0.09375 L 22.824219 18.476562 Z M 49.140625 18.476562 "/>
<path style=" stroke:none;fill-rule:nonzero;fill:rgb(0%,32.156863%,70.588235%);fill-opacity:1;" d="M 9.78125 5.164062 C 5.496094 8.460938 2.308594 13.109375 0.859375 18.476562 L 9.78125 18.476562 Z M 9.78125 5.164062 "/>
<path style=" stroke:none;fill-rule:nonzero;fill:rgb(84.705882%,0%,15.294118%);fill-opacity:1;" d="M 49.789062 21.738281 L 19.566406 21.738281 L 19.566406 0.59375 C 17.253906 1.105469 15.066406 1.9375 13.042969 3.039062 L 13.042969 21.738281 L 0.210938 21.738281 C 0.0742188 22.804688 0 23.894531 0 25 C 0 26.105469 0.0742188 27.195312 0.210938 28.261719 L 13.042969 28.261719 L 13.042969 46.960938 C 15.066406 48.0625 17.253906 48.894531 19.566406 49.40625 L 19.566406 28.261719 L 49.789062 28.261719 C 49.925781 27.195312 50 26.105469 50 25 C 50 23.894531 49.925781 22.804688 49.789062 21.738281 Z M 49.789062 21.738281 "/>
</g>
</svg>
