<?xml version="1.0" encoding="UTF-8"?>
<svg xmlns="http://www.w3.org/2000/svg" xmlns:xlink="http://www.w3.org/1999/xlink" width="50px" height="50px" viewBox="0 0 50 50" version="1.1">
<defs>
<clipPath id="clip1">
  <path d="M 0 0.0976562 L 50 0.0976562 L 50 50 L 0 50 Z M 0 0.0976562 "/>
</clipPath>
<clipPath id="clip2">
  <path d="M 2 0.0976562 L 48 0.0976562 L 48 15 L 2 15 Z M 2 0.0976562 "/>
</clipPath>
</defs>
<g id="surface1">
<g clip-path="url(#clip1)" clip-rule="nonzero">
<path style=" stroke:none;fill-rule:nonzero;fill:rgb(94.117647%,94.117647%,94.117647%);fill-opacity:1;" d="M 25 50 C 38.808594 50 50 38.828125 50 25.046875 C 50 11.265625 38.808594 0.0976562 25 0.0976562 C 11.191406 0.0976562 0 11.265625 0 25.046875 C 0 38.828125 11.191406 50 25 50 Z M 25 50 "/>
</g>
<g clip-path="url(#clip2)" clip-rule="nonzero">
<path style=" stroke:none;fill-rule:nonzero;fill:rgb(100%,59.607843%,6.666667%);fill-opacity:1;" d="M 25 0.0976562 C 15.089844 0.0976562 6.523438 5.851562 2.480469 14.199219 L 47.519531 14.199219 C 43.476562 5.851562 34.910156 0.0976562 25 0.0976562 Z M 25 0.0976562 "/>
</g>
<path style=" stroke:none;fill-rule:nonzero;fill:rgb(42.745098%,64.705882%,26.666667%);fill-opacity:1;" d="M 25 50 C 34.910156 50 43.476562 44.242188 47.519531 35.894531 L 2.480469 35.894531 C 6.523438 44.242188 15.089844 50 25 50 Z M 25 50 "/>
<path style=" stroke:none;fill-rule:nonzero;fill:rgb(0%,32.156863%,70.588235%);fill-opacity:1;" d="M 25 33.726562 C 29.800781 33.726562 33.695312 29.839844 33.695312 25.046875 C 33.695312 20.253906 29.800781 16.367188 25 16.367188 C 20.199219 16.367188 16.304688 20.253906 16.304688 25.046875 C 16.304688 29.839844 20.199219 33.726562 25 33.726562 Z M 25 33.726562 "/>
<path style=" stroke:none;fill-rule:nonzero;fill:rgb(94.117647%,94.117647%,94.117647%);fill-opacity:1;" d="M 25 30.472656 C 28 30.472656 30.433594 28.042969 30.433594 25.046875 C 30.433594 22.050781 28 19.625 25 19.625 C 22 19.625 19.566406 22.050781 19.566406 25.046875 C 19.566406 28.042969 22 30.472656 25 30.472656 Z M 25 30.472656 "/>
<path style=" stroke:none;fill-rule:nonzero;fill:rgb(0%,32.156863%,70.588235%);fill-opacity:1;" d="M 25 18.355469 L 26.675781 22.148438 L 30.808594 21.699219 L 28.351562 25.046875 L 30.808594 28.394531 L 26.675781 27.945312 L 25 31.742188 L 23.324219 27.945312 L 19.191406 28.394531 L 21.648438 25.046875 L 19.191406 21.699219 L 23.324219 22.148438 Z M 25 18.355469 "/>
</g>
</svg>
