<?xml version="1.0" encoding="UTF-8"?>
<svg xmlns="http://www.w3.org/2000/svg" xmlns:xlink="http://www.w3.org/1999/xlink" width="50px" height="50px" viewBox="0 0 50 50" version="1.1">
<g id="surface1">
<path style=" stroke:none;fill-rule:nonzero;fill:rgb(94.117647%,94.117647%,94.117647%);fill-opacity:1;" d="M 25 50 C 38.808594 50 50 38.808594 50 25 C 50 11.191406 38.808594 0 25 0 C 11.191406 0 0 11.191406 0 25 C 0 38.808594 11.191406 50 25 50 Z M 25 50 "/>
<path style=" stroke:none;fill-rule:nonzero;fill:rgb(84.705882%,0%,15.294118%);fill-opacity:1;" d="M 33.121094 18.476562 L 29.847656 18.476562 C 29.875 18.835938 29.890625 19.199219 29.890625 19.566406 C 29.890625 21.984375 29.285156 24.328125 28.234375 25.996094 C 27.90625 26.511719 27.363281 27.238281 26.628906 27.726562 L 26.628906 18.476562 L 23.371094 18.476562 L 23.371094 27.726562 C 22.636719 27.238281 22.09375 26.511719 21.765625 25.996094 C 20.714844 24.328125 20.109375 21.984375 20.109375 19.566406 C 20.109375 19.199219 20.125 18.835938 20.152344 18.476562 L 16.878906 18.476562 C 16.859375 18.835938 16.847656 19.199219 16.847656 19.566406 C 16.847656 26.269531 20.429688 31.523438 25 31.523438 C 29.570312 31.523438 33.152344 26.269531 33.152344 19.566406 C 33.152344 19.199219 33.140625 18.835938 33.121094 18.476562 Z M 33.121094 18.476562 "/>
<path style=" stroke:none;fill-rule:nonzero;fill:rgb(42.745098%,64.705882%,26.666667%);fill-opacity:1;" d="M 10.324219 11.957031 L 13.585938 11.957031 L 13.585938 14.128906 L 16.847656 14.128906 L 16.847656 11.957031 L 20.109375 11.957031 L 20.109375 14.128906 L 23.371094 14.128906 L 23.371094 11.957031 L 26.628906 11.957031 L 26.628906 14.128906 L 29.890625 14.128906 L 29.890625 11.957031 L 33.152344 11.957031 L 33.152344 14.128906 L 36.414062 14.128906 L 36.414062 11.957031 L 39.671875 11.957031 L 39.671875 14.128906 L 47.519531 14.128906 C 43.476562 5.769531 34.910156 0 25 0 C 15.089844 0 6.523438 5.769531 2.480469 14.128906 L 10.324219 14.128906 Z M 10.324219 11.957031 "/>
<path style=" stroke:none;fill-rule:nonzero;fill:rgb(84.705882%,0%,15.294118%);fill-opacity:1;" d="M 39.675781 35.871094 L 39.675781 38.042969 L 36.414062 38.042969 L 36.414062 35.871094 L 33.152344 35.871094 L 33.152344 38.042969 L 29.890625 38.042969 L 29.890625 35.871094 L 26.628906 35.871094 L 26.628906 38.042969 L 23.371094 38.042969 L 23.371094 35.871094 L 20.109375 35.871094 L 20.109375 38.042969 L 16.847656 38.042969 L 16.847656 35.871094 L 13.585938 35.871094 L 13.585938 38.042969 L 10.324219 38.042969 L 10.324219 35.871094 L 2.480469 35.871094 C 6.523438 44.230469 15.089844 50 25 50 C 34.910156 50 43.476562 44.230469 47.519531 35.871094 Z M 39.675781 35.871094 "/>
</g>
</svg>
