<?xml version="1.0" encoding="UTF-8"?>
<svg xmlns="http://www.w3.org/2000/svg" xmlns:xlink="http://www.w3.org/1999/xlink" width="50px" height="50px" viewBox="0 0 50 50" version="1.1">
<g id="surface1">
<path style=" stroke:none;fill-rule:nonzero;fill:rgb(94.117647%,94.117647%,94.117647%);fill-opacity:1;" d="M 25 50 C 38.808594 50 50 38.808594 50 25 C 50 11.191406 38.808594 0 25 0 C 11.191406 0 0 11.191406 0 25 C 0 38.808594 11.191406 50 25 50 Z M 25 50 "/>
<path style=" stroke:none;fill-rule:nonzero;fill:rgb(63.529412%,0%,11.372549%);fill-opacity:1;" d="M 25 0 C 14.25 0 5.085938 6.785156 1.554688 16.304688 L 48.445312 16.304688 C 44.914062 6.785156 35.75 0 25 0 Z M 25 0 "/>
<path style=" stroke:none;fill-rule:nonzero;fill:rgb(0%,0%,0%);fill-opacity:1;" d="M 25 50 C 35.75 50 44.914062 43.214844 48.445312 33.695312 L 1.554688 33.695312 C 5.085938 43.214844 14.25 50 25 50 Z M 25 50 "/>
<path style=" stroke:none;fill-rule:nonzero;fill:rgb(28.627451%,43.137255%,17.647059%);fill-opacity:1;" d="M 19.023438 23.371094 C 19.007812 23.371094 18.996094 23.371094 18.980469 23.371094 L 14.203125 23.371094 C 14.445312 22.433594 15.292969 21.738281 16.304688 21.738281 L 16.304688 18.476562 C 13.308594 18.476562 10.871094 20.917969 10.871094 23.914062 L 10.871094 26.628906 L 19.023438 26.628906 C 19.320312 26.628906 19.566406 26.875 19.566406 27.175781 L 19.566406 28.261719 L 8.695312 28.261719 L 8.695312 31.523438 L 22.824219 31.523438 L 22.824219 27.171875 C 22.824219 25.074219 21.121094 23.371094 19.023438 23.371094 Z M 19.023438 23.371094 "/>
<path style=" stroke:none;fill-rule:nonzero;fill:rgb(28.627451%,43.137255%,17.647059%);fill-opacity:1;" d="M 27.175781 28.261719 L 27.175781 18.476562 L 23.914062 18.476562 L 23.914062 31.523438 L 29.347656 31.523438 L 29.347656 28.261719 Z M 27.175781 28.261719 "/>
<path style=" stroke:none;fill-rule:nonzero;fill:rgb(28.627451%,43.137255%,17.647059%);fill-opacity:1;" d="M 38.042969 28.261719 L 38.042969 18.476562 L 34.78125 18.476562 L 34.78125 28.261719 L 33.695312 28.261719 L 33.695312 25 L 30.433594 25 L 30.433594 31.523438 L 40.21875 31.523438 L 40.21875 28.261719 Z M 38.042969 28.261719 "/>
</g>
</svg>
