<?xml version="1.0" encoding="UTF-8"?>
<svg xmlns="http://www.w3.org/2000/svg" xmlns:xlink="http://www.w3.org/1999/xlink" width="50px" height="50px" viewBox="0 0 50 50" version="1.1">
<g id="surface1">
<path style=" stroke:none;fill-rule:nonzero;fill:rgb(84.705882%,0%,15.294118%);fill-opacity:1;" d="M 25 50 C 38.808594 50 50 38.808594 50 25 C 50 11.191406 38.808594 0 25 0 C 11.191406 0 0 11.191406 0 25 C 0 38.808594 11.191406 50 25 50 Z M 25 50 "/>
<path style=" stroke:none;fill-rule:nonzero;fill:rgb(94.117647%,94.117647%,94.117647%);fill-opacity:1;" d="M 34.257812 16.757812 L 32.488281 23.066406 L 27.1875 22.085938 L 23.773438 15.050781 L 14.554688 18.324219 L 13.828125 16.273438 L 11.417969 15.976562 L 13.234375 21.097656 L 19.578125 19.476562 L 21.382812 24.558594 L 16.996094 31.03125 L 24.4375 37.378906 L 23.027344 39.03125 L 23.976562 41.269531 L 27.503906 37.132812 L 22.925781 32.453125 L 26.425781 28.347656 L 34.222656 28.910156 L 36 19.292969 L 38.136719 19.6875 L 39.601562 17.746094 Z M 34.257812 16.757812 "/>
</g>
</svg>
