<?xml version="1.0" encoding="UTF-8"?>
<svg xmlns="http://www.w3.org/2000/svg" xmlns:xlink="http://www.w3.org/1999/xlink" width="50px" height="50px" viewBox="0 0 50 50" version="1.1">
<g id="surface1">
<path style=" stroke:none;fill-rule:nonzero;fill:rgb(94.117647%,94.117647%,94.117647%);fill-opacity:1;" d="M 25 50 C 38.808594 50 50 38.808594 50 25 C 50 11.191406 38.808594 0 25 0 C 11.191406 0 0 11.191406 0 25 C 0 38.808594 11.191406 50 25 50 Z M 25 50 "/>
<path style=" stroke:none;fill-rule:nonzero;fill:rgb(0%,32.156863%,70.588235%);fill-opacity:1;" d="M 34.414062 19.566406 L 28.136719 19.566406 L 25 14.128906 L 21.863281 19.566406 L 15.585938 19.566406 L 18.726562 25 L 15.585938 30.433594 L 21.863281 30.433594 L 25 35.871094 L 28.136719 30.433594 L 34.414062 30.433594 L 31.273438 25 Z M 28.855469 25 L 26.925781 28.339844 L 23.074219 28.339844 L 21.144531 25 L 23.074219 21.660156 L 26.925781 21.660156 Z M 25 18.324219 L 25.71875 19.566406 L 24.28125 19.566406 Z M 19.21875 21.660156 L 20.652344 21.660156 L 19.933594 22.902344 Z M 19.21875 28.339844 L 19.933594 27.097656 L 20.652344 28.339844 Z M 25 31.675781 L 24.28125 30.433594 L 25.71875 30.433594 Z M 30.78125 28.339844 L 29.347656 28.339844 L 30.066406 27.097656 Z M 29.347656 21.660156 L 30.78125 21.660156 L 30.066406 22.902344 Z M 29.347656 21.660156 "/>
<path style=" stroke:none;fill-rule:nonzero;fill:rgb(0%,32.156863%,70.588235%);fill-opacity:1;" d="M 40.5625 5.433594 L 9.4375 5.433594 C 7.15625 7.25 5.199219 9.460938 3.667969 11.957031 L 46.332031 11.957031 C 44.800781 9.460938 42.84375 7.25 40.5625 5.433594 Z M 40.5625 5.433594 "/>
<path style=" stroke:none;fill-rule:nonzero;fill:rgb(0%,32.156863%,70.588235%);fill-opacity:1;" d="M 9.4375 44.566406 L 40.5625 44.566406 C 42.84375 42.75 44.800781 40.539062 46.332031 38.042969 L 3.667969 38.042969 C 5.199219 40.539062 7.15625 42.75 9.4375 44.566406 Z M 9.4375 44.566406 "/>
</g>
</svg>
