<?xml version="1.0" encoding="UTF-8"?>
<svg xmlns="http://www.w3.org/2000/svg" xmlns:xlink="http://www.w3.org/1999/xlink" width="50px" height="50px" viewBox="0 0 50 50" version="1.1">
<g id="surface1">
<path style=" stroke:none;fill-rule:nonzero;fill:rgb(100%,85.490196%,26.666667%);fill-opacity:1;" d="M 25 50 C 38.808594 50 50 38.808594 50 25 C 50 11.191406 38.808594 0 25 0 C 11.191406 0 0 11.191406 0 25 C 0 38.808594 11.191406 50 25 50 Z M 25 50 "/>
<path style=" stroke:none;fill-rule:nonzero;fill:rgb(42.745098%,64.705882%,26.666667%);fill-opacity:1;" d="M 40.21875 5.167969 C 36.003906 1.925781 30.726562 0 25 0 C 19.273438 0 13.996094 1.925781 9.78125 5.167969 L 25 20.386719 Z M 40.21875 5.167969 "/>
<path style=" stroke:none;fill-rule:nonzero;fill:rgb(0%,0%,0%);fill-opacity:1;" d="M 5.167969 9.78125 C 1.925781 13.996094 0 19.273438 0 25 C 0 30.726562 1.925781 36.003906 5.167969 40.21875 L 20.386719 25 Z M 5.167969 9.78125 "/>
<path style=" stroke:none;fill-rule:nonzero;fill:rgb(42.745098%,64.705882%,26.666667%);fill-opacity:1;" d="M 9.78125 44.832031 C 13.996094 48.074219 19.273438 50 25 50 C 30.726562 50 36.003906 48.070312 40.21875 44.832031 L 25 29.613281 Z M 9.78125 44.832031 "/>
<path style=" stroke:none;fill-rule:nonzero;fill:rgb(0%,0%,0%);fill-opacity:1;" d="M 44.832031 40.21875 C 48.074219 36.003906 50 30.726562 50 25 C 50 19.273438 48.074219 13.996094 44.832031 9.78125 L 29.613281 25 Z M 44.832031 40.21875 "/>
</g>
</svg>
