<?xml version="1.0" encoding="UTF-8"?>
<svg xmlns="http://www.w3.org/2000/svg" xmlns:xlink="http://www.w3.org/1999/xlink" width="50px" height="50px" viewBox="0 0 50 50" version="1.1">
<defs>
<clipPath id="clip1">
  <path d="M 0 0.0976562 L 50 0.0976562 L 50 50 L 0 50 Z M 0 0.0976562 "/>
</clipPath>
</defs>
<g id="surface1">
<g clip-path="url(#clip1)" clip-rule="nonzero">
<path style=" stroke:none;fill-rule:nonzero;fill:rgb(94.117647%,94.117647%,94.117647%);fill-opacity:1;" d="M 25 50 C 38.808594 50 50 38.828125 50 25.046875 C 50 11.265625 38.808594 0.0976562 25 0.0976562 C 11.191406 0.0976562 0 11.265625 0 25.046875 C 0 38.828125 11.191406 50 25 50 Z M 25 50 "/>
</g>
<path style=" stroke:none;fill-rule:nonzero;fill:rgb(84.705882%,0%,15.294118%);fill-opacity:1;" d="M 25 35.894531 C 31.003906 35.894531 35.871094 31.039062 35.871094 25.046875 C 35.871094 19.054688 31.003906 14.199219 25 14.199219 C 18.996094 14.199219 14.128906 19.054688 14.128906 25.046875 C 14.128906 31.039062 18.996094 35.894531 25 35.894531 Z M 25 35.894531 "/>
</g>
</svg>
