<?xml version="1.0" encoding="UTF-8"?>
<svg xmlns="http://www.w3.org/2000/svg" xmlns:xlink="http://www.w3.org/1999/xlink" width="50px" height="50px" viewBox="0 0 50 50" version="1.1">
<g id="surface1">
<path style=" stroke:none;fill-rule:nonzero;fill:rgb(94.117647%,94.117647%,94.117647%);fill-opacity:1;" d="M 25 50 C 38.808594 50 50 38.808594 50 25 C 50 11.191406 38.808594 0 25 0 C 11.191406 0 0 11.191406 0 25 C 0 38.808594 11.191406 50 25 50 Z M 25 50 "/>
<path style=" stroke:none;fill-rule:nonzero;fill:rgb(84.705882%,0%,15.294118%);fill-opacity:1;" d="M 44.832031 40.222656 L 29.613281 25 L 44.832031 9.777344 C 44.175781 8.925781 43.460938 8.105469 42.679688 7.320312 C 41.894531 6.539062 41.074219 5.824219 40.222656 5.167969 L 25 20.386719 L 9.777344 5.167969 C 8.925781 5.824219 8.105469 6.539062 7.324219 7.320312 C 6.539062 8.105469 5.824219 8.925781 5.167969 9.777344 L 20.386719 25 L 5.167969 40.222656 C 5.824219 41.074219 6.539062 41.894531 7.320312 42.679688 C 8.105469 43.460938 8.925781 44.175781 9.777344 44.832031 L 25 29.613281 L 40.222656 44.832031 C 41.074219 44.175781 41.894531 43.460938 42.679688 42.675781 C 43.460938 41.894531 44.175781 41.074219 44.832031 40.222656 Z M 44.832031 40.222656 "/>
<path style=" stroke:none;fill-rule:nonzero;fill:rgb(100%,85.490196%,26.666667%);fill-opacity:1;" d="M 20.652344 7.609375 L 25 8.695312 L 29.347656 7.609375 L 29.347656 3.914062 L 27.609375 4.78125 L 25 2.175781 L 22.390625 4.78125 L 20.652344 3.914062 Z M 20.652344 7.609375 "/>
<path style=" stroke:none;fill-rule:nonzero;fill:rgb(84.705882%,0%,15.294118%);fill-opacity:1;" d="M 20.652344 7.609375 L 20.652344 10.328125 C 20.652344 13.65625 25 14.675781 25 14.675781 C 25 14.675781 29.347656 13.65625 29.347656 10.328125 L 29.347656 7.609375 Z M 20.652344 7.609375 "/>
</g>
</svg>
