<?xml version="1.0" encoding="UTF-8"?>
<svg xmlns="http://www.w3.org/2000/svg" xmlns:xlink="http://www.w3.org/1999/xlink" width="50px" height="50px" viewBox="0 0 50 50" version="1.1">
<g id="surface1">
<path style=" stroke:none;fill-rule:nonzero;fill:rgb(94.117647%,94.117647%,94.117647%);fill-opacity:1;" d="M 25 50 C 38.808594 50 50 38.808594 50 25 C 50 11.191406 38.808594 0 25 0 C 11.191406 0 0 11.191406 0 25 C 0 38.808594 11.191406 50 25 50 Z M 25 50 "/>
<path style=" stroke:none;fill-rule:nonzero;fill:rgb(0%,0%,0%);fill-opacity:1;" d="M 15.21875 16.304688 L 48.445312 16.304688 C 44.914062 6.785156 35.75 0 25 0 C 18.097656 0 11.847656 2.796875 7.324219 7.324219 Z M 15.21875 16.304688 "/>
<path style=" stroke:none;fill-rule:nonzero;fill:rgb(42.745098%,64.705882%,26.666667%);fill-opacity:1;" d="M 15.21875 33.695312 L 48.445312 33.695312 C 44.914062 43.214844 35.75 50 25 50 C 18.097656 50 11.847656 47.203125 7.324219 42.675781 Z M 15.21875 33.695312 "/>
<path style=" stroke:none;fill-rule:nonzero;fill:rgb(84.705882%,0%,15.294118%);fill-opacity:1;" d="M 7.320312 7.324219 C -2.441406 17.085938 -2.441406 32.914062 7.320312 42.679688 C 11.355469 38.644531 15.238281 34.761719 25 25 Z M 7.320312 7.324219 "/>
<path style=" stroke:none;fill-rule:nonzero;fill:rgb(94.117647%,94.117647%,94.117647%);fill-opacity:1;" d="M 9.921875 19.566406 L 11.292969 22.433594 L 14.394531 21.71875 L 13.003906 24.578125 L 15.496094 26.554688 L 12.394531 27.253906 L 12.402344 30.433594 L 9.921875 28.445312 L 7.441406 30.433594 L 7.449219 27.253906 L 4.347656 26.554688 L 6.839844 24.578125 L 5.453125 21.71875 L 8.550781 22.433594 Z M 9.921875 19.566406 "/>
</g>
</svg>
