<?xml version="1.0" encoding="UTF-8"?>
<svg xmlns="http://www.w3.org/2000/svg" xmlns:xlink="http://www.w3.org/1999/xlink" width="50px" height="50px" viewBox="0 0 50 50" version="1.1">
<g id="surface1">
<path style=" stroke:none;fill-rule:nonzero;fill:rgb(20%,54.117647%,95.294118%);fill-opacity:1;" d="M 25 50 C 38.808594 50 50 38.808594 50 25 C 50 11.191406 38.808594 0 25 0 C 11.191406 0 0 11.191406 0 25 C 0 38.808594 11.191406 50 25 50 Z M 25 50 "/>
<path style=" stroke:none;fill-rule:nonzero;fill:rgb(100%,85.490196%,26.666667%);fill-opacity:1;" d="M 39.128906 25.273438 L 10.871094 25.273438 C 10.871094 27.222656 12.570312 28.804688 14.519531 28.804688 L 14.402344 28.804688 C 14.402344 30.753906 15.984375 32.335938 17.933594 32.335938 C 17.933594 34.289062 19.515625 35.871094 21.46875 35.871094 L 28.53125 35.871094 C 30.484375 35.871094 32.066406 34.289062 32.066406 32.335938 C 34.015625 32.335938 35.597656 30.753906 35.597656 28.804688 L 35.480469 28.804688 C 37.429688 28.804688 39.128906 27.222656 39.128906 25.273438 Z M 39.128906 25.273438 "/>
<path style=" stroke:none;fill-rule:nonzero;fill:rgb(20%,54.117647%,95.294118%);fill-opacity:1;" d="M 34.78125 20.652344 C 34.78125 26.054688 30.402344 30.433594 25 30.433594 C 19.597656 30.433594 15.21875 26.054688 15.21875 20.652344 "/>
<path style=" stroke:none;fill-rule:nonzero;fill:rgb(100%,85.490196%,26.666667%);fill-opacity:1;" d="M 32.472656 20.652344 L 29.417969 22.089844 L 31.042969 25.046875 L 27.730469 24.410156 L 27.308594 27.761719 L 25 25.296875 L 22.691406 27.761719 L 22.269531 24.410156 L 18.957031 25.046875 L 20.582031 22.089844 L 17.527344 20.652344 L 20.582031 19.214844 L 18.957031 16.257812 L 22.269531 16.894531 L 22.691406 13.542969 L 25 16.007812 L 27.308594 13.542969 L 27.730469 16.894531 L 31.042969 16.257812 L 29.417969 19.214844 Z M 32.472656 20.652344 "/>
</g>
</svg>
