<?xml version="1.0" encoding="UTF-8"?>
<svg xmlns="http://www.w3.org/2000/svg" xmlns:xlink="http://www.w3.org/1999/xlink" width="50px" height="50px" viewBox="0 0 50 50" version="1.1">
<g id="surface1">
<path style=" stroke:none;fill-rule:nonzero;fill:rgb(94.117647%,94.117647%,94.117647%);fill-opacity:1;" d="M 25 50 C 38.808594 50 50 38.808594 50 25 C 50 11.191406 38.808594 0 25 0 C 11.191406 0 0 11.191406 0 25 C 0 38.808594 11.191406 50 25 50 Z M 25 50 "/>
<path style=" stroke:none;fill-rule:nonzero;fill:rgb(0%,0%,0%);fill-opacity:1;" d="M 25 0 C 15.089844 0 6.523438 5.769531 2.480469 14.128906 L 47.519531 14.128906 C 43.476562 5.769531 34.910156 0 25 0 Z M 25 0 "/>
<path style=" stroke:none;fill-rule:nonzero;fill:rgb(28.627451%,43.137255%,17.647059%);fill-opacity:1;" d="M 25 50 C 15.089844 50 6.523438 44.230469 2.480469 35.871094 L 47.519531 35.871094 C 43.476562 44.230469 34.910156 50 25 50 Z M 25 50 "/>
<path style=" stroke:none;fill-rule:nonzero;fill:rgb(63.529412%,0%,11.372549%);fill-opacity:1;" d="M 48.820312 17.390625 L 1.179688 17.390625 C 0.414062 19.789062 0 22.347656 0 25 C 0 27.652344 0.414062 30.210938 1.179688 32.609375 L 48.820312 32.609375 C 49.585938 30.210938 50 27.652344 50 25 C 50 22.347656 49.585938 19.789062 48.820312 17.390625 Z M 48.820312 17.390625 "/>
<path style=" stroke:none;fill-rule:nonzero;fill:rgb(94.117647%,94.117647%,94.117647%);fill-opacity:1;" d="M 32.785156 11.554688 L 29.824219 10.1875 L 25 21.109375 L 20.175781 10.1875 L 17.214844 11.554688 L 23.203125 25 L 17.214844 38.445312 L 20.175781 39.8125 L 25 28.890625 L 29.824219 39.8125 L 32.785156 38.445312 L 26.796875 25 Z M 32.785156 11.554688 "/>
<path style=" stroke:none;fill-rule:nonzero;fill:rgb(94.117647%,94.117647%,94.117647%);fill-opacity:1;" d="M 27.011719 12.839844 C 25.863281 11.589844 25 10.871094 25 10.871094 C 25 10.871094 24.136719 11.589844 22.988281 12.839844 L 22.988281 37.160156 C 24.136719 38.410156 25 39.128906 25 39.128906 C 25 39.128906 25.863281 38.410156 27.011719 37.160156 Z M 27.011719 12.839844 "/>
<path style=" stroke:none;fill-rule:nonzero;fill:rgb(63.529412%,0%,11.372549%);fill-opacity:1;" d="M 19.566406 17.503906 L 19.566406 32.496094 C 20.777344 34.640625 22.257812 36.402344 23.371094 37.566406 L 23.371094 12.433594 C 22.257812 13.597656 20.777344 15.359375 19.566406 17.503906 Z M 19.566406 17.503906 "/>
<path style=" stroke:none;fill-rule:nonzero;fill:rgb(63.529412%,0%,11.372549%);fill-opacity:1;" d="M 30.433594 17.503906 C 29.222656 15.359375 27.742188 13.597656 26.628906 12.433594 L 26.628906 37.566406 C 27.742188 36.402344 29.222656 34.640625 30.433594 32.496094 Z M 30.433594 17.503906 "/>
<path style=" stroke:none;fill-rule:nonzero;fill:rgb(0%,0%,0%);fill-opacity:1;" d="M 30.433594 17.503906 L 30.433594 32.496094 C 31.660156 30.324219 32.609375 27.753906 32.609375 25 C 32.609375 22.246094 31.660156 19.675781 30.433594 17.503906 Z M 30.433594 17.503906 "/>
<path style=" stroke:none;fill-rule:nonzero;fill:rgb(0%,0%,0%);fill-opacity:1;" d="M 19.566406 17.503906 L 19.566406 32.496094 C 18.339844 30.324219 17.390625 27.753906 17.390625 25 C 17.390625 22.246094 18.339844 19.675781 19.566406 17.503906 Z M 19.566406 17.503906 "/>
</g>
</svg>
