<?xml version="1.0" encoding="UTF-8"?>
<svg xmlns="http://www.w3.org/2000/svg" xmlns:xlink="http://www.w3.org/1999/xlink" width="50px" height="50px" viewBox="0 0 50 50" version="1.1">
<g id="surface1">
<path style=" stroke:none;fill-rule:nonzero;fill:rgb(84.705882%,0%,15.294118%);fill-opacity:1;" d="M 0 25 C 0 11.191406 11.191406 0 25 0 C 38.808594 0 50 11.191406 50 25 "/>
<path style=" stroke:none;fill-rule:nonzero;fill:rgb(100%,85.490196%,26.666667%);fill-opacity:1;" d="M 33.695312 23.25 L 30.140625 24.921875 L 32.035156 28.363281 L 28.175781 27.625 L 27.6875 31.523438 L 25 28.65625 L 22.3125 31.523438 L 21.824219 27.625 L 17.964844 28.363281 L 19.859375 24.921875 L 16.304688 23.25 L 19.859375 21.578125 L 17.964844 18.136719 L 21.824219 18.875 L 22.3125 14.976562 L 25 17.84375 L 27.6875 14.976562 L 28.175781 18.875 L 32.035156 18.136719 L 30.144531 21.578125 Z M 33.695312 23.25 "/>
<path style=" stroke:none;fill-rule:nonzero;fill:rgb(100%,85.490196%,26.666667%);fill-opacity:1;" d="M 31.523438 8.152344 L 26.628906 8.152344 C 26.628906 7.25 25.898438 6.523438 25 6.523438 C 24.101562 6.523438 23.371094 7.25 23.371094 8.152344 L 18.476562 8.152344 C 18.476562 9.050781 19.261719 9.78125 20.164062 9.78125 L 20.109375 9.78125 C 20.109375 10.683594 20.839844 11.414062 21.738281 11.414062 C 21.738281 12.3125 22.46875 13.042969 23.371094 13.042969 L 26.628906 13.042969 C 27.53125 13.042969 28.261719 12.3125 28.261719 11.414062 C 29.160156 11.414062 29.890625 10.683594 29.890625 9.78125 L 29.835938 9.78125 C 30.738281 9.78125 31.523438 9.050781 31.523438 8.152344 Z M 31.523438 8.152344 "/>
<path style=" stroke:none;fill-rule:nonzero;fill:rgb(94.117647%,94.117647%,94.117647%);fill-opacity:1;" d="M 50 25 C 50 38.808594 38.808594 50 25 50 C 11.191406 50 0 38.808594 0 25 Z M 50 25 "/>
<path style=" stroke:none;fill-rule:nonzero;fill:rgb(0%,32.156863%,70.588235%);fill-opacity:1;" d="M 25 50 C 32.816406 50 39.789062 46.414062 44.375 40.796875 C 43.550781 40.234375 43.105469 39.328125 41.667969 39.328125 C 39.582031 39.328125 39.582031 41.230469 37.5 41.230469 C 35.417969 41.230469 35.417969 39.328125 33.332031 39.328125 C 31.25 39.328125 31.25 41.230469 29.167969 41.230469 C 27.082031 41.230469 27.082031 39.328125 25 39.328125 C 22.917969 39.328125 22.917969 41.230469 20.832031 41.230469 C 18.75 41.230469 18.75 39.328125 16.667969 39.328125 C 14.582031 39.328125 14.582031 41.230469 12.5 41.230469 C 10.417969 41.230469 10.417969 39.328125 8.332031 39.328125 C 6.894531 39.328125 6.449219 40.234375 5.625 40.796875 C 10.207031 46.414062 17.183594 50 25 50 Z M 25 50 "/>
<path style=" stroke:none;fill-rule:nonzero;fill:rgb(0%,32.156863%,70.588235%);fill-opacity:1;" d="M 45.832031 28.1875 C 43.75 28.1875 43.75 26.285156 41.667969 26.285156 C 39.582031 26.285156 39.582031 28.1875 37.5 28.1875 C 35.417969 28.1875 35.417969 26.285156 33.332031 26.285156 C 31.25 26.285156 31.25 28.1875 29.167969 28.1875 C 27.082031 28.1875 27.082031 26.285156 25 26.285156 C 22.917969 26.285156 22.917969 28.1875 20.832031 28.1875 C 18.75 28.1875 18.75 26.285156 16.667969 26.285156 C 14.582031 26.285156 14.582031 28.1875 12.5 28.1875 C 10.417969 28.1875 10.417969 26.285156 8.332031 26.285156 C 6.25 26.285156 6.25 28.1875 4.167969 28.1875 C 2.09375 28.1875 2.082031 26.304688 0.03125 26.285156 C 0.0898438 27.429688 0.226562 28.550781 0.433594 29.648438 C 2.09375 29.894531 2.238281 31.523438 4.167969 31.523438 C 6.25 31.523438 6.25 29.617188 8.332031 29.617188 C 10.417969 29.617188 10.417969 31.523438 12.5 31.523438 C 14.582031 31.523438 14.582031 29.617188 16.667969 29.617188 C 18.75 29.617188 18.75 31.523438 20.832031 31.523438 C 22.917969 31.523438 22.917969 29.617188 25 29.617188 C 27.082031 29.617188 27.082031 31.523438 29.167969 31.523438 C 31.25 31.523438 31.25 29.617188 33.332031 29.617188 C 35.417969 29.617188 35.417969 31.523438 37.5 31.523438 C 39.582031 31.523438 39.582031 29.617188 41.667969 29.617188 C 43.75 29.617188 43.75 31.523438 45.832031 31.523438 C 47.761719 31.523438 47.90625 29.894531 49.566406 29.648438 C 49.773438 28.550781 49.910156 27.429688 49.96875 26.285156 C 47.917969 26.304688 47.90625 28.1875 45.832031 28.1875 Z M 45.832031 28.1875 "/>
<path style=" stroke:none;fill-rule:nonzero;fill:rgb(0%,32.156863%,70.588235%);fill-opacity:1;" d="M 41.667969 32.804688 C 39.582031 32.804688 39.582031 34.710938 37.5 34.710938 C 35.417969 34.710938 35.417969 32.804688 33.332031 32.804688 C 31.25 32.804688 31.25 34.710938 29.167969 34.710938 C 27.082031 34.710938 27.082031 32.804688 25 32.804688 C 22.917969 32.804688 22.917969 34.710938 20.832031 34.710938 C 18.75 34.710938 18.75 32.804688 16.667969 32.804688 C 14.582031 32.804688 14.582031 34.710938 12.5 34.710938 C 10.417969 34.710938 10.417969 32.804688 8.332031 32.804688 C 6.25 32.804688 6.25 34.710938 4.167969 34.710938 C 2.679688 34.710938 2.253906 33.738281 1.371094 33.183594 C 1.957031 34.878906 2.722656 36.492188 3.640625 37.996094 C 3.800781 38.027344 3.972656 38.042969 4.167969 38.042969 C 6.25 38.042969 6.25 36.140625 8.332031 36.140625 C 10.417969 36.140625 10.417969 38.042969 12.5 38.042969 C 14.582031 38.042969 14.582031 36.140625 16.667969 36.140625 C 18.75 36.140625 18.75 38.042969 20.832031 38.042969 C 22.917969 38.042969 22.917969 36.140625 25 36.140625 C 27.082031 36.140625 27.082031 38.042969 29.167969 38.042969 C 31.25 38.042969 31.25 36.140625 33.332031 36.140625 C 35.417969 36.140625 35.417969 38.042969 37.5 38.042969 C 39.582031 38.042969 39.582031 36.140625 41.667969 36.140625 C 43.75 36.140625 43.75 38.042969 45.832031 38.042969 C 46.023438 38.042969 46.199219 38.027344 46.359375 37.996094 C 47.277344 36.492188 48.042969 34.878906 48.628906 33.183594 C 47.746094 33.738281 47.320312 34.710938 45.832031 34.710938 C 43.75 34.710938 43.75 32.804688 41.667969 32.804688 Z M 41.667969 32.804688 "/>
<path style=" stroke:none;fill-rule:nonzero;fill:rgb(94.117647%,94.117647%,94.117647%);fill-opacity:1;" d="M 49.921875 23.023438 C 47.917969 23.070312 47.890625 24.925781 45.832031 24.925781 C 43.75 24.925781 43.75 23.023438 41.667969 23.023438 C 39.582031 23.023438 39.582031 24.925781 37.5 24.925781 C 35.417969 24.925781 35.417969 23.023438 33.332031 23.023438 C 31.25 23.023438 31.25 24.925781 29.167969 24.925781 C 27.082031 24.925781 27.082031 23.023438 25 23.023438 C 22.917969 23.023438 22.917969 24.925781 20.832031 24.925781 C 18.75 24.925781 18.75 23.023438 16.667969 23.023438 C 14.582031 23.023438 14.582031 24.925781 12.5 24.925781 C 10.417969 24.925781 10.417969 23.023438 8.332031 23.023438 C 6.25 23.023438 6.25 24.925781 4.167969 24.925781 C 2.109375 24.925781 2.082031 23.074219 0.078125 23.023438 C 0.0273438 23.675781 0 24.335938 0 25 C 0 25.457031 0.0117188 25.90625 0.0390625 26.355469 C 2.082031 26.378906 2.097656 28.261719 4.167969 28.261719 C 6.25 28.261719 6.25 26.355469 8.332031 26.355469 C 10.417969 26.355469 10.417969 28.261719 12.5 28.261719 C 14.582031 28.261719 14.582031 26.355469 16.667969 26.355469 C 18.75 26.355469 18.75 28.261719 20.832031 28.261719 C 22.917969 28.261719 22.917969 26.355469 25 26.355469 C 27.082031 26.355469 27.082031 28.261719 29.167969 28.261719 C 31.25 28.261719 31.25 26.355469 33.332031 26.355469 C 35.417969 26.355469 35.417969 28.261719 37.5 28.261719 C 39.582031 28.261719 39.582031 26.355469 41.667969 26.355469 C 43.75 26.355469 43.75 28.261719 45.832031 28.261719 C 47.902344 28.261719 47.917969 26.378906 49.964844 26.355469 C 49.988281 25.90625 50 25.457031 50 25 C 50 24.335938 49.972656 23.675781 49.921875 23.023438 Z M 49.921875 23.023438 "/>
</g>
</svg>
