<?xml version="1.0" encoding="UTF-8"?>
<svg xmlns="http://www.w3.org/2000/svg" xmlns:xlink="http://www.w3.org/1999/xlink" width="50px" height="50px" viewBox="0 0 50 50" version="1.1">
<g id="surface1">
<path style=" stroke:none;fill-rule:nonzero;fill:rgb(0%,32.156863%,70.588235%);fill-opacity:1;" d="M 25 50 C 38.808594 50 50 38.808594 50 25 C 50 11.191406 38.808594 0 25 0 C 11.191406 0 0 11.191406 0 25 C 0 38.808594 11.191406 50 25 50 Z M 25 50 "/>
<path style=" stroke:none;fill-rule:nonzero;fill:rgb(94.117647%,94.117647%,94.117647%);fill-opacity:1;" d="M 10.980469 15.21875 L 11.519531 16.878906 L 13.265625 16.878906 L 11.855469 17.90625 L 12.394531 19.566406 L 10.980469 18.539062 L 9.570312 19.566406 L 10.109375 17.90625 L 8.695312 16.878906 L 10.441406 16.878906 Z M 10.980469 15.21875 "/>
<path style=" stroke:none;fill-rule:nonzero;fill:rgb(94.117647%,94.117647%,94.117647%);fill-opacity:1;" d="M 16.417969 13.585938 L 16.957031 15.246094 L 18.703125 15.246094 L 17.289062 16.273438 L 17.828125 17.933594 L 16.417969 16.910156 L 15.003906 17.933594 L 15.542969 16.273438 L 14.128906 15.246094 L 15.875 15.246094 Z M 16.417969 13.585938 "/>
<path style=" stroke:none;fill-rule:nonzero;fill:rgb(94.117647%,94.117647%,94.117647%);fill-opacity:1;" d="M 21.851562 11.957031 L 22.390625 13.617188 L 24.136719 13.617188 L 22.722656 14.644531 L 23.261719 16.304688 L 21.851562 15.277344 L 20.4375 16.304688 L 20.976562 14.644531 L 19.566406 13.617188 L 21.3125 13.617188 Z M 21.851562 11.957031 "/>
<path style=" stroke:none;fill-rule:nonzero;fill:rgb(94.117647%,94.117647%,94.117647%);fill-opacity:1;" d="M 39.019531 15.21875 L 38.480469 16.878906 L 36.734375 16.878906 L 38.144531 17.90625 L 37.605469 19.566406 L 39.019531 18.539062 L 40.429688 19.566406 L 39.890625 17.90625 L 41.304688 16.878906 L 39.558594 16.878906 Z M 39.019531 15.21875 "/>
<path style=" stroke:none;fill-rule:nonzero;fill:rgb(94.117647%,94.117647%,94.117647%);fill-opacity:1;" d="M 33.582031 13.585938 L 33.042969 15.246094 L 31.296875 15.246094 L 32.710938 16.273438 L 32.171875 17.933594 L 33.582031 16.910156 L 34.996094 17.933594 L 34.457031 16.273438 L 35.871094 15.246094 L 34.125 15.246094 Z M 33.582031 13.585938 "/>
<path style=" stroke:none;fill-rule:nonzero;fill:rgb(94.117647%,94.117647%,94.117647%);fill-opacity:1;" d="M 28.148438 11.957031 L 27.609375 13.617188 L 25.863281 13.617188 L 27.277344 14.644531 L 26.738281 16.304688 L 28.148438 15.277344 L 29.5625 16.304688 L 29.023438 14.644531 L 30.433594 13.617188 L 28.6875 13.617188 Z M 28.148438 11.957031 "/>
<path style=" stroke:none;fill-rule:nonzero;fill:rgb(100%,85.490196%,26.666667%);fill-opacity:1;" d="M 29.347656 26.085938 L 25 20.652344 L 22.824219 21.738281 L 22.824219 23.914062 L 19.566406 26.085938 L 17.390625 26.085938 L 17.390625 28.894531 C 20.578125 30.1875 22.824219 33.308594 22.824219 36.957031 L 25 36.957031 L 25 34.78125 L 27.175781 32.609375 L 29.347656 34.78125 L 31.523438 32.609375 L 31.523438 30.433594 L 33.695312 27.175781 Z M 29.347656 26.085938 "/>
</g>
</svg>
