<?xml version="1.0" encoding="UTF-8"?>
<svg xmlns="http://www.w3.org/2000/svg" xmlns:xlink="http://www.w3.org/1999/xlink" width="50px" height="50px" viewBox="0 0 50 50" version="1.1">
<g id="surface1">
<path style=" stroke:none;fill-rule:nonzero;fill:rgb(84.705882%,0%,15.294118%);fill-opacity:1;" d="M 25 50 C 38.808594 50 50 38.808594 50 25 C 50 11.191406 38.808594 0 25 0 C 11.191406 0 0 11.191406 0 25 C 0 38.808594 11.191406 50 25 50 Z M 25 50 "/>
<path style=" stroke:none;fill-rule:nonzero;fill:rgb(100%,85.490196%,26.666667%);fill-opacity:1;" d="M 37.226562 25 L 32.230469 27.351562 L 34.890625 32.1875 L 29.464844 31.148438 L 28.777344 36.628906 L 25 32.601562 L 21.222656 36.628906 L 20.535156 31.148438 L 15.109375 32.1875 L 17.769531 27.351562 L 12.773438 25 L 17.769531 22.648438 L 15.109375 17.8125 L 20.535156 18.851562 L 21.222656 13.371094 L 25 17.398438 L 28.777344 13.371094 L 29.464844 18.851562 L 34.890625 17.8125 L 32.230469 22.652344 Z M 37.226562 25 "/>
<path style=" stroke:none;fill-rule:nonzero;fill:rgb(84.705882%,0%,15.294118%);fill-opacity:1;" d="M 25 32.609375 C 29.203125 32.609375 32.609375 29.203125 32.609375 25 C 32.609375 20.796875 29.203125 17.390625 25 17.390625 C 20.796875 17.390625 17.390625 20.796875 17.390625 25 C 17.390625 29.203125 20.796875 32.609375 25 32.609375 Z M 25 32.609375 "/>
<path style=" stroke:none;fill-rule:nonzero;fill:rgb(100%,85.490196%,26.666667%);fill-opacity:1;" d="M 21.195312 25 C 21.011719 25 20.832031 25.007812 20.652344 25.027344 C 20.660156 26.082031 21.039062 27.046875 21.671875 27.792969 C 22.007812 26.890625 22.507812 26.066406 23.140625 25.359375 C 22.535156 25.128906 21.878906 25 21.195312 25 Z M 21.195312 25 "/>
<path style=" stroke:none;fill-rule:nonzero;fill:rgb(100%,85.490196%,26.666667%);fill-opacity:1;" d="M 23.539062 29.09375 C 23.996094 29.257812 24.488281 29.347656 25 29.347656 C 25.511719 29.347656 26.003906 29.257812 26.460938 29.09375 C 26.214844 28.117188 25.699219 27.246094 25 26.558594 C 24.300781 27.246094 23.785156 28.117188 23.539062 29.09375 Z M 23.539062 29.09375 "/>
<path style=" stroke:none;fill-rule:nonzero;fill:rgb(100%,85.490196%,26.666667%);fill-opacity:1;" d="M 28.765625 22.828125 C 28.011719 21.527344 26.609375 20.652344 25 20.652344 C 23.390625 20.652344 21.988281 21.527344 21.234375 22.828125 C 22.605469 22.832031 23.890625 23.207031 25 23.851562 C 26.109375 23.207031 27.394531 22.832031 28.765625 22.828125 Z M 28.765625 22.828125 "/>
<path style=" stroke:none;fill-rule:nonzero;fill:rgb(100%,85.490196%,26.666667%);fill-opacity:1;" d="M 26.859375 25.359375 C 27.492188 26.066406 27.992188 26.890625 28.328125 27.796875 C 28.960938 27.046875 29.339844 26.082031 29.347656 25.027344 C 29.167969 25.007812 28.988281 25 28.804688 25 C 28.121094 25 27.464844 25.128906 26.859375 25.359375 Z M 26.859375 25.359375 "/>
</g>
</svg>
