<?xml version="1.0" encoding="UTF-8"?>
<svg xmlns="http://www.w3.org/2000/svg" xmlns:xlink="http://www.w3.org/1999/xlink" width="50px" height="50px" viewBox="0 0 50 50" version="1.1">
<g id="surface1">
<path style=" stroke:none;fill-rule:nonzero;fill:rgb(84.705882%,0%,15.294118%);fill-opacity:1;" d="M 47.519531 14.128906 C 43.476562 5.769531 34.910156 0 25 0 C 15.089844 0 6.523438 5.769531 2.480469 14.128906 L 25 16.304688 Z M 47.519531 14.128906 "/>
<path style=" stroke:none;fill-rule:nonzero;fill:rgb(84.705882%,0%,15.294118%);fill-opacity:1;" d="M 2.480469 35.871094 C 6.523438 44.230469 15.089844 50 25 50 C 34.910156 50 43.476562 44.230469 47.519531 35.871094 L 25 33.695312 Z M 2.480469 35.871094 "/>
<path style=" stroke:none;fill-rule:nonzero;fill:rgb(0%,32.156863%,70.588235%);fill-opacity:1;" d="M 47.519531 14.128906 L 2.480469 14.128906 C 0.890625 17.417969 0 21.105469 0 25 C 0 28.894531 0.890625 32.582031 2.480469 35.871094 L 47.519531 35.871094 C 49.109375 32.582031 50 28.894531 50 25 C 50 21.105469 49.109375 17.417969 47.519531 14.128906 Z M 47.519531 14.128906 "/>
<path style=" stroke:none;fill-rule:nonzero;fill:rgb(94.117647%,94.117647%,94.117647%);fill-opacity:1;" d="M 25 33.695312 C 29.800781 33.695312 33.695312 29.800781 33.695312 25 C 33.695312 20.199219 29.800781 16.304688 25 16.304688 C 20.199219 16.304688 16.304688 20.199219 16.304688 25 C 16.304688 29.800781 20.199219 33.695312 25 33.695312 Z M 25 33.695312 "/>
</g>
</svg>
