<?xml version="1.0" encoding="UTF-8"?>
<svg xmlns="http://www.w3.org/2000/svg" xmlns:xlink="http://www.w3.org/1999/xlink" width="50px" height="50px" viewBox="0 0 50 50" version="1.1">
<g id="surface1">
<path style=" stroke:none;fill-rule:nonzero;fill:rgb(94.117647%,94.117647%,94.117647%);fill-opacity:1;" d="M 25 50 C 38.808594 50 50 38.808594 50 25 C 50 11.191406 38.808594 0 25 0 C 11.191406 0 0 11.191406 0 25 C 0 38.808594 11.191406 50 25 50 Z M 25 50 "/>
<path style=" stroke:none;fill-rule:nonzero;fill:rgb(84.705882%,0%,15.294118%);fill-opacity:1;" d="M 25 0 C 15.089844 0 6.523438 5.769531 2.480469 14.128906 L 47.519531 14.128906 C 43.476562 5.769531 34.910156 0 25 0 Z M 25 0 "/>
<path style=" stroke:none;fill-rule:nonzero;fill:rgb(84.705882%,0%,15.294118%);fill-opacity:1;" d="M 25 50 C 34.910156 50 43.476562 44.230469 47.519531 35.871094 L 2.480469 35.871094 C 6.523438 44.230469 15.089844 50 25 50 Z M 25 50 "/>
<path style=" stroke:none;fill-rule:nonzero;fill:rgb(42.745098%,64.705882%,26.666667%);fill-opacity:1;" d="M 31.523438 29.347656 L 25 17.390625 L 18.476562 29.347656 L 23.371094 29.347656 L 23.371094 32.609375 L 26.628906 32.609375 L 26.628906 29.347656 Z M 31.523438 29.347656 "/>
</g>
</svg>
