<?xml version="1.0" encoding="UTF-8"?>
<svg xmlns="http://www.w3.org/2000/svg" xmlns:xlink="http://www.w3.org/1999/xlink" width="50px" height="50px" viewBox="0 0 50 50" version="1.1">
<g id="surface1">
<path style=" stroke:none;fill-rule:nonzero;fill:rgb(94.117647%,94.117647%,94.117647%);fill-opacity:1;" d="M 0 25 C 0 28.894531 0.890625 32.582031 2.480469 35.871094 L 25 36.957031 L 47.519531 35.871094 C 49.109375 32.582031 50 28.894531 50 25 C 50 21.105469 49.109375 17.417969 47.519531 14.128906 L 25 13.042969 L 2.480469 14.128906 C 0.890625 17.417969 0 21.105469 0 25 Z M 0 25 "/>
<path style=" stroke:none;fill-rule:nonzero;fill:rgb(42.745098%,64.705882%,26.666667%);fill-opacity:1;" d="M 25 50 C 34.910156 50 43.476562 44.230469 47.519531 35.871094 L 2.480469 35.871094 C 6.523438 44.230469 15.089844 50 25 50 Z M 25 50 "/>
<path style=" stroke:none;fill-rule:nonzero;fill:rgb(0%,32.156863%,70.588235%);fill-opacity:1;" d="M 25 0 C 15.089844 0 6.523438 5.769531 2.480469 14.128906 L 47.519531 14.128906 C 43.476562 5.769531 34.910156 0 25 0 Z M 25 0 "/>
<path style=" stroke:none;fill-rule:nonzero;fill:rgb(0%,0%,0%);fill-opacity:1;" d="M 26.628906 24.457031 L 26.628906 18.476562 L 23.371094 18.476562 L 23.371094 24.457031 L 19.429688 28.394531 C 20.578125 30.269531 22.640625 31.523438 25 31.523438 C 27.359375 31.523438 29.421875 30.269531 30.570312 28.394531 Z M 26.628906 24.457031 "/>
</g>
</svg>
