<?xml version="1.0" encoding="UTF-8"?>
<svg xmlns="http://www.w3.org/2000/svg" xmlns:xlink="http://www.w3.org/1999/xlink" width="50px" height="50px" viewBox="0 0 50 50" version="1.1">
<g id="surface1">
<path style=" stroke:none;fill-rule:nonzero;fill:rgb(94.117647%,94.117647%,94.117647%);fill-opacity:1;" d="M 25 50 C 38.808594 50 50 38.808594 50 25 C 50 11.191406 38.808594 0 25 0 C 11.191406 0 0 11.191406 0 25 C 0 38.808594 11.191406 50 25 50 Z M 25 50 "/>
<path style=" stroke:none;fill-rule:nonzero;fill:rgb(94.117647%,94.117647%,94.117647%);fill-opacity:1;" d="M 5.714844 9.089844 L 44.285156 9.089844 C 42.859375 7.367188 41.207031 5.835938 39.375 4.546875 L 10.625 4.546875 C 8.792969 5.835938 7.140625 7.367188 5.714844 9.089844 Z M 5.714844 9.089844 "/>
<path style=" stroke:none;fill-rule:nonzero;fill:rgb(94.117647%,94.117647%,94.117647%);fill-opacity:1;" d="M 0 25 C 0 25.765625 0.0351562 26.523438 0.105469 27.273438 L 49.894531 27.273438 C 49.964844 26.523438 50 25.765625 50 25 C 50 24.234375 49.964844 23.476562 49.894531 22.726562 L 0.105469 22.726562 C 0.0351562 23.476562 0 24.234375 0 25 Z M 0 25 "/>
<path style=" stroke:none;fill-rule:nonzero;fill:rgb(94.117647%,94.117647%,94.117647%);fill-opacity:1;" d="M 2.726562 36.363281 L 47.273438 36.363281 C 48.011719 34.921875 48.609375 33.402344 49.058594 31.816406 L 0.941406 31.816406 C 1.390625 33.402344 1.988281 34.921875 2.726562 36.363281 Z M 2.726562 36.363281 "/>
<path style=" stroke:none;fill-rule:nonzero;fill:rgb(94.117647%,94.117647%,94.117647%);fill-opacity:1;" d="M 10.625 45.453125 L 39.375 45.453125 C 41.207031 44.164062 42.859375 42.632812 44.285156 40.910156 L 5.714844 40.910156 C 7.140625 42.632812 8.792969 44.164062 10.625 45.453125 Z M 10.625 45.453125 "/>
<path style=" stroke:none;fill-rule:nonzero;fill:rgb(94.117647%,94.117647%,94.117647%);fill-opacity:1;" d="M 0.941406 18.183594 L 49.058594 18.183594 C 48.609375 16.597656 48.011719 15.078125 47.273438 13.636719 L 2.726562 13.636719 C 1.988281 15.078125 1.390625 16.597656 0.941406 18.183594 Z M 0.941406 18.183594 "/>
<path style=" stroke:none;fill-rule:nonzero;fill:rgb(84.705882%,0%,15.294118%);fill-opacity:1;" d="M 11.957031 4.546875 L 39.375 4.546875 C 35.308594 1.683594 30.351562 0 25 0 C 21.738281 0 16.023438 1.683594 11.957031 4.546875 Z M 11.957031 4.546875 "/>
<path style=" stroke:none;fill-rule:nonzero;fill:rgb(84.705882%,0%,15.294118%);fill-opacity:1;" d="M 23.914062 13.636719 L 47.273438 13.636719 C 46.441406 12.011719 45.4375 10.488281 44.285156 9.089844 L 23.914062 9.089844 Z M 23.914062 13.636719 "/>
<path style=" stroke:none;fill-rule:nonzero;fill:rgb(84.705882%,0%,15.294118%);fill-opacity:1;" d="M 23.914062 22.726562 L 49.894531 22.726562 C 49.753906 21.167969 49.472656 19.648438 49.058594 18.183594 L 23.914062 18.183594 Z M 23.914062 22.726562 "/>
<path style=" stroke:none;fill-rule:nonzero;fill:rgb(84.705882%,0%,15.294118%);fill-opacity:1;" d="M 0.941406 31.816406 L 49.058594 31.816406 C 49.472656 30.355469 49.753906 28.832031 49.894531 27.273438 L 0.105469 27.273438 C 0.246094 28.832031 0.527344 30.351562 0.941406 31.816406 Z M 0.941406 31.816406 "/>
<path style=" stroke:none;fill-rule:nonzero;fill:rgb(84.705882%,0%,15.294118%);fill-opacity:1;" d="M 5.714844 40.910156 L 44.285156 40.910156 C 45.4375 39.511719 46.441406 37.988281 47.273438 36.363281 L 2.726562 36.363281 C 3.558594 37.988281 4.5625 39.511719 5.714844 40.910156 Z M 5.714844 40.910156 "/>
<path style=" stroke:none;fill-rule:nonzero;fill:rgb(84.705882%,0%,15.294118%);fill-opacity:1;" d="M 25 50 C 30.351562 50 35.308594 48.316406 39.375 45.453125 L 10.625 45.453125 C 14.691406 48.316406 19.648438 50 25 50 Z M 25 50 "/>
<path style=" stroke:none;fill-rule:nonzero;fill:rgb(0%,32.156863%,70.588235%);fill-opacity:1;" d="M 0.941406 18.183594 C 0.527344 19.648438 0.246094 21.167969 0.105469 22.726562 L 25 22.726562 L 25 0 C 13.558594 0 3.910156 7.6875 0.941406 18.183594 Z M 0.941406 18.183594 "/>
<path style=" stroke:none;fill-rule:nonzero;fill:rgb(94.117647%,94.117647%,94.117647%);fill-opacity:1;" d="M 14.882812 6.523438 L 16.5 11.503906 L 21.738281 11.503906 L 17.5 14.582031 L 19.121094 19.566406 L 14.882812 16.484375 L 10.644531 19.566406 L 12.261719 14.582031 L 8.023438 11.503906 L 13.261719 11.503906 Z M 14.882812 6.523438 "/>
</g>
</svg>
