<?xml version="1.0" encoding="UTF-8"?>
<svg xmlns="http://www.w3.org/2000/svg" xmlns:xlink="http://www.w3.org/1999/xlink" width="50px" height="50px" viewBox="0 0 50 50" version="1.1">
<g id="surface1">
<path style=" stroke:none;fill-rule:nonzero;fill:rgb(0%,0%,0%);fill-opacity:1;" d="M 2.480469 14.128906 C 0.890625 17.417969 0 21.105469 0 25 C 0 28.894531 0.890625 32.582031 2.480469 35.871094 L 25 38.042969 L 47.519531 35.871094 C 49.109375 32.582031 50 28.894531 50 25 C 50 21.105469 49.109375 17.417969 47.519531 14.128906 L 25 11.957031 Z M 2.480469 14.128906 "/>
<path style=" stroke:none;fill-rule:nonzero;fill:rgb(28.627451%,43.137255%,17.647059%);fill-opacity:1;" d="M 2.480469 35.871094 C 6.523438 44.230469 15.089844 50 25 50 C 34.910156 50 43.476562 44.230469 47.519531 35.871094 Z M 2.480469 35.871094 "/>
<path style=" stroke:none;fill-rule:nonzero;fill:rgb(84.705882%,0%,15.294118%);fill-opacity:1;" d="M 2.480469 14.128906 L 47.519531 14.128906 C 43.476562 5.769531 34.910156 0 25 0 C 15.089844 0 6.523438 5.769531 2.480469 14.128906 Z M 2.480469 14.128906 "/>
<path style=" stroke:none;fill-rule:nonzero;fill:rgb(94.117647%,94.117647%,94.117647%);fill-opacity:1;" d="M 30.820312 20.429688 L 32.871094 23.253906 L 36.191406 22.179688 L 34.136719 25.003906 L 36.1875 27.828125 L 32.867188 26.746094 L 30.8125 29.570312 L 30.816406 26.078125 L 27.496094 25 L 30.816406 23.921875 Z M 30.820312 20.429688 "/>
<path style=" stroke:none;fill-rule:nonzero;fill:rgb(94.117647%,94.117647%,94.117647%);fill-opacity:1;" d="M 25.222656 32.066406 C 21.320312 32.066406 18.15625 28.902344 18.15625 25 C 18.15625 21.097656 21.320312 17.933594 25.222656 17.933594 C 26.4375 17.933594 27.582031 18.242188 28.582031 18.785156 C 27.015625 17.25 24.871094 16.304688 22.503906 16.304688 C 17.699219 16.304688 13.808594 20.199219 13.808594 25 C 13.808594 29.800781 17.699219 33.695312 22.503906 33.695312 C 24.871094 33.695312 27.015625 32.75 28.582031 31.214844 C 27.582031 31.757812 26.4375 32.066406 25.222656 32.066406 Z M 25.222656 32.066406 "/>
</g>
</svg>
