<?xml version="1.0" encoding="UTF-8"?>
<svg xmlns="http://www.w3.org/2000/svg" xmlns:xlink="http://www.w3.org/1999/xlink" width="50px" height="50px" viewBox="0 0 50 50" version="1.1">
<g id="surface1">
<path style=" stroke:none;fill-rule:nonzero;fill:rgb(84.705882%,0%,15.294118%);fill-opacity:1;" d="M 50 25 C 50 38.808594 38.808594 50 25 50 C 11.191406 50 0 38.808594 0 25 C 1.085938 25 25 21.738281 25 21.738281 Z M 50 25 "/>
<path style=" stroke:none;fill-rule:nonzero;fill:rgb(0%,32.156863%,70.588235%);fill-opacity:1;" d="M 0 25 C 0 11.191406 11.191406 0 25 0 C 38.808594 0 50 11.191406 50 25 "/>
<path style=" stroke:none;fill-rule:nonzero;fill:rgb(100%,85.490196%,26.666667%);fill-opacity:1;" d="M 18.476562 17.390625 C 18.476562 15.589844 17.019531 14.128906 15.21875 14.128906 C 14.382812 14.128906 13.621094 14.445312 13.042969 14.960938 L 13.042969 13.042969 L 14.128906 13.042969 L 14.128906 10.871094 L 13.042969 10.871094 L 13.042969 9.78125 L 10.871094 9.78125 L 10.871094 10.871094 L 9.78125 10.871094 L 9.78125 13.042969 L 10.871094 13.042969 L 10.871094 14.960938 C 10.292969 14.445312 9.53125 14.128906 8.695312 14.128906 C 6.894531 14.128906 5.433594 15.589844 5.433594 17.390625 C 5.433594 18.355469 5.855469 19.222656 6.523438 19.820312 L 6.523438 21.738281 L 17.390625 21.738281 L 17.390625 19.820312 C 18.058594 19.222656 18.476562 18.355469 18.476562 17.390625 Z M 18.476562 17.390625 "/>
</g>
</svg>
