<?xml version="1.0" encoding="UTF-8"?>
<svg xmlns="http://www.w3.org/2000/svg" xmlns:xlink="http://www.w3.org/1999/xlink" width="50px" height="50px" viewBox="0 0 50 50" version="1.1">
<g id="surface1">
<path style=" stroke:none;fill-rule:nonzero;fill:rgb(28.627451%,43.137255%,17.647059%);fill-opacity:1;" d="M 25 50 C 38.808594 50 50 38.808594 50 25 C 50 11.191406 38.808594 0 25 0 C 11.191406 0 0 11.191406 0 25 C 0 38.808594 11.191406 50 25 50 Z M 25 50 "/>
<path style=" stroke:none;fill-rule:nonzero;fill:rgb(94.117647%,94.117647%,94.117647%);fill-opacity:1;" d="M 29.347656 23.957031 C 28.734375 23.957031 28.152344 24.078125 27.609375 24.273438 C 27.90625 23.613281 28.105469 22.878906 28.105469 22.09375 C 28.105469 18.988281 25 16.660156 25 16.660156 C 25 16.660156 21.894531 18.988281 21.894531 22.09375 C 21.894531 22.878906 22.09375 23.613281 22.390625 24.273438 C 21.847656 24.078125 21.265625 23.957031 20.652344 23.957031 C 17.546875 23.957031 15.21875 27.0625 15.21875 27.0625 C 15.21875 27.0625 17.546875 30.167969 20.652344 30.167969 C 22.472656 30.167969 24.027344 29.101562 25 28.21875 C 25.972656 29.101562 27.527344 30.167969 29.347656 30.167969 C 32.453125 30.167969 34.78125 27.0625 34.78125 27.0625 C 34.78125 27.0625 32.453125 23.957031 29.347656 23.957031 Z M 29.347656 23.957031 "/>
<path style=" stroke:none;fill-rule:nonzero;fill:rgb(100%,85.490196%,26.666667%);fill-opacity:1;" d="M 25 9.78125 L 25.640625 11.757812 L 27.71875 11.757812 L 26.039062 12.976562 L 26.679688 14.953125 L 25 13.730469 L 23.320312 14.953125 L 23.960938 12.976562 L 22.28125 11.757812 L 24.359375 11.757812 Z M 25 9.78125 "/>
<path style=" stroke:none;fill-rule:nonzero;fill:rgb(100%,85.490196%,26.666667%);fill-opacity:1;" d="M 17.105469 13.234375 L 18.339844 14.347656 L 19.777344 13.515625 L 19.101562 15.035156 L 20.335938 16.144531 L 18.6875 15.972656 L 18.011719 17.488281 L 17.664062 15.863281 L 16.011719 15.691406 L 17.453125 14.859375 Z M 17.105469 13.234375 "/>
<path style=" stroke:none;fill-rule:nonzero;fill:rgb(100%,85.490196%,26.666667%);fill-opacity:1;" d="M 11.328125 19.015625 L 12.953125 19.359375 L 13.78125 17.921875 L 13.957031 19.574219 L 15.582031 19.917969 L 14.0625 20.59375 L 14.238281 22.246094 L 13.125 21.011719 L 11.609375 21.6875 L 12.4375 20.25 Z M 11.328125 19.015625 "/>
<path style=" stroke:none;fill-rule:nonzero;fill:rgb(100%,85.490196%,26.666667%);fill-opacity:1;" d="M 32.894531 13.234375 L 31.660156 14.347656 L 30.222656 13.515625 L 30.898438 15.035156 L 29.664062 16.144531 L 31.316406 15.972656 L 31.988281 17.488281 L 32.335938 15.863281 L 33.988281 15.691406 L 32.546875 14.859375 Z M 32.894531 13.234375 "/>
<path style=" stroke:none;fill-rule:nonzero;fill:rgb(100%,85.490196%,26.666667%);fill-opacity:1;" d="M 38.671875 19.015625 L 37.046875 19.359375 L 36.21875 17.921875 L 36.042969 19.574219 L 34.421875 19.917969 L 35.9375 20.59375 L 35.761719 22.246094 L 36.875 21.011719 L 38.390625 21.6875 L 37.5625 20.25 Z M 38.671875 19.015625 "/>
<path style=" stroke:none;fill-rule:nonzero;fill:rgb(94.117647%,94.117647%,94.117647%);fill-opacity:1;" d="M 25 38.863281 C 27.46875 38.863281 29.742188 38.042969 31.566406 36.65625 L 18.433594 36.65625 C 20.257812 38.042969 22.53125 38.863281 25 38.863281 Z M 25 38.863281 "/>
<path style=" stroke:none;fill-rule:nonzero;fill:rgb(94.117647%,94.117647%,94.117647%);fill-opacity:1;" d="M 15.035156 32.34375 C 15.382812 33.132812 15.820312 33.871094 16.332031 34.550781 L 33.667969 34.550781 C 34.183594 33.871094 34.621094 33.132812 34.964844 32.34375 Z M 15.035156 32.34375 "/>
</g>
</svg>
