<?xml version="1.0" encoding="UTF-8"?>
<svg xmlns="http://www.w3.org/2000/svg" xmlns:xlink="http://www.w3.org/1999/xlink" width="50px" height="50px" viewBox="0 0 50 50" version="1.1">
<g id="surface1">
<path style=" stroke:none;fill-rule:nonzero;fill:rgb(94.117647%,94.117647%,94.117647%);fill-opacity:1;" d="M 25 50 C 38.808594 50 50 38.808594 50 25 C 50 11.191406 38.808594 0 25 0 C 11.191406 0 0 11.191406 0 25 C 0 38.808594 11.191406 50 25 50 Z M 25 50 "/>
<path style=" stroke:none;fill-rule:nonzero;fill:rgb(42.745098%,64.705882%,26.666667%);fill-opacity:1;" d="M 16.304688 25 L 16.304688 48.445312 C 19.011719 49.449219 21.941406 50 25 50 C 38.808594 50 50 38.808594 50 25 C 50 11.191406 16.304688 25 16.304688 25 Z M 16.304688 25 "/>
<path style=" stroke:none;fill-rule:nonzero;fill:rgb(84.705882%,0%,15.294118%);fill-opacity:1;" d="M 25 0 C 21.941406 0 19.011719 0.550781 16.304688 1.554688 L 16.304688 25 L 50 25 C 50 11.191406 38.808594 0 25 0 Z M 25 0 "/>
</g>
</svg>
