<?xml version="1.0" encoding="UTF-8"?>
<svg xmlns="http://www.w3.org/2000/svg" xmlns:xlink="http://www.w3.org/1999/xlink" width="50px" height="50px" viewBox="0 0 50 50" version="1.1">
<g id="surface1">
<path style=" stroke:none;fill-rule:nonzero;fill:rgb(100%,85.490196%,26.666667%);fill-opacity:1;" d="M 35.871094 2.480469 C 32.582031 0.890625 28.894531 0 25 0 C 21.105469 0 17.417969 0.890625 14.128906 2.480469 L 11.957031 25 L 14.128906 47.519531 C 17.417969 49.109375 21.105469 50 25 50 C 28.894531 50 32.582031 49.109375 35.871094 47.519531 L 38.042969 25 Z M 35.871094 2.480469 "/>
<path style=" stroke:none;fill-rule:nonzero;fill:rgb(0%,32.156863%,70.588235%);fill-opacity:1;" d="M 14.128906 2.480469 C 5.769531 6.523438 0 15.089844 0 25 C 0 34.910156 5.769531 43.476562 14.128906 47.519531 Z M 14.128906 2.480469 "/>
<path style=" stroke:none;fill-rule:nonzero;fill:rgb(0%,32.156863%,70.588235%);fill-opacity:1;" d="M 35.871094 2.480469 L 35.871094 47.519531 C 44.230469 43.476562 50 34.910156 50 25 C 50 15.089844 44.230469 6.523438 35.871094 2.480469 Z M 35.871094 2.480469 "/>
<path style=" stroke:none;fill-rule:nonzero;fill:rgb(84.705882%,0%,15.294118%);fill-opacity:1;" d="M 32.066406 27.175781 L 33.695312 29.347656 L 33.695312 20.652344 L 32.066406 22.824219 L 27.175781 22.824219 L 27.175781 17.933594 L 29.347656 16.304688 L 20.652344 16.304688 L 22.824219 17.933594 L 22.824219 22.824219 L 17.933594 22.824219 L 16.304688 20.652344 L 16.304688 29.347656 L 17.933594 27.175781 L 22.824219 27.175781 L 22.824219 32.066406 L 20.652344 33.695312 L 29.347656 33.695312 L 27.175781 32.066406 L 27.175781 27.175781 Z M 32.066406 27.175781 "/>
<path style=" stroke:none;fill-rule:nonzero;fill:rgb(94.117647%,94.117647%,94.117647%);fill-opacity:1;" d="M 31.523438 23.914062 L 26.085938 23.914062 L 26.085938 18.476562 L 23.914062 18.476562 L 23.914062 23.914062 L 18.476562 23.914062 L 18.476562 26.085938 L 23.914062 26.085938 L 23.914062 31.523438 L 26.085938 31.523438 L 26.085938 26.085938 L 31.523438 26.085938 Z M 31.523438 23.914062 "/>
</g>
</svg>
