<?xml version="1.0" encoding="UTF-8"?>
<svg xmlns="http://www.w3.org/2000/svg" xmlns:xlink="http://www.w3.org/1999/xlink" width="50px" height="50px" viewBox="0 0 50 50" version="1.1">
<g id="surface1">
<path style=" stroke:none;fill-rule:nonzero;fill:rgb(94.117647%,94.117647%,94.117647%);fill-opacity:1;" d="M 25 50 C 38.808594 50 50 38.808594 50 25 C 50 11.191406 38.808594 0 25 0 C 11.191406 0 0 11.191406 0 25 C 0 38.808594 11.191406 50 25 50 Z M 25 50 "/>
<path style=" stroke:none;fill-rule:nonzero;fill:rgb(84.705882%,0%,15.294118%);fill-opacity:1;" d="M 23.914062 25 L 50 25 C 50 22.742188 49.699219 20.558594 49.140625 18.476562 L 23.914062 18.476562 Z M 23.914062 25 "/>
<path style=" stroke:none;fill-rule:nonzero;fill:rgb(84.705882%,0%,15.294118%);fill-opacity:1;" d="M 23.914062 11.957031 L 46.332031 11.957031 C 44.800781 9.460938 42.84375 7.25 40.5625 5.433594 L 23.914062 5.433594 Z M 23.914062 11.957031 "/>
<path style=" stroke:none;fill-rule:nonzero;fill:rgb(84.705882%,0%,15.294118%);fill-opacity:1;" d="M 25 50 C 30.882812 50 36.292969 47.964844 40.5625 44.566406 L 9.4375 44.566406 C 13.707031 47.964844 19.117188 50 25 50 Z M 25 50 "/>
<path style=" stroke:none;fill-rule:nonzero;fill:rgb(84.705882%,0%,15.294118%);fill-opacity:1;" d="M 3.667969 38.042969 L 46.332031 38.042969 C 47.558594 36.039062 48.511719 33.847656 49.140625 31.523438 L 0.859375 31.523438 C 1.488281 33.847656 2.441406 36.039062 3.667969 38.042969 Z M 3.667969 38.042969 "/>
<path style=" stroke:none;fill-rule:nonzero;fill:rgb(0%,32.156863%,70.588235%);fill-opacity:1;" d="M 25 25 C 25 11.191406 25 9.566406 25 0 C 11.191406 0 0 11.191406 0 25 Z M 25 25 "/>
<path style=" stroke:none;fill-rule:nonzero;fill:rgb(100%,85.490196%,26.666667%);fill-opacity:1;" d="M 16.625 21.398438 C 13.210938 21.398438 10.441406 18.632812 10.441406 15.21875 C 10.441406 11.804688 13.210938 9.035156 16.625 9.035156 C 17.6875 9.035156 18.691406 9.304688 19.566406 9.777344 C 18.191406 8.4375 16.316406 7.609375 14.246094 7.609375 C 10.042969 7.609375 6.636719 11.015625 6.636719 15.21875 C 6.636719 19.417969 10.042969 22.824219 14.246094 22.824219 C 16.316406 22.824219 18.191406 22 19.566406 20.65625 C 18.691406 21.128906 17.6875 21.398438 16.625 21.398438 Z M 16.625 21.398438 "/>
<path style=" stroke:none;fill-rule:nonzero;fill:rgb(100%,85.490196%,26.666667%);fill-opacity:1;" d="M 18.367188 10.871094 L 19.464844 13.164062 L 21.941406 12.59375 L 20.832031 14.882812 L 22.824219 16.460938 L 20.34375 17.019531 L 20.351562 19.566406 L 18.367188 17.972656 L 16.382812 19.566406 L 16.386719 17.019531 L 13.90625 16.460938 L 15.898438 14.882812 L 14.789062 12.59375 L 17.269531 13.164062 Z M 18.367188 10.871094 "/>
</g>
</svg>
