<?xml version="1.0" encoding="UTF-8"?>
<svg xmlns="http://www.w3.org/2000/svg" xmlns:xlink="http://www.w3.org/1999/xlink" width="50px" height="50px" viewBox="0 0 50 50" version="1.1">
<g id="surface1">
<path style=" stroke:none;fill-rule:nonzero;fill:rgb(84.705882%,0%,15.294118%);fill-opacity:1;" d="M 25 50 C 38.808594 50 50 38.808594 50 25 C 50 11.191406 38.808594 0 25 0 C 11.191406 0 0 11.191406 0 25 C 0 38.808594 11.191406 50 25 50 Z M 25 50 "/>
<path style=" stroke:none;fill-rule:nonzero;fill:rgb(42.745098%,64.705882%,26.666667%);fill-opacity:1;" d="M 8.695312 13.042969 L 41.304688 13.042969 L 41.304688 36.957031 L 8.695312 36.957031 Z M 8.695312 13.042969 "/>
<path style=" stroke:none;fill-rule:nonzero;fill:rgb(94.117647%,94.117647%,94.117647%);fill-opacity:1;" d="M 29.027344 32.066406 C 25.125 32.066406 21.960938 28.902344 21.960938 25 C 21.960938 21.097656 25.125 17.933594 29.027344 17.933594 C 30.242188 17.933594 31.386719 18.242188 32.386719 18.785156 C 30.820312 17.25 28.675781 16.304688 26.308594 16.304688 C 21.507812 16.304688 17.613281 20.199219 17.613281 25 C 17.613281 29.800781 21.507812 33.695312 26.308594 33.695312 C 28.675781 33.695312 30.820312 32.75 32.386719 31.214844 C 31.386719 31.757812 30.242188 32.066406 29.027344 32.066406 Z M 29.027344 32.066406 "/>
</g>
</svg>
