<?xml version="1.0" encoding="UTF-8"?>
<svg xmlns="http://www.w3.org/2000/svg" xmlns:xlink="http://www.w3.org/1999/xlink" width="50px" height="50px" viewBox="0 0 50 50" version="1.1">
<g id="surface1">
<path style=" stroke:none;fill-rule:nonzero;fill:rgb(0%,32.156863%,70.588235%);fill-opacity:1;" d="M 25 50 C 38.808594 50 50 38.808594 50 25 C 50 20.804688 48.964844 16.851562 47.136719 13.378906 L 24.96875 25.03125 L 36.621094 2.863281 C 33.148438 1.035156 29.195312 0 25 0 C 11.191406 0 0 11.191406 0 25 C 0 31.902344 2.796875 38.152344 7.320312 42.679688 C 11.847656 47.203125 18.097656 50 25 50 Z M 25 50 "/>
<path style=" stroke:none;fill-rule:nonzero;fill:rgb(94.117647%,94.117647%,94.117647%);fill-opacity:1;" d="M 47.113281 13.40625 C 45.96875 11.226562 44.480469 9.183594 42.648438 7.351562 C 40.816406 5.519531 38.773438 4.03125 36.59375 2.886719 L 7.292969 42.707031 Z M 47.113281 13.40625 "/>
<path style=" stroke:none;fill-rule:nonzero;fill:rgb(100%,59.607843%,6.666667%);fill-opacity:1;" d="M 7.292969 42.707031 L 47.113281 13.40625 C 45.96875 11.226562 44.480469 9.183594 42.648438 7.351562 Z M 7.292969 42.707031 "/>
<path style=" stroke:none;fill-rule:nonzero;fill:rgb(94.117647%,94.117647%,94.117647%);fill-opacity:1;" d="M 21.710938 14.660156 L 18.65625 16.097656 L 20.28125 19.054688 L 16.96875 18.417969 L 16.546875 21.769531 L 14.238281 19.304688 L 11.929688 21.769531 L 11.507812 18.417969 L 8.191406 19.054688 L 9.820312 16.097656 L 6.765625 14.660156 L 9.820312 13.222656 L 8.191406 10.265625 L 11.507812 10.902344 L 11.929688 7.550781 L 14.238281 10.015625 L 16.546875 7.550781 L 16.96875 10.902344 L 20.28125 10.265625 L 18.65625 13.222656 Z M 21.710938 14.660156 "/>
</g>
</svg>
