<?xml version="1.0" encoding="UTF-8"?>
<svg xmlns="http://www.w3.org/2000/svg" xmlns:xlink="http://www.w3.org/1999/xlink" width="50px" height="50px" viewBox="0 0 50 50" version="1.1">
<g id="surface1">
<path style=" stroke:none;fill-rule:nonzero;fill:rgb(94.117647%,94.117647%,94.117647%);fill-opacity:1;" d="M 25 50 C 38.808594 50 50 38.808594 50 25 C 50 11.191406 38.808594 0 25 0 C 11.191406 0 0 11.191406 0 25 C 0 38.808594 11.191406 50 25 50 Z M 25 50 "/>
<path style=" stroke:none;fill-rule:nonzero;fill:rgb(0%,32.156863%,70.588235%);fill-opacity:1;" d="M 49.785156 21.738281 C 49.097656 16.46875 46.726562 11.371094 42.675781 7.324219 C 38.628906 3.273438 33.53125 0.902344 28.261719 0.214844 L 28.261719 21.738281 Z M 49.785156 21.738281 "/>
<path style=" stroke:none;fill-rule:nonzero;fill:rgb(0%,32.156863%,70.588235%);fill-opacity:1;" d="M 21.738281 0.214844 C 16.46875 0.902344 11.371094 3.273438 7.320312 7.320312 C 3.273438 11.371094 0.902344 16.46875 0.214844 21.738281 L 21.738281 21.738281 Z M 21.738281 0.214844 "/>
<path style=" stroke:none;fill-rule:nonzero;fill:rgb(0%,32.156863%,70.588235%);fill-opacity:1;" d="M 0.214844 28.261719 C 0.902344 33.53125 3.273438 38.628906 7.320312 42.679688 C 11.371094 46.726562 16.46875 49.097656 21.738281 49.785156 L 21.738281 28.261719 Z M 0.214844 28.261719 "/>
<path style=" stroke:none;fill-rule:nonzero;fill:rgb(0%,32.156863%,70.588235%);fill-opacity:1;" d="M 28.261719 49.785156 C 33.53125 49.097656 38.628906 46.726562 42.675781 42.675781 C 46.726562 38.628906 49.097656 33.53125 49.785156 28.261719 L 28.261719 28.261719 Z M 28.261719 49.785156 "/>
<path style=" stroke:none;fill-rule:nonzero;fill:rgb(94.117647%,94.117647%,94.117647%);fill-opacity:1;" d="M 33.535156 15.863281 C 33.535156 15.53125 33.804688 15.261719 34.136719 15.261719 L 35.429688 15.261719 C 37.46875 15.261719 39.128906 13.601562 39.128906 11.558594 C 39.128906 9.515625 37.46875 7.855469 35.429688 7.855469 L 34.203125 7.855469 C 33.800781 7.554688 33.265625 7.371094 32.671875 7.371094 C 31.4375 7.371094 30.433594 8.171875 30.433594 9.160156 C 30.433594 10.140625 31.417969 10.933594 32.636719 10.949219 L 32.636719 10.957031 L 35.429688 10.957031 C 35.761719 10.957031 36.03125 11.226562 36.03125 11.558594 C 36.03125 11.890625 35.761719 12.160156 35.429688 12.160156 L 34.136719 12.160156 C 32.09375 12.160156 30.433594 13.820312 30.433594 15.863281 C 30.433594 17.902344 32.09375 19.566406 34.136719 19.566406 L 39.128906 19.566406 L 39.128906 16.464844 L 34.136719 16.464844 C 33.804688 16.464844 33.535156 16.195312 33.535156 15.863281 Z M 33.535156 15.863281 "/>
<path style=" stroke:none;fill-rule:nonzero;fill:rgb(94.117647%,94.117647%,94.117647%);fill-opacity:1;" d="M 13.96875 15.863281 C 13.96875 15.53125 14.238281 15.261719 14.570312 15.261719 L 15.863281 15.261719 C 17.90625 15.261719 19.566406 13.601562 19.566406 11.558594 C 19.566406 9.515625 17.90625 7.855469 15.863281 7.855469 L 14.636719 7.855469 C 14.238281 7.554688 13.699219 7.371094 13.105469 7.371094 C 11.871094 7.371094 10.871094 8.171875 10.871094 9.160156 C 10.871094 10.140625 11.851562 10.933594 13.070312 10.949219 L 13.070312 10.957031 L 15.863281 10.957031 C 16.195312 10.957031 16.464844 11.226562 16.464844 11.558594 C 16.464844 11.890625 16.195312 12.160156 15.863281 12.160156 L 14.570312 12.160156 C 12.53125 12.160156 10.871094 13.820312 10.871094 15.863281 C 10.871094 17.902344 12.53125 19.566406 14.570312 19.566406 L 19.566406 19.566406 L 19.566406 16.464844 L 14.570312 16.464844 C 14.238281 16.464844 13.96875 16.195312 13.96875 15.863281 Z M 13.96875 15.863281 "/>
<path style=" stroke:none;fill-rule:nonzero;fill:rgb(94.117647%,94.117647%,94.117647%);fill-opacity:1;" d="M 33.535156 38.929688 C 33.535156 38.59375 33.804688 38.324219 34.136719 38.324219 L 35.429688 38.324219 C 37.46875 38.324219 39.128906 36.664062 39.128906 34.625 C 39.128906 32.582031 37.46875 30.921875 35.429688 30.921875 L 34.203125 30.921875 C 33.800781 30.621094 33.265625 30.433594 32.671875 30.433594 C 31.4375 30.433594 30.433594 31.234375 30.433594 32.222656 C 30.433594 33.203125 31.417969 33.996094 32.636719 34.011719 L 32.636719 34.019531 L 35.429688 34.019531 C 35.761719 34.019531 36.03125 34.289062 36.03125 34.621094 C 36.03125 34.957031 35.761719 35.226562 35.429688 35.226562 L 34.136719 35.226562 C 32.09375 35.226562 30.433594 36.886719 30.433594 38.925781 C 30.433594 40.96875 32.09375 42.628906 34.136719 42.628906 L 39.128906 42.628906 L 39.128906 39.53125 L 34.136719 39.53125 C 33.804688 39.53125 33.535156 39.261719 33.535156 38.929688 Z M 33.535156 38.929688 "/>
<path style=" stroke:none;fill-rule:nonzero;fill:rgb(94.117647%,94.117647%,94.117647%);fill-opacity:1;" d="M 13.96875 38.929688 C 13.96875 38.59375 14.238281 38.324219 14.570312 38.324219 L 15.863281 38.324219 C 17.90625 38.324219 19.566406 36.664062 19.566406 34.625 C 19.566406 32.582031 17.90625 30.921875 15.863281 30.921875 L 14.636719 30.921875 C 14.238281 30.621094 13.699219 30.433594 13.105469 30.433594 C 11.871094 30.433594 10.871094 31.234375 10.871094 32.222656 C 10.871094 33.203125 11.851562 33.996094 13.070312 34.011719 L 13.070312 34.019531 L 15.863281 34.019531 C 16.195312 34.019531 16.464844 34.289062 16.464844 34.621094 C 16.464844 34.957031 16.195312 35.226562 15.863281 35.226562 L 14.570312 35.226562 C 12.53125 35.226562 10.871094 36.886719 10.871094 38.925781 C 10.871094 40.96875 12.53125 42.628906 14.570312 42.628906 L 19.566406 42.628906 L 19.566406 39.53125 L 14.570312 39.53125 C 14.238281 39.53125 13.96875 39.261719 13.96875 38.929688 Z M 13.96875 38.929688 "/>
</g>
</svg>
