<?xml version="1.0" encoding="UTF-8"?>
<svg xmlns="http://www.w3.org/2000/svg" xmlns:xlink="http://www.w3.org/1999/xlink" width="50px" height="50px" viewBox="0 0 50 50" version="1.1">
<g id="surface1">
<path style=" stroke:none;fill-rule:nonzero;fill:rgb(84.705882%,0%,15.294118%);fill-opacity:1;" d="M 3.039062 13.042969 L 25 15.21875 L 46.960938 13.042969 C 42.71875 5.273438 34.476562 0 25 0 C 15.523438 0 7.28125 5.273438 3.039062 13.042969 Z M 3.039062 13.042969 "/>
<path style=" stroke:none;fill-rule:nonzero;fill:rgb(100%,85.490196%,26.666667%);fill-opacity:1;" d="M 3.039062 36.957031 L 25 39.128906 L 46.960938 36.957031 C 48.898438 33.40625 50 29.332031 50 25 L 25 22.824219 L 0 25 C 0 29.332031 1.101562 33.40625 3.039062 36.957031 Z M 3.039062 36.957031 "/>
<path style=" stroke:none;fill-rule:nonzero;fill:rgb(0%,32.156863%,70.588235%);fill-opacity:1;" d="M 3.039062 13.042969 C 1.101562 16.59375 0 20.667969 0 25 L 50 25 C 50 20.667969 48.898438 16.59375 46.960938 13.042969 Z M 3.039062 13.042969 "/>
<path style=" stroke:none;fill-rule:nonzero;fill:rgb(42.745098%,64.705882%,26.666667%);fill-opacity:1;" d="M 25 50 C 34.476562 50 42.71875 44.726562 46.960938 36.957031 L 3.039062 36.957031 C 7.28125 44.726562 15.523438 50 25 50 Z M 25 50 "/>
</g>
</svg>
