<?xml version="1.0" encoding="UTF-8"?>
<svg xmlns="http://www.w3.org/2000/svg" xmlns:xlink="http://www.w3.org/1999/xlink" width="50px" height="50px" viewBox="0 0 50 50" version="1.1">
<g id="surface1">
<path style=" stroke:none;fill-rule:nonzero;fill:rgb(28.627451%,43.137255%,17.647059%);fill-opacity:1;" d="M 25 50 C 38.808594 50 50 38.808594 50 25 C 50 11.191406 38.808594 0 25 0 C 11.191406 0 0 11.191406 0 25 C 0 38.808594 11.191406 50 25 50 Z M 25 50 "/>
<path style=" stroke:none;fill-rule:nonzero;fill:rgb(100%,85.490196%,26.666667%);fill-opacity:1;" d="M 25 28.882812 C 20.835938 28.882812 17.359375 25.957031 16.507812 22.050781 C 16.375 22.648438 16.304688 23.273438 16.304688 23.914062 C 16.304688 28.714844 20.199219 32.609375 25 32.609375 C 29.800781 32.609375 33.695312 28.714844 33.695312 23.914062 C 33.695312 23.273438 33.625 22.648438 33.492188 22.050781 C 32.640625 25.957031 29.164062 28.882812 25 28.882812 Z M 25 28.882812 "/>
<path style=" stroke:none;fill-rule:nonzero;fill:rgb(100%,85.490196%,26.666667%);fill-opacity:1;" d="M 25 17.390625 L 25.808594 19.882812 L 28.429688 19.882812 L 26.308594 21.421875 L 27.117188 23.914062 L 25 22.375 L 22.882812 23.914062 L 23.691406 21.421875 L 21.570312 19.882812 L 24.191406 19.882812 Z M 25 17.390625 "/>
</g>
</svg>
