<?xml version="1.0" encoding="UTF-8"?>
<svg xmlns="http://www.w3.org/2000/svg" xmlns:xlink="http://www.w3.org/1999/xlink" width="50px" height="50px" viewBox="0 0 50 50" version="1.1">
<g id="surface1">
<path style=" stroke:none;fill-rule:nonzero;fill:rgb(20%,54.117647%,95.294118%);fill-opacity:1;" d="M 25 50 C 38.808594 50 50 38.808594 50 25 C 50 11.191406 38.808594 0 25 0 C 11.191406 0 0 11.191406 0 25 C 0 38.808594 11.191406 50 25 50 Z M 25 50 "/>
<path style=" stroke:none;fill-rule:nonzero;fill:rgb(50.588235%,50.196078%,52.156863%);fill-opacity:1;" d="M 11.957031 27.175781 L 38.042969 27.175781 L 38.042969 30.433594 L 11.957031 30.433594 Z M 11.957031 27.175781 "/>
<path style=" stroke:none;fill-rule:nonzero;fill:rgb(100%,85.490196%,26.666667%);fill-opacity:1;" d="M 16.304688 17.390625 L 25 18.476562 L 33.695312 17.390625 L 33.695312 12.175781 L 30.21875 13.914062 L 25 8.695312 L 19.78125 13.914062 L 16.304688 12.175781 Z M 16.304688 17.390625 "/>
<path style=" stroke:none;fill-rule:nonzero;fill:rgb(94.117647%,94.117647%,94.117647%);fill-opacity:1;" d="M 14.128906 33.695312 L 10.871094 33.695312 L 10.871094 27.71875 L 11.957031 26.085938 L 10.871094 24.457031 L 10.871094 20.652344 L 14.128906 20.652344 Z M 14.128906 33.695312 "/>
<path style=" stroke:none;fill-rule:nonzero;fill:rgb(94.117647%,94.117647%,94.117647%);fill-opacity:1;" d="M 39.128906 33.695312 L 35.871094 33.695312 L 35.871094 20.652344 L 39.128906 20.652344 L 39.128906 24.457031 L 38.042969 26.113281 L 39.128906 27.71875 Z M 39.128906 33.695312 "/>
<path style=" stroke:none;fill-rule:nonzero;fill:rgb(67.45098%,67.058824%,69.411765%);fill-opacity:1;" d="M 10.871094 24.457031 L 39.128906 24.457031 L 39.128906 27.71875 L 10.871094 27.71875 Z M 10.871094 24.457031 "/>
<path style=" stroke:none;fill-rule:nonzero;fill:rgb(94.117647%,94.117647%,94.117647%);fill-opacity:1;" d="M 25 38.042969 C 20.207031 38.042969 16.304688 34.140625 16.304688 29.347656 L 16.304688 17.390625 L 33.695312 17.390625 L 33.695312 29.347656 C 33.695312 34.140625 29.792969 38.042969 25 38.042969 Z M 25 38.042969 "/>
<path style=" stroke:none;fill-rule:nonzero;fill:rgb(0%,32.156863%,70.588235%);fill-opacity:1;" d="M 25 34.78125 C 22.003906 34.78125 19.566406 32.34375 19.566406 29.347656 L 19.566406 20.652344 L 30.433594 20.652344 L 30.433594 29.347656 C 30.433594 32.34375 27.996094 34.78125 25 34.78125 Z M 25 34.78125 "/>
<path style=" stroke:none;fill-rule:nonzero;fill:rgb(84.705882%,0%,15.294118%);fill-opacity:1;" d="M 16.304688 17.390625 L 19.566406 17.390625 L 19.566406 20.652344 L 16.304688 20.652344 Z M 16.304688 17.390625 "/>
<path style=" stroke:none;fill-rule:nonzero;fill:rgb(84.705882%,0%,15.294118%);fill-opacity:1;" d="M 30.433594 17.390625 L 33.695312 17.390625 L 33.695312 20.652344 L 30.433594 20.652344 Z M 30.433594 17.390625 "/>
<path style=" stroke:none;fill-rule:nonzero;fill:rgb(84.705882%,0%,15.294118%);fill-opacity:1;" d="M 30.433594 24.457031 L 33.695312 24.457031 L 33.695312 27.71875 L 30.433594 27.71875 Z M 30.433594 24.457031 "/>
<path style=" stroke:none;fill-rule:nonzero;fill:rgb(84.705882%,0%,15.294118%);fill-opacity:1;" d="M 16.304688 24.457031 L 19.566406 24.457031 L 19.566406 27.71875 L 16.304688 27.71875 Z M 16.304688 24.457031 "/>
<path style=" stroke:none;fill-rule:nonzero;fill:rgb(84.705882%,0%,15.294118%);fill-opacity:1;" d="M 23.371094 17.390625 L 26.628906 17.390625 L 26.628906 20.652344 L 23.371094 20.652344 Z M 23.371094 17.390625 "/>
<path style=" stroke:none;fill-rule:nonzero;fill:rgb(84.705882%,0%,15.294118%);fill-opacity:1;" d="M 25 34.78125 C 24.433594 34.78125 23.882812 34.695312 23.371094 34.53125 L 23.371094 37.886719 C 23.898438 37.988281 24.441406 38.042969 25 38.042969 C 25.558594 38.042969 26.101562 37.988281 26.628906 37.886719 L 26.628906 34.53125 C 26.117188 34.695312 25.566406 34.78125 25 34.78125 Z M 25 34.78125 "/>
<path style=" stroke:none;fill-rule:nonzero;fill:rgb(84.705882%,0%,15.294118%);fill-opacity:1;" d="M 19.636719 30.230469 L 17.035156 32.832031 C 17.488281 33.859375 18.128906 34.785156 18.921875 35.558594 L 21.226562 33.253906 C 20.402344 32.457031 19.832031 31.40625 19.636719 30.230469 Z M 19.636719 30.230469 "/>
<path style=" stroke:none;fill-rule:nonzero;fill:rgb(84.705882%,0%,15.294118%);fill-opacity:1;" d="M 32.964844 32.832031 L 30.363281 30.230469 C 30.167969 31.40625 29.597656 32.457031 28.773438 33.253906 L 31.078125 35.558594 C 31.871094 34.785156 32.511719 33.859375 32.964844 32.832031 Z M 32.964844 32.832031 "/>
</g>
</svg>
