<?xml version="1.0" encoding="UTF-8"?>
<svg xmlns="http://www.w3.org/2000/svg" xmlns:xlink="http://www.w3.org/1999/xlink" width="50px" height="50px" viewBox="0 0 50 50" version="1.1">
<g id="surface1">
<path style=" stroke:none;fill-rule:nonzero;fill:rgb(94.117647%,94.117647%,94.117647%);fill-opacity:1;" d="M 25 50 C 38.808594 50 50 38.808594 50 25 C 50 11.191406 38.808594 0 25 0 C 11.191406 0 0 11.191406 0 25 C 0 38.808594 11.191406 50 25 50 Z M 25 50 "/>
<path style=" stroke:none;fill-rule:nonzero;fill:rgb(84.705882%,0%,15.294118%);fill-opacity:1;" d="M 50 25 C 50 15.089844 44.230469 6.523438 35.871094 2.480469 L 35.871094 47.519531 C 44.230469 43.476562 50 34.910156 50 25 Z M 50 25 "/>
<path style=" stroke:none;fill-rule:nonzero;fill:rgb(42.745098%,64.705882%,26.666667%);fill-opacity:1;" d="M 0 25 C 0 34.910156 5.769531 43.476562 14.128906 47.519531 L 14.128906 2.480469 C 5.769531 6.523438 0 15.089844 0 25 Z M 0 25 "/>
<path style=" stroke:none;fill-rule:nonzero;fill:rgb(42.745098%,64.705882%,26.666667%);fill-opacity:1;" d="M 18.476562 25 C 18.476562 28.601562 21.398438 31.523438 25 31.523438 C 28.601562 31.523438 31.523438 28.601562 31.523438 25 L 31.523438 22.824219 L 18.476562 22.824219 Z M 18.476562 25 "/>
<path style=" stroke:none;fill-rule:nonzero;fill:rgb(100%,59.607843%,6.666667%);fill-opacity:1;" d="M 33.695312 20.652344 L 27.171875 20.652344 C 27.171875 19.453125 26.199219 18.476562 25 18.476562 C 23.800781 18.476562 22.824219 19.453125 22.824219 20.652344 L 16.304688 20.652344 C 16.304688 21.851562 17.351562 22.824219 18.550781 22.824219 L 18.476562 22.824219 C 18.476562 24.027344 19.453125 25 20.652344 25 C 20.652344 26.199219 21.625 27.175781 22.824219 27.175781 L 27.171875 27.175781 C 28.375 27.175781 29.347656 26.199219 29.347656 25 C 30.546875 25 31.523438 24.027344 31.523438 22.824219 L 31.449219 22.824219 C 32.648438 22.824219 33.695312 21.851562 33.695312 20.652344 Z M 33.695312 20.652344 "/>
</g>
</svg>
