<?xml version="1.0" encoding="UTF-8"?>
<svg xmlns="http://www.w3.org/2000/svg" xmlns:xlink="http://www.w3.org/1999/xlink" width="50px" height="50px" viewBox="0 0 50 50" version="1.1">
<g id="surface1">
<path style=" stroke:none;fill-rule:nonzero;fill:rgb(20%,54.117647%,95.294118%);fill-opacity:1;" d="M 25 50 C 38.808594 50 50 38.808594 50 25 C 50 11.191406 38.808594 0 25 0 C 11.191406 0 0 11.191406 0 25 C 0 38.808594 11.191406 50 25 50 Z M 25 50 "/>
<path style=" stroke:none;fill-rule:nonzero;fill:rgb(94.117647%,94.117647%,94.117647%);fill-opacity:1;" d="M 25 10.871094 L 26.078125 14.191406 L 29.570312 14.191406 L 26.746094 16.242188 L 27.824219 19.566406 L 25 17.511719 L 22.175781 19.566406 L 23.253906 16.242188 L 20.429688 14.191406 L 23.921875 14.191406 Z M 25 10.871094 "/>
<path style=" stroke:none;fill-rule:nonzero;fill:rgb(94.117647%,94.117647%,94.117647%);fill-opacity:1;" d="M 10.871094 25 L 14.191406 23.921875 L 14.191406 20.429688 L 16.242188 23.253906 L 19.566406 22.175781 L 17.511719 25 L 19.566406 27.824219 L 16.242188 26.746094 L 14.191406 29.570312 L 14.191406 26.078125 Z M 10.871094 25 "/>
<path style=" stroke:none;fill-rule:nonzero;fill:rgb(94.117647%,94.117647%,94.117647%);fill-opacity:1;" d="M 25 39.128906 L 23.921875 35.808594 L 20.429688 35.808594 L 23.253906 33.757812 L 22.175781 30.433594 L 25 32.488281 L 27.824219 30.433594 L 26.746094 33.757812 L 29.570312 35.808594 L 26.078125 35.808594 Z M 25 39.128906 "/>
<path style=" stroke:none;fill-rule:nonzero;fill:rgb(94.117647%,94.117647%,94.117647%);fill-opacity:1;" d="M 39.128906 25 L 35.808594 26.078125 L 35.808594 29.570312 L 33.757812 26.746094 L 30.433594 27.824219 L 32.488281 25 L 30.433594 22.175781 L 33.757812 23.253906 L 35.808594 20.429688 L 35.808594 23.921875 Z M 39.128906 25 "/>
</g>
</svg>
