<?xml version="1.0" encoding="UTF-8"?>
<svg xmlns="http://www.w3.org/2000/svg" xmlns:xlink="http://www.w3.org/1999/xlink" width="50px" height="50px" viewBox="0 0 50 50" version="1.1">
<g id="surface1">
<path style=" stroke:none;fill-rule:nonzero;fill:rgb(100%,85.490196%,26.666667%);fill-opacity:1;" d="M 35.871094 2.480469 C 32.582031 0.890625 28.894531 0 25 0 C 21.105469 0 17.417969 0.890625 14.128906 2.480469 L 11.957031 25 L 14.128906 47.519531 C 17.417969 49.109375 21.105469 50 25 50 C 28.894531 50 32.582031 49.109375 35.871094 47.519531 L 38.042969 25 Z M 35.871094 2.480469 "/>
<path style=" stroke:none;fill-rule:nonzero;fill:rgb(0%,32.156863%,70.588235%);fill-opacity:1;" d="M 14.128906 2.480469 C 5.769531 6.523438 0 15.089844 0 25 C 0 34.910156 5.769531 43.476562 14.128906 47.519531 Z M 14.128906 2.480469 "/>
<path style=" stroke:none;fill-rule:nonzero;fill:rgb(84.705882%,0%,15.294118%);fill-opacity:1;" d="M 35.871094 2.480469 L 35.871094 47.519531 C 44.230469 43.476562 50 34.910156 50 25 C 50 15.089844 44.230469 6.523438 35.871094 2.480469 Z M 35.871094 2.480469 "/>
<path style=" stroke:none;fill-rule:nonzero;fill:rgb(100%,59.607843%,6.666667%);fill-opacity:1;" d="M 33.695312 19.667969 L 27.71875 19.667969 C 27.71875 18.167969 26.5 16.953125 25 16.953125 C 23.5 16.953125 22.28125 18.167969 22.28125 19.667969 L 16.304688 19.667969 C 16.304688 21.148438 17.589844 22.34375 19.070312 22.34375 L 18.980469 22.34375 C 18.980469 23.824219 20.179688 25.019531 21.65625 25.019531 C 21.65625 26.328125 22.59375 27.417969 23.835938 27.648438 L 21.726562 32.410156 C 22.738281 32.820312 23.84375 33.046875 25 33.046875 C 26.15625 33.046875 27.261719 32.820312 28.273438 32.410156 L 26.164062 27.648438 C 27.40625 27.417969 28.34375 26.328125 28.34375 25.019531 C 29.820312 25.019531 31.019531 23.824219 31.019531 22.34375 L 30.929688 22.34375 C 32.410156 22.34375 33.695312 21.148438 33.695312 19.667969 Z M 33.695312 19.667969 "/>
<path style=" stroke:none;fill-rule:nonzero;fill:rgb(0%,32.156863%,70.588235%);fill-opacity:1;" d="M 25 23.371094 L 21.46875 25 L 21.46875 28.261719 L 25 30.433594 L 28.53125 28.261719 L 28.53125 25 Z M 25 23.371094 "/>
<path style=" stroke:none;fill-rule:nonzero;fill:rgb(84.705882%,0%,15.294118%);fill-opacity:1;" d="M 21.46875 21.738281 L 28.53125 21.738281 L 28.53125 25 L 21.46875 25 Z M 21.46875 21.738281 "/>
</g>
</svg>
