<?xml version="1.0" encoding="UTF-8"?>
<svg xmlns="http://www.w3.org/2000/svg" xmlns:xlink="http://www.w3.org/1999/xlink" width="50px" height="50px" viewBox="0 0 50 50" version="1.1">
<g id="surface1">
<path style=" stroke:none;fill-rule:nonzero;fill:rgb(0%,32.156863%,70.588235%);fill-opacity:1;" d="M 25 50 C 28.058594 50 30.988281 49.449219 33.695312 48.445312 L 34.78125 25 L 33.695312 1.554688 C 30.988281 0.550781 28.058594 0 25 0 C 21.941406 0 19.011719 0.550781 16.304688 1.554688 L 15.21875 25 L 16.304688 48.445312 C 19.011719 49.449219 21.941406 50 25 50 Z M 25 50 "/>
<path style=" stroke:none;fill-rule:nonzero;fill:rgb(63.529412%,0%,11.372549%);fill-opacity:1;" d="M 0 25 C 0 35.75 6.785156 44.914062 16.304688 48.445312 L 16.304688 1.554688 C 6.785156 5.085938 0 14.25 0 25 Z M 0 25 "/>
<path style=" stroke:none;fill-rule:nonzero;fill:rgb(63.529412%,0%,11.372549%);fill-opacity:1;" d="M 33.695312 1.554688 L 33.695312 48.445312 C 43.214844 44.914062 50 35.75 50 25 C 50 14.25 43.214844 5.085938 33.695312 1.554688 Z M 33.695312 1.554688 "/>
<path style=" stroke:none;fill-rule:nonzero;fill:rgb(100%,85.490196%,26.666667%);fill-opacity:1;" d="M 11.957031 25 L 14.128906 25 L 14.128906 33.695312 L 11.957031 33.695312 Z M 11.957031 25 "/>
<path style=" stroke:none;fill-rule:nonzero;fill:rgb(100%,85.490196%,26.666667%);fill-opacity:1;" d="M 3.261719 25 L 5.433594 25 L 5.433594 33.695312 L 3.261719 33.695312 Z M 3.261719 25 "/>
<path style=" stroke:none;fill-rule:nonzero;fill:rgb(100%,85.490196%,26.666667%);fill-opacity:1;" d="M 8.695312 30.433594 C 9.894531 30.433594 10.871094 29.460938 10.871094 28.261719 C 10.871094 27.058594 9.894531 26.085938 8.695312 26.085938 C 7.496094 26.085938 6.523438 27.058594 6.523438 28.261719 C 6.523438 29.460938 7.496094 30.433594 8.695312 30.433594 Z M 8.695312 30.433594 "/>
<path style=" stroke:none;fill-rule:nonzero;fill:rgb(100%,85.490196%,26.666667%);fill-opacity:1;" d="M 8.695312 21.738281 C 9.296875 21.738281 9.78125 21.253906 9.78125 20.652344 C 9.78125 20.050781 9.296875 19.566406 8.695312 19.566406 C 8.09375 19.566406 7.609375 20.050781 7.609375 20.652344 C 7.609375 21.253906 8.09375 21.738281 8.695312 21.738281 Z M 8.695312 21.738281 "/>
<path style=" stroke:none;fill-rule:nonzero;fill:rgb(100%,85.490196%,26.666667%);fill-opacity:1;" d="M 6.523438 31.523438 L 10.871094 31.523438 L 10.871094 33.695312 L 6.523438 33.695312 Z M 6.523438 31.523438 "/>
<path style=" stroke:none;fill-rule:nonzero;fill:rgb(100%,85.490196%,26.666667%);fill-opacity:1;" d="M 6.523438 22.824219 L 10.871094 22.824219 L 10.871094 25 L 6.523438 25 Z M 6.523438 22.824219 "/>
<path style=" stroke:none;fill-rule:nonzero;fill:rgb(100%,85.490196%,26.666667%);fill-opacity:1;" d="M 8.695312 13.042969 L 9.464844 15.414062 L 11.957031 15.414062 L 9.941406 16.875 L 10.710938 19.246094 L 8.695312 17.78125 L 6.679688 19.246094 L 7.449219 16.875 L 5.433594 15.414062 L 7.925781 15.414062 Z M 8.695312 13.042969 "/>
</g>
</svg>
