<?xml version="1.0" encoding="UTF-8"?>
<svg xmlns="http://www.w3.org/2000/svg" xmlns:xlink="http://www.w3.org/1999/xlink" width="50px" height="50px" viewBox="0 0 50 50" version="1.1">
<g id="surface1">
<path style=" stroke:none;fill-rule:nonzero;fill:rgb(100%,85.490196%,26.666667%);fill-opacity:1;" d="M 25 50 C 38.808594 50 50 38.808594 50 25 C 50 11.191406 38.808594 0 25 0 C 11.191406 0 0 11.191406 0 25 C 0 38.808594 11.191406 50 25 50 Z M 25 50 "/>
<path style=" stroke:none;fill-rule:nonzero;fill:rgb(63.529412%,0%,11.372549%);fill-opacity:1;" d="M 50 25 C 50 16.417969 45.675781 8.851562 39.089844 4.347656 L 10.910156 4.347656 C 4.324219 8.851562 0 16.417969 0 25 C 0 33.582031 4.324219 41.148438 10.910156 45.652344 L 39.089844 45.652344 C 45.675781 41.148438 50 33.582031 50 25 Z M 50 25 "/>
<path style=" stroke:none;fill-rule:nonzero;fill:rgb(100%,85.490196%,26.666667%);fill-opacity:1;" d="M 19.566406 18.476562 L 30.433594 18.476562 L 30.433594 14.128906 L 28.261719 15.21875 L 25 11.957031 L 21.738281 15.21875 L 19.566406 14.128906 Z M 19.566406 18.476562 "/>
<path style=" stroke:none;fill-rule:nonzero;fill:rgb(100%,85.490196%,26.666667%);fill-opacity:1;" d="M 34.78125 25 L 29.351562 25 C 29.5625 24.632812 29.6875 24.203125 29.6875 23.75 C 29.6875 22.363281 28.5625 21.242188 27.179688 21.242188 C 26.222656 21.242188 25.390625 21.777344 24.96875 22.566406 C 24.542969 21.777344 23.714844 21.242188 22.753906 21.242188 C 21.371094 21.242188 20.246094 22.363281 20.246094 23.75 C 20.246094 24.203125 20.371094 24.632812 20.585938 25 L 15.21875 25 C 15.21875 26.664062 16.664062 28.011719 18.328125 28.011719 L 18.226562 28.011719 C 18.226562 29.375 19.132812 30.523438 20.378906 30.894531 L 17.933594 33.339844 L 20.242188 35.644531 L 23.511719 32.371094 C 23.640625 32.417969 23.773438 32.457031 23.910156 32.484375 L 21.933594 36.945312 C 22.878906 37.332031 23.914062 37.542969 25 37.542969 C 26.085938 37.542969 27.121094 37.332031 28.066406 36.945312 L 26.089844 32.484375 C 26.226562 32.457031 26.359375 32.417969 26.488281 32.371094 L 29.757812 35.644531 L 32.066406 33.339844 L 29.621094 30.894531 C 30.867188 30.523438 31.773438 29.375 31.773438 28.011719 L 31.671875 28.011719 C 33.335938 28.011719 34.78125 26.664062 34.78125 25 Z M 34.78125 25 "/>
<path style=" stroke:none;fill-rule:nonzero;fill:rgb(42.745098%,64.705882%,26.666667%);fill-opacity:1;" d="M 25 26.628906 L 21.46875 28.261719 L 21.46875 31.523438 L 25 33.695312 L 28.53125 31.523438 L 28.53125 28.261719 Z M 25 26.628906 "/>
<path style=" stroke:none;fill-rule:nonzero;fill:rgb(0%,32.156863%,70.588235%);fill-opacity:1;" d="M 21.46875 25 L 28.53125 25 L 28.53125 29.347656 L 21.46875 29.347656 Z M 21.46875 25 "/>
</g>
</svg>
