<?xml version="1.0" encoding="UTF-8"?>
<svg xmlns="http://www.w3.org/2000/svg" xmlns:xlink="http://www.w3.org/1999/xlink" width="50px" height="50px" viewBox="0 0 50 50" version="1.1">
<g id="surface1">
<path style=" stroke:none;fill-rule:nonzero;fill:rgb(84.705882%,0%,15.294118%);fill-opacity:1;" d="M 25 50 C 38.808594 50 50 38.808594 50 25 C 50 11.191406 38.808594 0 25 0 C 11.191406 0 0 11.191406 0 25 C 0 38.808594 11.191406 50 25 50 Z M 25 50 "/>
<path style=" stroke:none;fill-rule:nonzero;fill:rgb(100%,85.490196%,26.666667%);fill-opacity:1;" d="M 39.773438 20.515625 L 28.488281 20.515625 L 25 9.78125 L 21.511719 20.515625 L 10.226562 20.515625 L 19.355469 27.152344 L 15.867188 37.886719 L 25 31.25 L 34.132812 37.886719 L 30.644531 27.152344 Z M 21.914062 26.320312 L 23.089844 22.691406 L 26.910156 22.691406 L 28.085938 26.320312 L 25 28.5625 Z M 26.203125 20.515625 L 23.796875 20.515625 L 25 16.816406 Z M 29.9375 24.976562 L 29.195312 22.691406 L 33.082031 22.691406 Z M 20.804688 22.691406 L 20.0625 24.976562 L 16.917969 22.691406 Z M 20.003906 32.195312 L 21.207031 28.496094 L 23.152344 29.90625 Z M 26.847656 29.90625 L 28.792969 28.496094 L 29.996094 32.195312 Z M 26.847656 29.90625 "/>
</g>
</svg>
