<?xml version="1.0" encoding="UTF-8"?>
<svg xmlns="http://www.w3.org/2000/svg" xmlns:xlink="http://www.w3.org/1999/xlink" width="50px" height="50px" viewBox="0 0 50 50" version="1.1">
<g id="surface1">
<path style=" stroke:none;fill-rule:nonzero;fill:rgb(94.117647%,94.117647%,94.117647%);fill-opacity:1;" d="M 25 50 C 38.808594 50 50 38.808594 50 25 C 50 11.191406 38.808594 0 25 0 C 11.191406 0 0 11.191406 0 25 C 0 38.808594 11.191406 50 25 50 Z M 25 50 "/>
<path style=" stroke:none;fill-rule:nonzero;fill:rgb(100%,85.490196%,26.666667%);fill-opacity:1;" d="M 13.511719 34.78125 L 7.324219 42.675781 C 11.847656 47.203125 18.097656 50 25 50 C 35.335938 50 44.203125 43.726562 48.011719 34.78125 Z M 13.511719 34.78125 "/>
<path style=" stroke:none;fill-rule:nonzero;fill:rgb(28.627451%,43.137255%,17.647059%);fill-opacity:1;" d="M 48.050781 15.308594 C 44.265625 6.316406 35.371094 0 25 0 C 18.097656 0 11.847656 2.796875 7.324219 7.324219 L 13.582031 15.308594 Z M 48.050781 15.308594 "/>
<path style=" stroke:none;fill-rule:nonzero;fill:rgb(0%,0%,0%);fill-opacity:1;" d="M 5.433594 18.386719 L 5.433594 31.523438 L 49.140625 31.523438 C 49.699219 29.441406 50 27.257812 50 25 C 50 22.710938 49.691406 20.492188 49.113281 18.386719 Z M 5.433594 18.386719 "/>
<path style=" stroke:none;fill-rule:nonzero;fill:rgb(63.529412%,0%,11.372549%);fill-opacity:1;" d="M 7.320312 7.320312 C -2.441406 17.085938 -2.441406 32.914062 7.320312 42.679688 C 11.355469 38.644531 15.238281 34.761719 25 25 Z M 7.320312 7.320312 "/>
<path style=" stroke:none;fill-rule:nonzero;fill:rgb(100%,85.490196%,26.666667%);fill-opacity:1;" d="M 10.117188 18.476562 L 11.738281 23.460938 L 16.976562 23.460938 L 12.738281 26.539062 L 14.355469 31.523438 L 10.117188 28.441406 L 5.878906 31.523438 L 7.5 26.539062 L 3.261719 23.460938 L 8.5 23.460938 Z M 10.117188 18.476562 "/>
<path style=" stroke:none;fill-rule:nonzero;fill:rgb(94.117647%,94.117647%,94.117647%);fill-opacity:1;" d="M 5.382812 25 L 14.855469 25 L 14.855469 29.347656 L 5.382812 29.347656 Z M 5.382812 25 "/>
<path style=" stroke:none;fill-rule:nonzero;fill:rgb(0%,0%,0%);fill-opacity:1;" d="M 16.648438 20.015625 L 15.113281 18.476562 L 10.117188 23.472656 L 5.125 18.476562 L 3.585938 20.015625 L 8.585938 25.007812 L 3.585938 30.003906 L 5.125 31.523438 L 10.117188 26.535156 L 15.113281 31.523438 L 16.648438 30.003906 L 11.652344 25.007812 Z M 16.648438 20.015625 "/>
</g>
</svg>
