<?xml version="1.0" encoding="UTF-8"?>
<svg xmlns="http://www.w3.org/2000/svg" xmlns:xlink="http://www.w3.org/1999/xlink" width="50px" height="50px" viewBox="0 0 50 50" version="1.1">
<g id="surface1">
<path style=" stroke:none;fill-rule:nonzero;fill:rgb(94.117647%,94.117647%,94.117647%);fill-opacity:1;" d="M 25 50 C 38.808594 50 50 38.808594 50 25 C 50 11.191406 38.808594 0 25 0 C 11.191406 0 0 11.191406 0 25 C 0 38.808594 11.191406 50 25 50 Z M 25 50 "/>
<path style=" stroke:none;fill-rule:nonzero;fill:rgb(63.529412%,0%,11.372549%);fill-opacity:1;" d="M 7.324219 42.679688 C 8.371094 43.726562 9.488281 44.660156 10.664062 45.484375 L 45.484375 10.664062 C 44.660156 9.488281 43.726562 8.371094 42.675781 7.324219 C 41.628906 6.273438 40.511719 5.339844 39.335938 4.515625 L 4.515625 39.335938 C 5.339844 40.511719 6.273438 41.628906 7.324219 42.679688 Z M 7.324219 42.679688 "/>
<path style=" stroke:none;fill-rule:nonzero;fill:rgb(0%,32.156863%,70.588235%);fill-opacity:1;" d="M 7.324219 7.324219 C -0.566406 15.210938 -2.078125 27.054688 2.777344 36.460938 L 36.460938 2.777344 C 27.054688 -2.078125 15.210938 -0.5625 7.324219 7.324219 Z M 7.324219 7.324219 "/>
<path style=" stroke:none;fill-rule:nonzero;fill:rgb(28.627451%,43.137255%,17.647059%);fill-opacity:1;" d="M 42.675781 42.679688 C 50.566406 34.789062 52.078125 22.945312 47.222656 13.539062 L 13.539062 47.222656 C 22.945312 52.078125 34.789062 50.566406 42.675781 42.679688 Z M 42.675781 42.679688 "/>
<path style=" stroke:none;fill-rule:nonzero;fill:rgb(100%,85.490196%,26.666667%);fill-opacity:1;" d="M 20.652344 14.128906 L 17.851562 15.449219 L 19.34375 18.160156 L 16.300781 17.578125 L 15.914062 20.652344 L 13.796875 18.390625 L 11.675781 20.652344 L 11.292969 17.578125 L 8.25 18.160156 L 9.742188 15.449219 L 6.941406 14.128906 L 9.742188 12.8125 L 8.25 10.101562 L 11.292969 10.679688 L 11.675781 7.609375 L 13.796875 9.867188 L 15.914062 7.609375 L 16.300781 10.679688 L 19.34375 10.101562 L 17.851562 12.8125 Z M 20.652344 14.128906 "/>
</g>
</svg>
