<?xml version="1.0" encoding="UTF-8"?>
<svg xmlns="http://www.w3.org/2000/svg" xmlns:xlink="http://www.w3.org/1999/xlink" width="50px" height="50px" viewBox="0 0 50 50" version="1.1">
<g id="surface1">
<path style=" stroke:none;fill-rule:nonzero;fill:rgb(0%,32.156863%,70.588235%);fill-opacity:1;" d="M 25 50 C 38.808594 50 50 38.808594 50 25 C 50 11.191406 38.808594 0 25 0 C 11.191406 0 0 11.191406 0 25 C 0 38.808594 11.191406 50 25 50 Z M 25 50 "/>
<path style=" stroke:none;fill-rule:nonzero;fill:rgb(94.117647%,94.117647%,94.117647%);fill-opacity:1;" d="M 35.730469 26.742188 C 35.820312 26.175781 35.871094 25.59375 35.871094 25 C 35.871094 25.59375 35.820312 26.175781 35.730469 26.742188 L 40.21875 25 L 35.730469 23.257812 L 33.265625 22.296875 L 29.257812 20.742188 L 27.703125 16.738281 C 30.328125 17.597656 32.402344 19.671875 33.261719 22.296875 L 35.730469 23.257812 C 34.984375 18.65625 31.34375 15.015625 26.742188 14.269531 L 25 9.78125 L 23.257812 14.269531 C 18.65625 15.015625 15.015625 18.65625 14.269531 23.257812 L 9.78125 25 L 14.269531 26.742188 C 15.015625 31.34375 18.65625 34.984375 23.257812 35.730469 L 25 40.21875 L 26.742188 35.730469 C 31.34375 34.984375 34.984375 31.34375 35.730469 26.742188 Z M 27.578125 22.421875 L 25 25 L 34.214844 25 L 27.578125 27.578125 L 25 25 L 25 34.214844 L 22.421875 27.578125 L 25 25 L 15.785156 25 L 22.421875 22.421875 L 25 25 L 25 15.785156 Z M 22.296875 16.738281 L 20.742188 20.742188 L 16.738281 22.296875 C 17.597656 19.671875 19.671875 17.597656 22.296875 16.738281 Z M 16.738281 27.703125 L 20.742188 29.257812 L 22.296875 33.261719 C 19.671875 32.402344 17.597656 30.328125 16.738281 27.703125 Z M 27.703125 33.261719 L 29.257812 29.257812 L 33.261719 27.703125 C 32.402344 30.328125 30.328125 32.402344 27.703125 33.261719 Z M 27.703125 33.261719 "/>
<path style=" stroke:none;fill-rule:nonzero;fill:rgb(0%,32.156863%,70.588235%);fill-opacity:1;" d="M 34.214844 25 L 25 25 L 27.578125 27.578125 Z M 34.214844 25 "/>
<path style=" stroke:none;fill-rule:nonzero;fill:rgb(0%,32.156863%,70.588235%);fill-opacity:1;" d="M 15.785156 25 L 25 25 L 22.421875 22.421875 Z M 15.785156 25 "/>
<path style=" stroke:none;fill-rule:nonzero;fill:rgb(0%,32.156863%,70.588235%);fill-opacity:1;" d="M 25 34.214844 L 25 25 L 22.421875 27.578125 Z M 25 34.214844 "/>
<path style=" stroke:none;fill-rule:nonzero;fill:rgb(0%,32.156863%,70.588235%);fill-opacity:1;" d="M 25 25 L 27.578125 22.421875 L 25 15.785156 Z M 25 25 "/>
<path style=" stroke:none;fill-rule:nonzero;fill:rgb(94.117647%,94.117647%,94.117647%);fill-opacity:1;" d="M 23.914062 3.261719 L 26.085938 3.261719 L 26.085938 7.609375 L 23.914062 7.609375 Z M 23.914062 3.261719 "/>
<path style=" stroke:none;fill-rule:nonzero;fill:rgb(94.117647%,94.117647%,94.117647%);fill-opacity:1;" d="M 3.261719 23.914062 L 7.609375 23.914062 L 7.609375 26.085938 L 3.261719 26.085938 Z M 3.261719 23.914062 "/>
<path style=" stroke:none;fill-rule:nonzero;fill:rgb(94.117647%,94.117647%,94.117647%);fill-opacity:1;" d="M 23.914062 42.390625 L 26.085938 42.390625 L 26.085938 46.738281 L 23.914062 46.738281 Z M 23.914062 42.390625 "/>
<path style=" stroke:none;fill-rule:nonzero;fill:rgb(94.117647%,94.117647%,94.117647%);fill-opacity:1;" d="M 42.390625 23.914062 L 46.738281 23.914062 L 46.738281 26.085938 L 42.390625 26.085938 Z M 42.390625 23.914062 "/>
</g>
</svg>
