<?xml version="1.0" encoding="UTF-8"?>
<svg xmlns="http://www.w3.org/2000/svg" xmlns:xlink="http://www.w3.org/1999/xlink" width="50px" height="50px" viewBox="0 0 50 49" version="1.1">
<defs>
<clipPath id="clip1">
  <path d="M 0.0976562 0 L 50 0 L 50 49 L 0.0976562 49 Z M 0.0976562 0 "/>
</clipPath>
<clipPath id="clip2">
  <path d="M 0.0976562 0 L 50 0 L 50 23 L 0.0976562 23 Z M 0.0976562 0 "/>
</clipPath>
<clipPath id="clip3">
  <path d="M 0.0976562 26 L 50 26 L 50 49 L 0.0976562 49 Z M 0.0976562 26 "/>
</clipPath>
</defs>
<g id="surface1">
<g clip-path="url(#clip1)" clip-rule="nonzero">
<path style=" stroke:none;fill-rule:nonzero;fill:rgb(0%,32.156863%,70.588235%);fill-opacity:1;" d="M 25.046875 49 C 38.828125 49 50 38.03125 50 24.5 C 50 10.96875 38.828125 0 25.046875 0 C 11.265625 0 0.0976562 10.96875 0.0976562 24.5 C 0.0976562 38.03125 11.265625 49 25.046875 49 Z M 25.046875 49 "/>
<path style=" stroke:none;fill-rule:nonzero;fill:rgb(100%,85.490196%,26.666667%);fill-opacity:1;" d="M 25.046875 49 C 38.828125 49 50 38.03125 50 24.5 C 50 10.96875 38.828125 0 25.046875 0 C 11.265625 0 0.0976562 10.96875 0.0976562 24.5 C 0.0976562 38.03125 11.265625 49 25.046875 49 Z M 25.046875 49 "/>
</g>
<g clip-path="url(#clip2)" clip-rule="nonzero">
<path style=" stroke:none;fill-rule:nonzero;fill:rgb(0%,32.156863%,70.588235%);fill-opacity:1;" d="M 25.046875 0 C 12 0 1.292969 9.835938 0.191406 22.371094 L 49.902344 22.371094 C 48.804688 9.835938 38.097656 0 25.046875 0 Z M 25.046875 0 "/>
</g>
<g clip-path="url(#clip3)" clip-rule="nonzero">
<path style=" stroke:none;fill-rule:nonzero;fill:rgb(0%,32.156863%,70.588235%);fill-opacity:1;" d="M 25.046875 49 C 38.097656 49 48.804688 39.164062 49.902344 26.628906 L 0.191406 26.628906 C 1.292969 39.164062 12 49 25.046875 49 Z M 25.046875 49 "/>
</g>
<path style=" stroke:none;fill-rule:nonzero;fill:rgb(94.117647%,94.117647%,94.117647%);fill-opacity:1;" d="M 20.707031 33.023438 L 17.914062 34.3125 L 19.402344 36.972656 L 16.363281 36.402344 L 15.980469 39.414062 L 13.867188 37.199219 L 11.75 39.414062 L 11.367188 36.402344 L 8.332031 36.972656 L 9.820312 34.3125 L 7.023438 33.023438 L 9.820312 31.730469 L 8.332031 29.070312 L 11.367188 29.640625 L 11.75 26.628906 L 13.867188 28.84375 L 15.980469 26.628906 L 16.363281 29.640625 L 19.402344 29.070312 L 17.914062 31.730469 Z M 20.707031 33.023438 "/>
</g>
</svg>
