<?xml version="1.0" encoding="UTF-8"?>
<svg xmlns="http://www.w3.org/2000/svg" xmlns:xlink="http://www.w3.org/1999/xlink" width="50px" height="50px" viewBox="0 0 50 49" version="1.1">
<defs>
<clipPath id="clip1">
  <path d="M 0.0976562 0 L 50 0 L 50 49 L 0.0976562 49 Z M 0.0976562 0 "/>
</clipPath>
<clipPath id="clip2">
  <path d="M 0.0976562 0 L 50 0 L 50 46 L 0.0976562 46 Z M 0.0976562 0 "/>
</clipPath>
<clipPath id="clip3">
  <path d="M 0.0976562 0 L 44 0 L 44 49 L 0.0976562 49 Z M 0.0976562 0 "/>
</clipPath>
</defs>
<g id="surface1">
<g clip-path="url(#clip1)" clip-rule="nonzero">
<path style=" stroke:none;fill-rule:nonzero;fill:rgb(94.117647%,94.117647%,94.117647%);fill-opacity:1;" d="M 25.046875 49 C 38.828125 49 50 38.03125 50 24.5 C 50 10.96875 38.828125 0 25.046875 0 C 11.265625 0 0.0976562 10.96875 0.0976562 24.5 C 0.0976562 38.03125 11.265625 49 25.046875 49 Z M 25.046875 49 "/>
</g>
<g clip-path="url(#clip2)" clip-rule="nonzero">
<path style=" stroke:none;fill-rule:nonzero;fill:rgb(0%,32.156863%,70.588235%);fill-opacity:1;" d="M 49.851562 27.164062 L 22.488281 0.128906 C 21.253906 0.25 20.046875 0.460938 18.871094 0.757812 C 8.078125 3.453125 0.0976562 24.5 0.0976562 24.5 C 0.0976562 24.5 35.027344 47.453125 39.011719 44.804688 C 39.808594 44.273438 40.574219 43.699219 41.300781 43.085938 L 25.085938 27.164062 Z M 49.851562 27.164062 "/>
</g>
<g clip-path="url(#clip3)" clip-rule="nonzero">
<path style=" stroke:none;fill-rule:nonzero;fill:rgb(84.705882%,0%,15.294118%);fill-opacity:1;" d="M 43.488281 24.5 L 19.222656 0.671875 C 8.253906 3.25 0.0976562 12.9375 0.0976562 24.5 C 0.0976562 38.03125 11.265625 49 25.046875 49 C 30.273438 49 35.125 47.421875 39.132812 44.722656 L 18.539062 24.5 Z M 43.488281 24.5 "/>
</g>
<path style=" stroke:none;fill-rule:nonzero;fill:rgb(94.117647%,94.117647%,94.117647%);fill-opacity:1;" d="M 23.828125 36.175781 L 20.777344 34.769531 L 22.402344 31.871094 L 19.09375 32.492188 L 18.671875 29.210938 L 16.367188 31.625 L 14.0625 29.210938 L 13.644531 32.492188 L 10.335938 31.871094 L 11.957031 34.769531 L 8.910156 36.175781 L 11.957031 37.582031 L 10.335938 40.480469 L 13.644531 39.859375 L 14.0625 43.140625 L 16.367188 40.726562 L 18.671875 43.140625 L 19.09375 39.859375 L 22.402344 40.480469 L 20.777344 37.582031 Z M 23.828125 36.175781 "/>
<path style=" stroke:none;fill-rule:nonzero;fill:rgb(94.117647%,94.117647%,94.117647%);fill-opacity:1;" d="M 21.792969 13.589844 L 19.578125 12.566406 L 20.757812 10.457031 L 18.351562 10.910156 L 18.046875 8.523438 L 16.367188 10.277344 L 14.691406 8.523438 L 14.386719 10.910156 L 11.980469 10.457031 L 13.160156 12.566406 L 10.945312 13.589844 L 16.367188 14.652344 Z M 21.792969 13.589844 "/>
<path style=" stroke:none;fill-rule:nonzero;fill:rgb(94.117647%,94.117647%,94.117647%);fill-opacity:1;" d="M 22.878906 13.589844 C 22.878906 17.117188 19.964844 19.980469 16.367188 19.980469 C 12.773438 19.980469 9.859375 17.117188 9.859375 13.589844 "/>
</g>
</svg>
