<?xml version="1.0" encoding="UTF-8"?>
<svg xmlns="http://www.w3.org/2000/svg" xmlns:xlink="http://www.w3.org/1999/xlink" width="50px" height="50px" viewBox="0 0 50 49" version="1.1">
<defs>
<clipPath id="clip1">
  <path d="M 0.0976562 0 L 50 0 L 50 49 L 0.0976562 49 Z M 0.0976562 0 "/>
</clipPath>
<clipPath id="clip2">
  <path d="M 0.0976562 0 L 26 0 L 26 25 L 0.0976562 25 Z M 0.0976562 0 "/>
</clipPath>
</defs>
<g id="surface1">
<g clip-path="url(#clip1)" clip-rule="nonzero">
<path style=" stroke:none;fill-rule:nonzero;fill:rgb(0%,32.156863%,70.588235%);fill-opacity:1;" d="M 50 24.5 C 50 38.03125 38.828125 49 25.046875 49 C 11.265625 49 0.0976562 38.03125 0.0976562 24.5 C 0.0976562 24.503906 25.046875 0.00390625 25.046875 0 C 38.828125 0 50 10.96875 50 24.5 Z M 50 24.5 "/>
</g>
<path style=" stroke:none;fill-rule:nonzero;fill:rgb(94.117647%,94.117647%,94.117647%);fill-opacity:1;" d="M 24.980469 24.5 L 25.046875 24.5 C 25.046875 24.476562 25.046875 24.457031 25.046875 24.433594 C 25.023438 24.457031 25.003906 24.476562 24.980469 24.5 Z M 24.980469 24.5 "/>
<g clip-path="url(#clip2)" clip-rule="nonzero">
<path style=" stroke:none;fill-rule:nonzero;fill:rgb(94.117647%,94.117647%,94.117647%);fill-opacity:1;" d="M 25.046875 12.78125 C 25.046875 8.472656 25.046875 5.648438 25.046875 0 L 25.042969 0 C 11.265625 0.00390625 0.0976562 10.96875 0.0976562 24.5 L 13.113281 24.5 L 13.113281 17.300781 L 20.445312 24.5 L 24.980469 24.5 C 25.003906 24.476562 25.027344 24.457031 25.046875 24.433594 C 25.046875 22.785156 25.046875 21.3125 25.046875 19.980469 L 17.71875 12.78125 Z M 25.046875 12.78125 "/>
</g>
<path style=" stroke:none;fill-rule:nonzero;fill:rgb(84.705882%,0%,15.294118%);fill-opacity:1;" d="M 12.71875 3.195312 C 8.816406 5.378906 5.574219 8.5625 3.351562 12.394531 L 3.351562 24.5 L 9.859375 24.5 L 9.859375 9.585938 L 25.046875 9.585938 C 25.046875 7.570312 25.046875 5.652344 25.046875 3.195312 Z M 12.71875 3.195312 "/>
<path style=" stroke:none;fill-rule:nonzero;fill:rgb(84.705882%,0%,15.294118%);fill-opacity:1;" d="M 25.046875 21.488281 L 16.183594 12.78125 C 16.183594 12.78125 13.113281 12.78125 13.113281 12.78125 L 25.046875 24.5 C 25.046875 24.5 25.046875 22.421875 25.046875 21.488281 Z M 25.046875 21.488281 "/>
<path style=" stroke:none;fill-rule:nonzero;fill:rgb(84.705882%,0%,15.294118%);fill-opacity:1;" d="M 43.304688 18.179688 L 43.84375 19.808594 L 45.585938 19.808594 L 44.175781 20.8125 L 44.714844 22.441406 L 43.304688 21.433594 L 41.894531 22.441406 L 42.433594 20.8125 L 41.023438 19.808594 L 42.765625 19.808594 Z M 43.304688 18.179688 "/>
<path style=" stroke:none;fill-rule:nonzero;fill:rgb(84.705882%,0%,15.294118%);fill-opacity:1;" d="M 37.074219 29.898438 L 37.882812 32.339844 L 40.5 32.339844 L 38.382812 33.847656 L 39.191406 36.289062 L 37.074219 34.78125 L 34.960938 36.289062 L 35.769531 33.847656 L 33.652344 32.339844 L 36.269531 32.339844 Z M 37.074219 29.898438 "/>
<path style=" stroke:none;fill-rule:nonzero;fill:rgb(84.705882%,0%,15.294118%);fill-opacity:1;" d="M 37.3125 10.722656 L 37.984375 12.757812 L 40.164062 12.757812 L 38.402344 14.015625 L 39.074219 16.050781 L 37.3125 14.792969 L 35.550781 16.050781 L 36.222656 14.015625 L 34.460938 12.757812 L 36.636719 12.757812 Z M 37.3125 10.722656 "/>
<path style=" stroke:none;fill-rule:nonzero;fill:rgb(84.705882%,0%,15.294118%);fill-opacity:1;" d="M 31.316406 18.109375 L 32.125 20.550781 L 34.738281 20.550781 L 32.625 22.058594 L 33.433594 24.5 L 31.316406 22.992188 L 29.203125 24.5 L 30.007812 22.058594 L 27.894531 20.550781 L 30.507812 20.550781 Z M 31.316406 18.109375 "/>
</g>
</svg>
