<?xml version="1.0" encoding="UTF-8"?>
<svg xmlns="http://www.w3.org/2000/svg" xmlns:xlink="http://www.w3.org/1999/xlink" width="50px" height="50px" viewBox="0 0 50 49" version="1.1">
<defs>
<clipPath id="clip1">
  <path d="M 0.0976562 0 L 50 0 L 50 49 L 0.0976562 49 Z M 0.0976562 0 "/>
</clipPath>
</defs>
<g id="surface1">
<g clip-path="url(#clip1)" clip-rule="nonzero">
<path style=" stroke:none;fill-rule:nonzero;fill:rgb(94.117647%,94.117647%,94.117647%);fill-opacity:1;" d="M 25.046875 49 C 38.828125 49 50 38.03125 50 24.5 C 50 10.96875 38.828125 0 25.046875 0 C 11.265625 0 0.0976562 10.96875 0.0976562 24.5 C 0.0976562 38.03125 11.265625 49 25.046875 49 Z M 25.046875 49 "/>
</g>
<path style=" stroke:none;fill-rule:nonzero;fill:rgb(20%,54.117647%,95.294118%);fill-opacity:1;" d="M 25.046875 0 C 15.15625 0 6.609375 5.652344 2.570312 13.847656 L 47.523438 13.847656 C 43.488281 5.652344 34.941406 0 25.046875 0 Z M 25.046875 0 "/>
<path style=" stroke:none;fill-rule:nonzero;fill:rgb(20%,54.117647%,95.294118%);fill-opacity:1;" d="M 25.046875 49 C 34.941406 49 43.488281 43.347656 47.523438 35.152344 L 2.570312 35.152344 C 6.609375 43.347656 15.15625 49 25.046875 49 Z M 25.046875 49 "/>
<path style=" stroke:none;fill-rule:nonzero;fill:rgb(100%,85.490196%,26.666667%);fill-opacity:1;" d="M 25.046875 17.042969 C 20.855469 17.042969 17.453125 20.382812 17.453125 24.5 C 17.453125 28.617188 20.855469 31.957031 25.046875 31.957031 C 29.242188 31.957031 32.640625 28.617188 32.640625 24.5 C 32.640625 20.382812 29.242188 17.042969 25.046875 17.042969 Z M 25.046875 28.761719 C 22.652344 28.761719 20.707031 26.851562 20.707031 24.5 C 20.707031 22.148438 22.652344 20.238281 25.046875 20.238281 C 27.445312 20.238281 29.386719 22.148438 29.386719 24.5 C 29.386719 26.851562 27.445312 28.761719 25.046875 28.761719 Z M 25.046875 28.761719 "/>
<path style=" stroke:none;fill-rule:nonzero;fill:rgb(0%,32.156863%,70.588235%);fill-opacity:1;" d="M 28.804688 25.566406 L 25.046875 24.5 L 21.289062 25.566406 L 20.035156 27.695312 L 30.058594 27.695312 Z M 28.804688 25.566406 "/>
<path style=" stroke:none;fill-rule:nonzero;fill:rgb(20%,54.117647%,95.294118%);fill-opacity:1;" d="M 25.046875 19.175781 L 22.542969 23.433594 L 25.046875 24.5 L 27.554688 23.433594 Z M 25.046875 19.175781 "/>
<path style=" stroke:none;fill-rule:nonzero;fill:rgb(42.745098%,64.705882%,26.666667%);fill-opacity:1;" d="M 21.289062 25.566406 L 28.804688 25.566406 L 27.554688 23.433594 L 22.542969 23.433594 Z M 21.289062 25.566406 "/>
</g>
</svg>
