<?xml version="1.0" encoding="UTF-8"?>
<svg xmlns="http://www.w3.org/2000/svg" xmlns:xlink="http://www.w3.org/1999/xlink" width="50px" height="50px" viewBox="0 0 50 49" version="1.1">
<defs>
<clipPath id="clip1">
  <path d="M 0.0976562 11 L 50 11 L 50 38 L 0.0976562 38 Z M 0.0976562 11 "/>
</clipPath>
</defs>
<g id="surface1">
<g clip-path="url(#clip1)" clip-rule="nonzero">
<path style=" stroke:none;fill-rule:nonzero;fill:rgb(94.117647%,94.117647%,94.117647%);fill-opacity:1;" d="M 2.570312 13.847656 C 0.984375 17.070312 0.0976562 20.683594 0.0976562 24.5 C 0.0976562 28.316406 0.984375 31.929688 2.570312 35.152344 L 25.046875 37.28125 L 47.523438 35.152344 C 49.109375 31.929688 50 28.316406 50 24.5 C 50 20.683594 49.109375 17.070312 47.523438 13.847656 L 25.046875 11.71875 Z M 2.570312 13.847656 "/>
</g>
<path style=" stroke:none;fill-rule:nonzero;fill:rgb(42.745098%,64.705882%,26.666667%);fill-opacity:1;" d="M 2.574219 35.152344 C 6.609375 43.347656 15.15625 49 25.046875 49 C 34.941406 49 43.488281 43.347656 47.523438 35.152344 Z M 2.574219 35.152344 "/>
<path style=" stroke:none;fill-rule:nonzero;fill:rgb(100%,59.607843%,6.666667%);fill-opacity:1;" d="M 2.574219 13.847656 L 47.523438 13.847656 C 43.488281 5.652344 34.941406 0 25.046875 0 C 15.15625 0 6.609375 5.652344 2.574219 13.847656 Z M 2.574219 13.847656 "/>
<path style=" stroke:none;fill-rule:nonzero;fill:rgb(100%,59.607843%,6.666667%);fill-opacity:1;" d="M 25.046875 33.023438 C 29.839844 33.023438 33.726562 29.207031 33.726562 24.5 C 33.726562 19.792969 29.839844 15.976562 25.046875 15.976562 C 20.253906 15.976562 16.367188 19.792969 16.367188 24.5 C 16.367188 29.207031 20.253906 33.023438 25.046875 33.023438 Z M 25.046875 33.023438 "/>
</g>
</svg>
