<?xml version="1.0" encoding="UTF-8"?>
<svg xmlns="http://www.w3.org/2000/svg" xmlns:xlink="http://www.w3.org/1999/xlink" width="50px" height="50px" viewBox="0 0 50 49" version="1.1">
<defs>
<clipPath id="clip1">
  <path d="M 0.0976562 0 L 50 0 L 50 49 L 0.0976562 49 Z M 0.0976562 0 "/>
</clipPath>
<clipPath id="clip2">
  <path d="M 0.0976562 0 L 26 0 L 26 25 L 0.0976562 25 Z M 0.0976562 0 "/>
</clipPath>
</defs>
<g id="surface1">
<g clip-path="url(#clip1)" clip-rule="nonzero">
<path style=" stroke:none;fill-rule:nonzero;fill:rgb(100%,85.490196%,26.666667%);fill-opacity:1;" d="M 50 24.5 C 50 38.03125 38.828125 49 25.046875 49 C 11.265625 49 0.0976562 38.03125 0.0976562 24.5 C 0.0976562 24.503906 25.046875 0.00390625 25.046875 0 C 38.828125 0 50 10.96875 50 24.5 Z M 50 24.5 "/>
</g>
<path style=" stroke:none;fill-rule:nonzero;fill:rgb(0%,32.156863%,70.588235%);fill-opacity:1;" d="M 25.046875 11.71875 L 25.046875 19.980469 L 16.367188 11.71875 Z M 25.046875 11.71875 "/>
<path style=" stroke:none;fill-rule:nonzero;fill:rgb(0%,32.156863%,70.588235%);fill-opacity:1;" d="M 13.113281 24.5 L 20.445312 24.5 L 13.113281 14.914062 L 12.03125 22.371094 Z M 13.113281 24.5 "/>
<path style=" stroke:none;fill-rule:nonzero;fill:rgb(94.117647%,94.117647%,94.117647%);fill-opacity:1;" d="M 24.980469 24.5 L 25.046875 24.5 C 25.046875 24.476562 25.046875 24.457031 25.046875 24.433594 C 25.023438 24.457031 25.003906 24.476562 24.980469 24.5 Z M 24.980469 24.5 "/>
<g clip-path="url(#clip2)" clip-rule="nonzero">
<path style=" stroke:none;fill-rule:nonzero;fill:rgb(94.117647%,94.117647%,94.117647%);fill-opacity:1;" d="M 25.046875 12.78125 C 25.046875 8.472656 25.046875 5.648438 25.046875 0 L 25.042969 0 C 11.265625 0.00390625 0.0976562 10.96875 0.0976562 24.5 L 13.113281 24.5 L 13.113281 17.300781 L 20.445312 24.5 L 24.980469 24.5 C 25.003906 24.476562 25.023438 24.457031 25.046875 24.433594 C 25.046875 22.785156 25.046875 21.3125 25.046875 19.980469 L 17.71875 12.78125 Z M 25.046875 12.78125 "/>
</g>
<path style=" stroke:none;fill-rule:nonzero;fill:rgb(84.705882%,0%,15.294118%);fill-opacity:1;" d="M 25.046875 21.488281 L 16.183594 12.78125 L 13.113281 12.78125 L 25.046875 24.5 C 25.046875 24.5 25.046875 22.421875 25.046875 21.488281 Z M 25.046875 21.488281 "/>
<path style=" stroke:none;fill-rule:nonzero;fill:rgb(84.705882%,0%,15.294118%);fill-opacity:1;" d="M 12.71875 3.195312 C 11.757812 3.734375 10.835938 4.332031 9.960938 4.988281 L 10.984375 4.988281 L 8.277344 6.917969 L 9.3125 10.042969 L 6.605469 8.109375 L 6.316406 8.316406 C 5.195312 9.570312 4.199219 10.933594 3.351562 12.394531 L 3.351562 24.5 L 9.859375 24.5 L 9.859375 9.585938 L 25.046875 9.585938 C 25.046875 7.570312 25.046875 5.652344 25.046875 3.195312 Z M 12.71875 3.195312 "/>
<path style=" stroke:none;fill-rule:nonzero;fill:rgb(0%,32.156863%,70.588235%);fill-opacity:1;" d="M 10.753906 4.417969 C 10.484375 4.601562 10.222656 4.792969 9.960938 4.988281 L 8.277344 6.917969 L 6.605469 8.109375 L 6.316406 8.316406 C 5.703125 9 5.128906 9.71875 4.59375 10.464844 C 5.203125 10.753906 5.882812 10.917969 6.605469 10.917969 C 9.152344 10.917969 11.214844 8.890625 11.214844 6.390625 C 11.214844 5.683594 11.050781 5.015625 10.753906 4.417969 Z M 10.753906 4.417969 "/>
<path style=" stroke:none;fill-rule:nonzero;fill:rgb(100%,85.490196%,26.666667%);fill-opacity:1;" d="M 6.316406 8.316406 L 6.605469 8.109375 L 9.3125 10.042969 L 8.277344 6.917969 L 10.984375 4.988281 L 9.960938 4.988281 C 8.632812 5.976562 7.414062 7.09375 6.316406 8.316406 Z M 6.316406 8.316406 "/>
<path style=" stroke:none;fill-rule:nonzero;fill:rgb(100%,85.490196%,26.666667%);fill-opacity:1;" d="M 17.34375 4.261719 L 17.878906 5.886719 L 19.625 5.886719 L 18.214844 6.894531 L 18.75 8.523438 L 17.34375 7.515625 L 15.933594 8.523438 L 16.46875 6.894531 L 15.0625 5.886719 L 16.804688 5.886719 Z M 17.34375 4.261719 "/>
<path style=" stroke:none;fill-rule:nonzero;fill:rgb(100%,85.490196%,26.666667%);fill-opacity:1;" d="M 6.605469 14.914062 L 7.144531 16.539062 L 8.886719 16.539062 L 7.476562 17.546875 L 8.015625 19.175781 L 6.605469 18.167969 L 5.195312 19.175781 L 5.734375 17.546875 L 4.324219 16.539062 L 6.066406 16.539062 Z M 6.605469 14.914062 "/>
</g>
</svg>
