<?xml version="1.0" encoding="UTF-8"?>
<svg xmlns="http://www.w3.org/2000/svg" xmlns:xlink="http://www.w3.org/1999/xlink" width="50px" height="50px" viewBox="0 0 50 49" version="1.1">
<defs>
<clipPath id="clip1">
  <path d="M 0.0976562 2 L 15 2 L 15 47 L 0.0976562 47 Z M 0.0976562 2 "/>
</clipPath>
</defs>
<g id="surface1">
<path style=" stroke:none;fill-rule:nonzero;fill:rgb(94.117647%,94.117647%,94.117647%);fill-opacity:1;" d="M 35.894531 2.429688 C 32.617188 0.875 28.9375 0 25.046875 0 C 21.160156 0 17.480469 0.875 14.199219 2.429688 L 12.03125 24.5 L 14.199219 46.570312 C 17.480469 48.125 21.160156 49 25.046875 49 C 28.9375 49 32.617188 48.125 35.894531 46.570312 L 38.066406 24.5 Z M 35.894531 2.429688 "/>
<g clip-path="url(#clip1)" clip-rule="nonzero">
<path style=" stroke:none;fill-rule:nonzero;fill:rgb(42.745098%,64.705882%,26.666667%);fill-opacity:1;" d="M 14.199219 2.433594 C 5.851562 6.394531 0.0976562 14.785156 0.0976562 24.5 C 0.0976562 34.214844 5.851562 42.605469 14.199219 46.566406 Z M 14.199219 2.433594 "/>
</g>
<path style=" stroke:none;fill-rule:nonzero;fill:rgb(42.745098%,64.705882%,26.666667%);fill-opacity:1;" d="M 35.894531 2.433594 L 35.894531 46.566406 C 44.242188 42.605469 50 34.214844 50 24.5 C 50 14.785156 44.242188 6.394531 35.894531 2.433594 Z M 35.894531 2.433594 "/>
<path style=" stroke:none;fill-rule:nonzero;fill:rgb(42.745098%,64.705882%,26.666667%);fill-opacity:1;" d="M 31.554688 31.957031 L 25.046875 11.71875 L 18.539062 31.957031 L 23.421875 31.957031 L 23.421875 37.28125 L 26.675781 37.28125 L 26.675781 31.957031 Z M 31.554688 31.957031 "/>
</g>
</svg>
