<?xml version="1.0" encoding="UTF-8"?>
<svg xmlns="http://www.w3.org/2000/svg" xmlns:xlink="http://www.w3.org/1999/xlink" width="50px" height="50px" viewBox="0 0 50 49" version="1.1">
<defs>
<clipPath id="clip1">
  <path d="M 0.0976562 0 L 50 0 L 50 49 L 0.0976562 49 Z M 0.0976562 0 "/>
</clipPath>
<clipPath id="clip2">
  <path d="M 0.0976562 11 L 50 11 L 50 38 L 0.0976562 38 Z M 0.0976562 11 "/>
</clipPath>
</defs>
<g id="surface1">
<g clip-path="url(#clip1)" clip-rule="nonzero">
<path style=" stroke:none;fill-rule:nonzero;fill:rgb(94.117647%,94.117647%,94.117647%);fill-opacity:1;" d="M 25.046875 49 C 38.828125 49 50 38.03125 50 24.5 C 50 10.96875 38.828125 0 25.046875 0 C 11.265625 0 0.0976562 10.96875 0.0976562 24.5 C 0.0976562 38.03125 11.265625 49 25.046875 49 Z M 25.046875 49 "/>
</g>
<path style=" stroke:none;fill-rule:nonzero;fill:rgb(0%,32.156863%,70.588235%);fill-opacity:1;" d="M 25.046875 0 C 17.484375 0 10.710938 3.304688 6.132812 8.523438 L 43.960938 8.523438 C 39.386719 3.304688 32.609375 0 25.046875 0 Z M 25.046875 0 "/>
<path style=" stroke:none;fill-rule:nonzero;fill:rgb(0%,32.156863%,70.588235%);fill-opacity:1;" d="M 43.960938 40.476562 L 6.132812 40.476562 C 10.710938 45.695312 17.484375 49 25.046875 49 C 32.609375 49 39.386719 45.695312 43.960938 40.476562 Z M 43.960938 40.476562 "/>
<g clip-path="url(#clip2)" clip-rule="nonzero">
<path style=" stroke:none;fill-rule:nonzero;fill:rgb(84.705882%,0%,15.294118%);fill-opacity:1;" d="M 46.335938 11.71875 L 3.757812 11.71875 C 1.4375 15.4375 0.0976562 19.816406 0.0976562 24.5 C 0.0976562 29.183594 1.4375 33.5625 3.757812 37.28125 L 46.335938 37.28125 C 48.660156 33.5625 50 29.183594 50 24.5 C 50 19.816406 48.660156 15.4375 46.335938 11.71875 Z M 46.335938 11.71875 "/>
</g>
<path style=" stroke:none;fill-rule:nonzero;fill:rgb(94.117647%,94.117647%,94.117647%);fill-opacity:1;" d="M 15.445312 33.925781 C 20.75 33.925781 25.046875 29.707031 25.046875 24.5 C 25.046875 19.292969 20.75 15.074219 15.445312 15.074219 C 10.144531 15.074219 5.847656 19.292969 5.847656 24.5 C 5.847656 29.707031 10.144531 33.925781 15.445312 33.925781 Z M 15.445312 33.925781 "/>
<path style=" stroke:none;fill-rule:nonzero;fill:rgb(84.705882%,0%,15.294118%);fill-opacity:1;" d="M 15.445312 15.074219 L 17.601562 21.582031 L 24.582031 21.582031 L 18.933594 25.605469 L 21.101562 32.136719 L 15.445312 28.09375 L 9.800781 32.128906 L 11.960938 25.605469 L 6.316406 21.582031 L 13.292969 21.582031 Z M 15.445312 15.074219 "/>
</g>
</svg>
