<?xml version="1.0" encoding="UTF-8"?>
<svg xmlns="http://www.w3.org/2000/svg" xmlns:xlink="http://www.w3.org/1999/xlink" width="50px" height="50px" viewBox="0 0 50 50" version="1.1">
<g id="surface1">
<path style=" stroke:none;fill-rule:nonzero;fill:rgb(94.117647%,94.117647%,94.117647%);fill-opacity:1;" d="M 25 50 C 38.808594 50 50 38.808594 50 25 C 50 11.191406 38.808594 0 25 0 C 11.191406 0 0 11.191406 0 25 C 0 38.808594 11.191406 50 25 50 Z M 25 50 "/>
<path style=" stroke:none;fill-rule:nonzero;fill:rgb(84.705882%,0%,15.294118%);fill-opacity:1;" d="M 6.046875 8.695312 C 5.171875 9.714844 4.375 10.804688 3.667969 11.957031 L 46.332031 11.957031 C 45.625 10.804688 44.828125 9.714844 43.949219 8.695312 Z M 6.046875 8.695312 "/>
<path style=" stroke:none;fill-rule:nonzero;fill:rgb(84.705882%,0%,15.294118%);fill-opacity:1;" d="M 6.046875 41.304688 L 43.953125 41.304688 C 44.828125 40.285156 45.625 39.195312 46.332031 38.042969 L 3.667969 38.042969 C 4.375 39.195312 5.171875 40.285156 6.046875 41.304688 Z M 6.046875 41.304688 "/>
<path style=" stroke:none;fill-rule:nonzero;fill:rgb(84.705882%,0%,15.294118%);fill-opacity:1;" d="M 21.800781 20.429688 L 23.851562 23.253906 L 27.175781 22.179688 L 25.121094 25.003906 L 27.171875 27.828125 L 23.851562 26.746094 L 21.796875 29.570312 L 21.796875 26.078125 L 18.476562 25 L 21.796875 23.921875 Z M 21.800781 20.429688 "/>
<path style=" stroke:none;fill-rule:nonzero;fill:rgb(84.705882%,0%,15.294118%);fill-opacity:1;" d="M 16.203125 32.066406 C 12.300781 32.066406 9.136719 28.902344 9.136719 25 C 9.136719 21.097656 12.300781 17.933594 16.203125 17.933594 C 17.417969 17.933594 18.5625 18.242188 19.5625 18.785156 C 17.996094 17.25 15.851562 16.304688 13.484375 16.304688 C 8.683594 16.304688 4.789062 20.199219 4.789062 25 C 4.789062 29.800781 8.683594 33.695312 13.484375 33.695312 C 15.851562 33.695312 17.996094 32.75 19.5625 31.214844 C 18.5625 31.757812 17.417969 32.066406 16.203125 32.066406 Z M 16.203125 32.066406 "/>
</g>
</svg>
