<?xml version="1.0" encoding="UTF-8"?>
<svg xmlns="http://www.w3.org/2000/svg" xmlns:xlink="http://www.w3.org/1999/xlink" width="50px" height="50px" viewBox="0 0 50 50" version="1.1">
<g id="surface1">
<path style=" stroke:none;fill-rule:nonzero;fill:rgb(20%,54.117647%,95.294118%);fill-opacity:1;" d="M 25 50 C 38.808594 50 50 38.808594 50 25 C 50 11.191406 38.808594 0 25 0 C 11.191406 0 0 11.191406 0 25 C 0 38.808594 11.191406 50 25 50 Z M 25 50 "/>
<path style=" stroke:none;fill-rule:nonzero;fill:rgb(95.294118%,95.294118%,95.294118%);fill-opacity:1;" d="M 24.210938 40.742188 C 23.539062 40.707031 22.980469 40.269531 22.761719 39.675781 C 22.375 40.179688 21.714844 40.433594 21.058594 40.265625 C 20.40625 40.09375 19.949219 39.554688 19.851562 38.925781 C 19.371094 39.339844 18.671875 39.453125 18.066406 39.15625 C 17.460938 38.859375 17.121094 38.238281 17.15625 37.601562 C 16.601562 37.914062 15.894531 37.882812 15.359375 37.46875 C 14.828125 37.058594 14.621094 36.378906 14.78125 35.765625 C 14.175781 35.960938 13.488281 35.789062 13.050781 35.277344 C 12.609375 34.765625 12.542969 34.058594 12.824219 33.492188 C 12.191406 33.558594 11.554688 33.25 11.226562 32.664062 C 10.894531 32.074219 10.972656 31.367188 11.363281 30.867188 C 10.730469 30.804688 10.164062 30.375 9.964844 29.734375 C 9.757812 29.089844 9.976562 28.414062 10.460938 28 C 9.855469 27.816406 9.390625 27.28125 9.320312 26.609375 C 9.253906 25.9375 9.601562 25.324219 10.15625 25.015625 C 9.601562 24.710938 9.25 24.09375 9.316406 23.425781 C 9.382812 22.753906 9.847656 22.21875 10.453125 22.027344 C 9.96875 21.617188 9.75 20.941406 9.953125 20.300781 C 10.152344 19.65625 10.71875 19.222656 11.347656 19.160156 C 10.957031 18.660156 10.878906 17.957031 11.207031 17.367188 C 11.535156 16.777344 12.171875 16.46875 12.804688 16.535156 C 12.523438 15.96875 12.589844 15.261719 13.027344 14.75 C 13.464844 14.238281 14.152344 14.0625 14.757812 14.253906 C 14.59375 13.640625 14.800781 12.964844 15.335938 12.550781 C 15.867188 12.136719 16.574219 12.105469 17.128906 12.414062 C 17.09375 11.777344 17.429688 11.15625 18.035156 10.855469 C 18.640625 10.558594 19.339844 10.671875 19.824219 11.085938 C 19.914062 10.457031 20.371094 9.914062 21.027344 9.742188 C 21.679688 9.574219 22.339844 9.824219 22.726562 10.328125 C 22.945312 9.734375 23.503906 9.292969 24.175781 9.261719 C 24.851562 9.226562 25.449219 9.605469 25.726562 10.171875 C 26.058594 9.632812 26.691406 9.3125 27.359375 9.414062 C 28.023438 9.515625 28.535156 10.007812 28.695312 10.621094 C 29.128906 10.15625 29.816406 9.972656 30.449219 10.207031 C 31.082031 10.441406 31.484375 11.023438 31.515625 11.660156 C 32.03125 11.292969 32.742188 11.25 33.3125 11.609375 C 33.886719 11.964844 34.160156 12.617188 34.0625 13.242188 C 34.644531 12.992188 35.347656 13.09375 35.835938 13.554688 C 36.324219 14.019531 36.464844 14.714844 36.242188 15.308594 C 36.863281 15.175781 37.53125 15.414062 37.917969 15.96875 C 38.304688 16.519531 38.300781 17.230469 37.964844 17.769531 C 38.601562 17.761719 39.207031 18.132812 39.472656 18.75 C 39.742188 19.371094 39.59375 20.066406 39.15625 20.523438 C 39.78125 20.648438 40.296875 21.132812 40.433594 21.792969 C 40.570312 22.453125 40.285156 23.105469 39.765625 23.464844 C 40.347656 23.710938 40.757812 24.289062 40.761719 24.964844 L 40.761719 25 C 40.761719 25.671875 40.351562 26.25 39.769531 26.5 C 40.292969 26.859375 40.578125 27.507812 40.441406 28.171875 C 40.304688 28.832031 39.789062 29.316406 39.167969 29.441406 C 39.605469 29.902344 39.753906 30.59375 39.488281 31.214844 C 39.222656 31.835938 38.617188 32.203125 37.980469 32.203125 C 38.320312 32.738281 38.324219 33.449219 37.9375 34 C 37.550781 34.554688 36.886719 34.796875 36.265625 34.664062 C 36.488281 35.257812 36.351562 35.953125 35.863281 36.421875 C 35.371094 36.882812 34.671875 36.988281 34.089844 36.734375 C 34.1875 37.363281 33.914062 38.015625 33.34375 38.375 C 32.773438 38.730469 32.0625 38.691406 31.542969 38.324219 C 31.515625 38.960938 31.113281 39.546875 30.480469 39.78125 C 29.847656 40.015625 30.480469 39.78125 30.480469 39.78125 C 29.847656 40.015625 29.164062 39.832031 28.726562 39.371094 C 28.570312 39.984375 28.058594 40.476562 27.390625 40.578125 C 26.726562 40.679688 26.09375 40.363281 25.757812 39.824219 C 25.492188 40.371094 24.933594 40.742188 24.292969 40.742188 C 24.265625 40.742188 24.238281 40.742188 24.210938 40.742188 Z M 24.210938 40.742188 "/>
<path style=" stroke:none;fill-rule:nonzero;fill:rgb(20%,54.117647%,95.294118%);fill-opacity:1;" d="M 25 35.871094 C 31.003906 35.871094 35.871094 31.003906 35.871094 25 C 35.871094 18.996094 31.003906 14.128906 25 14.128906 C 18.996094 14.128906 14.128906 18.996094 14.128906 25 C 14.128906 31.003906 18.996094 35.871094 25 35.871094 Z M 25 35.871094 "/>
<path style=" stroke:none;fill-rule:nonzero;fill:rgb(74.117647%,73.72549%,75.686275%);fill-opacity:1;" d="M 27.378906 21.308594 C 27.914062 20.914062 28.261719 20.28125 28.261719 19.566406 L 28.261719 18.476562 C 28.261719 17.277344 27.289062 16.304688 26.085938 16.304688 L 23.914062 16.304688 C 22.710938 16.304688 21.738281 17.277344 21.738281 18.476562 L 21.738281 19.566406 C 21.738281 20.28125 22.085938 20.914062 22.621094 21.308594 L 20.652344 41.304688 C 20.652344 41.304688 21.738281 42.390625 25 42.390625 C 28.261719 42.390625 29.347656 41.304688 29.347656 41.304688 Z M 27.378906 21.308594 "/>
<path style=" stroke:none;fill-rule:nonzero;fill:rgb(94.117647%,94.117647%,94.117647%);fill-opacity:1;" d="M 25 16.304688 L 26.886719 22.117188 L 33 22.117188 L 28.054688 25.710938 L 29.945312 31.523438 L 25 27.929688 L 20.054688 31.523438 L 21.945312 25.710938 L 17 22.117188 L 23.109375 22.117188 Z M 25 16.304688 "/>
</g>
</svg>
