<?xml version="1.0" encoding="UTF-8"?>
<svg xmlns="http://www.w3.org/2000/svg" xmlns:xlink="http://www.w3.org/1999/xlink" width="50px" height="50px" viewBox="0 0 50 50" version="1.1">
<g id="surface1">
<path style=" stroke:none;fill-rule:nonzero;fill:rgb(94.117647%,94.117647%,94.117647%);fill-opacity:1;" d="M 25 50 C 38.808594 50 50 38.808594 50 25 C 50 11.191406 38.808594 0 25 0 C 11.191406 0 0 11.191406 0 25 C 0 38.808594 11.191406 50 25 50 Z M 25 50 "/>
<path style=" stroke:none;fill-rule:nonzero;fill:rgb(84.705882%,0%,15.294118%);fill-opacity:1;" d="M 0 25 C 0 34.476562 5.273438 42.71875 13.042969 46.960938 L 13.042969 3.039062 C 5.273438 7.28125 0 15.523438 0 25 Z M 0 25 "/>
<path style=" stroke:none;fill-rule:nonzero;fill:rgb(84.705882%,0%,15.294118%);fill-opacity:1;" d="M 48.445312 33.695312 C 49.449219 30.988281 50 28.058594 50 25 C 50 21.941406 49.449219 19.011719 48.445312 16.304688 L 1.554688 16.304688 C 0.550781 19.011719 0 21.941406 0 25 C 0 28.058594 0.550781 30.988281 1.554688 33.695312 L 25 35.871094 Z M 48.445312 33.695312 "/>
<path style=" stroke:none;fill-rule:nonzero;fill:rgb(42.745098%,64.705882%,26.666667%);fill-opacity:1;" d="M 25 50 C 35.75 50 44.914062 43.214844 48.445312 33.695312 L 1.554688 33.695312 C 5.085938 43.214844 14.25 50 25 50 Z M 25 50 "/>
<path style=" stroke:none;fill-rule:nonzero;fill:rgb(84.705882%,0%,15.294118%);fill-opacity:1;" d="M 0 25 C 0 36.550781 7.835938 46.269531 18.476562 49.140625 L 18.476562 0.859375 C 7.835938 3.730469 0 13.449219 0 25 Z M 0 25 "/>
<path style=" stroke:none;fill-rule:nonzero;fill:rgb(94.117647%,94.117647%,94.117647%);fill-opacity:1;" d="M 15.292969 11 L 12.988281 8.695312 L 11.453125 10.234375 L 9.914062 8.695312 L 7.609375 11 L 9.144531 12.539062 L 7.609375 14.074219 L 9.914062 16.382812 L 11.453125 14.84375 L 12.988281 16.382812 L 15.292969 14.074219 L 13.757812 12.539062 Z M 15.292969 11 "/>
</g>
</svg>
