<?xml version="1.0" encoding="UTF-8"?>
<svg xmlns="http://www.w3.org/2000/svg" xmlns:xlink="http://www.w3.org/1999/xlink" width="50px" height="50px" viewBox="0 0 50 50" version="1.1">
<g id="surface1">
<path style=" stroke:none;fill-rule:nonzero;fill:rgb(94.117647%,94.117647%,94.117647%);fill-opacity:1;" d="M 25 50 C 38.808594 50 50 38.808594 50 25 C 50 11.191406 38.808594 0 25 0 C 11.191406 0 0 11.191406 0 25 C 0 38.808594 11.191406 50 25 50 Z M 25 50 "/>
<path style=" stroke:none;fill-rule:nonzero;fill:rgb(94.117647%,94.117647%,94.117647%);fill-opacity:1;" d="M 0 25 C 0 34.476562 5.273438 42.71875 13.042969 46.960938 L 13.042969 3.039062 C 5.273438 7.28125 0 15.523438 0 25 Z M 0 25 "/>
<path style=" stroke:none;fill-rule:nonzero;fill:rgb(28.627451%,43.137255%,17.647059%);fill-opacity:1;" d="M 25 0 C 20.667969 0 16.59375 1.101562 13.042969 3.039062 L 13.042969 46.960938 C 16.59375 48.898438 20.667969 50 25 50 C 38.808594 50 50 38.808594 50 25 C 50 11.191406 38.808594 0 25 0 Z M 25 0 "/>
<path style=" stroke:none;fill-rule:nonzero;fill:rgb(94.117647%,94.117647%,94.117647%);fill-opacity:1;" d="M 35.6875 29.132812 C 32.527344 31.417969 28.109375 30.707031 25.824219 27.546875 C 23.539062 24.382812 24.25 19.964844 27.414062 17.679688 C 28.398438 16.96875 29.507812 16.546875 30.632812 16.402344 C 28.464844 16.078125 26.171875 16.566406 24.253906 17.949219 C 20.363281 20.765625 19.488281 26.199219 22.300781 30.09375 C 25.113281 33.984375 30.546875 34.859375 34.441406 32.046875 C 36.359375 30.660156 37.542969 28.640625 37.914062 26.476562 C 37.421875 27.503906 36.675781 28.421875 35.6875 29.132812 Z M 35.6875 29.132812 "/>
<path style=" stroke:none;fill-rule:nonzero;fill:rgb(94.117647%,94.117647%,94.117647%);fill-opacity:1;" d="M 35.554688 16.304688 L 37.335938 18.226562 L 39.710938 17.125 L 38.4375 19.410156 L 40.21875 21.332031 L 37.648438 20.824219 L 36.371094 23.113281 L 36.058594 20.511719 L 33.488281 20.007812 L 35.867188 18.90625 Z M 35.554688 16.304688 "/>
</g>
</svg>
