<?xml version="1.0" encoding="UTF-8"?>
<svg xmlns="http://www.w3.org/2000/svg" xmlns:xlink="http://www.w3.org/1999/xlink" width="50px" height="50px" viewBox="0 0 50 50" version="1.1">
<g id="surface1">
<path style=" stroke:none;fill-rule:nonzero;fill:rgb(94.117647%,94.117647%,94.117647%);fill-opacity:1;" d="M 25 50 C 38.808594 50 50 38.808594 50 25 C 50 11.191406 38.808594 0 25 0 C 11.191406 0 0 11.191406 0 25 C 0 38.808594 11.191406 50 25 50 Z M 25 50 "/>
<path style=" stroke:none;fill-rule:nonzero;fill:rgb(0%,32.156863%,70.588235%);fill-opacity:1;" d="M 0 25 C 0 38.808594 11.191406 50 25 50 C 25 40.492188 25 25 25 25 C 25 25 8.695312 25 0 25 Z M 0 25 "/>
<path style=" stroke:none;fill-rule:nonzero;fill:rgb(84.705882%,0%,15.294118%);fill-opacity:1;" d="M 25 0 C 38.808594 0 50 11.191406 50 25 C 40.492188 25 25 25 25 25 C 25 25 25 8.695312 25 0 Z M 25 0 "/>
<path style=" stroke:none;fill-rule:nonzero;fill:rgb(0%,32.156863%,70.588235%);fill-opacity:1;" d="M 14.882812 8.695312 L 16.5 13.679688 L 21.738281 13.679688 L 17.5 16.757812 L 19.121094 21.738281 L 14.882812 18.660156 L 10.644531 21.738281 L 12.261719 16.757812 L 8.023438 13.679688 L 13.261719 13.679688 Z M 14.882812 8.695312 "/>
<path style=" stroke:none;fill-rule:nonzero;fill:rgb(84.705882%,0%,15.294118%);fill-opacity:1;" d="M 35.117188 28.261719 L 36.738281 33.242188 L 41.976562 33.242188 L 37.738281 36.320312 L 39.355469 41.304688 L 35.117188 38.226562 L 30.878906 41.304688 L 32.5 36.320312 L 28.261719 33.242188 L 33.5 33.242188 Z M 35.117188 28.261719 "/>
</g>
</svg>
