<?xml version="1.0" encoding="UTF-8"?>
<svg xmlns="http://www.w3.org/2000/svg" xmlns:xlink="http://www.w3.org/1999/xlink" width="50px" height="50px" viewBox="0 0 50 50" version="1.1">
<g id="surface1">
<path style=" stroke:none;fill-rule:nonzero;fill:rgb(0%,0%,0%);fill-opacity:1;" d="M 42.679688 42.675781 C 32.914062 52.441406 17.085938 52.441406 7.320312 42.675781 C -2.441406 32.914062 -2.441406 17.085938 7.324219 7.320312 C 17.085938 -2.441406 31.378906 -0.902344 41.140625 8.859375 C 50.902344 18.621094 52.441406 32.914062 42.679688 42.675781 Z M 42.679688 42.675781 "/>
<path style=" stroke:none;fill-rule:nonzero;fill:rgb(63.529412%,0%,11.372549%);fill-opacity:1;" d="M 7.324219 7.320312 C 17.085938 -2.441406 32.914062 -2.441406 42.679688 7.324219 C 52.441406 17.085938 52.441406 32.914062 42.679688 42.679688 "/>
<path style=" stroke:none;fill-rule:nonzero;fill:rgb(94.117647%,94.117647%,94.117647%);fill-opacity:1;" d="M 19.105469 33.695312 L 19.511719 34.941406 L 20.820312 34.941406 L 19.761719 35.710938 L 20.164062 36.957031 L 19.105469 36.1875 L 18.046875 36.957031 L 18.449219 35.710938 L 17.390625 34.941406 L 18.699219 34.941406 Z M 19.105469 33.695312 "/>
<path style=" stroke:none;fill-rule:nonzero;fill:rgb(94.117647%,94.117647%,94.117647%);fill-opacity:1;" d="M 15.761719 21.738281 L 16.4375 23.816406 L 18.617188 23.816406 L 16.851562 25.097656 L 17.527344 27.175781 L 15.761719 25.890625 L 13.996094 27.175781 L 14.667969 25.097656 L 12.902344 23.816406 L 15.085938 23.816406 Z M 15.761719 21.738281 "/>
<path style=" stroke:none;fill-rule:nonzero;fill:rgb(94.117647%,94.117647%,94.117647%);fill-opacity:1;" d="M 15.761719 36.957031 L 16.433594 39.03125 L 18.617188 39.03125 L 16.851562 40.316406 L 17.527344 42.390625 L 15.761719 41.109375 L 13.996094 42.390625 L 14.667969 40.316406 L 12.902344 39.03125 L 15.085938 39.03125 Z M 15.761719 36.957031 "/>
<path style=" stroke:none;fill-rule:nonzero;fill:rgb(94.117647%,94.117647%,94.117647%);fill-opacity:1;" d="M 22.144531 27.175781 L 22.816406 29.25 L 25 29.25 L 23.234375 30.53125 L 23.910156 32.609375 L 22.144531 31.324219 L 20.375 32.609375 L 21.050781 30.53125 L 19.285156 29.25 L 21.46875 29.25 Z M 22.144531 27.175781 "/>
<path style=" stroke:none;fill-rule:nonzero;fill:rgb(94.117647%,94.117647%,94.117647%);fill-opacity:1;" d="M 9.378906 27.175781 L 10.054688 29.25 L 12.234375 29.25 L 10.46875 30.53125 L 11.144531 32.609375 L 9.378906 31.324219 L 7.613281 32.609375 L 8.289062 30.53125 L 6.523438 29.25 L 8.703125 29.25 Z M 9.378906 27.175781 "/>
<path style=" stroke:none;fill-rule:nonzero;fill:rgb(100%,85.490196%,26.666667%);fill-opacity:1;" d="M 41.851562 18.511719 C 40.734375 17.394531 39.28125 16.734375 37.722656 16.621094 L 42.390625 12.988281 C 40.53125 11.128906 38.039062 10.289062 35.605469 10.46875 C 35.316406 9.421875 34.761719 8.433594 33.9375 7.609375 L 32.09375 11.296875 C 31.972656 11.078125 31.816406 10.871094 31.632812 10.683594 C 30.570312 9.621094 28.847656 9.621094 27.789062 10.683594 C 26.726562 11.746094 26.726562 13.464844 27.789062 14.527344 C 27.976562 14.714844 28.183594 14.867188 28.402344 14.988281 L 24.714844 16.832031 C 25.535156 17.65625 26.527344 18.210938 27.574219 18.5 C 27.394531 20.933594 28.234375 23.425781 30.09375 25.285156 L 34.175781 20.039062 C 34.480469 19.738281 34.886719 19.570312 35.316406 19.570312 C 35.753906 19.570312 36.164062 19.742188 36.46875 20.050781 C 36.777344 20.355469 36.949219 20.765625 36.949219 21.203125 C 36.949219 21.636719 36.777344 22.046875 36.46875 22.355469 L 38.007812 23.890625 C 38.726562 23.171875 39.121094 22.21875 39.121094 21.203125 C 39.121094 20.371094 38.855469 19.582031 38.367188 18.925781 C 39.082031 19.117188 39.753906 19.492188 40.3125 20.050781 C 42.007812 21.746094 42.007812 24.503906 40.3125 26.199219 L 41.851562 27.734375 C 43.082031 26.503906 43.761719 24.867188 43.761719 23.125 C 43.761719 21.382812 43.082031 19.742188 41.851562 18.511719 Z M 41.851562 18.511719 "/>
</g>
</svg>
