<?xml version="1.0" encoding="UTF-8"?>
<svg xmlns="http://www.w3.org/2000/svg" xmlns:xlink="http://www.w3.org/1999/xlink" width="50px" height="50px" viewBox="0 0 50 50" version="1.1">
<g id="surface1">
<path style=" stroke:none;fill-rule:nonzero;fill:rgb(94.117647%,94.117647%,94.117647%);fill-opacity:1;" d="M 25 50 C 38.808594 50 50 38.808594 50 25 C 50 11.191406 38.808594 0 25 0 C 11.191406 0 0 11.191406 0 25 C 0 38.808594 11.191406 50 25 50 Z M 25 50 "/>
<path style=" stroke:none;fill-rule:nonzero;fill:rgb(84.705882%,0%,15.294118%);fill-opacity:1;" d="M 25 0 L 25 25 L 7.320312 42.679688 C 11.847656 47.203125 18.097656 50 25 50 C 38.808594 50 50 38.808594 50 25 C 50 11.191406 25 0 25 0 Z M 25 0 "/>
<path style=" stroke:none;fill-rule:nonzero;fill:rgb(0%,32.156863%,70.588235%);fill-opacity:1;" d="M 25 0 C 18.097656 0 11.847656 2.796875 7.320312 7.320312 C 13.457031 13.457031 15.632812 15.632812 25 25 L 50 25 C 50 11.191406 38.808594 0 25 0 Z M 25 0 "/>
<path style=" stroke:none;fill-rule:nonzero;fill:rgb(100%,85.490196%,26.666667%);fill-opacity:1;" d="M 17.117188 25 L 14.066406 23.5625 L 15.691406 20.605469 L 12.375 21.242188 L 11.957031 17.890625 L 9.644531 20.355469 L 7.335938 17.890625 L 6.917969 21.242188 L 3.601562 20.605469 L 5.226562 23.5625 L 2.175781 25 L 5.226562 26.4375 L 3.601562 29.394531 L 6.917969 28.757812 L 7.335938 32.109375 L 9.644531 29.644531 L 11.957031 32.109375 L 12.375 28.757812 L 15.691406 29.394531 L 14.066406 26.4375 Z M 17.117188 25 "/>
<path style=" stroke:none;fill-rule:nonzero;fill:rgb(100%,85.490196%,26.666667%);fill-opacity:1;" d="M 6.667969 9.78125 L 7.683594 11.203125 L 9.347656 10.675781 L 8.3125 12.082031 L 9.328125 13.5 L 7.671875 12.949219 L 6.632812 14.355469 L 6.644531 12.609375 L 4.988281 12.054688 L 6.65625 11.527344 Z M 6.667969 9.78125 "/>
<path style=" stroke:none;fill-rule:nonzero;fill:rgb(100%,85.490196%,26.666667%);fill-opacity:1;" d="M 6.667969 35.644531 L 7.683594 37.066406 L 9.347656 36.539062 L 8.3125 37.945312 L 9.328125 39.363281 L 7.671875 38.8125 L 6.632812 40.21875 L 6.644531 38.472656 L 4.988281 37.917969 L 6.65625 37.390625 Z M 6.667969 35.644531 "/>
<path style=" stroke:none;fill-rule:nonzero;fill:rgb(100%,85.490196%,26.666667%);fill-opacity:1;" d="M 21.160156 22.714844 L 20.144531 24.132812 L 18.476562 23.605469 L 19.515625 25.011719 L 18.5 26.433594 L 20.15625 25.878906 L 21.191406 27.285156 L 21.179688 25.539062 L 22.835938 24.988281 L 21.171875 24.460938 Z M 21.160156 22.714844 "/>
</g>
</svg>
