<?xml version="1.0" encoding="UTF-8"?>
<svg xmlns="http://www.w3.org/2000/svg" xmlns:xlink="http://www.w3.org/1999/xlink" width="50px" height="50px" viewBox="0 0 50 50" version="1.1">
<g id="surface1">
<path style=" stroke:none;fill-rule:nonzero;fill:rgb(0%,32.156863%,70.588235%);fill-opacity:1;" d="M 50 25 C 50 38.808594 38.808594 50 25 50 C 11.191406 50 0 38.808594 0 25 C 0 25.007812 25 0.00390625 25 0 C 38.808594 0 50 11.191406 50 25 Z M 50 25 "/>
<path style=" stroke:none;fill-rule:nonzero;fill:rgb(94.117647%,94.117647%,94.117647%);fill-opacity:1;" d="M 24.933594 25 L 25 25 C 25 24.976562 25 24.957031 25 24.933594 C 24.976562 24.957031 24.957031 24.976562 24.933594 25 Z M 24.933594 25 "/>
<path style=" stroke:none;fill-rule:nonzero;fill:rgb(94.117647%,94.117647%,94.117647%);fill-opacity:1;" d="M 25 13.042969 C 25 8.644531 25 5.761719 25 0 L 24.996094 0 C 11.191406 0.00390625 0 11.195312 0 25 L 13.042969 25 L 13.042969 17.65625 L 20.386719 25 L 24.933594 25 C 24.957031 24.976562 24.976562 24.957031 25 24.933594 C 25 23.25 25 21.746094 25 20.386719 L 17.65625 13.042969 Z M 25 13.042969 "/>
<path style=" stroke:none;fill-rule:nonzero;fill:rgb(84.705882%,0%,15.294118%);fill-opacity:1;" d="M 12.648438 3.261719 C 8.738281 5.488281 5.488281 8.738281 3.261719 12.648438 L 3.261719 25 L 9.78125 25 L 9.78125 9.78125 L 25 9.78125 C 25 7.726562 25 5.765625 25 3.261719 Z M 12.648438 3.261719 "/>
<path style=" stroke:none;fill-rule:nonzero;fill:rgb(84.705882%,0%,15.294118%);fill-opacity:1;" d="M 25 21.925781 L 16.117188 13.042969 L 13.042969 13.042969 L 25 25 C 25 25 25 22.878906 25 21.925781 Z M 25 21.925781 "/>
<path style=" stroke:none;fill-rule:nonzero;fill:rgb(67.45098%,67.058824%,69.411765%);fill-opacity:1;" d="M 39.128906 15.21875 L 35.871094 16.304688 L 32.609375 15.21875 L 31.523438 12.5 L 32.609375 9.78125 L 39.128906 9.78125 L 38.042969 12.5 Z M 39.128906 15.21875 "/>
<path style=" stroke:none;fill-rule:nonzero;fill:rgb(20%,54.117647%,95.294118%);fill-opacity:1;" d="M 28.261719 15.21875 L 28.261719 27.171875 C 28.261719 33 35.871094 34.78125 35.871094 34.78125 C 35.871094 34.78125 43.476562 33 43.476562 27.171875 L 43.476562 15.21875 Z M 28.261719 15.21875 "/>
<path style=" stroke:none;fill-rule:nonzero;fill:rgb(42.745098%,64.705882%,26.666667%);fill-opacity:1;" d="M 28.945312 30.007812 C 30.816406 33.597656 35.871094 34.78125 35.871094 34.78125 C 35.871094 34.78125 40.921875 33.597656 42.792969 30.007812 L 35.871094 18.476562 Z M 28.945312 30.007812 "/>
<path style=" stroke:none;fill-rule:nonzero;fill:rgb(100%,85.490196%,26.666667%);fill-opacity:1;" d="M 43.476562 27.054688 L 35.871094 15.21875 L 28.261719 27.054688 L 28.261719 27.171875 C 28.261719 28.25 28.523438 29.191406 28.945312 30.007812 L 35.871094 19.238281 L 42.792969 30.007812 C 43.21875 29.191406 43.476562 28.25 43.476562 27.171875 Z M 43.476562 27.054688 "/>
</g>
</svg>
