<?xml version="1.0" encoding="UTF-8"?>
<svg xmlns="http://www.w3.org/2000/svg" xmlns:xlink="http://www.w3.org/1999/xlink" width="50px" height="50px" viewBox="0 0 50 50" version="1.1">
<g id="surface1">
<path style=" stroke:none;fill-rule:nonzero;fill:rgb(42.745098%,64.705882%,26.666667%);fill-opacity:1;" d="M 0 25 C 0 35.75 6.785156 44.914062 16.304688 48.445312 L 18.476562 25 L 16.304688 1.554688 C 6.785156 5.085938 0 14.25 0 25 Z M 0 25 "/>
<path style=" stroke:none;fill-rule:nonzero;fill:rgb(84.705882%,0%,15.294118%);fill-opacity:1;" d="M 50 25 C 50 11.191406 38.808594 0 25 0 C 21.941406 0 19.011719 0.550781 16.304688 1.554688 L 16.304688 48.445312 C 19.011719 49.449219 21.941406 50 25 50 C 38.808594 50 50 38.808594 50 25 Z M 50 25 "/>
<path style=" stroke:none;fill-rule:nonzero;fill:rgb(100%,85.490196%,26.666667%);fill-opacity:1;" d="M 16.304688 33.695312 C 21.105469 33.695312 25 29.800781 25 25 C 25 20.199219 21.105469 16.304688 16.304688 16.304688 C 11.5 16.304688 7.609375 20.199219 7.609375 25 C 7.609375 29.800781 11.5 33.695312 16.304688 33.695312 Z M 16.304688 33.695312 "/>
<path style=" stroke:none;fill-rule:nonzero;fill:rgb(84.705882%,0%,15.294118%);fill-opacity:1;" d="M 11.414062 20.652344 L 11.414062 26.085938 C 11.414062 28.789062 13.601562 30.976562 16.304688 30.976562 C 19.007812 30.976562 21.195312 28.789062 21.195312 26.085938 L 21.195312 20.652344 Z M 11.414062 20.652344 "/>
<path style=" stroke:none;fill-rule:nonzero;fill:rgb(94.117647%,94.117647%,94.117647%);fill-opacity:1;" d="M 16.304688 27.71875 C 15.40625 27.71875 14.675781 26.984375 14.675781 26.085938 L 14.675781 23.914062 L 17.933594 23.914062 L 17.933594 26.085938 C 17.933594 26.984375 17.203125 27.71875 16.304688 27.71875 Z M 16.304688 27.71875 "/>
</g>
</svg>
