<?xml version="1.0" encoding="UTF-8"?>
<svg xmlns="http://www.w3.org/2000/svg" xmlns:xlink="http://www.w3.org/1999/xlink" width="50px" height="50px" viewBox="0 0 50 50" version="1.1">
<g id="surface1">
<path style=" stroke:none;fill-rule:nonzero;fill:rgb(94.117647%,94.117647%,94.117647%);fill-opacity:1;" d="M 25 50 C 38.808594 50 50 38.808594 50 25 C 50 11.191406 38.808594 0 25 0 C 11.191406 0 0 11.191406 0 25 C 0 38.808594 11.191406 50 25 50 Z M 25 50 "/>
<path style=" stroke:none;fill-rule:nonzero;fill:rgb(84.705882%,0%,15.294118%);fill-opacity:1;" d="M 25 0 C 16.820312 0 9.558594 3.929688 5 10 L 45 10 C 40.441406 3.929688 33.179688 0 25 0 Z M 25 0 "/>
<path style=" stroke:none;fill-rule:nonzero;fill:rgb(84.705882%,0%,15.294118%);fill-opacity:1;" d="M 25 50 C 33.179688 50 40.441406 46.070312 45 40 L 5 40 C 9.558594 46.070312 16.820312 50 25 50 Z M 25 50 "/>
<path style=" stroke:none;fill-rule:nonzero;fill:rgb(84.705882%,0%,15.294118%);fill-opacity:1;" d="M 0 25 C 0 26.710938 0.171875 28.382812 0.5 30 L 49.5 30 C 49.828125 28.382812 50 26.710938 50 25 C 50 23.289062 49.828125 21.617188 49.5 20 L 0.5 20 C 0.171875 21.617188 0 23.289062 0 25 Z M 0 25 "/>
<path style=" stroke:none;fill-rule:nonzero;fill:rgb(0%,32.156863%,70.588235%);fill-opacity:1;" d="M 7.320312 7.320312 C -2.441406 17.085938 -2.441406 32.914062 7.320312 42.679688 C 11.355469 38.644531 15.238281 34.761719 25 25 Z M 7.320312 7.320312 "/>
<path style=" stroke:none;fill-rule:nonzero;fill:rgb(94.117647%,94.117647%,94.117647%);fill-opacity:1;" d="M 10.117188 18.476562 L 11.738281 23.460938 L 16.976562 23.460938 L 12.738281 26.539062 L 14.355469 31.523438 L 10.117188 28.441406 L 5.878906 31.523438 L 7.5 26.539062 L 3.261719 23.460938 L 8.5 23.460938 Z M 10.117188 18.476562 "/>
</g>
</svg>
