<?xml version="1.0" encoding="UTF-8"?>
<svg xmlns="http://www.w3.org/2000/svg" xmlns:xlink="http://www.w3.org/1999/xlink" width="50px" height="50px" viewBox="0 0 50 50" version="1.1">
<g id="surface1">
<path style=" stroke:none;fill-rule:nonzero;fill:rgb(94.117647%,94.117647%,94.117647%);fill-opacity:1;" d="M 25 50 C 38.808594 50 50 38.808594 50 25 C 50 11.191406 38.808594 0 25 0 C 11.191406 0 0 11.191406 0 25 C 0 38.808594 11.191406 50 25 50 Z M 25 50 "/>
<path style=" stroke:none;fill-rule:nonzero;fill:rgb(45.882353%,10.196078%,27.45098%);fill-opacity:1;" d="M 50 25 C 50 11.191406 38.808594 0 25 0 C 20.109375 0 15.546875 1.40625 11.695312 3.832031 L 17.175781 6.160156 L 9.78125 9.300781 L 17.175781 12.441406 L 9.78125 15.582031 L 17.175781 18.722656 L 9.78125 21.863281 L 17.175781 25 L 9.78125 28.140625 L 17.175781 31.28125 L 9.78125 34.421875 L 17.175781 37.5625 L 9.78125 40.703125 L 17.175781 43.84375 L 11.695312 46.167969 C 15.550781 48.59375 20.109375 50 25 50 C 38.808594 50 50 38.808594 50 25 Z M 50 25 "/>
</g>
</svg>
