<?xml version="1.0" encoding="UTF-8"?>
<svg xmlns="http://www.w3.org/2000/svg" xmlns:xlink="http://www.w3.org/1999/xlink" width="50px" height="50px" viewBox="0 0 50 50" version="1.1">
<g id="surface1">
<path style=" stroke:none;fill-rule:nonzero;fill:rgb(98.823529%,98.823529%,98.823529%);fill-opacity:1;" d="M 25 50 C 38.808594 50 50 38.808594 50 25 C 50 11.191406 38.808594 0 25 0 C 11.191406 0 0 11.191406 0 25 C 0 38.808594 11.191406 50 25 50 Z M 25 50 "/>
<path style=" stroke:none;fill-rule:nonzero;fill:rgb(84.705882%,0%,15.294118%);fill-opacity:1;" d="M 32.609375 20.652344 L 32.609375 22.824219 L 35.59375 22.824219 C 34.347656 24.554688 32.6875 25.96875 30.761719 26.921875 C 30.265625 26.40625 29.574219 26.085938 28.804688 26.085938 C 27.507812 26.085938 26.425781 26.996094 26.152344 28.210938 C 25.773438 28.242188 25.386719 28.261719 25 28.261719 C 24.613281 28.261719 24.226562 28.242188 23.847656 28.210938 C 23.574219 26.996094 22.492188 26.085938 21.195312 26.085938 C 20.425781 26.085938 19.734375 26.40625 19.238281 26.921875 C 17.3125 25.96875 15.652344 24.554688 14.40625 22.824219 L 17.390625 22.824219 L 17.390625 20.652344 L 9.78125 20.652344 C 9.78125 29.054688 16.597656 35.871094 25 35.871094 C 33.40625 35.871094 40.21875 29.054688 40.21875 20.652344 Z M 32.609375 20.652344 "/>
</g>
</svg>
