<?xml version="1.0" encoding="UTF-8"?>
<svg xmlns="http://www.w3.org/2000/svg" xmlns:xlink="http://www.w3.org/1999/xlink" width="50px" height="50px" viewBox="0 0 50 50" version="1.1">
<g id="surface1">
<path style=" stroke:none;fill-rule:nonzero;fill:rgb(100%,85.490196%,26.666667%);fill-opacity:1;" d="M 13.550781 47.230469 L 31.917969 31.917969 L 47.230469 13.550781 C 44.851562 8.9375 41.074219 5.160156 36.460938 2.777344 L 18.082031 18.082031 L 2.777344 36.460938 C 5.160156 41.074219 8.9375 44.851562 13.550781 47.230469 Z M 13.550781 47.230469 "/>
<path style=" stroke:none;fill-rule:nonzero;fill:rgb(84.705882%,0%,15.294118%);fill-opacity:1;" d="M 42.679688 42.679688 C 50.566406 34.792969 52.078125 22.945312 47.222656 13.535156 L 13.535156 47.222656 C 22.945312 52.078125 34.792969 50.566406 42.679688 42.679688 Z M 42.679688 42.679688 "/>
<path style=" stroke:none;fill-rule:nonzero;fill:rgb(42.745098%,64.705882%,26.666667%);fill-opacity:1;" d="M 7.320312 7.320312 C -0.566406 15.207031 -2.078125 27.054688 2.777344 36.464844 L 36.464844 2.777344 C 27.054688 -2.078125 15.207031 -0.566406 7.320312 7.320312 Z M 7.320312 7.320312 "/>
</g>
</svg>
