<?xml version="1.0" encoding="UTF-8"?>
<svg xmlns="http://www.w3.org/2000/svg" xmlns:xlink="http://www.w3.org/1999/xlink" width="50px" height="50px" viewBox="0 0 50 50" version="1.1">
<g id="surface1">
<path style=" stroke:none;fill-rule:nonzero;fill:rgb(100%,85.490196%,26.666667%);fill-opacity:1;" d="M 25 50 C 38.808594 50 50 38.808594 50 25 C 50 11.191406 38.808594 0 25 0 C 11.191406 0 0 11.191406 0 25 C 0 38.808594 11.191406 50 25 50 Z M 25 50 "/>
<path style=" stroke:none;fill-rule:nonzero;fill:rgb(84.705882%,0%,15.294118%);fill-opacity:1;" d="M 28.800781 49.710938 C 32.867188 49.09375 36.609375 47.492188 39.785156 45.160156 L 25 25 Z M 28.800781 49.710938 "/>
<path style=" stroke:none;fill-rule:nonzero;fill:rgb(84.705882%,0%,15.294118%);fill-opacity:1;" d="M 21.199219 0.289062 C 17.132812 0.90625 13.390625 2.507812 10.214844 4.839844 L 25 25 Z M 21.199219 0.289062 "/>
<path style=" stroke:none;fill-rule:nonzero;fill:rgb(84.705882%,0%,15.294118%);fill-opacity:1;" d="M 10.214844 45.160156 C 13.390625 47.492188 17.132812 49.09375 21.199219 49.710938 L 25 25 Z M 10.214844 45.160156 "/>
<path style=" stroke:none;fill-rule:nonzero;fill:rgb(84.705882%,0%,15.294118%);fill-opacity:1;" d="M 4.839844 10.214844 C 2.507812 13.390625 0.90625 17.132812 0.289062 21.199219 L 25 25 Z M 4.839844 10.214844 "/>
<path style=" stroke:none;fill-rule:nonzero;fill:rgb(84.705882%,0%,15.294118%);fill-opacity:1;" d="M 0.289062 28.800781 C 0.90625 32.867188 2.507812 36.609375 4.839844 39.785156 L 25 25 Z M 0.289062 28.800781 "/>
<path style=" stroke:none;fill-rule:nonzero;fill:rgb(84.705882%,0%,15.294118%);fill-opacity:1;" d="M 49.710938 21.199219 C 49.09375 17.132812 47.492188 13.390625 45.160156 10.214844 L 25 25 Z M 49.710938 21.199219 "/>
<path style=" stroke:none;fill-rule:nonzero;fill:rgb(84.705882%,0%,15.294118%);fill-opacity:1;" d="M 39.785156 4.839844 C 36.609375 2.507812 32.867188 0.90625 28.800781 0.289062 L 25 25 Z M 39.785156 4.839844 "/>
<path style=" stroke:none;fill-rule:nonzero;fill:rgb(84.705882%,0%,15.294118%);fill-opacity:1;" d="M 45.160156 39.785156 C 47.492188 36.609375 49.09375 32.867188 49.710938 28.800781 L 25 25 Z M 45.160156 39.785156 "/>
<path style=" stroke:none;fill-rule:nonzero;fill:rgb(84.705882%,0%,15.294118%);fill-opacity:1;" d="M 25 33.695312 C 29.800781 33.695312 33.695312 29.800781 33.695312 25 C 33.695312 20.199219 29.800781 16.304688 25 16.304688 C 20.199219 16.304688 16.304688 20.199219 16.304688 25 C 16.304688 29.800781 20.199219 33.695312 25 33.695312 Z M 25 33.695312 "/>
<path style=" stroke:none;fill-rule:nonzero;fill:rgb(100%,85.490196%,26.666667%);fill-opacity:1;" d="M 25 31.523438 C 28.601562 31.523438 31.523438 28.601562 31.523438 25 C 31.523438 21.398438 28.601562 18.476562 25 18.476562 C 21.398438 18.476562 18.476562 21.398438 18.476562 25 C 18.476562 28.601562 21.398438 31.523438 25 31.523438 Z M 25 31.523438 "/>
</g>
</svg>
