<?xml version="1.0" encoding="UTF-8"?>
<svg xmlns="http://www.w3.org/2000/svg" xmlns:xlink="http://www.w3.org/1999/xlink" width="50px" height="50px" viewBox="0 0 50 50" version="1.1">
<g id="surface1">
<path style=" stroke:none;fill-rule:nonzero;fill:rgb(100%,85.490196%,26.666667%);fill-opacity:1;" d="M 0 25 C 0 29.332031 1.101562 33.40625 3.039062 36.957031 L 25 39.128906 L 46.960938 36.957031 C 48.898438 33.40625 50 29.332031 50 25 L 25 22.824219 Z M 0 25 "/>
<path style=" stroke:none;fill-rule:nonzero;fill:rgb(20%,54.117647%,95.294118%);fill-opacity:1;" d="M 46.960938 13.042969 C 42.71875 5.273438 34.476562 0 25 0 C 15.523438 0 7.28125 5.273438 3.039062 13.042969 C 1.101562 16.59375 0 20.667969 0 25 L 50 25 C 50 20.667969 48.898438 16.59375 46.960938 13.042969 Z M 46.960938 13.042969 "/>
<path style=" stroke:none;fill-rule:nonzero;fill:rgb(28.627451%,43.137255%,17.647059%);fill-opacity:1;" d="M 25 50 C 34.476562 50 42.71875 44.726562 46.960938 36.957031 L 3.039062 36.957031 C 7.28125 44.726562 15.523438 50 25 50 Z M 25 50 "/>
<path style=" stroke:none;fill-rule:nonzero;fill:rgb(100%,85.490196%,26.666667%);fill-opacity:1;" d="M 28.261719 14.632812 L 31.3125 16.066406 L 29.6875 19.023438 L 33.003906 18.390625 L 33.421875 21.738281 L 35.734375 19.277344 L 38.042969 21.738281 L 38.460938 18.390625 L 41.777344 19.023438 L 40.152344 16.066406 L 43.207031 14.632812 L 40.152344 13.195312 L 41.777344 10.238281 L 38.460938 10.871094 L 38.042969 7.523438 L 35.734375 9.984375 L 33.421875 7.523438 L 33.003906 10.871094 L 29.6875 10.238281 L 31.3125 13.195312 Z M 28.261719 14.632812 "/>
</g>
</svg>
