<?xml version="1.0" encoding="UTF-8"?>
<svg xmlns="http://www.w3.org/2000/svg" xmlns:xlink="http://www.w3.org/1999/xlink" width="50px" height="50px" viewBox="0 0 50 50" version="1.1">
<g id="surface1">
<path style=" stroke:none;fill-rule:nonzero;fill:rgb(94.117647%,94.117647%,94.117647%);fill-opacity:1;" d="M 2.480469 14.128906 C 0.890625 17.417969 0 21.105469 0 25 C 0 28.894531 0.890625 32.582031 2.480469 35.871094 L 25 38.042969 L 47.519531 35.871094 C 49.109375 32.582031 50 28.894531 50 25 C 50 21.105469 49.109375 17.417969 47.519531 14.128906 L 25 11.957031 Z M 2.480469 14.128906 "/>
<path style=" stroke:none;fill-rule:nonzero;fill:rgb(28.627451%,43.137255%,17.647059%);fill-opacity:1;" d="M 2.480469 35.871094 C 6.523438 44.230469 15.089844 50 25 50 C 34.910156 50 43.476562 44.230469 47.519531 35.871094 Z M 2.480469 35.871094 "/>
<path style=" stroke:none;fill-rule:nonzero;fill:rgb(0%,0%,0%);fill-opacity:1;" d="M 2.480469 14.128906 L 47.519531 14.128906 C 43.476562 5.769531 34.910156 0 25 0 C 15.089844 0 6.523438 5.769531 2.480469 14.128906 Z M 2.480469 14.128906 "/>
<path style=" stroke:none;fill-rule:nonzero;fill:rgb(84.705882%,0%,15.294118%);fill-opacity:1;" d="M 7.320312 7.320312 C -2.441406 17.085938 -2.441406 32.914062 7.320312 42.679688 C 11.355469 38.644531 15.238281 34.761719 25 25 Z M 7.320312 7.320312 "/>
<path style=" stroke:none;fill-rule:nonzero;fill:rgb(84.705882%,0%,15.294118%);fill-opacity:1;" d="M 31.523438 25 C 31.523438 21.359375 34.082031 18.316406 37.5 17.566406 C 36.976562 17.453125 36.429688 17.390625 35.871094 17.390625 C 31.667969 17.390625 28.261719 20.796875 28.261719 25 C 28.261719 29.203125 31.667969 32.609375 35.871094 32.609375 C 36.429688 32.609375 36.972656 32.546875 37.5 32.433594 C 34.082031 31.683594 31.523438 28.640625 31.523438 25 Z M 31.523438 25 "/>
<path style=" stroke:none;fill-rule:nonzero;fill:rgb(84.705882%,0%,15.294118%);fill-opacity:1;" d="M 37.820312 20.109375 L 38.898438 23.429688 L 42.390625 23.429688 L 39.566406 25.484375 L 40.644531 28.804688 L 37.820312 26.75 L 34.996094 28.804688 L 36.074219 25.484375 L 33.25 23.429688 L 36.742188 23.429688 Z M 37.820312 20.109375 "/>
</g>
</svg>
