<?xml version="1.0" encoding="UTF-8"?>
<svg xmlns="http://www.w3.org/2000/svg" xmlns:xlink="http://www.w3.org/1999/xlink" width="50px" height="50px" viewBox="0 0 50 50" version="1.1">
<g id="surface1">
<path style=" stroke:none;fill-rule:nonzero;fill:rgb(84.705882%,0%,15.294118%);fill-opacity:1;" d="M 50 25 C 50 38.808594 38.808594 50 25 50 C 11.191406 50 0 38.808594 0 25 C 8.585938 16.414062 15.871094 9.128906 25 0 C 38.808594 0 50 11.191406 50 25 Z M 50 25 "/>
<path style=" stroke:none;fill-rule:nonzero;fill:rgb(0%,32.156863%,70.588235%);fill-opacity:1;" d="M 25 25 C 25 11.191406 25 9.566406 25 0 C 11.191406 0 0 11.191406 0 25 Z M 25 25 "/>
<path style=" stroke:none;fill-rule:nonzero;fill:rgb(94.117647%,94.117647%,94.117647%);fill-opacity:1;" d="M 20.023438 16.304688 L 20.429688 17.550781 L 21.738281 17.550781 L 20.679688 18.320312 L 21.085938 19.566406 L 20.023438 18.796875 L 18.964844 19.566406 L 19.371094 18.320312 L 18.308594 17.550781 L 19.621094 17.550781 Z M 20.023438 16.304688 "/>
<path style=" stroke:none;fill-rule:nonzero;fill:rgb(94.117647%,94.117647%,94.117647%);fill-opacity:1;" d="M 13.445312 6.523438 L 14.121094 8.597656 L 16.304688 8.597656 L 14.539062 9.878906 L 15.214844 11.957031 L 13.445312 10.671875 L 11.679688 11.957031 L 12.355469 9.878906 L 10.589844 8.597656 L 12.773438 8.597656 Z M 13.445312 6.523438 "/>
<path style=" stroke:none;fill-rule:nonzero;fill:rgb(94.117647%,94.117647%,94.117647%);fill-opacity:1;" d="M 19.96875 8.695312 L 20.644531 10.773438 L 22.824219 10.773438 L 21.058594 12.054688 L 21.734375 14.128906 L 19.96875 12.847656 L 18.203125 14.128906 L 18.878906 12.054688 L 17.113281 10.773438 L 19.292969 10.773438 Z M 19.96875 8.695312 "/>
<path style=" stroke:none;fill-rule:nonzero;fill:rgb(94.117647%,94.117647%,94.117647%);fill-opacity:1;" d="M 14.8125 17.390625 L 15.488281 19.46875 L 17.671875 19.46875 L 15.90625 20.75 L 16.578125 22.824219 L 14.8125 21.542969 L 13.046875 22.824219 L 13.722656 20.75 L 11.957031 19.46875 L 14.140625 19.46875 Z M 14.8125 17.390625 "/>
<path style=" stroke:none;fill-rule:nonzero;fill:rgb(94.117647%,94.117647%,94.117647%);fill-opacity:1;" d="M 9.097656 11.957031 L 9.773438 14.03125 L 11.957031 14.03125 L 10.191406 15.316406 L 10.863281 17.390625 L 9.097656 16.109375 L 7.332031 17.390625 L 8.007812 15.316406 L 6.242188 14.03125 L 8.425781 14.03125 Z M 9.097656 11.957031 "/>
</g>
</svg>
