<?xml version="1.0" encoding="UTF-8"?>
<svg xmlns="http://www.w3.org/2000/svg" xmlns:xlink="http://www.w3.org/1999/xlink" width="50px" height="50px" viewBox="0 0 50 50" version="1.1">
<g id="surface1">
<path style=" stroke:none;fill-rule:nonzero;fill:rgb(20%,54.117647%,95.294118%);fill-opacity:1;" d="M 50 25 C 50 38.808594 38.808594 50 25 50 C 11.191406 50 0 38.808594 0 25 C 1.085938 25 25 21.738281 25 21.738281 Z M 50 25 "/>
<path style=" stroke:none;fill-rule:nonzero;fill:rgb(94.117647%,94.117647%,94.117647%);fill-opacity:1;" d="M 0 25 C 0 11.191406 11.191406 0 25 0 C 38.808594 0 50 11.191406 50 25 "/>
<path style=" stroke:none;fill-rule:nonzero;fill:rgb(42.745098%,64.705882%,26.666667%);fill-opacity:1;" d="M 34.921875 17.25 L 25 27.175781 L 15.078125 17.25 C 13.792969 19.15625 13.042969 21.449219 13.042969 23.914062 L 13.042969 27.171875 C 13.042969 32.410156 16.425781 36.871094 21.121094 38.484375 C 20.496094 39.710938 20.601562 41.246094 21.519531 42.390625 C 22.738281 41.414062 24 40.402344 25.074219 39.542969 C 26.144531 40.402344 27.40625 41.414062 28.625 42.390625 C 29.554688 41.230469 29.652344 39.675781 29 38.441406 C 33.632812 36.792969 36.957031 32.363281 36.957031 27.171875 L 36.957031 23.914062 C 36.957031 21.449219 36.207031 19.15625 34.921875 17.25 Z M 34.921875 17.25 "/>
<path style=" stroke:none;fill-rule:nonzero;fill:rgb(100%,85.490196%,26.666667%);fill-opacity:1;" d="M 25 35.871094 C 20.207031 35.871094 16.304688 31.96875 16.304688 27.175781 L 16.304688 23.914062 C 16.304688 19.117188 20.207031 15.21875 25 15.21875 C 29.792969 15.21875 33.695312 19.117188 33.695312 23.914062 L 33.695312 27.175781 C 33.695312 31.96875 29.792969 35.871094 25 35.871094 Z M 25 35.871094 "/>
<path style=" stroke:none;fill-rule:nonzero;fill:rgb(20%,54.117647%,95.294118%);fill-opacity:1;" d="M 30.433594 27.175781 L 30.433594 23.914062 C 30.433594 20.917969 27.996094 18.476562 25 18.476562 C 22.003906 18.476562 19.566406 20.917969 19.566406 23.914062 L 19.566406 27.175781 L 25 28.261719 Z M 30.433594 27.175781 "/>
<path style=" stroke:none;fill-rule:nonzero;fill:rgb(42.745098%,64.705882%,26.666667%);fill-opacity:1;" d="M 19.566406 27.175781 C 19.566406 30.171875 22.003906 32.609375 25 32.609375 C 27.996094 32.609375 30.433594 30.171875 30.433594 27.175781 Z M 19.566406 27.175781 "/>
<path style=" stroke:none;fill-rule:nonzero;fill:rgb(100%,85.490196%,26.666667%);fill-opacity:1;" d="M 31.523438 15.21875 C 31.523438 13.417969 30.0625 11.957031 28.261719 11.957031 C 27.425781 11.957031 26.664062 12.269531 26.085938 12.789062 L 26.085938 10.871094 L 27.175781 10.871094 L 27.175781 8.695312 L 26.085938 8.695312 L 26.085938 7.609375 L 23.914062 7.609375 L 23.914062 8.695312 L 22.824219 8.695312 L 22.824219 10.871094 L 23.914062 10.871094 L 23.914062 12.789062 C 23.335938 12.269531 22.574219 11.957031 21.738281 11.957031 C 19.9375 11.957031 18.476562 13.417969 18.476562 15.21875 C 18.476562 16.183594 18.898438 17.050781 19.566406 17.648438 L 19.566406 19.566406 L 30.433594 19.566406 L 30.433594 17.648438 C 31.101562 17.050781 31.523438 16.183594 31.523438 15.21875 Z M 31.523438 15.21875 "/>
</g>
</svg>
