<?xml version="1.0" encoding="UTF-8"?>
<svg xmlns="http://www.w3.org/2000/svg" xmlns:xlink="http://www.w3.org/1999/xlink" width="50px" height="50px" viewBox="0 0 50 50" version="1.1">
<g id="surface1">
<path style=" stroke:none;fill-rule:nonzero;fill:rgb(100%,85.490196%,26.666667%);fill-opacity:1;" d="M 25 50 C 38.808594 50 50 38.808594 50 25 C 50 11.191406 38.808594 0 25 0 C 11.191406 0 0 11.191406 0 25 C 0 38.808594 11.191406 50 25 50 Z M 25 50 "/>
<path style=" stroke:none;fill-rule:nonzero;fill:rgb(42.745098%,64.705882%,26.666667%);fill-opacity:1;" d="M 15.21875 16.304688 L 48.445312 16.304688 C 44.914062 6.785156 35.75 0 25 0 C 18.097656 0 11.847656 2.796875 7.324219 7.324219 Z M 15.21875 16.304688 "/>
<path style=" stroke:none;fill-rule:nonzero;fill:rgb(42.745098%,64.705882%,26.666667%);fill-opacity:1;" d="M 15.21875 33.695312 L 48.445312 33.695312 C 44.914062 43.214844 35.75 50 25 50 C 18.097656 50 11.847656 47.203125 7.324219 42.675781 Z M 15.21875 33.695312 "/>
<path style=" stroke:none;fill-rule:nonzero;fill:rgb(84.705882%,0%,15.294118%);fill-opacity:1;" d="M 7.320312 7.320312 C -2.441406 17.085938 -2.441406 32.914062 7.320312 42.679688 C 11.355469 38.644531 15.238281 34.761719 25 25 Z M 7.320312 7.320312 "/>
<path style=" stroke:none;fill-rule:nonzero;fill:rgb(0%,0%,0%);fill-opacity:1;" d="M 31.746094 20.652344 L 32.824219 23.972656 L 36.316406 23.972656 L 33.492188 26.027344 L 34.570312 29.347656 L 31.746094 27.296875 L 28.921875 29.347656 L 30 26.027344 L 27.175781 23.972656 L 30.667969 23.972656 Z M 31.746094 20.652344 "/>
<path style=" stroke:none;fill-rule:nonzero;fill:rgb(0%,0%,0%);fill-opacity:1;" d="M 42.613281 20.652344 L 43.695312 23.972656 L 47.1875 23.972656 L 44.359375 26.027344 L 45.441406 29.347656 L 42.613281 27.296875 L 39.789062 29.347656 L 40.867188 26.027344 L 38.042969 23.972656 L 41.535156 23.972656 Z M 42.613281 20.652344 "/>
</g>
</svg>
