<?xml version="1.0" encoding="UTF-8"?>
<svg xmlns="http://www.w3.org/2000/svg" xmlns:xlink="http://www.w3.org/1999/xlink" width="50px" height="50px" viewBox="0 0 50 50" version="1.1">
<g id="surface1">
<path style=" stroke:none;fill-rule:nonzero;fill:rgb(94.117647%,94.117647%,94.117647%);fill-opacity:1;" d="M 25 50 C 38.808594 50 50 38.808594 50 25 C 50 11.191406 38.808594 0 25 0 C 11.191406 0 0 11.191406 0 25 C 0 38.808594 11.191406 50 25 50 Z M 25 50 "/>
<path style=" stroke:none;fill-rule:nonzero;fill:rgb(84.705882%,0%,15.294118%);fill-opacity:1;" d="M 49.789062 21.738281 L 28.261719 21.738281 L 28.261719 0.210938 C 27.195312 0.0742188 26.105469 0 25 0 C 23.894531 0 22.804688 0.0742188 21.738281 0.210938 L 21.738281 21.738281 L 0.210938 21.738281 C 0.0742188 22.804688 0 23.894531 0 25 C 0 26.105469 0.0742188 27.195312 0.210938 28.261719 L 21.738281 28.261719 L 21.738281 49.789062 C 22.804688 49.925781 23.894531 50 25 50 C 26.105469 50 27.195312 49.925781 28.261719 49.789062 L 28.261719 28.261719 L 49.789062 28.261719 C 49.925781 27.195312 50 26.105469 50 25 C 50 23.894531 49.925781 22.804688 49.789062 21.738281 Z M 49.789062 21.738281 "/>
<path style=" stroke:none;fill-rule:nonzero;fill:rgb(0%,0%,0%);fill-opacity:1;" d="M 36.957031 8.695312 C 34.929688 8.695312 33.226562 10.082031 32.746094 11.957031 L 36.957031 13.042969 L 41.167969 11.957031 C 40.683594 10.082031 38.984375 8.695312 36.957031 8.695312 Z M 36.957031 8.695312 "/>
<path style=" stroke:none;fill-rule:nonzero;fill:rgb(0%,0%,0%);fill-opacity:1;" d="M 32.609375 18.476562 L 38.042969 19.566406 L 38.042969 17.253906 C 39.570312 16.859375 40.773438 15.65625 41.167969 14.128906 L 36.957031 13.042969 L 31.523438 13.042969 L 32.609375 16.304688 Z M 32.609375 18.476562 "/>
<path style=" stroke:none;fill-rule:nonzero;fill:rgb(67.45098%,67.058824%,69.411765%);fill-opacity:1;" d="M 41.167969 11.957031 L 31.523438 11.957031 L 31.523438 16.304688 L 32.609375 16.304688 L 32.609375 14.128906 L 41.167969 14.128906 C 41.257812 13.78125 41.304688 13.417969 41.304688 13.042969 C 41.304688 12.667969 41.257812 12.304688 41.167969 11.957031 Z M 41.167969 11.957031 "/>
<path style=" stroke:none;fill-rule:nonzero;fill:rgb(0%,0%,0%);fill-opacity:1;" d="M 14.128906 8.695312 C 12.105469 8.695312 10.402344 10.082031 9.917969 11.957031 L 14.128906 13.042969 L 18.339844 11.957031 C 17.859375 10.082031 16.15625 8.695312 14.128906 8.695312 Z M 14.128906 8.695312 "/>
<path style=" stroke:none;fill-rule:nonzero;fill:rgb(0%,0%,0%);fill-opacity:1;" d="M 9.78125 18.476562 L 15.21875 19.566406 L 15.21875 17.253906 C 16.746094 16.859375 17.949219 15.65625 18.339844 14.128906 L 14.128906 13.042969 L 8.695312 13.042969 L 9.78125 16.304688 Z M 9.78125 18.476562 "/>
<path style=" stroke:none;fill-rule:nonzero;fill:rgb(67.45098%,67.058824%,69.411765%);fill-opacity:1;" d="M 18.339844 11.957031 L 8.695312 11.957031 L 8.695312 16.304688 L 9.78125 16.304688 L 9.78125 14.128906 L 18.339844 14.128906 C 18.429688 13.78125 18.476562 13.417969 18.476562 13.042969 C 18.476562 12.667969 18.429688 12.304688 18.339844 11.957031 Z M 18.339844 11.957031 "/>
<path style=" stroke:none;fill-rule:nonzero;fill:rgb(0%,0%,0%);fill-opacity:1;" d="M 36.957031 30.433594 C 34.929688 30.433594 33.226562 31.820312 32.746094 33.695312 L 36.957031 34.78125 L 41.167969 33.695312 C 40.683594 31.820312 38.984375 30.433594 36.957031 30.433594 Z M 36.957031 30.433594 "/>
<path style=" stroke:none;fill-rule:nonzero;fill:rgb(0%,0%,0%);fill-opacity:1;" d="M 32.609375 40.21875 L 38.042969 41.304688 L 38.042969 38.992188 C 39.570312 38.601562 40.773438 37.398438 41.167969 35.871094 L 36.957031 34.78125 L 31.523438 34.78125 L 32.609375 38.042969 Z M 32.609375 40.21875 "/>
<path style=" stroke:none;fill-rule:nonzero;fill:rgb(67.45098%,67.058824%,69.411765%);fill-opacity:1;" d="M 41.167969 33.695312 L 31.523438 33.695312 L 31.523438 38.042969 L 32.609375 38.042969 L 32.609375 35.871094 L 41.167969 35.871094 C 41.257812 35.523438 41.304688 35.15625 41.304688 34.78125 C 41.304688 34.40625 41.257812 34.042969 41.167969 33.695312 Z M 41.167969 33.695312 "/>
<path style=" stroke:none;fill-rule:nonzero;fill:rgb(0%,0%,0%);fill-opacity:1;" d="M 14.128906 30.433594 C 12.105469 30.433594 10.402344 31.820312 9.917969 33.695312 L 14.128906 34.78125 L 18.339844 33.695312 C 17.859375 31.820312 16.15625 30.433594 14.128906 30.433594 Z M 14.128906 30.433594 "/>
<path style=" stroke:none;fill-rule:nonzero;fill:rgb(0%,0%,0%);fill-opacity:1;" d="M 9.78125 40.21875 L 15.21875 41.304688 L 15.21875 38.992188 C 16.746094 38.601562 17.949219 37.398438 18.339844 35.871094 L 14.128906 34.78125 L 8.695312 34.78125 L 9.78125 38.042969 Z M 9.78125 40.21875 "/>
<path style=" stroke:none;fill-rule:nonzero;fill:rgb(67.45098%,67.058824%,69.411765%);fill-opacity:1;" d="M 18.339844 33.695312 L 8.695312 33.695312 L 8.695312 38.042969 L 9.78125 38.042969 L 9.78125 35.871094 L 18.339844 35.871094 C 18.429688 35.523438 18.476562 35.15625 18.476562 34.78125 C 18.476562 34.40625 18.429688 34.042969 18.339844 33.695312 Z M 18.339844 33.695312 "/>
</g>
</svg>
