<?xml version="1.0" encoding="UTF-8"?>
<svg xmlns="http://www.w3.org/2000/svg" xmlns:xlink="http://www.w3.org/1999/xlink" width="50px" height="50px" viewBox="0 0 50 50" version="1.1">
<g id="surface1">
<path style=" stroke:none;fill-rule:nonzero;fill:rgb(42.745098%,64.705882%,26.666667%);fill-opacity:1;" d="M 25 50 C 38.808594 50 50 38.808594 50 25 C 50 11.191406 38.808594 0 25 0 C 11.191406 0 0 11.191406 0 25 C 0 38.808594 11.191406 50 25 50 Z M 25 50 "/>
<path style=" stroke:none;fill-rule:nonzero;fill:rgb(94.117647%,94.117647%,94.117647%);fill-opacity:1;" d="M 14.128906 29.890625 C 14.128906 31.691406 15.589844 33.152344 17.390625 33.152344 L 27.175781 33.152344 C 27.175781 34.652344 28.390625 35.871094 29.890625 35.871094 L 33.152344 35.871094 C 34.652344 35.871094 35.871094 34.652344 35.871094 33.152344 L 35.871094 29.890625 Z M 14.128906 29.890625 "/>
<path style=" stroke:none;fill-rule:nonzero;fill:rgb(94.117647%,94.117647%,94.117647%);fill-opacity:1;" d="M 36.140625 14.128906 L 36.140625 21.738281 C 36.140625 22.9375 35.167969 23.914062 33.96875 23.914062 L 33.96875 27.175781 C 36.964844 27.175781 39.402344 24.734375 39.402344 21.738281 L 39.402344 14.128906 Z M 36.140625 14.128906 "/>
<path style=" stroke:none;fill-rule:nonzero;fill:rgb(94.117647%,94.117647%,94.117647%);fill-opacity:1;" d="M 12.773438 21.738281 C 12.773438 22.9375 11.796875 23.914062 10.597656 23.914062 L 10.597656 27.175781 C 13.59375 27.175781 16.03125 24.734375 16.03125 21.738281 L 16.03125 14.128906 L 12.773438 14.128906 Z M 12.773438 21.738281 "/>
<path style=" stroke:none;fill-rule:nonzero;fill:rgb(94.117647%,94.117647%,94.117647%);fill-opacity:1;" d="M 31.25 14.128906 L 34.511719 14.128906 L 34.511719 21.738281 L 31.25 21.738281 Z M 31.25 14.128906 "/>
<path style=" stroke:none;fill-rule:nonzero;fill:rgb(94.117647%,94.117647%,94.117647%);fill-opacity:1;" d="M 26.359375 18.476562 C 26.359375 18.777344 26.113281 19.023438 25.816406 19.023438 C 25.515625 19.023438 25.273438 18.777344 25.273438 18.476562 L 25.273438 14.128906 L 22.011719 14.128906 L 22.011719 18.476562 C 22.011719 18.777344 21.765625 19.023438 21.46875 19.023438 C 21.167969 19.023438 20.925781 18.777344 20.925781 18.476562 L 20.925781 14.128906 L 17.664062 14.128906 L 17.664062 18.476562 C 17.664062 20.574219 19.371094 22.28125 21.46875 22.28125 C 22.273438 22.28125 23.023438 22.027344 23.640625 21.597656 C 24.257812 22.027344 25.007812 22.28125 25.816406 22.28125 C 25.976562 22.28125 26.136719 22.269531 26.296875 22.25 C 26.0625 23.203125 25.207031 23.914062 24.183594 23.914062 L 24.183594 27.171875 C 27.183594 27.171875 29.621094 24.734375 29.621094 21.738281 L 29.621094 14.128906 L 26.359375 14.128906 Z M 26.359375 18.476562 "/>
<path style=" stroke:none;fill-rule:nonzero;fill:rgb(94.117647%,94.117647%,94.117647%);fill-opacity:1;" d="M 17.664062 23.914062 L 22.554688 23.914062 L 22.554688 27.175781 L 17.664062 27.175781 Z M 17.664062 23.914062 "/>
</g>
</svg>
