<?xml version="1.0" encoding="UTF-8"?>
<svg xmlns="http://www.w3.org/2000/svg" xmlns:xlink="http://www.w3.org/1999/xlink" width="50px" height="50px" viewBox="0 0 50 50" version="1.1">
<g id="surface1">
<path style=" stroke:none;fill-rule:nonzero;fill:rgb(100%,85.490196%,26.666667%);fill-opacity:1;" d="M 35.871094 2.480469 C 32.582031 0.890625 28.894531 0 25 0 C 21.105469 0 17.417969 0.890625 14.128906 2.480469 L 11.957031 25 L 14.128906 47.519531 C 17.417969 49.109375 21.105469 50 25 50 C 28.894531 50 32.582031 49.109375 35.871094 47.519531 L 38.042969 25 Z M 35.871094 2.480469 "/>
<path style=" stroke:none;fill-rule:nonzero;fill:rgb(28.627451%,43.137255%,17.647059%);fill-opacity:1;" d="M 25 16.304688 L 27.15625 22.945312 L 34.144531 22.945312 L 28.492188 27.054688 L 30.652344 33.695312 L 25 29.589844 L 19.347656 33.695312 L 21.507812 27.054688 L 15.855469 22.945312 L 22.839844 22.945312 Z M 25 16.304688 "/>
<path style=" stroke:none;fill-rule:nonzero;fill:rgb(28.627451%,43.137255%,17.647059%);fill-opacity:1;" d="M 14.128906 2.480469 C 5.769531 6.523438 0 15.089844 0 25 C 0 34.910156 5.769531 43.476562 14.128906 47.519531 Z M 14.128906 2.480469 "/>
<path style=" stroke:none;fill-rule:nonzero;fill:rgb(84.705882%,0%,15.294118%);fill-opacity:1;" d="M 35.871094 2.480469 L 35.871094 47.519531 C 44.230469 43.476562 50 34.910156 50 25 C 50 15.089844 44.230469 6.523438 35.871094 2.480469 Z M 35.871094 2.480469 "/>
</g>
</svg>
