<?xml version="1.0" encoding="UTF-8"?>
<svg xmlns="http://www.w3.org/2000/svg" xmlns:xlink="http://www.w3.org/1999/xlink" width="50px" height="50px" viewBox="0 0 50 50" version="1.1">
<g id="surface1">
<path style=" stroke:none;fill-rule:nonzero;fill:rgb(94.117647%,94.117647%,94.117647%);fill-opacity:1;" d="M 25 50 C 38.808594 50 50 38.808594 50 25 C 50 11.191406 38.808594 0 25 0 C 11.191406 0 0 11.191406 0 25 C 0 38.808594 11.191406 50 25 50 Z M 25 50 "/>
<path style=" stroke:none;fill-rule:nonzero;fill:rgb(0%,32.156863%,70.588235%);fill-opacity:1;" d="M 25 0 C 11.191406 0 0 11.191406 0 25 C 0 28.058594 0.550781 30.988281 1.554688 33.695312 L 48.445312 33.695312 C 49.449219 30.988281 50 28.058594 50 25 C 50 11.191406 38.808594 0 25 0 Z M 25 0 "/>
<path style=" stroke:none;fill-rule:nonzero;fill:rgb(84.705882%,0%,15.294118%);fill-opacity:1;" d="M 25 0 C 14.25 0 5.085938 6.785156 1.554688 16.304688 L 48.445312 16.304688 C 44.914062 6.785156 35.75 0 25 0 Z M 25 0 "/>
<path style=" stroke:none;fill-rule:nonzero;fill:rgb(84.705882%,0%,15.294118%);fill-opacity:1;" d="M 6.464844 14.128906 L 6.464844 26.601562 C 6.464844 33.695312 15.730469 35.871094 15.730469 35.871094 C 15.730469 35.871094 25 33.695312 25 26.601562 L 25 14.128906 Z M 6.464844 14.128906 "/>
<path style=" stroke:none;fill-rule:nonzero;fill:rgb(100%,85.490196%,26.666667%);fill-opacity:1;" d="M 10.296875 16.304688 L 21.167969 16.304688 L 21.167969 11.957031 L 18.992188 13.042969 L 15.730469 9.78125 L 12.472656 13.042969 L 10.296875 11.957031 Z M 10.296875 16.304688 "/>
<path style=" stroke:none;fill-rule:nonzero;fill:rgb(100%,85.490196%,26.666667%);fill-opacity:1;" d="M 22.824219 28.339844 L 15.761719 21.273438 L 8.695312 28.339844 L 11 30.644531 L 15.761719 25.882812 L 20.519531 30.644531 Z M 22.824219 28.339844 "/>
<path style=" stroke:none;fill-rule:nonzero;fill:rgb(94.117647%,94.117647%,94.117647%);fill-opacity:1;" d="M 22.824219 21.738281 L 19.53125 21.738281 C 19.714844 21.417969 19.824219 21.046875 19.824219 20.652344 C 19.824219 19.453125 18.847656 18.476562 17.648438 18.476562 C 16.820312 18.476562 16.097656 18.941406 15.730469 19.625 C 15.367188 18.941406 14.644531 18.476562 13.816406 18.476562 C 12.617188 18.476562 11.640625 19.453125 11.640625 20.652344 C 11.640625 21.046875 11.75 21.417969 11.933594 21.738281 L 8.695312 21.738281 C 8.695312 22.941406 9.742188 23.914062 10.941406 23.914062 L 10.871094 23.914062 C 10.871094 25.113281 11.84375 26.085938 13.042969 26.085938 C 13.042969 27.148438 13.808594 28.035156 14.816406 28.222656 L 13.101562 32.089844 C 13.921875 32.421875 14.820312 32.609375 15.761719 32.609375 C 16.703125 32.609375 17.597656 32.421875 18.417969 32.089844 L 16.707031 28.222656 C 17.714844 28.035156 18.476562 27.148438 18.476562 26.085938 C 19.679688 26.085938 20.652344 25.113281 20.652344 23.914062 L 20.578125 23.914062 C 21.78125 23.914062 22.824219 22.941406 22.824219 21.738281 Z M 22.824219 21.738281 "/>
</g>
</svg>
