<?xml version="1.0" encoding="UTF-8"?>
<svg xmlns="http://www.w3.org/2000/svg" xmlns:xlink="http://www.w3.org/1999/xlink" width="50px" height="50px" viewBox="0 0 50 50" version="1.1">
<g id="surface1">
<path style=" stroke:none;fill-rule:nonzero;fill:rgb(94.117647%,94.117647%,94.117647%);fill-opacity:1;" d="M 25 50 C 38.808594 50 50 38.808594 50 25 C 50 11.191406 38.808594 0 25 0 C 11.191406 0 0 11.191406 0 25 C 0 38.808594 11.191406 50 25 50 Z M 25 50 "/>
<path style=" stroke:none;fill-rule:nonzero;fill:rgb(100%,85.490196%,26.666667%);fill-opacity:1;" d="M 41.875 6.554688 C 37.429688 2.484375 31.503906 0 25 0 C 23.933594 0 22.886719 0.0664062 21.855469 0.195312 L 9.78125 14.128906 L 0.792969 31.261719 C 1.371094 33.515625 2.261719 35.644531 3.40625 37.601562 L 25 25 Z M 41.875 6.554688 "/>
<path style=" stroke:none;fill-rule:nonzero;fill:rgb(42.745098%,64.705882%,26.666667%);fill-opacity:1;" d="M 45.8125 38.851562 L 10.835938 45.601562 C 14.863281 48.375 19.742188 50 25 50 C 33.683594 50 41.332031 45.570312 45.8125 38.851562 Z M 45.8125 38.851562 "/>
<path style=" stroke:none;fill-rule:nonzero;fill:rgb(84.705882%,0%,15.294118%);fill-opacity:1;" d="M 41.878906 6.558594 L 3.421875 37.625 C 4.425781 39.34375 5.628906 40.925781 7.003906 42.351562 L 50 25 C 50 17.699219 46.871094 11.128906 41.878906 6.558594 Z M 41.878906 6.558594 "/>
<path style=" stroke:none;fill-rule:nonzero;fill:rgb(0%,32.156863%,70.588235%);fill-opacity:1;" d="M 0 25 C 0 27.164062 0.273438 29.261719 0.792969 31.261719 L 21.855469 0.195312 C 9.53125 1.742188 0 12.257812 0 25 Z M 0 25 "/>
</g>
</svg>
