<?xml version="1.0" encoding="UTF-8"?>
<svg xmlns="http://www.w3.org/2000/svg" xmlns:xlink="http://www.w3.org/1999/xlink" width="50px" height="50px" viewBox="0 0 50 50" version="1.1">
<g id="surface1">
<path style=" stroke:none;fill-rule:nonzero;fill:rgb(94.117647%,94.117647%,94.117647%);fill-opacity:1;" d="M 48.445312 33.695312 C 49.449219 30.988281 50 28.058594 50 25 C 50 21.941406 49.449219 19.011719 48.445312 16.304688 L 25 14.128906 L 1.554688 16.304688 C 0.550781 19.011719 0 21.941406 0 25 C 0 28.058594 0.550781 30.988281 1.554688 33.695312 L 25 35.871094 Z M 48.445312 33.695312 "/>
<path style=" stroke:none;fill-rule:nonzero;fill:rgb(20%,54.117647%,95.294118%);fill-opacity:1;" d="M 25 50 C 35.75 50 44.914062 43.214844 48.445312 33.695312 L 1.554688 33.695312 C 5.085938 43.214844 14.25 50 25 50 Z M 25 50 "/>
<path style=" stroke:none;fill-rule:nonzero;fill:rgb(42.745098%,64.705882%,26.666667%);fill-opacity:1;" d="M 25 0 C 14.25 0 5.085938 6.785156 1.554688 16.304688 L 48.445312 16.304688 C 44.914062 6.785156 35.75 0 25 0 Z M 25 0 "/>
</g>
</svg>
