<?xml version="1.0" encoding="UTF-8"?>
<svg xmlns="http://www.w3.org/2000/svg" xmlns:xlink="http://www.w3.org/1999/xlink" width="50px" height="50px" viewBox="0 0 50 50" version="1.1">
<g id="surface1">
<path style=" stroke:none;fill-rule:nonzero;fill:rgb(94.117647%,94.117647%,94.117647%);fill-opacity:1;" d="M 25 50 C 38.808594 50 50 38.808594 50 25 C 50 11.191406 38.808594 0 25 0 C 11.191406 0 0 11.191406 0 25 C 0 38.808594 11.191406 50 25 50 Z M 25 50 "/>
<path style=" stroke:none;fill-rule:nonzero;fill:rgb(84.705882%,0%,15.294118%);fill-opacity:1;" d="M 0 25 C 0 11.191406 11.191406 0 25 0 C 38.808594 0 50 11.191406 50 25 "/>
<path style=" stroke:none;fill-rule:nonzero;fill:rgb(94.117647%,94.117647%,94.117647%);fill-opacity:1;" d="M 15.21875 13.042969 C 15.21875 9.402344 17.777344 6.359375 21.195312 5.613281 C 20.671875 5.496094 20.125 5.433594 19.566406 5.433594 C 15.363281 5.433594 11.957031 8.839844 11.957031 13.042969 C 11.957031 17.246094 15.363281 20.652344 19.566406 20.652344 C 20.125 20.652344 20.671875 20.589844 21.195312 20.476562 C 17.777344 19.730469 15.21875 16.6875 15.21875 13.042969 Z M 15.21875 13.042969 "/>
<path style=" stroke:none;fill-rule:nonzero;fill:rgb(94.117647%,94.117647%,94.117647%);fill-opacity:1;" d="M 25 5.976562 L 25.539062 7.640625 L 27.285156 7.640625 L 25.875 8.664062 L 26.414062 10.324219 L 25 9.300781 L 23.585938 10.324219 L 24.125 8.664062 L 22.714844 7.640625 L 24.460938 7.640625 Z M 25 5.976562 "/>
<path style=" stroke:none;fill-rule:nonzero;fill:rgb(94.117647%,94.117647%,94.117647%);fill-opacity:1;" d="M 20.765625 9.238281 L 21.304688 10.898438 L 23.050781 10.898438 L 21.636719 11.925781 L 22.175781 13.585938 L 20.765625 12.5625 L 19.351562 13.585938 L 19.890625 11.925781 L 18.476562 10.898438 L 20.222656 10.898438 Z M 20.765625 9.238281 "/>
<path style=" stroke:none;fill-rule:nonzero;fill:rgb(94.117647%,94.117647%,94.117647%);fill-opacity:1;" d="M 29.234375 9.238281 L 29.777344 10.898438 L 31.523438 10.898438 L 30.109375 11.925781 L 30.648438 13.585938 L 29.234375 12.5625 L 27.824219 13.585938 L 28.363281 11.925781 L 26.949219 10.898438 L 28.695312 10.898438 Z M 29.234375 9.238281 "/>
<path style=" stroke:none;fill-rule:nonzero;fill:rgb(94.117647%,94.117647%,94.117647%);fill-opacity:1;" d="M 27.605469 14.128906 L 28.144531 15.792969 L 29.890625 15.792969 L 28.476562 16.816406 L 29.019531 18.476562 L 27.605469 17.453125 L 26.191406 18.476562 L 26.734375 16.816406 L 25.320312 15.792969 L 27.066406 15.792969 Z M 27.605469 14.128906 "/>
<path style=" stroke:none;fill-rule:nonzero;fill:rgb(94.117647%,94.117647%,94.117647%);fill-opacity:1;" d="M 22.394531 14.128906 L 22.933594 15.792969 L 24.679688 15.792969 L 23.265625 16.816406 L 23.808594 18.476562 L 22.394531 17.453125 L 20.980469 18.476562 L 21.519531 16.816406 L 20.109375 15.792969 L 21.855469 15.792969 Z M 22.394531 14.128906 "/>
</g>
</svg>
