<?xml version="1.0" encoding="UTF-8"?>
<svg xmlns="http://www.w3.org/2000/svg" xmlns:xlink="http://www.w3.org/1999/xlink" width="50px" height="50px" viewBox="0 0 50 50" version="1.1">
<g id="surface1">
<path style=" stroke:none;fill-rule:nonzero;fill:rgb(84.705882%,0%,15.294118%);fill-opacity:1;" d="M 10.910156 45.652344 C 14.921875 48.394531 19.773438 50 25 50 C 30.226562 50 35.078125 48.394531 39.089844 45.652344 L 25 43.476562 Z M 10.910156 45.652344 "/>
<path style=" stroke:none;fill-rule:nonzero;fill:rgb(84.705882%,0%,15.294118%);fill-opacity:1;" d="M 39.089844 4.347656 C 35.078125 1.605469 30.226562 0 25 0 C 19.773438 0 14.921875 1.605469 10.910156 4.347656 L 25 6.523438 Z M 39.089844 4.347656 "/>
<path style=" stroke:none;fill-rule:nonzero;fill:rgb(84.705882%,0%,15.294118%);fill-opacity:1;" d="M 10.910156 45.652344 C 14.921875 48.394531 19.773438 50 25 50 C 30.226562 50 35.078125 48.394531 39.089844 45.652344 L 25 43.476562 Z M 10.910156 45.652344 "/>
<path style=" stroke:none;fill-rule:nonzero;fill:rgb(84.705882%,0%,15.294118%);fill-opacity:1;" d="M 39.089844 4.347656 C 35.078125 1.605469 30.226562 0 25 0 C 19.773438 0 14.921875 1.605469 10.910156 4.347656 L 25 6.523438 Z M 39.089844 4.347656 "/>
<path style=" stroke:none;fill-rule:nonzero;fill:rgb(0%,32.156863%,70.588235%);fill-opacity:1;" d="M 49.9375 23.371094 C 49.34375 15.652344 44.65625 8.152344 39.089844 4.347656 L 10.910156 4.347656 C 4.742188 8.5625 0.5625 15.464844 0.0507812 23.371094 L 25 25 Z M 49.9375 23.371094 "/>
<path style=" stroke:none;fill-rule:nonzero;fill:rgb(0%,32.156863%,70.588235%);fill-opacity:1;" d="M 0.0507812 26.628906 C 0.5625 34.535156 4.742188 41.4375 10.910156 45.652344 L 39.089844 45.652344 C 45.257812 41.4375 49.4375 34.535156 49.949219 26.628906 L 25 25 Z M 0.0507812 26.628906 "/>
<path style=" stroke:none;fill-rule:nonzero;fill:rgb(84.705882%,0%,15.294118%);fill-opacity:1;" d="M 49.9375 23.371094 L 26.628906 23.371094 L 26.628906 3.261719 L 23.371094 3.261719 L 23.371094 23.371094 L 0.0507812 23.371094 C 0.0195312 23.910156 0 24.453125 0 25 C 0 25.546875 0.0195312 26.089844 0.0507812 26.628906 L 23.371094 26.628906 L 23.371094 46.738281 L 26.628906 46.738281 L 26.628906 26.628906 L 49.949219 26.628906 C 49.980469 26.089844 50 25.546875 50 25 C 50 24.457031 49.976562 23.914062 49.9375 23.371094 Z M 49.9375 23.371094 "/>
<path style=" stroke:none;fill-rule:nonzero;fill:rgb(94.117647%,94.117647%,94.117647%);fill-opacity:1;" d="M 9.78125 25 L 25 15.433594 L 40.21875 25 L 25 34.566406 Z M 9.78125 25 "/>
<path style=" stroke:none;fill-rule:nonzero;fill:rgb(42.745098%,64.705882%,26.666667%);fill-opacity:1;" d="M 16.304688 29.347656 L 35.871094 29.347656 L 31.523438 22.824219 L 29.347656 25 L 27.175781 23.914062 L 25 27.175781 L 20.652344 27.175781 L 18.476562 25 Z M 16.304688 29.347656 "/>
<path style=" stroke:none;fill-rule:nonzero;fill:rgb(100%,85.490196%,26.666667%);fill-opacity:1;" d="M 25 18.476562 L 25.539062 20.140625 L 27.285156 20.140625 L 25.875 21.164062 L 26.414062 22.824219 L 25 21.800781 L 23.585938 22.824219 L 24.125 21.164062 L 22.714844 20.140625 L 24.460938 20.140625 Z M 25 18.476562 "/>
<path style=" stroke:none;fill-rule:nonzero;fill:rgb(84.705882%,0%,15.294118%);fill-opacity:1;" d="M 25 12.703125 L 5.433594 25 L 25 37.296875 L 44.566406 25 Z M 11.5625 25 L 25 16.554688 L 38.4375 25 L 25 33.445312 Z M 11.5625 25 "/>
</g>
</svg>
