<?xml version="1.0" encoding="UTF-8"?>
<svg xmlns="http://www.w3.org/2000/svg" xmlns:xlink="http://www.w3.org/1999/xlink" width="50px" height="50px" viewBox="0 0 50 50" version="1.1">
<g id="surface1">
<path style=" stroke:none;fill-rule:nonzero;fill:rgb(84.705882%,0%,15.294118%);fill-opacity:1;" d="M 22.824219 27.175781 C 22.824219 27.175781 7.335938 7.320312 7.320312 7.324219 C 11.847656 2.796875 18.097656 0 25 0 C 38.808594 0 50 11.191406 50 25 Z M 22.824219 27.175781 "/>
<path style=" stroke:none;fill-rule:nonzero;fill:rgb(0%,32.156863%,70.588235%);fill-opacity:1;" d="M 22.824219 25 C 22.824219 25 7.335938 42.679688 7.320312 42.675781 C 11.847656 47.203125 18.097656 50 25 50 C 38.808594 50 50 38.808594 50 25 Z M 22.824219 25 "/>
<path style=" stroke:none;fill-rule:nonzero;fill:rgb(94.117647%,94.117647%,94.117647%);fill-opacity:1;" d="M 7.320312 7.320312 C -2.441406 17.085938 -2.441406 32.914062 7.320312 42.679688 C 11.355469 38.644531 15.238281 34.761719 25 25 Z M 7.320312 7.320312 "/>
<path style=" stroke:none;fill-rule:nonzero;fill:rgb(100%,85.490196%,26.666667%);fill-opacity:1;" d="M 2.742188 25 C 2.726562 25.179688 2.71875 25.359375 2.71875 25.542969 C 2.71875 29.445312 5.878906 32.609375 9.78125 32.609375 C 13.683594 32.609375 16.847656 29.445312 16.847656 25.542969 C 16.847656 25.359375 16.839844 25.179688 16.824219 25 Z M 2.742188 25 "/>
<path style=" stroke:none;fill-rule:nonzero;fill:rgb(100%,85.490196%,26.666667%);fill-opacity:1;" d="M 9.78125 21.738281 C 10.984375 21.738281 11.957031 20.765625 11.957031 19.566406 C 11.957031 18.363281 10.984375 17.390625 9.78125 17.390625 C 8.582031 17.390625 7.609375 18.363281 7.609375 19.566406 C 7.609375 20.765625 8.582031 21.738281 9.78125 21.738281 Z M 9.78125 21.738281 "/>
<path style=" stroke:none;fill-rule:nonzero;fill:rgb(84.705882%,0%,15.294118%);fill-opacity:1;" d="M 4.890625 19.023438 L 4.890625 26.085938 C 4.890625 29.832031 9.78125 30.976562 9.78125 30.976562 C 9.78125 30.976562 14.675781 29.832031 14.675781 26.085938 L 14.675781 19.023438 Z M 4.890625 19.023438 "/>
<path style=" stroke:none;fill-rule:nonzero;fill:rgb(20%,54.117647%,95.294118%);fill-opacity:1;" d="M 9.785156 28.703125 C 8.878906 28.375 7.066406 27.542969 7.066406 26.085938 L 7.066406 21.195312 L 12.5 21.195312 L 12.5 26.085938 C 12.5 27.546875 10.6875 28.378906 9.785156 28.703125 Z M 9.785156 28.703125 "/>
<path style=" stroke:none;fill-rule:nonzero;fill:rgb(95.294118%,95.294118%,95.294118%);fill-opacity:1;" d="M 10.871094 23.914062 L 10.871094 22.824219 L 9.78125 22.28125 L 8.695312 22.824219 L 8.695312 23.914062 L 8.152344 24.457031 L 8.152344 26.628906 L 11.414062 26.628906 L 11.414062 24.457031 Z M 10.871094 23.914062 "/>
</g>
</svg>
