<?xml version="1.0" encoding="UTF-8"?>
<svg xmlns="http://www.w3.org/2000/svg" xmlns:xlink="http://www.w3.org/1999/xlink" width="50px" height="50px" viewBox="0 0 50 50" version="1.1">
<g id="surface1">
<path style=" stroke:none;fill-rule:nonzero;fill:rgb(94.117647%,94.117647%,94.117647%);fill-opacity:1;" d="M 25 50 C 38.808594 50 50 38.808594 50 25 C 50 11.191406 38.808594 0 25 0 C 11.191406 0 0 11.191406 0 25 C 0 38.808594 11.191406 50 25 50 Z M 25 50 "/>
<path style=" stroke:none;fill-rule:nonzero;fill:rgb(0%,32.156863%,70.588235%);fill-opacity:1;" d="M 25 50 C 38.808594 50 50 38.808594 50 25 C 50 21.941406 49.449219 19.011719 48.445312 16.304688 L 1.554688 16.304688 C 0.550781 19.011719 0 21.941406 0 25 C 0 38.808594 11.191406 50 25 50 Z M 25 50 "/>
<path style=" stroke:none;fill-rule:nonzero;fill:rgb(84.705882%,0%,15.294118%);fill-opacity:1;" d="M 25 50 C 35.75 50 44.914062 43.214844 48.445312 33.695312 L 1.554688 33.695312 C 5.085938 43.214844 14.25 50 25 50 Z M 25 50 "/>
<path style=" stroke:none;fill-rule:nonzero;fill:rgb(94.117647%,94.117647%,94.117647%);fill-opacity:1;" d="M 6.464844 14.128906 L 6.464844 26.601562 C 6.464844 33.695312 15.730469 35.871094 15.730469 35.871094 C 15.730469 35.871094 25 33.695312 25 26.601562 L 25 14.128906 Z M 6.464844 14.128906 "/>
<path style=" stroke:none;fill-rule:nonzero;fill:rgb(84.705882%,0%,15.294118%);fill-opacity:1;" d="M 8.636719 14.128906 L 8.636719 26.601562 C 8.636719 27.433594 8.824219 28.222656 9.191406 28.957031 L 22.273438 28.957031 C 22.640625 28.222656 22.824219 27.433594 22.824219 26.601562 L 22.824219 14.128906 Z M 8.636719 14.128906 "/>
<path style=" stroke:none;fill-rule:nonzero;fill:rgb(94.117647%,94.117647%,94.117647%);fill-opacity:1;" d="M 20.078125 22.824219 L 16.820312 22.824219 L 16.820312 20.652344 L 18.992188 20.652344 L 18.992188 18.476562 L 16.820312 18.476562 L 16.820312 16.304688 L 14.644531 16.304688 L 14.644531 18.476562 L 12.472656 18.476562 L 12.472656 20.652344 L 14.644531 20.652344 L 14.644531 22.824219 L 11.382812 22.824219 L 11.382812 25 L 14.644531 25 L 14.644531 27.175781 L 16.820312 27.175781 L 16.820312 25 L 20.078125 25 Z M 20.078125 22.824219 "/>
<path style=" stroke:none;fill-rule:nonzero;fill:rgb(0%,32.156863%,70.588235%);fill-opacity:1;" d="M 12.15625 31.992188 C 13.554688 32.875 14.996094 33.382812 15.730469 33.613281 C 16.46875 33.386719 17.910156 32.875 19.308594 31.992188 C 20.722656 31.105469 21.710938 30.089844 22.273438 28.957031 C 21.65625 28.519531 20.898438 28.261719 20.082031 28.261719 C 19.78125 28.261719 19.492188 28.296875 19.214844 28.359375 C 18.625 27.023438 17.289062 26.085938 15.734375 26.085938 C 14.175781 26.085938 12.839844 27.023438 12.25 28.359375 C 11.972656 28.296875 11.683594 28.261719 11.382812 28.261719 C 10.566406 28.261719 9.808594 28.519531 9.191406 28.957031 C 9.753906 30.089844 10.742188 31.105469 12.15625 31.992188 Z M 12.15625 31.992188 "/>
</g>
</svg>
