<?xml version="1.0" encoding="UTF-8"?>
<svg xmlns="http://www.w3.org/2000/svg" xmlns:xlink="http://www.w3.org/1999/xlink" width="50px" height="50px" viewBox="0 0 50 50" version="1.1">
<g id="surface1">
<path style=" stroke:none;fill-rule:nonzero;fill:rgb(28.627451%,43.137255%,17.647059%);fill-opacity:1;" d="M 42.679688 42.679688 C 52.054688 33.300781 52.425781 18.332031 43.792969 8.511719 L 25 25 L 8.511719 43.792969 C 18.332031 52.425781 33.300781 52.054688 42.679688 42.679688 Z M 42.679688 42.679688 "/>
<path style=" stroke:none;fill-rule:nonzero;fill:rgb(0%,32.156863%,70.588235%);fill-opacity:1;" d="M 7.320312 7.320312 C 16.699219 -2.054688 31.667969 -2.425781 41.488281 6.207031 L 25 25 L 6.207031 41.488281 C -2.425781 31.667969 -2.054688 16.699219 7.320312 7.320312 Z M 7.320312 7.320312 "/>
<path style=" stroke:none;fill-rule:nonzero;fill:rgb(100%,85.490196%,26.666667%);fill-opacity:1;" d="M 41.488281 6.207031 L 6.207031 41.488281 C 6.5625 41.894531 6.933594 42.289062 7.320312 42.679688 C 7.710938 43.066406 8.105469 43.4375 8.511719 43.792969 L 43.792969 8.511719 C 43.4375 8.105469 43.066406 7.710938 42.679688 7.320312 C 42.289062 6.933594 41.894531 6.5625 41.488281 6.207031 Z M 41.488281 6.207031 "/>
<path style=" stroke:none;fill-rule:nonzero;fill:rgb(94.117647%,94.117647%,94.117647%);fill-opacity:1;" d="M 10.535156 8.695312 L 11.074219 10.355469 L 12.820312 10.355469 L 11.40625 11.382812 L 11.945312 13.042969 L 10.535156 12.015625 L 9.121094 13.042969 L 9.660156 11.382812 L 8.246094 10.355469 L 9.992188 10.355469 Z M 10.535156 8.695312 "/>
<path style=" stroke:none;fill-rule:nonzero;fill:rgb(94.117647%,94.117647%,94.117647%);fill-opacity:1;" d="M 19.453125 8.695312 L 19.992188 10.355469 L 21.738281 10.355469 L 20.328125 11.382812 L 20.867188 13.042969 L 19.453125 12.015625 L 18.039062 13.042969 L 18.578125 11.382812 L 17.167969 10.355469 L 18.914062 10.355469 Z M 19.453125 8.695312 "/>
<path style=" stroke:none;fill-rule:nonzero;fill:rgb(94.117647%,94.117647%,94.117647%);fill-opacity:1;" d="M 10.535156 17.390625 L 11.074219 19.050781 L 12.820312 19.050781 L 11.40625 20.078125 L 11.945312 21.738281 L 10.535156 20.710938 L 9.121094 21.738281 L 9.660156 20.078125 L 8.246094 19.050781 L 9.992188 19.050781 Z M 10.535156 17.390625 "/>
<path style=" stroke:none;fill-rule:nonzero;fill:rgb(94.117647%,94.117647%,94.117647%);fill-opacity:1;" d="M 19.453125 17.390625 L 19.992188 19.050781 L 21.738281 19.050781 L 20.328125 20.078125 L 20.867188 21.738281 L 19.453125 20.710938 L 18.039062 21.738281 L 18.578125 20.078125 L 17.167969 19.050781 L 18.914062 19.050781 Z M 19.453125 17.390625 "/>
<path style=" stroke:none;fill-rule:nonzero;fill:rgb(94.117647%,94.117647%,94.117647%);fill-opacity:1;" d="M 14.992188 13.042969 L 15.53125 14.703125 L 17.277344 14.703125 L 15.867188 15.730469 L 16.40625 17.390625 L 14.992188 16.363281 L 13.582031 17.390625 L 14.121094 15.730469 L 12.707031 14.703125 L 14.453125 14.703125 Z M 14.992188 13.042969 "/>
</g>
</svg>
