<?xml version="1.0" encoding="UTF-8"?>
<svg xmlns="http://www.w3.org/2000/svg" xmlns:xlink="http://www.w3.org/1999/xlink" width="50px" height="50px" viewBox="0 0 50 50" version="1.1">
<g id="surface1">
<path style=" stroke:none;fill-rule:nonzero;fill:rgb(94.117647%,94.117647%,94.117647%);fill-opacity:1;" d="M 48.445312 33.695312 C 49.449219 30.988281 50 28.058594 50 25 C 50 21.941406 49.449219 19.011719 48.445312 16.304688 L 25 14.128906 L 1.554688 16.304688 C 0.550781 19.011719 0 21.941406 0 25 C 0 28.058594 0.550781 30.988281 1.554688 33.695312 L 25 35.871094 Z M 48.445312 33.695312 "/>
<path style=" stroke:none;fill-rule:nonzero;fill:rgb(84.705882%,0%,15.294118%);fill-opacity:1;" d="M 25 50 C 35.75 50 44.914062 43.214844 48.445312 33.695312 L 1.554688 33.695312 C 5.085938 43.214844 14.25 50 25 50 Z M 25 50 "/>
<path style=" stroke:none;fill-rule:nonzero;fill:rgb(28.627451%,43.137255%,17.647059%);fill-opacity:1;" d="M 25 0 C 14.25 0 5.085938 6.785156 1.554688 16.304688 L 48.445312 16.304688 C 44.914062 6.785156 35.75 0 25 0 Z M 25 0 "/>
<path style=" stroke:none;fill-rule:nonzero;fill:rgb(0%,0%,0%);fill-opacity:1;" d="M 25 19.566406 L 26.347656 23.71875 L 30.714844 23.71875 L 27.183594 26.28125 L 28.53125 30.433594 L 25 27.867188 L 21.46875 30.433594 L 22.816406 26.28125 L 19.285156 23.71875 L 23.652344 23.71875 Z M 25 19.566406 "/>
<path style=" stroke:none;fill-rule:nonzero;fill:rgb(94.117647%,94.117647%,94.117647%);fill-opacity:1;" d="M 32.425781 4.890625 L 32.425781 9.964844 C 32.425781 10.761719 31.777344 11.414062 30.976562 11.414062 L 30.976562 13.585938 C 32.976562 13.585938 34.601562 11.960938 34.601562 9.964844 L 34.601562 4.890625 Z M 32.425781 4.890625 "/>
<path style=" stroke:none;fill-rule:nonzero;fill:rgb(94.117647%,94.117647%,94.117647%);fill-opacity:1;" d="M 16.847656 9.964844 C 16.847656 10.761719 16.199219 11.414062 15.398438 11.414062 L 15.398438 13.585938 C 17.398438 13.585938 19.023438 11.960938 19.023438 9.964844 L 19.023438 4.890625 L 16.847656 4.890625 Z M 16.847656 9.964844 "/>
<path style=" stroke:none;fill-rule:nonzero;fill:rgb(94.117647%,94.117647%,94.117647%);fill-opacity:1;" d="M 29.167969 4.890625 L 31.339844 4.890625 L 31.339844 9.964844 L 29.167969 9.964844 Z M 29.167969 4.890625 "/>
<path style=" stroke:none;fill-rule:nonzero;fill:rgb(94.117647%,94.117647%,94.117647%);fill-opacity:1;" d="M 25.90625 7.789062 C 25.90625 7.988281 25.742188 8.152344 25.542969 8.152344 C 25.34375 8.152344 25.179688 7.988281 25.179688 7.789062 L 25.179688 4.890625 L 23.007812 4.890625 L 23.007812 7.789062 C 23.007812 7.988281 22.84375 8.152344 22.644531 8.152344 C 22.445312 8.152344 22.28125 7.988281 22.28125 7.789062 L 22.28125 4.890625 L 20.109375 4.890625 L 20.109375 7.789062 C 20.109375 9.1875 21.246094 10.324219 22.644531 10.324219 C 23.183594 10.324219 23.683594 10.15625 24.09375 9.871094 C 24.503906 10.15625 25.003906 10.324219 25.542969 10.324219 C 25.652344 10.324219 25.757812 10.320312 25.863281 10.304688 C 25.710938 10.941406 25.136719 11.414062 24.457031 11.414062 L 24.457031 13.585938 C 26.453125 13.585938 28.078125 11.960938 28.078125 9.964844 L 28.078125 4.890625 L 25.90625 4.890625 Z M 25.90625 7.789062 "/>
<path style=" stroke:none;fill-rule:nonzero;fill:rgb(94.117647%,94.117647%,94.117647%);fill-opacity:1;" d="M 20.109375 11.414062 L 23.371094 11.414062 L 23.371094 13.585938 L 20.109375 13.585938 Z M 20.109375 11.414062 "/>
</g>
</svg>
