<?xml version="1.0" encoding="UTF-8"?>
<svg xmlns="http://www.w3.org/2000/svg" xmlns:xlink="http://www.w3.org/1999/xlink" width="50px" height="50px" viewBox="0 0 50 50" version="1.1">
<g id="surface1">
<path style=" stroke:none;fill-rule:nonzero;fill:rgb(94.117647%,94.117647%,94.117647%);fill-opacity:1;" d="M 25 50 C 38.808594 50 50 38.808594 50 25 C 50 11.191406 38.808594 0 25 0 C 11.191406 0 0 11.191406 0 25 C 0 38.808594 11.191406 50 25 50 Z M 25 50 "/>
<path style=" stroke:none;fill-rule:nonzero;fill:rgb(84.705882%,0%,15.294118%);fill-opacity:1;" d="M 33.695312 25 C 33.695312 27.171875 29.800781 32.609375 25 32.609375 C 20.199219 32.609375 16.304688 27.171875 16.304688 25 C 16.304688 20.199219 20.199219 16.304688 25 16.304688 C 29.800781 16.304688 33.695312 20.199219 33.695312 25 Z M 33.695312 25 "/>
<path style=" stroke:none;fill-rule:nonzero;fill:rgb(0%,32.156863%,70.588235%);fill-opacity:1;" d="M 33.695312 25 C 33.695312 29.800781 29.800781 33.695312 25 33.695312 C 20.199219 33.695312 16.304688 29.800781 16.304688 25 "/>
<path style=" stroke:none;fill-rule:nonzero;fill:rgb(0%,0%,0%);fill-opacity:1;" d="M 34.214844 32.6875 L 36.523438 30.382812 L 38.058594 31.917969 L 35.753906 34.222656 Z M 34.214844 32.6875 "/>
<path style=" stroke:none;fill-rule:nonzero;fill:rgb(0%,0%,0%);fill-opacity:1;" d="M 30.371094 36.527344 L 32.679688 34.222656 L 34.214844 35.761719 L 31.910156 38.066406 Z M 30.371094 36.527344 "/>
<path style=" stroke:none;fill-rule:nonzero;fill:rgb(0%,0%,0%);fill-opacity:1;" d="M 38.828125 37.296875 L 41.132812 34.992188 L 42.667969 36.527344 L 40.363281 38.832031 Z M 38.828125 37.296875 "/>
<path style=" stroke:none;fill-rule:nonzero;fill:rgb(0%,0%,0%);fill-opacity:1;" d="M 34.984375 41.140625 L 37.289062 38.835938 L 38.828125 40.371094 L 36.519531 42.675781 Z M 34.984375 41.140625 "/>
<path style=" stroke:none;fill-rule:nonzero;fill:rgb(0%,0%,0%);fill-opacity:1;" d="M 36.523438 34.992188 L 38.828125 32.6875 L 40.363281 34.222656 L 38.058594 36.527344 Z M 36.523438 34.992188 "/>
<path style=" stroke:none;fill-rule:nonzero;fill:rgb(0%,0%,0%);fill-opacity:1;" d="M 32.679688 38.835938 L 34.984375 36.527344 L 36.523438 38.066406 L 34.214844 40.371094 Z M 32.679688 38.835938 "/>
<path style=" stroke:none;fill-rule:nonzero;fill:rgb(0%,0%,0%);fill-opacity:1;" d="M 38.835938 17.316406 L 32.691406 11.171875 L 34.226562 9.632812 L 40.375 15.78125 Z M 38.835938 17.316406 "/>
<path style=" stroke:none;fill-rule:nonzero;fill:rgb(0%,0%,0%);fill-opacity:1;" d="M 32.6875 15.78125 L 30.382812 13.476562 L 31.921875 11.9375 L 34.226562 14.246094 Z M 32.6875 15.78125 "/>
<path style=" stroke:none;fill-rule:nonzero;fill:rgb(0%,0%,0%);fill-opacity:1;" d="M 36.53125 19.625 L 34.226562 17.320312 L 35.761719 15.78125 L 38.066406 18.085938 Z M 36.53125 19.625 "/>
<path style=" stroke:none;fill-rule:nonzero;fill:rgb(0%,0%,0%);fill-opacity:1;" d="M 37.300781 11.167969 L 34.992188 8.863281 L 36.53125 7.328125 L 38.835938 9.632812 Z M 37.300781 11.167969 "/>
<path style=" stroke:none;fill-rule:nonzero;fill:rgb(0%,0%,0%);fill-opacity:1;" d="M 41.144531 15.011719 L 38.839844 12.707031 L 40.375 11.171875 L 42.679688 13.476562 Z M 41.144531 15.011719 "/>
<path style=" stroke:none;fill-rule:nonzero;fill:rgb(0%,0%,0%);fill-opacity:1;" d="M 8.863281 34.988281 L 15.011719 41.136719 L 13.472656 42.671875 L 7.324219 36.523438 Z M 8.863281 34.988281 "/>
<path style=" stroke:none;fill-rule:nonzero;fill:rgb(0%,0%,0%);fill-opacity:1;" d="M 15.011719 36.523438 L 17.316406 38.828125 L 15.777344 40.367188 L 13.472656 38.058594 Z M 15.011719 36.523438 "/>
<path style=" stroke:none;fill-rule:nonzero;fill:rgb(0%,0%,0%);fill-opacity:1;" d="M 11.167969 32.679688 L 13.472656 34.988281 L 11.9375 36.523438 L 9.628906 34.21875 Z M 11.167969 32.679688 "/>
<path style=" stroke:none;fill-rule:nonzero;fill:rgb(0%,0%,0%);fill-opacity:1;" d="M 13.472656 30.375 L 19.621094 36.523438 L 18.085938 38.058594 L 11.9375 31.914062 Z M 13.472656 30.375 "/>
<path style=" stroke:none;fill-rule:nonzero;fill:rgb(0%,0%,0%);fill-opacity:1;" d="M 15.011719 8.859375 L 8.863281 15.007812 L 7.324219 13.46875 L 13.472656 7.324219 Z M 15.011719 8.859375 "/>
<path style=" stroke:none;fill-rule:nonzero;fill:rgb(0%,0%,0%);fill-opacity:1;" d="M 17.316406 11.164062 L 11.167969 17.3125 L 9.628906 15.777344 L 15.777344 9.628906 Z M 17.316406 11.164062 "/>
<path style=" stroke:none;fill-rule:nonzero;fill:rgb(0%,0%,0%);fill-opacity:1;" d="M 19.621094 13.472656 L 13.476562 19.621094 L 11.9375 18.082031 L 18.085938 11.933594 Z M 19.621094 13.472656 "/>
</g>
</svg>
