<?xml version="1.0" encoding="UTF-8"?>
<svg xmlns="http://www.w3.org/2000/svg" xmlns:xlink="http://www.w3.org/1999/xlink" width="50px" height="50px" viewBox="0 0 50 50" version="1.1">
<g id="surface1">
<path style=" stroke:none;fill-rule:nonzero;fill:rgb(94.117647%,94.117647%,94.117647%);fill-opacity:1;" d="M 25 50 C 38.808594 50 50 38.808594 50 25 C 50 11.191406 38.808594 0 25 0 C 11.191406 0 0 11.191406 0 25 C 0 38.808594 11.191406 50 25 50 Z M 25 50 "/>
<path style=" stroke:none;fill-rule:nonzero;fill:rgb(0%,0%,0%);fill-opacity:1;" d="M 7.320312 42.679688 C -2.441406 32.914062 -2.441406 17.085938 7.320312 7.320312 C 7.320312 7.324219 21.738281 25 21.738281 25 Z M 7.320312 42.679688 "/>
<path style=" stroke:none;fill-rule:nonzero;fill:rgb(100%,85.490196%,26.666667%);fill-opacity:1;" d="M 21.738281 25 L 3.316406 12.550781 C 2.746094 13.542969 2.242188 14.578125 1.808594 15.652344 L 11.136719 25 L 1.808594 34.347656 C 2.242188 35.421875 2.742188 36.457031 3.316406 37.449219 Z M 21.738281 25 "/>
<path style=" stroke:none;fill-rule:nonzero;fill:rgb(42.745098%,64.705882%,26.666667%);fill-opacity:1;" d="M 49.789062 21.738281 L 21.738281 21.738281 L 7.320312 7.324219 C 5.769531 8.875 4.417969 10.632812 3.316406 12.550781 L 15.742188 25 L 3.316406 37.449219 C 4.417969 39.367188 5.769531 41.125 7.320312 42.675781 L 21.738281 28.261719 L 49.789062 28.261719 C 49.925781 27.195312 50 26.105469 50 25 C 50 23.894531 49.925781 22.804688 49.789062 21.738281 Z M 49.789062 21.738281 "/>
<path style=" stroke:none;fill-rule:nonzero;fill:rgb(0%,32.156863%,70.588235%);fill-opacity:1;" d="M 9.777344 44.832031 C 13.996094 48.070312 19.273438 50 25 50 C 36.550781 50 46.269531 42.164062 49.140625 31.523438 L 23.089844 31.523438 Z M 9.777344 44.832031 "/>
<path style=" stroke:none;fill-rule:nonzero;fill:rgb(84.705882%,0%,15.294118%);fill-opacity:1;" d="M 49.140625 18.476562 C 46.269531 7.835938 36.550781 0 25 0 C 19.273438 0 13.996094 1.929688 9.777344 5.167969 L 23.089844 18.476562 Z M 49.140625 18.476562 "/>
</g>
</svg>
