<?xml version="1.0" encoding="UTF-8"?>
<svg xmlns="http://www.w3.org/2000/svg" xmlns:xlink="http://www.w3.org/1999/xlink" width="50px" height="50px" viewBox="0 0 50 50" version="1.1">
<g id="surface1">
<path style=" stroke:none;fill-rule:nonzero;fill:rgb(94.117647%,94.117647%,94.117647%);fill-opacity:1;" d="M 25 50 C 38.808594 50 50 38.808594 50 25 C 50 11.191406 38.808594 0 25 0 C 11.191406 0 0 11.191406 0 25 C 0 38.808594 11.191406 50 25 50 Z M 25 50 "/>
<path style=" stroke:none;fill-rule:nonzero;fill:rgb(0%,0%,0%);fill-opacity:1;" d="M 48.050781 15.308594 C 44.265625 6.316406 35.371094 0 25 0 C 18.097656 0 11.847656 2.796875 7.324219 7.324219 L 13.582031 15.308594 Z M 48.050781 15.308594 "/>
<path style=" stroke:none;fill-rule:nonzero;fill:rgb(28.627451%,43.137255%,17.647059%);fill-opacity:1;" d="M 13.65625 34.601562 L 7.324219 42.675781 C 11.847656 47.203125 18.097656 50 25 50 C 35.40625 50 44.324219 43.644531 48.089844 34.601562 Z M 13.65625 34.601562 "/>
<path style=" stroke:none;fill-rule:nonzero;fill:rgb(63.529412%,0%,11.372549%);fill-opacity:1;" d="M 5.433594 18.386719 L 5.433594 31.523438 L 49.140625 31.523438 C 49.699219 29.441406 50 27.257812 50 25 C 50 22.710938 49.691406 20.492188 49.113281 18.386719 Z M 5.433594 18.386719 "/>
<path style=" stroke:none;fill-rule:nonzero;fill:rgb(0%,32.156863%,70.588235%);fill-opacity:1;" d="M 7.320312 7.320312 C -2.441406 17.085938 -2.441406 32.914062 7.320312 42.679688 C 11.355469 38.644531 15.238281 34.761719 25 25 Z M 7.320312 7.320312 "/>
<path style=" stroke:none;fill-rule:nonzero;fill:rgb(100%,85.490196%,26.666667%);fill-opacity:1;" d="M 8.144531 18.785156 L 11.195312 23.042969 L 16.1875 21.457031 L 13.082031 25.675781 L 16.132812 29.933594 L 11.160156 28.28125 L 8.054688 32.5 L 8.089844 27.261719 L 3.117188 25.609375 L 8.109375 24.023438 Z M 8.144531 18.785156 "/>
</g>
</svg>
