<?xml version="1.0" encoding="UTF-8"?>
<svg xmlns="http://www.w3.org/2000/svg" xmlns:xlink="http://www.w3.org/1999/xlink" width="50px" height="50px" viewBox="0 0 50 50" version="1.1">
<g id="surface1">
<path style=" stroke:none;fill-rule:nonzero;fill:rgb(100%,85.490196%,26.666667%);fill-opacity:1;" d="M 25 50 C 38.808594 50 50 38.808594 50 25 C 50 11.191406 38.808594 0 25 0 C 11.191406 0 0 11.191406 0 25 C 0 38.808594 11.191406 50 25 50 Z M 25 50 "/>
<path style=" stroke:none;fill-rule:nonzero;fill:rgb(100%,59.607843%,6.666667%);fill-opacity:1;" d="M 19.566406 4.347656 L 10.910156 4.347656 C 10.527344 4.609375 10.152344 4.882812 9.78125 5.164062 L 7.609375 25 L 9.78125 44.835938 C 10.152344 45.117188 10.527344 45.390625 10.910156 45.652344 L 19.566406 45.652344 Z M 19.566406 4.347656 "/>
<path style=" stroke:none;fill-rule:nonzero;fill:rgb(42.745098%,64.705882%,26.666667%);fill-opacity:1;" d="M 0 25 C 0 33.082031 3.835938 40.265625 9.78125 44.835938 L 9.78125 5.164062 C 3.835938 9.734375 0 16.917969 0 25 Z M 0 25 "/>
<path style=" stroke:none;fill-rule:nonzero;fill:rgb(100%,85.490196%,26.666667%);fill-opacity:1;" d="M 40.21875 15.242188 L 40.21875 15.867188 L 40.242188 15.871094 Z M 40.21875 15.242188 "/>
<path style=" stroke:none;fill-rule:nonzero;fill:rgb(63.529412%,0%,11.372549%);fill-opacity:1;" d="M 48.007812 31.523438 L 43.296875 31.523438 L 41.304688 33.695312 L 41.304688 38.042969 L 36.957031 38.042969 L 36.957031 35.871094 L 39.128906 35.871094 L 39.128906 31.523438 L 29.347656 31.523438 L 29.347656 34.238281 L 27.175781 34.238281 L 27.175781 29.058594 C 26.507812 28.464844 26.085938 27.597656 26.085938 26.628906 L 26.085938 12.5 C 26.085938 10.699219 27.546875 9.238281 29.347656 9.238281 L 29.347656 29.347656 L 33.695312 29.347656 L 35.1875 28.105469 C 34.925781 27.484375 34.78125 26.800781 34.78125 26.085938 L 34.78125 22.824219 L 31.523438 22.824219 L 31.523438 16.304688 L 38.042969 16.304688 C 38.042969 15.21875 39.675781 14.128906 39.675781 14.128906 C 39.675781 14.128906 41.304688 15.21875 41.304688 16.304688 L 41.304688 22.828125 C 42.515625 22.839844 44.433594 22.808594 46.511719 22.828125 C 45.964844 21.875 45.652344 20.742188 45.652344 19.566406 C 45.652344 17.648438 46.480469 15.921875 47.796875 14.730469 C 45.898438 10.519531 42.867188 6.929688 39.089844 4.347656 L 22.824219 4.347656 L 22.824219 45.652344 L 39.089844 45.652344 C 43.683594 42.511719 47.171875 37.882812 48.867188 32.460938 Z M 48.007812 31.523438 "/>
</g>
</svg>
