<?xml version="1.0" encoding="UTF-8"?>
<svg xmlns="http://www.w3.org/2000/svg" xmlns:xlink="http://www.w3.org/1999/xlink" width="50px" height="50px" viewBox="0 0 50 50" version="1.1">
<defs>
<clipPath id="clip1">
  <path d="M 0 0 L 49.960938 0 L 49.960938 49.960938 L 0 49.960938 Z M 0 0 "/>
</clipPath>
</defs>
<g id="surface1">
<g clip-path="url(#clip1)" clip-rule="nonzero">
<path style=" stroke:none;fill-rule:nonzero;fill:rgb(94.117647%,94.117647%,94.117647%);fill-opacity:1;" d="M 24.980469 49.960938 C 38.773438 49.960938 49.960938 38.773438 49.960938 24.980469 C 49.960938 11.183594 38.773438 0 24.980469 0 C 11.183594 0 0 11.183594 0 24.980469 C 0 38.773438 11.183594 49.960938 24.980469 49.960938 Z M 24.980469 49.960938 "/>
</g>
<path style=" stroke:none;fill-rule:nonzero;fill:rgb(67.45098%,67.058824%,69.411765%);fill-opacity:1;" d="M 44.601562 20.09375 L 36.382812 20.09375 C 36.382812 18.59375 35.167969 17.378906 33.667969 17.378906 L 31.496094 21.722656 C 31.496094 21.722656 33.8125 28.238281 33.742188 28.238281 L 36.457031 28.238281 C 37.953125 28.238281 39.171875 27.023438 39.171875 25.523438 C 40.671875 25.523438 41.886719 24.308594 41.886719 22.808594 L 41.796875 22.808594 C 43.292969 22.808594 44.601562 21.59375 44.601562 20.09375 Z M 44.601562 20.09375 "/>
<path style=" stroke:none;fill-rule:nonzero;fill:rgb(67.45098%,67.058824%,69.411765%);fill-opacity:1;" d="M 5.359375 20.09375 L 13.574219 20.09375 C 13.574219 18.59375 14.792969 17.378906 16.289062 17.378906 L 18.464844 21.722656 C 18.464844 21.722656 16.144531 28.238281 16.21875 28.238281 L 13.503906 28.238281 C 12.003906 28.238281 10.789062 27.023438 10.789062 25.523438 C 9.289062 25.523438 8.074219 24.308594 8.074219 22.808594 L 8.164062 22.808594 C 6.664062 22.808594 5.359375 21.59375 5.359375 20.09375 Z M 5.359375 20.09375 "/>
<path style=" stroke:none;fill-rule:nonzero;fill:rgb(100%,85.490196%,26.666667%);fill-opacity:1;" d="M 33.667969 34.753906 L 33.667969 35.839844 L 16.289062 35.839844 L 16.289062 34.753906 L 11.945312 34.753906 L 11.945312 39.097656 L 16.289062 39.097656 L 16.289062 40.183594 L 33.667969 40.183594 L 33.667969 39.097656 L 38.011719 39.097656 L 38.011719 34.753906 Z M 33.667969 34.753906 "/>
<path style=" stroke:none;fill-rule:nonzero;fill:rgb(0%,32.156863%,70.588235%);fill-opacity:1;" d="M 16.289062 17.378906 L 16.289062 28.238281 C 16.289062 34.886719 24.980469 36.925781 24.980469 36.925781 C 24.980469 36.925781 33.667969 34.886719 33.667969 28.238281 L 33.667969 17.378906 L 24.980469 16.292969 Z M 16.289062 17.378906 "/>
<path style=" stroke:none;fill-rule:nonzero;fill:rgb(84.705882%,0%,15.294118%);fill-opacity:1;" d="M 16.292969 21.722656 L 33.667969 21.722656 L 33.667969 28.238281 L 16.292969 28.238281 Z M 16.292969 21.722656 "/>
<path style=" stroke:none;fill-rule:nonzero;fill:rgb(100%,85.490196%,26.666667%);fill-opacity:1;" d="M 29.324219 11.945312 L 29.324219 13.574219 L 28.238281 14.117188 L 27.152344 13.03125 L 27.152344 9.773438 L 22.808594 9.773438 L 22.808594 13.03125 L 21.722656 14.117188 L 20.636719 13.574219 L 20.636719 11.945312 L 16.289062 11.945312 L 16.289062 17.378906 L 33.667969 17.378906 L 33.667969 11.945312 Z M 29.324219 11.945312 "/>
</g>
</svg>
