<?xml version="1.0" encoding="UTF-8"?>
<svg xmlns="http://www.w3.org/2000/svg" xmlns:xlink="http://www.w3.org/1999/xlink" width="50px" height="50px" viewBox="0 0 50 49" version="1.1">
<defs>
<clipPath id="clip1">
  <path d="M 0.0546875 2 L 14 2 L 14 47 L 0.0546875 47 Z M 0.0546875 2 "/>
</clipPath>
<clipPath id="clip2">
  <path d="M 36 2 L 49.957031 2 L 49.957031 47 L 36 47 Z M 36 2 "/>
</clipPath>
</defs>
<g id="surface1">
<path style=" stroke:none;fill-rule:nonzero;fill:rgb(100%,85.490196%,26.666667%);fill-opacity:1;" d="M 36.941406 2.980469 C 33.394531 1.078125 29.332031 0 25.007812 0 C 20.683594 0 16.621094 1.078125 13.074219 2.980469 L 10.90625 24.5 L 13.074219 46.019531 C 16.621094 47.921875 20.683594 49 25.007812 49 C 29.332031 49 33.394531 47.921875 36.941406 46.019531 L 39.109375 24.5 Z M 36.941406 2.980469 "/>
<g clip-path="url(#clip1)" clip-rule="nonzero">
<path style=" stroke:none;fill-rule:nonzero;fill:rgb(20%,54.117647%,95.294118%);fill-opacity:1;" d="M 13.074219 46.019531 L 13.074219 2.980469 C 5.320312 7.132812 0.0546875 15.214844 0.0546875 24.5 C 0.0546875 33.785156 5.320312 41.867188 13.074219 46.019531 Z M 13.074219 46.019531 "/>
</g>
<g clip-path="url(#clip2)" clip-rule="nonzero">
<path style=" stroke:none;fill-rule:nonzero;fill:rgb(42.745098%,64.705882%,26.666667%);fill-opacity:1;" d="M 49.957031 24.5 C 49.957031 15.214844 44.695312 7.132812 36.941406 2.980469 L 36.941406 46.019531 C 44.695312 41.867188 49.957031 33.785156 49.957031 24.5 Z M 49.957031 24.5 "/>
</g>
<path style=" stroke:none;fill-rule:nonzero;fill:rgb(42.745098%,64.705882%,26.666667%);fill-opacity:1;" d="M 19.582031 30.890625 L 15.242188 24.5 L 19.582031 18.109375 L 23.921875 24.5 Z M 19.582031 30.890625 "/>
<path style=" stroke:none;fill-rule:nonzero;fill:rgb(42.745098%,64.705882%,26.666667%);fill-opacity:1;" d="M 30.433594 30.890625 L 26.09375 24.5 L 30.433594 18.109375 L 34.769531 24.5 Z M 30.433594 30.890625 "/>
<path style=" stroke:none;fill-rule:nonzero;fill:rgb(42.745098%,64.705882%,26.666667%);fill-opacity:1;" d="M 25.007812 39.414062 L 20.667969 33.023438 L 25.007812 26.628906 L 29.347656 33.023438 Z M 25.007812 39.414062 "/>
</g>
</svg>
