<?xml version="1.0" encoding="UTF-8"?>
<svg xmlns="http://www.w3.org/2000/svg" xmlns:xlink="http://www.w3.org/1999/xlink" width="50px" height="50px" viewBox="0 0 50 49" version="1.1">
<defs>
<clipPath id="clip1">
  <path d="M 0.0546875 11 L 49.957031 11 L 49.957031 38 L 0.0546875 38 Z M 0.0546875 11 "/>
</clipPath>
<clipPath id="clip2">
  <path d="M 0.0546875 7 L 26 7 L 26 42 L 0.0546875 42 Z M 0.0546875 7 "/>
</clipPath>
</defs>
<g id="surface1">
<g clip-path="url(#clip1)" clip-rule="nonzero">
<path style=" stroke:none;fill-rule:nonzero;fill:rgb(94.117647%,94.117647%,94.117647%);fill-opacity:1;" d="M 2.53125 13.847656 C 0.945312 17.070312 0.0546875 20.683594 0.0546875 24.5 C 0.0546875 28.316406 0.945312 31.929688 2.53125 35.152344 L 25.007812 37.28125 L 47.484375 35.152344 C 49.070312 31.929688 49.957031 28.316406 49.957031 24.5 C 49.957031 20.683594 49.070312 17.070312 47.484375 13.847656 L 25.007812 11.71875 Z M 2.53125 13.847656 "/>
</g>
<path style=" stroke:none;fill-rule:nonzero;fill:rgb(0%,0%,0%);fill-opacity:1;" d="M 2.53125 35.152344 C 6.570312 43.347656 15.117188 49 25.007812 49 C 34.898438 49 43.445312 43.347656 47.480469 35.152344 Z M 2.53125 35.152344 "/>
<path style=" stroke:none;fill-rule:nonzero;fill:rgb(84.705882%,0%,15.294118%);fill-opacity:1;" d="M 2.53125 13.847656 L 47.480469 13.847656 C 43.445312 5.652344 34.898438 0 25.007812 0 C 15.117188 0 6.570312 5.652344 2.53125 13.847656 Z M 2.53125 13.847656 "/>
<g clip-path="url(#clip2)" clip-rule="nonzero">
<path style=" stroke:none;fill-rule:nonzero;fill:rgb(28.627451%,43.137255%,17.647059%);fill-opacity:1;" d="M 7.363281 7.175781 C -2.378906 16.742188 -2.378906 32.257812 7.363281 41.824219 C 11.390625 37.871094 15.261719 34.066406 25.007812 24.5 Z M 7.363281 7.175781 "/>
</g>
</g>
</svg>
