<?xml version="1.0" encoding="UTF-8"?>
<svg xmlns="http://www.w3.org/2000/svg" xmlns:xlink="http://www.w3.org/1999/xlink" width="50px" height="50px" viewBox="0 0 50 49" version="1.1">
<defs>
<clipPath id="clip1">
  <path d="M 0.0546875 0 L 49.957031 0 L 49.957031 49 L 0.0546875 49 Z M 0.0546875 0 "/>
</clipPath>
<clipPath id="clip2">
  <path d="M 0.0546875 15 L 49.957031 15 L 49.957031 34 L 0.0546875 34 Z M 0.0546875 15 "/>
</clipPath>
</defs>
<g id="surface1">
<g clip-path="url(#clip1)" clip-rule="nonzero">
<path style=" stroke:none;fill-rule:nonzero;fill:rgb(94.117647%,94.117647%,94.117647%);fill-opacity:1;" d="M 25.007812 49 C 38.789062 49 49.957031 38.03125 49.957031 24.5 C 49.957031 10.96875 38.789062 0 25.007812 0 C 11.226562 0 0.0546875 10.96875 0.0546875 24.5 C 0.0546875 38.03125 11.226562 49 25.007812 49 Z M 25.007812 49 "/>
</g>
<g clip-path="url(#clip2)" clip-rule="nonzero">
<path style=" stroke:none;fill-rule:nonzero;fill:rgb(63.529412%,0%,11.372549%);fill-opacity:1;" d="M 48.40625 15.976562 L 1.609375 15.976562 C 0.605469 18.632812 0.0546875 21.503906 0.0546875 24.5 C 0.0546875 27.496094 0.605469 30.367188 1.609375 33.023438 L 48.40625 33.023438 C 49.410156 30.367188 49.957031 27.496094 49.957031 24.5 C 49.957031 21.503906 49.410156 18.632812 48.40625 15.976562 Z M 48.40625 15.976562 "/>
</g>
<path style=" stroke:none;fill-rule:nonzero;fill:rgb(42.745098%,64.705882%,26.666667%);fill-opacity:1;" d="M 25.078125 49 C 33.625 49 41.167969 44.78125 45.664062 38.347656 L 4.496094 38.347656 C 8.992188 44.78125 16.535156 49 25.078125 49 Z M 25.078125 49 "/>
<path style=" stroke:none;fill-rule:nonzero;fill:rgb(42.745098%,64.705882%,26.666667%);fill-opacity:1;" d="M 25.078125 0 C 33.625 0 41.167969 4.21875 45.664062 10.652344 L 4.496094 10.652344 C 8.992188 4.21875 16.535156 0 25.078125 0 Z M 25.078125 0 "/>
<path style=" stroke:none;fill-rule:nonzero;fill:rgb(100%,85.490196%,26.666667%);fill-opacity:1;" d="M 25.007812 15.976562 L 27.160156 22.488281 L 34.132812 22.488281 L 28.492188 26.511719 L 30.648438 33.023438 L 25.007812 29 L 19.367188 33.023438 L 21.523438 26.511719 L 15.882812 22.488281 L 22.851562 22.488281 Z M 25.007812 15.976562 "/>
</g>
</svg>
