<?xml version="1.0" encoding="UTF-8"?>
<svg xmlns="http://www.w3.org/2000/svg" xmlns:xlink="http://www.w3.org/1999/xlink" width="50px" height="50px" viewBox="0 0 50 49" version="1.1">
<defs>
<clipPath id="clip1">
  <path d="M 0.0546875 12 L 49.957031 12 L 49.957031 37 L 0.0546875 37 Z M 0.0546875 12 "/>
</clipPath>
<clipPath id="clip2">
  <path d="M 0.0546875 17 L 49.957031 17 L 49.957031 32 L 0.0546875 32 Z M 0.0546875 17 "/>
</clipPath>
</defs>
<g id="surface1">
<g clip-path="url(#clip1)" clip-rule="nonzero">
<path style=" stroke:none;fill-rule:nonzero;fill:rgb(100%,85.490196%,26.666667%);fill-opacity:1;" d="M 47.484375 35.152344 C 49.070312 31.929688 49.957031 28.316406 49.957031 24.5 C 49.957031 20.683594 49.070312 17.070312 47.484375 13.847656 L 25.007812 12.78125 L 2.53125 13.847656 C 0.945312 17.070312 0.0546875 20.683594 0.0546875 24.5 C 0.0546875 28.316406 0.945312 31.929688 2.53125 35.152344 L 25.007812 36.21875 Z M 47.484375 35.152344 "/>
</g>
<path style=" stroke:none;fill-rule:nonzero;fill:rgb(0%,0%,0%);fill-opacity:1;" d="M 25.007812 0 C 15.117188 0 6.566406 5.652344 2.53125 13.847656 L 47.484375 13.847656 C 43.445312 5.652344 34.898438 0 25.007812 0 Z M 25.007812 0 "/>
<path style=" stroke:none;fill-rule:nonzero;fill:rgb(0%,32.156863%,70.588235%);fill-opacity:1;" d="M 25.007812 49 C 15.117188 49 6.566406 43.347656 2.53125 35.152344 L 47.484375 35.152344 C 43.445312 43.347656 34.898438 49 25.007812 49 Z M 25.007812 49 "/>
<g clip-path="url(#clip2)" clip-rule="nonzero">
<path style=" stroke:none;fill-rule:nonzero;fill:rgb(63.529412%,0%,11.372549%);fill-opacity:1;" d="M 48.78125 17.042969 L 1.234375 17.042969 C 0.46875 19.394531 0.0546875 21.898438 0.0546875 24.5 C 0.0546875 27.101562 0.46875 29.605469 1.234375 31.957031 L 48.78125 31.957031 C 49.546875 29.605469 49.957031 27.101562 49.957031 24.5 C 49.957031 21.898438 49.546875 19.394531 48.78125 17.042969 Z M 48.78125 17.042969 "/>
</g>
<path style=" stroke:none;fill-rule:nonzero;fill:rgb(100%,85.490196%,26.666667%);fill-opacity:1;" d="M 8.734375 23.433594 L 41.28125 23.433594 L 41.28125 25.566406 L 8.734375 25.566406 Z M 8.734375 23.433594 "/>
<path style=" stroke:none;fill-rule:nonzero;fill:rgb(100%,85.490196%,26.666667%);fill-opacity:1;" d="M 13.074219 19.175781 L 36.941406 19.175781 L 36.941406 21.304688 L 13.074219 21.304688 Z M 13.074219 19.175781 "/>
<path style=" stroke:none;fill-rule:nonzero;fill:rgb(94.117647%,94.117647%,94.117647%);fill-opacity:1;" d="M 37.097656 24.5 C 37.097656 24.5 31.515625 30.890625 25.007812 30.890625 C 18.5 30.890625 18.5 24.5 18.5 24.5 C 18.5 24.5 18.5 18.109375 25.007812 18.109375 C 31.515625 18.109375 37.097656 24.5 37.097656 24.5 Z M 37.097656 24.5 "/>
<path style=" stroke:none;fill-rule:nonzero;fill:rgb(0%,0%,0%);fill-opacity:1;" d="M 25.007812 30.890625 C 18.5 30.890625 12.917969 24.5 12.917969 24.5 C 12.917969 24.5 18.5 18.109375 25.007812 18.109375 "/>
<path style=" stroke:none;fill-rule:nonzero;fill:rgb(94.117647%,94.117647%,94.117647%);fill-opacity:1;" d="M 20.667969 22.371094 L 22.839844 22.371094 L 22.839844 26.628906 L 20.667969 26.628906 Z M 20.667969 22.371094 "/>
<path style=" stroke:none;fill-rule:nonzero;fill:rgb(0%,0%,0%);fill-opacity:1;" d="M 27.175781 22.371094 L 29.347656 22.371094 L 29.347656 26.628906 L 27.175781 26.628906 Z M 27.175781 22.371094 "/>
<path style=" stroke:none;fill-rule:nonzero;fill:rgb(0%,32.156863%,70.588235%);fill-opacity:1;" d="M 8.734375 26.628906 C 9.933594 26.628906 10.90625 25.675781 10.90625 24.5 C 10.90625 23.324219 9.933594 22.371094 8.734375 22.371094 C 7.535156 22.371094 6.566406 23.324219 6.566406 24.5 C 6.566406 25.675781 7.535156 26.628906 8.734375 26.628906 Z M 8.734375 26.628906 "/>
<path style=" stroke:none;fill-rule:nonzero;fill:rgb(0%,32.156863%,70.588235%);fill-opacity:1;" d="M 41.28125 26.628906 C 42.480469 26.628906 43.449219 25.675781 43.449219 24.5 C 43.449219 23.324219 42.480469 22.371094 41.28125 22.371094 C 40.082031 22.371094 39.109375 23.324219 39.109375 24.5 C 39.109375 25.675781 40.082031 26.628906 41.28125 26.628906 Z M 41.28125 26.628906 "/>
</g>
</svg>
