<?xml version="1.0" encoding="UTF-8"?>
<svg xmlns="http://www.w3.org/2000/svg" xmlns:xlink="http://www.w3.org/1999/xlink" width="50px" height="50px" viewBox="0 0 50 49" version="1.1">
<defs>
<clipPath id="clip1">
  <path d="M 0.0546875 0 L 49.957031 0 L 49.957031 49 L 0.0546875 49 Z M 0.0546875 0 "/>
</clipPath>
</defs>
<g id="surface1">
<g clip-path="url(#clip1)" clip-rule="nonzero">
<path style=" stroke:none;fill-rule:nonzero;fill:rgb(94.117647%,94.117647%,94.117647%);fill-opacity:1;" d="M 25.007812 49 C 38.789062 49 49.957031 38.03125 49.957031 24.5 C 49.957031 10.96875 38.789062 0 25.007812 0 C 11.226562 0 0.0546875 10.96875 0.0546875 24.5 C 0.0546875 38.03125 11.226562 49 25.007812 49 Z M 25.007812 49 "/>
</g>
<path style=" stroke:none;fill-rule:nonzero;fill:rgb(84.705882%,0%,15.294118%);fill-opacity:1;" d="M 25.007812 0 C 14.28125 0 5.132812 6.648438 1.609375 15.976562 L 48.40625 15.976562 C 44.882812 6.648438 35.734375 0 25.007812 0 Z M 25.007812 0 "/>
<path style=" stroke:none;fill-rule:nonzero;fill:rgb(0%,0%,0%);fill-opacity:1;" d="M 25.007812 49 C 35.734375 49 44.882812 42.351562 48.40625 33.023438 L 1.609375 33.023438 C 5.132812 42.351562 14.28125 49 25.007812 49 Z M 25.007812 49 "/>
<path style=" stroke:none;fill-rule:nonzero;fill:rgb(42.745098%,64.705882%,26.666667%);fill-opacity:1;" d="M 14.964844 18.640625 L 16.3125 22.710938 L 20.667969 22.710938 L 17.144531 25.226562 L 18.488281 29.292969 L 14.964844 26.777344 L 11.441406 29.292969 L 12.785156 25.226562 L 9.261719 22.710938 L 13.617188 22.710938 Z M 14.964844 18.640625 "/>
<path style=" stroke:none;fill-rule:nonzero;fill:rgb(42.745098%,64.705882%,26.666667%);fill-opacity:1;" d="M 35.050781 18.640625 L 36.398438 22.710938 L 40.753906 22.710938 L 37.230469 25.226562 L 38.574219 29.292969 L 35.050781 26.777344 L 31.527344 29.292969 L 32.871094 25.226562 L 29.347656 22.710938 L 33.703125 22.710938 Z M 35.050781 18.640625 "/>
</g>
</svg>
