<?xml version="1.0" encoding="UTF-8"?>
<svg xmlns="http://www.w3.org/2000/svg" xmlns:xlink="http://www.w3.org/1999/xlink" width="50px" height="50px" viewBox="0 0 50 50" version="1.1">
<g id="surface1">
<path style=" stroke:none;fill-rule:nonzero;fill:rgb(84.705882%,0%,15.294118%);fill-opacity:1;" d="M 50 25 C 50 38.808594 38.808594 50 25 50 C 11.191406 50 0 38.808594 0 25 C 8.585938 16.414062 15.871094 9.128906 25 0 C 38.808594 0 50 11.191406 50 25 Z M 50 25 "/>
<path style=" stroke:none;fill-rule:nonzero;fill:rgb(0%,32.156863%,70.588235%);fill-opacity:1;" d="M 25 25 C 25 11.191406 25 9.566406 25 0 C 11.191406 0 0 11.191406 0 25 Z M 25 25 "/>
<path style=" stroke:none;fill-rule:nonzero;fill:rgb(94.117647%,94.117647%,94.117647%);fill-opacity:1;" d="M 21.738281 14.632812 L 18.6875 16.066406 L 20.3125 19.023438 L 16.996094 18.390625 L 16.574219 21.738281 L 14.265625 19.277344 L 11.957031 21.738281 L 11.539062 18.390625 L 8.222656 19.023438 L 9.847656 16.066406 L 6.792969 14.632812 L 9.847656 13.195312 L 8.222656 10.238281 L 11.539062 10.871094 L 11.957031 7.523438 L 14.265625 9.984375 L 16.578125 7.523438 L 16.996094 10.871094 L 20.3125 10.238281 L 18.6875 13.195312 Z M 21.738281 14.632812 "/>
<path style=" stroke:none;fill-rule:nonzero;fill:rgb(0%,32.156863%,70.588235%);fill-opacity:1;" d="M 14.265625 19.285156 C 16.835938 19.285156 18.921875 17.199219 18.921875 14.628906 C 18.921875 12.058594 16.835938 9.976562 14.265625 9.976562 C 11.695312 9.976562 9.613281 12.058594 9.613281 14.628906 C 9.613281 17.199219 11.695312 19.285156 14.265625 19.285156 Z M 14.265625 19.285156 "/>
<path style=" stroke:none;fill-rule:nonzero;fill:rgb(94.117647%,94.117647%,94.117647%);fill-opacity:1;" d="M 14.265625 17.109375 C 12.898438 17.109375 11.789062 16 11.789062 14.632812 C 11.789062 13.261719 12.898438 12.152344 14.265625 12.152344 C 15.632812 12.152344 16.746094 13.261719 16.746094 14.632812 C 16.746094 16 15.632812 17.109375 14.265625 17.109375 Z M 14.265625 17.109375 "/>
</g>
</svg>
