<?xml version="1.0" encoding="UTF-8"?>
<svg xmlns="http://www.w3.org/2000/svg" xmlns:xlink="http://www.w3.org/1999/xlink" width="50px" height="50px" viewBox="0 0 50 50" version="1.1">
<defs>
<clipPath id="clip1">
  <path d="M 2 35 L 48 35 L 48 49.960938 L 2 49.960938 Z M 2 35 "/>
</clipPath>
<clipPath id="clip2">
  <path d="M 2 0.0546875 L 48 0.0546875 L 48 15 L 2 15 Z M 2 0.0546875 "/>
</clipPath>
</defs>
<g id="surface1">
<path style=" stroke:none;fill-rule:nonzero;fill:rgb(94.117647%,94.117647%,94.117647%);fill-opacity:1;" d="M 2.480469 14.160156 C 0.890625 17.441406 0 21.121094 0 25.007812 C 0 28.894531 0.890625 32.574219 2.480469 35.855469 L 25 38.027344 L 47.519531 35.855469 C 49.109375 32.574219 50 28.894531 50 25.007812 C 50 21.121094 49.109375 17.441406 47.519531 14.160156 L 25 11.988281 Z M 2.480469 14.160156 "/>
<g clip-path="url(#clip1)" clip-rule="nonzero">
<path style=" stroke:none;fill-rule:nonzero;fill:rgb(42.745098%,64.705882%,26.666667%);fill-opacity:1;" d="M 2.480469 35.855469 C 6.523438 44.203125 15.089844 49.960938 25 49.960938 C 34.910156 49.960938 43.476562 44.203125 47.519531 35.855469 Z M 2.480469 35.855469 "/>
</g>
<g clip-path="url(#clip2)" clip-rule="nonzero">
<path style=" stroke:none;fill-rule:nonzero;fill:rgb(84.705882%,0%,15.294118%);fill-opacity:1;" d="M 2.480469 14.160156 L 47.519531 14.160156 C 43.476562 5.8125 34.910156 0.0546875 25 0.0546875 C 15.089844 0.0546875 6.523438 5.8125 2.480469 14.160156 Z M 2.480469 14.160156 "/>
</g>
<path style=" stroke:none;fill-rule:nonzero;fill:rgb(100%,85.490196%,26.666667%);fill-opacity:1;" d="M 20.652344 31.515625 L 29.347656 31.515625 L 29.347656 27.828125 L 27.609375 28.695312 L 25 26.09375 L 22.390625 28.695312 L 20.652344 27.828125 Z M 20.652344 31.515625 "/>
<path style=" stroke:none;fill-rule:nonzero;fill:rgb(100%,85.490196%,26.666667%);fill-opacity:1;" d="M 15.675781 27.175781 L 16.082031 28.421875 L 17.390625 28.421875 L 16.332031 29.1875 L 16.738281 30.433594 L 15.675781 29.664062 L 14.617188 30.433594 L 15.023438 29.1875 L 13.960938 28.421875 L 15.273438 28.421875 Z M 15.675781 27.175781 "/>
<path style=" stroke:none;fill-rule:nonzero;fill:rgb(100%,85.490196%,26.666667%);fill-opacity:1;" d="M 16.933594 22.839844 L 17.335938 24.082031 L 18.644531 24.082031 L 17.585938 24.851562 L 17.992188 26.09375 L 16.933594 25.324219 L 15.871094 26.09375 L 16.277344 24.851562 L 15.21875 24.082031 L 16.527344 24.082031 Z M 16.933594 22.839844 "/>
<path style=" stroke:none;fill-rule:nonzero;fill:rgb(100%,85.490196%,26.666667%);fill-opacity:1;" d="M 20.519531 19.582031 L 20.921875 20.828125 L 22.234375 20.828125 L 21.171875 21.59375 L 21.578125 22.839844 L 20.519531 22.070312 L 19.460938 22.839844 L 19.863281 21.59375 L 18.804688 20.828125 L 20.113281 20.828125 Z M 20.519531 19.582031 "/>
<path style=" stroke:none;fill-rule:nonzero;fill:rgb(100%,85.490196%,26.666667%);fill-opacity:1;" d="M 34.324219 27.175781 L 33.917969 28.421875 L 32.609375 28.421875 L 33.667969 29.1875 L 33.261719 30.433594 L 34.324219 29.664062 L 35.382812 30.433594 L 34.976562 29.1875 L 36.039062 28.421875 L 34.726562 28.421875 Z M 34.324219 27.175781 "/>
<path style=" stroke:none;fill-rule:nonzero;fill:rgb(100%,85.490196%,26.666667%);fill-opacity:1;" d="M 33.066406 22.839844 L 32.664062 24.082031 L 31.355469 24.082031 L 32.414062 24.851562 L 32.007812 26.09375 L 33.066406 25.324219 L 34.128906 26.09375 L 33.722656 24.851562 L 34.78125 24.082031 L 33.472656 24.082031 Z M 33.066406 22.839844 "/>
<path style=" stroke:none;fill-rule:nonzero;fill:rgb(100%,85.490196%,26.666667%);fill-opacity:1;" d="M 29.480469 19.582031 L 29.078125 20.828125 L 27.765625 20.828125 L 28.828125 21.59375 L 28.421875 22.839844 L 29.480469 22.070312 L 30.539062 22.839844 L 30.136719 21.59375 L 31.195312 20.828125 L 29.886719 20.828125 Z M 29.480469 19.582031 "/>
<path style=" stroke:none;fill-rule:nonzero;fill:rgb(100%,85.490196%,26.666667%);fill-opacity:1;" d="M 25 17.957031 L 25.40625 19.199219 L 26.714844 19.199219 L 25.65625 19.96875 L 26.058594 21.210938 L 25 20.441406 L 23.941406 21.210938 L 24.34375 19.96875 L 23.285156 19.199219 L 24.59375 19.199219 Z M 25 17.957031 "/>
</g>
</svg>
