<?xml version="1.0" encoding="UTF-8"?>
<svg xmlns="http://www.w3.org/2000/svg" xmlns:xlink="http://www.w3.org/1999/xlink" width="50px" height="50px" viewBox="0 0 50 50" version="1.1">
<g id="surface1">
<path style=" stroke:none;fill-rule:nonzero;fill:rgb(100%,85.490196%,26.666667%);fill-opacity:1;" d="M 25 50 C 38.808594 50 50 38.808594 50 25 C 50 11.191406 38.808594 0 25 0 C 11.191406 0 0 11.191406 0 25 C 0 38.808594 11.191406 50 25 50 Z M 25 50 "/>
<path style=" stroke:none;fill-rule:nonzero;fill:rgb(0%,0%,0%);fill-opacity:1;" d="M 7.320312 42.679688 C 8.371094 43.726562 9.488281 44.660156 10.664062 45.484375 L 45.484375 10.664062 C 44.660156 9.488281 43.726562 8.371094 42.675781 7.324219 C 41.628906 6.273438 40.511719 5.339844 39.335938 4.515625 L 4.515625 39.335938 C 5.339844 40.511719 6.273438 41.628906 7.320312 42.679688 Z M 7.320312 42.679688 "/>
<path style=" stroke:none;fill-rule:nonzero;fill:rgb(42.745098%,64.705882%,26.666667%);fill-opacity:1;" d="M 7.324219 7.324219 C -0.566406 15.210938 -2.078125 27.054688 2.777344 36.460938 L 36.460938 2.777344 C 27.054688 -2.078125 15.210938 -0.5625 7.324219 7.324219 Z M 7.324219 7.324219 "/>
<path style=" stroke:none;fill-rule:nonzero;fill:rgb(20%,54.117647%,95.294118%);fill-opacity:1;" d="M 42.675781 42.679688 C 50.566406 34.789062 52.078125 22.945312 47.222656 13.539062 L 13.539062 47.222656 C 22.945312 52.078125 34.789062 50.566406 42.675781 42.679688 Z M 42.675781 42.679688 "/>
</g>
</svg>
