<?xml version="1.0" encoding="UTF-8"?>
<svg xmlns="http://www.w3.org/2000/svg" xmlns:xlink="http://www.w3.org/1999/xlink" width="50px" height="50px" viewBox="0 0 50 50" version="1.1">
<g id="surface1">
<path style=" stroke:none;fill-rule:nonzero;fill:rgb(94.117647%,94.117647%,94.117647%);fill-opacity:1;" d="M 25 50 C 38.808594 50 50 38.808594 50 25 C 50 11.191406 38.808594 0 25 0 C 11.191406 0 0 11.191406 0 25 C 0 38.808594 11.191406 50 25 50 Z M 25 50 "/>
<path style=" stroke:none;fill-rule:nonzero;fill:rgb(100%,85.490196%,26.666667%);fill-opacity:1;" d="M 10.910156 4.347656 C 14.921875 1.605469 19.773438 0 25 0 C 30.226562 0 35.078125 1.605469 39.089844 4.347656 L 25 5.433594 Z M 10.910156 4.347656 "/>
<path style=" stroke:none;fill-rule:nonzero;fill:rgb(84.705882%,0%,15.294118%);fill-opacity:1;" d="M 7.324219 42.675781 L 18.851562 31.148438 L 25 20.652344 L 31.148438 31.148438 L 42.675781 42.675781 C 47.199219 38.152344 50 31.902344 50 25 C 50 16.417969 45.675781 8.851562 39.089844 4.347656 L 10.910156 4.347656 C 4.324219 8.851562 0 16.417969 0 25 C 0 31.902344 2.800781 38.152344 7.324219 42.675781 Z M 7.324219 42.675781 "/>
<path style=" stroke:none;fill-rule:nonzero;fill:rgb(0%,32.156863%,70.588235%);fill-opacity:1;" d="M 48.101562 34.574219 L 29.824219 27 L 31.148438 31.148438 L 42.675781 42.675781 C 44.976562 40.375 46.832031 37.625 48.101562 34.574219 Z M 48.101562 34.574219 "/>
<path style=" stroke:none;fill-rule:nonzero;fill:rgb(0%,32.156863%,70.588235%);fill-opacity:1;" d="M 50 25 C 50 21.609375 49.324219 18.375 48.101562 15.425781 L 25 25 Z M 50 25 "/>
<path style=" stroke:none;fill-rule:nonzero;fill:rgb(0%,32.156863%,70.588235%);fill-opacity:1;" d="M 42.675781 7.324219 C 41.578125 6.226562 40.378906 5.226562 39.089844 4.347656 L 33.558594 4.347656 L 25 25 Z M 42.675781 7.324219 "/>
<path style=" stroke:none;fill-rule:nonzero;fill:rgb(0%,32.156863%,70.588235%);fill-opacity:1;" d="M 25 4.347656 L 16.441406 4.347656 L 25 25 Z M 25 4.347656 "/>
<path style=" stroke:none;fill-rule:nonzero;fill:rgb(0%,32.156863%,70.588235%);fill-opacity:1;" d="M 7.324219 7.324219 C 5.023438 9.625 3.167969 12.375 1.898438 15.425781 L 25 25 Z M 7.324219 7.324219 "/>
<path style=" stroke:none;fill-rule:nonzero;fill:rgb(0%,32.156863%,70.588235%);fill-opacity:1;" d="M 0 25 C 0 28.390625 0.675781 31.625 1.898438 34.574219 L 25 25 Z M 0 25 "/>
<path style=" stroke:none;fill-rule:nonzero;fill:rgb(100%,85.490196%,26.666667%);fill-opacity:1;" d="M 10.910156 45.652344 C 14.921875 48.394531 19.773438 50 25 50 C 30.226562 50 35.078125 48.394531 39.089844 45.652344 Z M 10.910156 45.652344 "/>
<path style=" stroke:none;fill-rule:nonzero;fill:rgb(100%,85.490196%,26.666667%);fill-opacity:1;" d="M 25 25 L 31.148438 31.148438 C 32.722656 29.574219 33.695312 27.402344 33.695312 25 C 33.695312 20.199219 29.800781 16.304688 25 16.304688 C 20.199219 16.304688 16.304688 20.199219 16.304688 25 C 16.304688 27.402344 17.277344 29.574219 18.851562 31.148438 Z M 25 25 "/>
<path style=" stroke:none;fill-rule:nonzero;fill:rgb(100%,85.490196%,26.666667%);fill-opacity:1;" d="M 28.804688 37.5 C 28.804688 39.601562 27.101562 40.21875 25 40.21875 C 22.898438 40.21875 21.195312 39.601562 21.195312 37.5 C 21.195312 35.398438 22.898438 33.695312 25 33.695312 C 27.101562 33.695312 28.804688 35.398438 28.804688 37.5 Z M 28.804688 37.5 "/>
<path style=" stroke:none;fill-rule:nonzero;fill:rgb(0%,32.156863%,70.588235%);fill-opacity:1;" d="M 28.804688 37.5 C 28.804688 39.601562 27.101562 41.304688 25 41.304688 C 22.898438 41.304688 21.195312 39.601562 21.195312 37.5 "/>
</g>
</svg>
