<?xml version="1.0" encoding="UTF-8"?>
<svg xmlns="http://www.w3.org/2000/svg" xmlns:xlink="http://www.w3.org/1999/xlink" width="50px" height="50px" viewBox="0 0 50 50" version="1.1">
<g id="surface1">
<path style=" stroke:none;fill-rule:nonzero;fill:rgb(100%,85.490196%,26.666667%);fill-opacity:1;" d="M 25 50 C 38.808594 50 50 38.808594 50 25 C 50 11.191406 38.808594 0 25 0 C 11.191406 0 0 11.191406 0 25 C 0 38.808594 11.191406 50 25 50 Z M 25 50 "/>
<path style=" stroke:none;fill-rule:nonzero;fill:rgb(28.627451%,43.137255%,17.647059%);fill-opacity:1;" d="M 25 0 C 24.980469 0 23.914062 10 23.914062 10 L 45 10 C 40.441406 3.929688 33.179688 0 25 0 Z M 25 0 "/>
<path style=" stroke:none;fill-rule:nonzero;fill:rgb(28.627451%,43.137255%,17.647059%);fill-opacity:1;" d="M 25 50 C 33.179688 50 40.441406 46.070312 45 40 L 5 40 C 9.558594 46.070312 16.820312 50 25 50 Z M 25 50 "/>
<path style=" stroke:none;fill-rule:nonzero;fill:rgb(28.627451%,43.137255%,17.647059%);fill-opacity:1;" d="M 49.5 20 L 23.914062 20 L 25 30 L 49.5 30 C 49.828125 28.382812 50 26.710938 50 25 C 50 23.289062 49.828125 21.617188 49.5 20 Z M 49.5 20 "/>
<path style=" stroke:none;fill-rule:nonzero;fill:rgb(84.705882%,0%,15.294118%);fill-opacity:1;" d="M 25 30 C 25 24.78125 25 5.871094 25 0 C 11.191406 0 0 11.191406 0 25 C 0 26.710938 0.171875 28.382812 0.5 30 Z M 25 30 "/>
<path style=" stroke:none;fill-rule:nonzero;fill:rgb(94.117647%,94.117647%,94.117647%);fill-opacity:1;" d="M 13.792969 11.957031 L 15.414062 16.9375 L 20.652344 16.9375 L 16.414062 20.019531 L 18.03125 25 L 13.792969 21.921875 L 9.554688 25 L 11.175781 20.019531 L 6.9375 16.9375 L 12.175781 16.9375 Z M 13.792969 11.957031 "/>
</g>
</svg>
