<?xml version="1.0" encoding="UTF-8"?>
<svg xmlns="http://www.w3.org/2000/svg" xmlns:xlink="http://www.w3.org/1999/xlink" width="50px" height="50px" viewBox="0 0 50 50" version="1.1">
<g id="surface1">
<path style=" stroke:none;fill-rule:nonzero;fill:rgb(100%,85.490196%,26.666667%);fill-opacity:1;" d="M 25 50 C 38.808594 50 50 38.808594 50 25 C 50 11.191406 38.808594 0 25 0 C 11.191406 0 0 11.191406 0 25 C 0 38.808594 11.191406 50 25 50 Z M 25 50 "/>
<path style=" stroke:none;fill-rule:nonzero;fill:rgb(0%,32.156863%,70.588235%);fill-opacity:1;" d="M 40.21875 11.957031 C 39.992188 13.035156 39.890625 14.183594 39.890625 15.324219 C 39.890625 21.921875 43.824219 27.628906 49.457031 30.199219 C 49.8125 28.523438 50 26.78125 50 25 C 50 11.191406 38.808594 0 25 0 C 11.191406 0 0 11.191406 0 25 C 0 38.808594 11.191406 50 25 50 C 33.5625 50 41.117188 45.695312 45.625 39.128906 L 14.128906 39.128906 L 14.128906 35.871094 L 47.519531 35.871094 C 47.859375 35.164062 48.167969 34.4375 48.445312 33.695312 L 14.128906 33.695312 Z M 40.21875 11.957031 "/>
<path style=" stroke:none;fill-rule:nonzero;fill:rgb(94.117647%,94.117647%,94.117647%);fill-opacity:1;" d="M 18.367188 13.042969 L 18.90625 14.703125 L 20.652344 14.703125 L 19.238281 15.730469 L 19.777344 17.390625 L 18.367188 16.363281 L 16.953125 17.390625 L 17.492188 15.730469 L 16.082031 14.703125 L 17.828125 14.703125 Z M 18.367188 13.042969 "/>
<path style=" stroke:none;fill-rule:nonzero;fill:rgb(94.117647%,94.117647%,94.117647%);fill-opacity:1;" d="M 11.273438 25 L 11.949219 27.074219 L 14.128906 27.074219 L 12.363281 28.359375 L 13.039062 30.433594 L 11.273438 29.152344 L 9.507812 30.433594 L 10.183594 28.359375 L 8.417969 27.074219 L 10.597656 27.074219 Z M 11.273438 25 "/>
<path style=" stroke:none;fill-rule:nonzero;fill:rgb(94.117647%,94.117647%,94.117647%);fill-opacity:1;" d="M 11.273438 7.609375 L 11.949219 9.683594 L 14.128906 9.683594 L 12.363281 10.96875 L 13.039062 13.042969 L 11.273438 11.761719 L 9.507812 13.042969 L 10.183594 10.96875 L 8.417969 9.683594 L 10.597656 9.683594 Z M 11.273438 7.609375 "/>
<path style=" stroke:none;fill-rule:nonzero;fill:rgb(94.117647%,94.117647%,94.117647%);fill-opacity:1;" d="M 5.839844 17.390625 L 6.511719 19.46875 L 8.695312 19.46875 L 6.929688 20.75 L 7.605469 22.824219 L 5.839844 21.542969 L 4.074219 22.824219 L 4.746094 20.75 L 2.980469 19.46875 L 5.164062 19.46875 Z M 5.839844 17.390625 "/>
</g>
</svg>
