<?xml version="1.0" encoding="UTF-8"?>
<svg xmlns="http://www.w3.org/2000/svg" xmlns:xlink="http://www.w3.org/1999/xlink" width="50px" height="50px" viewBox="0 0 50 50" version="1.1">
<g id="surface1">
<path style=" stroke:none;fill-rule:nonzero;fill:rgb(63.529412%,0%,11.372549%);fill-opacity:1;" d="M 49.140625 18.476562 C 46.269531 7.835938 36.550781 0 25 0 C 13.449219 0 3.730469 7.835938 0.859375 18.476562 L 25 19.566406 Z M 49.140625 18.476562 "/>
<path style=" stroke:none;fill-rule:nonzero;fill:rgb(63.529412%,0%,11.372549%);fill-opacity:1;" d="M 0.859375 31.523438 C 3.730469 42.164062 13.449219 50 25 50 C 36.550781 50 46.269531 42.164062 49.140625 31.523438 L 25 30.433594 Z M 0.859375 31.523438 "/>
<path style=" stroke:none;fill-rule:nonzero;fill:rgb(42.745098%,64.705882%,26.666667%);fill-opacity:1;" d="M 49.140625 18.476562 L 0.859375 18.476562 C 0.300781 20.558594 0 22.742188 0 25 C 0 27.257812 0.300781 29.441406 0.859375 31.523438 L 49.140625 31.523438 C 49.699219 29.441406 50 27.257812 50 25 C 50 22.742188 49.699219 20.558594 49.140625 18.476562 Z M 49.140625 18.476562 "/>
</g>
</svg>
