<?xml version="1.0" encoding="UTF-8"?>
<svg xmlns="http://www.w3.org/2000/svg" xmlns:xlink="http://www.w3.org/1999/xlink" width="50px" height="50px" viewBox="0 0 50 50" version="1.1">
<g id="surface1">
<path style=" stroke:none;fill-rule:nonzero;fill:rgb(94.117647%,94.117647%,94.117647%);fill-opacity:1;" d="M 13.535156 2.777344 C 11.296875 3.929688 9.199219 5.445312 7.320312 7.320312 C 5.445312 9.199219 3.929688 11.296875 2.777344 13.535156 L 18.851562 31.148438 L 36.464844 47.222656 C 38.703125 46.070312 40.800781 44.554688 42.679688 42.679688 C 44.554688 40.800781 46.070312 38.703125 47.222656 36.464844 L 31.148438 18.851562 Z M 13.535156 2.777344 "/>
<path style=" stroke:none;fill-rule:nonzero;fill:rgb(0%,0%,0%);fill-opacity:1;" d="M 42.679688 42.679688 C 43.726562 41.628906 44.664062 40.511719 45.484375 39.335938 L 10.664062 4.515625 C 9.488281 5.335938 8.371094 6.273438 7.320312 7.320312 C 6.273438 8.371094 5.335938 9.488281 4.515625 10.664062 L 39.335938 45.484375 C 40.511719 44.664062 41.628906 43.726562 42.679688 42.679688 Z M 42.679688 42.679688 "/>
<path style=" stroke:none;fill-rule:nonzero;fill:rgb(84.705882%,0%,15.294118%);fill-opacity:1;" d="M 7.320312 42.679688 C 15.207031 50.566406 27.054688 52.078125 36.464844 47.222656 L 2.777344 13.535156 C -2.078125 22.945312 -0.566406 34.789062 7.320312 42.679688 Z M 7.320312 42.679688 "/>
<path style=" stroke:none;fill-rule:nonzero;fill:rgb(84.705882%,0%,15.294118%);fill-opacity:1;" d="M 42.679688 7.320312 C 34.789062 -0.566406 22.945312 -2.078125 13.535156 2.777344 L 47.222656 36.464844 C 52.078125 27.054688 50.566406 15.207031 42.679688 7.320312 Z M 42.679688 7.320312 "/>
</g>
</svg>
