<?xml version="1.0" encoding="UTF-8"?>
<svg xmlns="http://www.w3.org/2000/svg" xmlns:xlink="http://www.w3.org/1999/xlink" width="50px" height="50px" viewBox="0 0 50 50" version="1.1">
<g id="surface1">
<path style=" stroke:none;fill-rule:nonzero;fill:rgb(84.705882%,0%,15.294118%);fill-opacity:1;" d="M 25 50 C 38.808594 50 50 38.808594 50 25 C 50 11.191406 38.808594 0 25 0 C 11.191406 0 0 11.191406 0 25 C 0 38.808594 11.191406 50 25 50 Z M 25 50 "/>
<path style=" stroke:none;fill-rule:nonzero;fill:rgb(94.117647%,94.117647%,94.117647%);fill-opacity:1;" d="M 25 36.957031 C 31.601562 36.957031 36.957031 31.601562 36.957031 25 C 36.957031 18.398438 31.601562 13.042969 25 13.042969 C 18.398438 13.042969 13.042969 18.398438 13.042969 25 C 13.042969 31.601562 18.398438 36.957031 25 36.957031 Z M 25 36.957031 "/>
<path style=" stroke:none;fill-rule:nonzero;fill:rgb(84.705882%,0%,15.294118%);fill-opacity:1;" d="M 26.472656 20.429688 L 28.523438 23.253906 L 31.847656 22.179688 L 29.792969 25 L 31.84375 27.828125 L 28.523438 26.746094 L 26.46875 29.570312 L 26.46875 26.078125 L 23.148438 24.996094 L 26.472656 23.921875 Z M 26.472656 20.429688 "/>
<path style=" stroke:none;fill-rule:nonzero;fill:rgb(84.705882%,0%,15.294118%);fill-opacity:1;" d="M 27.71875 32.066406 C 23.816406 32.066406 20.652344 28.902344 20.652344 25 C 20.652344 21.097656 23.816406 17.933594 27.71875 17.933594 C 28.933594 17.933594 30.078125 18.242188 31.078125 18.785156 C 29.511719 17.25 27.367188 16.304688 25 16.304688 C 20.199219 16.304688 16.304688 20.199219 16.304688 25 C 16.304688 29.800781 20.199219 33.695312 25 33.695312 C 27.367188 33.695312 29.511719 32.75 31.078125 31.214844 C 30.078125 31.757812 28.933594 32.066406 27.71875 32.066406 Z M 27.71875 32.066406 "/>
</g>
</svg>
