<?xml version="1.0" encoding="UTF-8"?>
<svg xmlns="http://www.w3.org/2000/svg" xmlns:xlink="http://www.w3.org/1999/xlink" width="50px" height="50px" viewBox="0 0 50 50" version="1.1">
<g id="surface1">
<path style=" stroke:none;fill-rule:nonzero;fill:rgb(0%,32.156863%,70.588235%);fill-opacity:1;" d="M 50 25 C 50 38.808594 38.808594 50 25 50 C 11.191406 50 0 38.808594 0 25 C 0 25.007812 25 0.00390625 25 0 C 38.808594 0 50 11.191406 50 25 Z M 50 25 "/>
<path style=" stroke:none;fill-rule:nonzero;fill:rgb(94.117647%,94.117647%,94.117647%);fill-opacity:1;" d="M 24.933594 25 L 25 25 C 25 24.976562 25 24.957031 25 24.933594 C 24.976562 24.957031 24.957031 24.976562 24.933594 25 Z M 24.933594 25 "/>
<path style=" stroke:none;fill-rule:nonzero;fill:rgb(94.117647%,94.117647%,94.117647%);fill-opacity:1;" d="M 25 13.042969 C 25 8.644531 25 5.761719 25 0 L 24.996094 0 C 11.191406 0.00390625 0 11.195312 0 25 L 13.042969 25 L 13.042969 17.65625 L 20.386719 25 L 24.933594 25 C 24.957031 24.976562 24.976562 24.957031 25 24.933594 C 25 23.25 25 21.746094 25 20.386719 L 17.65625 13.042969 Z M 25 13.042969 "/>
<path style=" stroke:none;fill-rule:nonzero;fill:rgb(84.705882%,0%,15.294118%);fill-opacity:1;" d="M 12.648438 3.261719 C 8.738281 5.488281 5.488281 8.738281 3.261719 12.648438 L 3.261719 25 L 9.78125 25 L 9.78125 9.78125 L 25 9.78125 C 25 7.726562 25 5.765625 25 3.261719 Z M 12.648438 3.261719 "/>
<path style=" stroke:none;fill-rule:nonzero;fill:rgb(84.705882%,0%,15.294118%);fill-opacity:1;" d="M 25 21.925781 L 16.117188 13.042969 L 13.042969 13.042969 L 25 25 C 25 25 25 22.878906 25 21.925781 Z M 25 21.925781 "/>
<path style=" stroke:none;fill-rule:nonzero;fill:rgb(100%,85.490196%,26.666667%);fill-opacity:1;" d="M 28.261719 13.042969 L 28.261719 25 C 28.261719 30.824219 35.871094 32.609375 35.871094 32.609375 C 35.871094 32.609375 43.476562 30.824219 43.476562 25 L 43.476562 13.042969 Z M 28.261719 13.042969 "/>
<path style=" stroke:none;fill-rule:nonzero;fill:rgb(100%,59.607843%,6.666667%);fill-opacity:1;" d="M 34.78125 17.390625 C 34.78125 18.59375 33.808594 21.738281 32.609375 21.738281 C 31.40625 21.738281 30.433594 18.59375 30.433594 17.390625 C 30.433594 16.191406 32.609375 15.21875 32.609375 15.21875 C 32.609375 15.21875 34.78125 16.191406 34.78125 17.390625 Z M 34.78125 17.390625 "/>
<path style=" stroke:none;fill-rule:nonzero;fill:rgb(63.529412%,0%,11.372549%);fill-opacity:1;" d="M 40.550781 19.757812 C 40.902344 18.902344 41.175781 17.652344 41.175781 17.027344 C 41.175781 16.027344 39.871094 15.21875 39.871094 15.21875 C 39.871094 15.21875 38.566406 16.027344 38.566406 17.027344 C 38.566406 17.652344 38.839844 18.902344 39.191406 19.757812 L 38.4375 21.460938 C 38.878906 21.640625 39.363281 21.738281 39.871094 21.738281 C 40.378906 21.738281 40.863281 21.640625 41.304688 21.460938 Z M 40.550781 19.757812 "/>
<path style=" stroke:none;fill-rule:nonzero;fill:rgb(42.745098%,64.705882%,26.666667%);fill-opacity:1;" d="M 34.238281 25 C 34.238281 25 33.152344 27.175781 33.152344 29.347656 L 38.585938 29.347656 C 38.585938 27.175781 37.5 25 37.5 25 L 35.871094 23.914062 Z M 34.238281 25 "/>
<path style=" stroke:none;fill-rule:nonzero;fill:rgb(84.705882%,0%,15.294118%);fill-opacity:1;" d="M 37.5 25 L 37.5 24.457031 C 37.5 23.554688 36.769531 22.824219 35.871094 22.824219 C 34.96875 22.824219 34.238281 23.554688 34.238281 24.457031 L 34.238281 25 Z M 37.5 25 "/>
</g>
</svg>
