<?xml version="1.0" encoding="UTF-8"?>
<svg xmlns="http://www.w3.org/2000/svg" xmlns:xlink="http://www.w3.org/1999/xlink" width="50px" height="50px" viewBox="0 0 50 50" version="1.1">
<g id="surface1">
<path style=" stroke:none;fill-rule:nonzero;fill:rgb(28.627451%,43.137255%,17.647059%);fill-opacity:1;" d="M 25 0 C 23.132812 0 21.316406 0.207031 19.566406 0.59375 L 18.476562 25 L 19.566406 49.40625 C 21.316406 49.792969 23.132812 50 25 50 C 38.808594 50 50 38.808594 50 25 C 50 11.191406 38.808594 0 25 0 Z M 25 0 "/>
<path style=" stroke:none;fill-rule:nonzero;fill:rgb(28.627451%,43.137255%,17.647059%);fill-opacity:1;" d="M 6.523438 8.160156 C 2.46875 12.605469 0 18.511719 0 25 C 0 31.488281 2.46875 37.394531 6.523438 41.839844 L 7.609375 25 Z M 6.523438 8.160156 "/>
<path style=" stroke:none;fill-rule:nonzero;fill:rgb(94.117647%,94.117647%,94.117647%);fill-opacity:1;" d="M 36.566406 18.855469 C 37.792969 15.429688 36.414062 11.699219 33.445312 9.84375 C 33.980469 9.914062 34.515625 10.039062 35.042969 10.226562 C 38.996094 11.648438 41.054688 16.003906 39.632812 19.957031 C 38.214844 23.914062 33.859375 25.96875 29.902344 24.550781 C 29.375 24.363281 28.882812 24.117188 28.429688 23.832031 C 31.898438 24.285156 35.335938 22.285156 36.566406 18.855469 Z M 36.566406 18.855469 "/>
<path style=" stroke:none;fill-rule:nonzero;fill:rgb(94.117647%,94.117647%,94.117647%);fill-opacity:1;" d="M 29.742188 8.902344 L 28.671875 10.285156 L 27.03125 9.695312 L 28.011719 11.136719 L 26.945312 12.519531 L 28.621094 12.03125 L 29.605469 13.472656 L 29.65625 11.726562 L 31.332031 11.238281 L 29.691406 10.648438 Z M 29.742188 8.902344 "/>
<path style=" stroke:none;fill-rule:nonzero;fill:rgb(94.117647%,94.117647%,94.117647%);fill-opacity:1;" d="M 32.628906 13.402344 L 31.558594 14.785156 L 29.917969 14.195312 L 30.898438 15.636719 L 29.832031 17.019531 L 31.507812 16.53125 L 32.488281 17.972656 L 32.542969 16.226562 L 34.21875 15.738281 L 32.574219 15.148438 Z M 32.628906 13.402344 "/>
<path style=" stroke:none;fill-rule:nonzero;fill:rgb(94.117647%,94.117647%,94.117647%);fill-opacity:1;" d="M 24.65625 10.542969 L 23.585938 11.921875 L 21.941406 11.332031 L 22.925781 12.777344 L 21.855469 14.15625 L 23.53125 13.667969 L 24.515625 15.113281 L 24.570312 13.367188 L 26.246094 12.878906 L 24.601562 12.289062 Z M 24.65625 10.542969 "/>
<path style=" stroke:none;fill-rule:nonzero;fill:rgb(94.117647%,94.117647%,94.117647%);fill-opacity:1;" d="M 24.539062 15.695312 L 23.46875 17.078125 L 21.824219 16.488281 L 22.808594 17.929688 L 21.738281 19.3125 L 23.414062 18.824219 L 24.398438 20.265625 L 24.453125 18.519531 L 26.128906 18.03125 L 24.484375 17.441406 Z M 24.539062 15.695312 "/>
<path style=" stroke:none;fill-rule:nonzero;fill:rgb(94.117647%,94.117647%,94.117647%);fill-opacity:1;" d="M 29.441406 17.457031 L 28.375 18.835938 L 26.730469 18.25 L 27.710938 19.691406 L 26.644531 21.070312 L 28.320312 20.582031 L 29.304688 22.027344 L 29.355469 20.28125 L 31.03125 19.792969 L 29.390625 19.203125 Z M 29.441406 17.457031 "/>
<path style=" stroke:none;fill-rule:nonzero;fill:rgb(84.705882%,0%,15.294118%);fill-opacity:1;" d="M 6.523438 8.160156 L 6.523438 41.839844 C 9.929688 45.574219 14.453125 48.273438 19.566406 49.40625 L 19.566406 0.59375 C 14.453125 1.726562 9.929688 4.425781 6.523438 8.160156 Z M 6.523438 8.160156 "/>
<path style=" stroke:none;fill-rule:nonzero;fill:rgb(94.117647%,94.117647%,94.117647%);fill-opacity:1;" d="M 11.5 13.164062 L 9.316406 11.535156 L 9.316406 9.234375 L 11.5 7.609375 L 14.585938 7.609375 L 16.769531 9.234375 L 16.769531 11.535156 L 14.585938 13.164062 Z M 11.5 13.164062 "/>
<path style=" stroke:none;fill-rule:nonzero;fill:rgb(100%,59.607843%,6.666667%);fill-opacity:1;" d="M 13.042969 7.609375 L 11.5 7.609375 L 9.316406 9.234375 L 9.316406 10.359375 L 13.042969 10.359375 Z M 13.042969 7.609375 "/>
<path style=" stroke:none;fill-rule:nonzero;fill:rgb(100%,59.607843%,6.666667%);fill-opacity:1;" d="M 13.042969 13.164062 L 14.585938 13.164062 L 16.769531 11.535156 L 16.769531 10.363281 L 13.042969 10.363281 Z M 13.042969 13.164062 "/>
<path style=" stroke:none;fill-rule:nonzero;fill:rgb(94.117647%,94.117647%,94.117647%);fill-opacity:1;" d="M 11.5 42.390625 L 9.316406 40.765625 L 9.316406 38.464844 L 11.5 36.835938 L 14.585938 36.835938 L 16.769531 38.464844 L 16.769531 40.765625 L 14.585938 42.390625 Z M 11.5 42.390625 "/>
<path style=" stroke:none;fill-rule:nonzero;fill:rgb(100%,59.607843%,6.666667%);fill-opacity:1;" d="M 13.042969 36.835938 L 11.5 36.835938 L 9.316406 38.464844 L 9.316406 39.589844 L 13.042969 39.589844 Z M 13.042969 36.835938 "/>
<path style=" stroke:none;fill-rule:nonzero;fill:rgb(100%,59.607843%,6.666667%);fill-opacity:1;" d="M 13.042969 42.390625 L 14.585938 42.390625 L 16.769531 40.765625 L 16.769531 39.589844 L 13.042969 39.589844 Z M 13.042969 42.390625 "/>
<path style=" stroke:none;fill-rule:nonzero;fill:rgb(28.627451%,43.137255%,17.647059%);fill-opacity:1;" d="M 11.5 27.777344 L 9.316406 26.148438 L 9.316406 23.851562 L 11.5 22.222656 L 14.585938 22.222656 L 16.769531 23.851562 L 16.769531 26.148438 L 14.585938 27.777344 Z M 11.5 27.777344 "/>
<path style=" stroke:none;fill-rule:nonzero;fill:rgb(28.627451%,43.137255%,17.647059%);fill-opacity:1;" d="M 16.847656 31.355469 L 15.898438 31.355469 L 15.898438 30.40625 L 14.226562 30.40625 L 13.042969 29.222656 L 11.863281 30.40625 L 10.191406 30.40625 L 10.191406 31.355469 L 9.238281 31.355469 L 9.238281 33.257812 L 10.191406 33.257812 L 10.191406 34.210938 L 11.863281 34.210938 L 13.042969 35.390625 L 14.226562 34.210938 L 15.898438 34.210938 L 15.898438 33.257812 L 16.847656 33.257812 Z M 16.847656 31.355469 "/>
<path style=" stroke:none;fill-rule:nonzero;fill:rgb(28.627451%,43.137255%,17.647059%);fill-opacity:1;" d="M 16.847656 16.742188 L 15.898438 16.742188 L 15.898438 15.789062 L 14.226562 15.789062 L 13.042969 14.609375 L 11.863281 15.789062 L 10.191406 15.789062 L 10.191406 16.742188 L 9.238281 16.742188 L 9.238281 18.644531 L 10.191406 18.644531 L 10.191406 19.59375 L 11.863281 19.59375 L 13.042969 20.777344 L 14.226562 19.59375 L 15.898438 19.59375 L 15.898438 18.644531 L 16.847656 18.644531 Z M 16.847656 16.742188 "/>
<path style=" stroke:none;fill-rule:nonzero;fill:rgb(84.705882%,0%,15.294118%);fill-opacity:1;" d="M 11.957031 23.914062 L 14.128906 23.914062 L 14.128906 26.085938 L 11.957031 26.085938 Z M 11.957031 23.914062 "/>
<path style=" stroke:none;fill-rule:nonzero;fill:rgb(84.705882%,0%,15.294118%);fill-opacity:1;" d="M 13.042969 18.777344 C 13.644531 18.777344 14.128906 18.292969 14.128906 17.691406 C 14.128906 17.09375 13.644531 16.605469 13.042969 16.605469 C 12.441406 16.605469 11.957031 17.09375 11.957031 17.691406 C 11.957031 18.292969 12.441406 18.777344 13.042969 18.777344 Z M 13.042969 18.777344 "/>
<path style=" stroke:none;fill-rule:nonzero;fill:rgb(84.705882%,0%,15.294118%);fill-opacity:1;" d="M 13.042969 33.394531 C 13.644531 33.394531 14.128906 32.90625 14.128906 32.308594 C 14.128906 31.707031 13.644531 31.21875 13.042969 31.21875 C 12.441406 31.21875 11.957031 31.707031 11.957031 32.308594 C 11.957031 32.90625 12.441406 33.394531 13.042969 33.394531 Z M 13.042969 33.394531 "/>
</g>
</svg>
