<?xml version="1.0" encoding="UTF-8"?>
<svg xmlns="http://www.w3.org/2000/svg" xmlns:xlink="http://www.w3.org/1999/xlink" width="50px" height="50px" viewBox="0 0 50 50" version="1.1">
<defs>
<clipPath id="clip1">
  <path d="M 0 0.0546875 L 50 0.0546875 L 50 49.960938 L 0 49.960938 Z M 0 0.0546875 "/>
</clipPath>
</defs>
<g id="surface1">
<g clip-path="url(#clip1)" clip-rule="nonzero">
<path style=" stroke:none;fill-rule:nonzero;fill:rgb(84.705882%,0%,15.294118%);fill-opacity:1;" d="M 25 49.960938 C 38.808594 49.960938 50 38.789062 50 25.007812 C 50 11.226562 38.808594 0.0546875 25 0.0546875 C 11.191406 0.0546875 0 11.226562 0 25.007812 C 0 38.789062 11.191406 49.960938 25 49.960938 Z M 25 49.960938 "/>
</g>
<path style=" stroke:none;fill-rule:nonzero;fill:rgb(94.117647%,94.117647%,94.117647%);fill-opacity:1;" d="M 23.976562 20.445312 L 26.027344 23.265625 L 29.351562 22.191406 L 27.296875 25.011719 L 29.347656 27.832031 L 26.023438 26.75 L 23.972656 29.570312 L 23.972656 26.085938 L 20.652344 25.007812 L 23.972656 23.929688 Z M 23.976562 20.445312 "/>
<path style=" stroke:none;fill-rule:nonzero;fill:rgb(94.117647%,94.117647%,94.117647%);fill-opacity:1;" d="M 18.378906 32.058594 C 14.476562 32.058594 11.3125 28.902344 11.3125 25.007812 C 11.3125 21.113281 14.476562 17.957031 18.378906 17.957031 C 19.59375 17.957031 20.738281 18.261719 21.738281 18.804688 C 20.171875 17.273438 18.027344 16.328125 15.660156 16.328125 C 10.859375 16.328125 6.964844 20.214844 6.964844 25.007812 C 6.964844 29.800781 10.859375 33.6875 15.660156 33.6875 C 18.027344 33.6875 20.171875 32.742188 21.738281 31.210938 C 20.738281 31.753906 19.59375 32.058594 18.378906 32.058594 Z M 18.378906 32.058594 "/>
</g>
</svg>
