<?xml version="1.0" encoding="UTF-8"?>
<svg xmlns="http://www.w3.org/2000/svg" xmlns:xlink="http://www.w3.org/1999/xlink" width="50px" height="50px" viewBox="0 0 50 50" version="1.1">
<g id="surface1">
<path style=" stroke:none;fill-rule:nonzero;fill:rgb(20%,54.117647%,95.294118%);fill-opacity:1;" d="M 50 25 C 50 38.808594 38.808594 50 25 50 C 11.191406 50 0 38.808594 0 25 C 0 25.007812 25 0.00390625 25 0 C 38.808594 0 50 11.191406 50 25 Z M 50 25 "/>
<path style=" stroke:none;fill-rule:nonzero;fill:rgb(0%,32.156863%,70.588235%);fill-opacity:1;" d="M 11.957031 25 L 20.386719 25 L 13.042969 16.304688 L 11.957031 19.566406 Z M 11.957031 25 "/>
<path style=" stroke:none;fill-rule:nonzero;fill:rgb(0%,32.156863%,70.588235%);fill-opacity:1;" d="M 25 20.386719 L 16.304688 11.957031 L 25 11.957031 Z M 25 20.386719 "/>
<path style=" stroke:none;fill-rule:nonzero;fill:rgb(94.117647%,94.117647%,94.117647%);fill-opacity:1;" d="M 24.933594 25 L 25 25 C 25 24.976562 25 24.957031 25 24.933594 C 24.976562 24.957031 24.957031 24.976562 24.933594 25 Z M 24.933594 25 "/>
<path style=" stroke:none;fill-rule:nonzero;fill:rgb(94.117647%,94.117647%,94.117647%);fill-opacity:1;" d="M 25 13.042969 C 25 8.644531 25 5.761719 25 0 L 24.996094 0 C 11.191406 0.00390625 0 11.195312 0 25 L 13.042969 25 L 13.042969 17.65625 L 20.386719 25 L 24.933594 25 C 24.957031 24.976562 24.976562 24.957031 25 24.933594 C 25 23.25 25 21.746094 25 20.386719 L 17.65625 13.042969 Z M 25 13.042969 "/>
<path style=" stroke:none;fill-rule:nonzero;fill:rgb(84.705882%,0%,15.294118%);fill-opacity:1;" d="M 12.648438 3.261719 C 8.738281 5.488281 5.488281 8.738281 3.261719 12.648438 L 3.261719 25 L 9.78125 25 L 9.78125 9.78125 L 25 9.78125 C 25 7.726562 25 5.765625 25 3.261719 Z M 12.648438 3.261719 "/>
<path style=" stroke:none;fill-rule:nonzero;fill:rgb(84.705882%,0%,15.294118%);fill-opacity:1;" d="M 25 21.925781 L 16.117188 13.042969 L 13.042969 13.042969 L 25 25 C 25 25 25 22.878906 25 21.925781 Z M 25 21.925781 "/>
<path style=" stroke:none;fill-rule:nonzero;fill:rgb(100%,85.490196%,26.666667%);fill-opacity:1;" d="M 27.285156 41.304688 L 27.824219 42.964844 L 29.570312 42.964844 L 28.160156 43.992188 L 28.699219 45.652344 L 27.285156 44.625 L 25.875 45.652344 L 26.414062 43.992188 L 25 42.964844 L 26.746094 42.964844 Z M 27.285156 41.304688 "/>
<path style=" stroke:none;fill-rule:nonzero;fill:rgb(100%,85.490196%,26.666667%);fill-opacity:1;" d="M 41.191406 30.433594 L 41.730469 32.09375 L 43.476562 32.09375 L 42.066406 33.121094 L 42.605469 34.78125 L 41.191406 33.757812 L 39.78125 34.78125 L 40.320312 33.121094 L 38.90625 32.09375 L 40.652344 32.09375 Z M 41.191406 30.433594 "/>
<path style=" stroke:none;fill-rule:nonzero;fill:rgb(100%,85.490196%,26.666667%);fill-opacity:1;" d="M 44.675781 14.128906 L 45.214844 15.792969 L 46.960938 15.792969 L 45.550781 16.816406 L 46.089844 18.476562 L 44.675781 17.453125 L 43.265625 18.476562 L 43.804688 16.816406 L 42.390625 15.792969 L 44.136719 15.792969 Z M 44.675781 14.128906 "/>
<path style=" stroke:none;fill-rule:nonzero;fill:rgb(100%,85.490196%,26.666667%);fill-opacity:1;" d="M 45.539062 26.085938 L 46.078125 27.746094 L 47.824219 27.746094 L 46.414062 28.773438 L 46.953125 30.433594 L 45.539062 29.410156 L 44.128906 30.433594 L 44.667969 28.773438 L 43.253906 27.746094 L 45 27.746094 Z M 45.539062 26.085938 "/>
<path style=" stroke:none;fill-rule:nonzero;fill:rgb(100%,85.490196%,26.666667%);fill-opacity:1;" d="M 29.789062 37.398438 L 31.347656 38.191406 L 32.582031 36.957031 L 32.308594 38.679688 L 33.863281 39.472656 L 32.136719 39.746094 L 31.867188 41.472656 L 31.074219 39.914062 L 29.347656 40.1875 L 30.582031 38.953125 Z M 29.789062 37.398438 "/>
<path style=" stroke:none;fill-rule:nonzero;fill:rgb(100%,85.490196%,26.666667%);fill-opacity:1;" d="M 29.789062 30.875 L 31.347656 31.667969 L 32.582031 30.433594 L 32.308594 32.160156 L 33.863281 32.953125 L 32.136719 33.226562 L 31.867188 34.949219 L 31.074219 33.394531 L 29.347656 33.667969 L 30.582031 32.433594 Z M 29.789062 30.875 "/>
<path style=" stroke:none;fill-rule:nonzero;fill:rgb(100%,85.490196%,26.666667%);fill-opacity:1;" d="M 35.222656 35.058594 L 36.78125 35.851562 L 38.015625 34.617188 L 37.742188 36.339844 L 39.296875 37.132812 L 37.574219 37.40625 L 37.300781 39.128906 L 36.507812 37.574219 L 34.78125 37.847656 L 36.015625 36.613281 Z M 35.222656 35.058594 "/>
<path style=" stroke:none;fill-rule:nonzero;fill:rgb(100%,85.490196%,26.666667%);fill-opacity:1;" d="M 35.222656 21.09375 L 36.78125 21.886719 L 38.015625 20.652344 L 37.742188 22.375 L 39.296875 23.167969 L 37.574219 23.441406 L 37.300781 25.167969 L 36.507812 23.613281 L 34.78125 23.882812 L 36.015625 22.648438 Z M 35.222656 21.09375 "/>
<path style=" stroke:none;fill-rule:nonzero;fill:rgb(100%,85.490196%,26.666667%);fill-opacity:1;" d="M 40.492188 20.925781 L 42.046875 21.71875 L 43.28125 20.484375 L 43.007812 22.210938 L 44.566406 23.003906 L 42.839844 23.273438 L 42.566406 25 L 41.773438 23.445312 L 40.050781 23.71875 L 41.285156 22.484375 Z M 40.492188 20.925781 "/>
</g>
</svg>
