<?xml version="1.0" encoding="UTF-8"?>
<svg xmlns="http://www.w3.org/2000/svg" xmlns:xlink="http://www.w3.org/1999/xlink" width="50px" height="50px" viewBox="0 0 50 50" version="1.1">
<g id="surface1">
<path style=" stroke:none;fill-rule:nonzero;fill:rgb(100%,85.490196%,26.666667%);fill-opacity:1;" d="M 43.632812 41.667969 C 47.589844 37.242188 50 31.402344 50 25 C 50 18.597656 47.589844 12.757812 43.632812 8.332031 L 25 6.523438 L 6.367188 8.332031 C 2.410156 12.757812 0 18.597656 0 25 C 0 31.402344 2.410156 37.242188 6.367188 41.667969 L 25 43.476562 Z M 43.632812 41.667969 "/>
<path style=" stroke:none;fill-rule:nonzero;fill:rgb(0%,0%,0%);fill-opacity:1;" d="M 6.367188 8.332031 L 43.632812 8.332031 C 39.054688 3.21875 32.402344 0 25 0 C 17.597656 0 10.945312 3.21875 6.367188 8.332031 Z M 6.367188 8.332031 "/>
<path style=" stroke:none;fill-rule:nonzero;fill:rgb(84.705882%,0%,15.294118%);fill-opacity:1;" d="M 0 25 L 25 27.175781 L 50 25 C 50 22.078125 49.496094 19.273438 48.574219 16.667969 L 1.425781 16.667969 C 0.503906 19.273438 0 22.078125 0 25 Z M 0 25 "/>
<path style=" stroke:none;fill-rule:nonzero;fill:rgb(0%,0%,0%);fill-opacity:1;" d="M 1.425781 33.332031 L 48.574219 33.332031 C 49.496094 30.726562 50 27.921875 50 25 L 0 25 C 0 27.921875 0.503906 30.726562 1.425781 33.332031 Z M 1.425781 33.332031 "/>
<path style=" stroke:none;fill-rule:nonzero;fill:rgb(84.705882%,0%,15.294118%);fill-opacity:1;" d="M 43.632812 41.667969 L 6.367188 41.667969 C 10.945312 46.78125 17.597656 50 25 50 C 32.402344 50 39.054688 46.78125 43.632812 41.667969 Z M 43.632812 41.667969 "/>
<path style=" stroke:none;fill-rule:nonzero;fill:rgb(94.117647%,94.117647%,94.117647%);fill-opacity:1;" d="M 33.34375 25 C 33.34375 29.609375 29.609375 33.34375 25 33.34375 C 20.390625 33.34375 16.65625 29.609375 16.65625 25 C 16.65625 20.390625 20.390625 16.65625 25 16.65625 C 29.609375 16.65625 33.34375 20.390625 33.34375 25 Z M 33.34375 25 "/>
<path style=" stroke:none;fill-rule:nonzero;fill:rgb(0%,0%,0%);fill-opacity:1;" d="M 28.054688 25.425781 L 25 24.101562 C 25 24.101562 25.714844 21.726562 25.753906 21.566406 C 25.78125 21.445312 25.796875 21.324219 25.796875 21.195312 C 25.796875 20.746094 25.613281 20.335938 25.316406 20.042969 L 26.085938 19.273438 C 25.59375 18.78125 24.914062 18.476562 24.164062 18.476562 C 23.414062 18.476562 22.734375 18.78125 22.242188 19.273438 L 23.011719 20.042969 C 22.71875 20.339844 22.535156 20.746094 22.535156 21.195312 C 22.535156 21.359375 22.558594 21.519531 22.605469 21.667969 L 21.449219 22.824219 L 23.550781 22.824219 C 23.550781 22.824219 22.679688 24.132812 22.207031 25.203125 C 21.730469 26.277344 22.214844 27.585938 23.308594 28.074219 L 23.945312 28.355469 L 25 29.347656 L 25 30.433594 L 23.914062 31.523438 L 26.085938 31.523438 L 26.085938 29.347656 L 27.078125 28.355469 L 29.128906 28.355469 C 29.140625 28.335938 29.152344 28.316406 29.160156 28.292969 C 29.648438 27.199219 29.152344 25.914062 28.054688 25.425781 Z M 28.054688 25.425781 "/>
</g>
</svg>
