<?xml version="1.0" encoding="UTF-8"?>
<svg xmlns="http://www.w3.org/2000/svg" xmlns:xlink="http://www.w3.org/1999/xlink" width="50px" height="50px" viewBox="0 0 50 50" version="1.1">
<g id="surface1">
<path style=" stroke:none;fill-rule:nonzero;fill:rgb(94.117647%,94.117647%,94.117647%);fill-opacity:1;" d="M 25 50 C 38.808594 50 50 38.808594 50 25 C 50 11.191406 38.808594 0 25 0 C 11.191406 0 0 11.191406 0 25 C 0 38.808594 11.191406 50 25 50 Z M 25 50 "/>
<path style=" stroke:none;fill-rule:nonzero;fill:rgb(0%,0%,0%);fill-opacity:1;" d="M 14.128906 33.695312 L 16.304688 48.445312 C 19.011719 49.449219 21.941406 50 25 50 C 35.75 50 44.914062 43.214844 48.445312 33.695312 Z M 14.128906 33.695312 "/>
<path style=" stroke:none;fill-rule:nonzero;fill:rgb(42.745098%,64.705882%,26.666667%);fill-opacity:1;" d="M 14.128906 16.304688 L 16.304688 1.554688 C 19.011719 0.550781 21.941406 0 25 0 C 35.75 0 44.914062 6.785156 48.445312 16.304688 Z M 14.128906 16.304688 "/>
<path style=" stroke:none;fill-rule:nonzero;fill:rgb(63.529412%,0%,11.372549%);fill-opacity:1;" d="M 0 25 C 0 35.75 6.785156 44.914062 16.304688 48.445312 L 16.304688 1.554688 C 6.785156 5.085938 0 14.25 0 25 Z M 0 25 "/>
</g>
</svg>
