<?xml version="1.0" encoding="UTF-8"?>
<svg xmlns="http://www.w3.org/2000/svg" xmlns:xlink="http://www.w3.org/1999/xlink" width="50px" height="50px" viewBox="0 0 50 50" version="1.1">
<g id="surface1">
<path style=" stroke:none;fill-rule:nonzero;fill:rgb(94.117647%,94.117647%,94.117647%);fill-opacity:1;" d="M 25 50 C 38.808594 50 50 38.808594 50 25 C 50 11.191406 38.808594 0 25 0 C 11.191406 0 0 11.191406 0 25 C 0 38.808594 11.191406 50 25 50 Z M 25 50 "/>
<path style=" stroke:none;fill-rule:nonzero;fill:rgb(84.705882%,0%,15.294118%);fill-opacity:1;" d="M 23.914062 25 L 50 25 C 50 22.742188 49.699219 20.558594 49.140625 18.476562 L 23.914062 18.476562 Z M 23.914062 25 "/>
<path style=" stroke:none;fill-rule:nonzero;fill:rgb(84.705882%,0%,15.294118%);fill-opacity:1;" d="M 23.914062 11.957031 L 46.332031 11.957031 C 44.800781 9.460938 42.84375 7.25 40.5625 5.433594 L 23.914062 5.433594 Z M 23.914062 11.957031 "/>
<path style=" stroke:none;fill-rule:nonzero;fill:rgb(84.705882%,0%,15.294118%);fill-opacity:1;" d="M 25 50 C 30.882812 50 36.292969 47.964844 40.5625 44.566406 L 9.4375 44.566406 C 13.707031 47.964844 19.117188 50 25 50 Z M 25 50 "/>
<path style=" stroke:none;fill-rule:nonzero;fill:rgb(84.705882%,0%,15.294118%);fill-opacity:1;" d="M 3.667969 38.042969 L 46.332031 38.042969 C 47.558594 36.039062 48.511719 33.847656 49.140625 31.523438 L 0.859375 31.523438 C 1.488281 33.847656 2.441406 36.039062 3.667969 38.042969 Z M 3.667969 38.042969 "/>
<path style=" stroke:none;fill-rule:nonzero;fill:rgb(0%,32.156863%,70.588235%);fill-opacity:1;" d="M 11.582031 3.902344 L 13.859375 3.902344 L 11.738281 5.445312 L 12.550781 7.933594 L 10.429688 6.394531 L 8.3125 7.933594 L 9.011719 5.78125 C 7.144531 7.335938 5.507812 9.15625 4.160156 11.1875 L 4.890625 11.1875 L 3.542969 12.167969 C 3.332031 12.515625 3.128906 12.875 2.9375 13.234375 L 3.582031 15.21875 L 2.378906 14.34375 C 2.082031 14.976562 1.808594 15.625 1.5625 16.285156 L 2.273438 18.46875 L 4.890625 18.46875 L 2.773438 20.007812 L 3.582031 22.5 L 1.460938 20.960938 L 0.191406 21.882812 C 0.0664062 22.902344 0 23.945312 0 25 L 25 25 C 25 11.191406 25 9.566406 25 0 C 20.0625 0 15.457031 1.433594 11.582031 3.902344 Z M 12.550781 22.5 L 10.429688 20.960938 L 8.3125 22.5 L 9.121094 20.007812 L 7 18.46875 L 9.621094 18.46875 L 10.429688 15.976562 L 11.238281 18.46875 L 13.859375 18.46875 L 11.738281 20.007812 Z M 11.738281 12.726562 L 12.550781 15.21875 L 10.429688 13.679688 L 8.3125 15.21875 L 9.121094 12.726562 L 7 11.1875 L 9.621094 11.1875 L 10.429688 8.695312 L 11.238281 11.1875 L 13.859375 11.1875 Z M 21.515625 22.5 L 19.398438 20.960938 L 17.277344 22.5 L 18.085938 20.007812 L 15.96875 18.46875 L 18.589844 18.46875 L 19.398438 15.976562 L 20.207031 18.46875 L 22.824219 18.46875 L 20.707031 20.007812 Z M 20.707031 12.726562 L 21.515625 15.21875 L 19.398438 13.679688 L 17.277344 15.21875 L 18.085938 12.726562 L 15.96875 11.1875 L 18.589844 11.1875 L 19.398438 8.695312 L 20.207031 11.1875 L 22.824219 11.1875 Z M 20.707031 5.445312 L 21.515625 7.933594 L 19.398438 6.394531 L 17.277344 7.933594 L 18.085938 5.445312 L 15.96875 3.902344 L 18.589844 3.902344 L 19.398438 1.414062 L 20.207031 3.902344 L 22.824219 3.902344 Z M 20.707031 5.445312 "/>
</g>
</svg>
