<?xml version="1.0" encoding="UTF-8"?>
<svg xmlns="http://www.w3.org/2000/svg" xmlns:xlink="http://www.w3.org/1999/xlink" width="50px" height="50px" viewBox="0 0 50 50" version="1.1">
<g id="surface1">
<path style=" stroke:none;fill-rule:nonzero;fill:rgb(20%,54.117647%,95.294118%);fill-opacity:1;" d="M 25 50 C 38.808594 50 50 38.808594 50 25 C 50 11.191406 38.808594 0 25 0 C 11.191406 0 0 11.191406 0 25 C 0 38.808594 11.191406 50 25 50 Z M 25 50 "/>
<path style=" stroke:none;fill-rule:nonzero;fill:rgb(94.117647%,94.117647%,94.117647%);fill-opacity:1;" d="M 24.929688 16.304688 C 20.125 16.304688 16.230469 20.199219 16.230469 25 C 16.230469 29.800781 20.125 33.695312 24.929688 33.695312 C 29.730469 33.695312 33.625 29.800781 33.625 25 C 33.625 20.199219 29.730469 16.304688 24.929688 16.304688 Z M 22.753906 25 C 22.753906 23.800781 23.726562 22.824219 24.929688 22.824219 C 26.128906 22.824219 27.101562 23.800781 27.101562 25 C 27.101562 26.199219 26.128906 27.175781 24.929688 27.175781 C 23.726562 27.175781 22.753906 26.199219 22.753906 25 Z M 27.183594 21.28125 C 26.84375 21.078125 26.476562 20.917969 26.085938 20.808594 L 26.085938 18.582031 C 27.066406 18.757812 27.972656 19.152344 28.746094 19.714844 Z M 23.914062 20.773438 C 23.503906 20.871094 23.121094 21.023438 22.765625 21.226562 L 21.191406 19.65625 C 21.988281 19.097656 22.914062 18.714844 23.914062 18.558594 Z M 22.765625 28.773438 C 23.121094 28.976562 23.503906 29.128906 23.914062 29.226562 L 23.914062 31.441406 C 22.914062 31.285156 21.988281 30.902344 21.191406 30.34375 Z M 26.085938 29.191406 C 26.476562 29.082031 26.84375 28.921875 27.183594 28.71875 L 28.746094 30.285156 C 27.972656 30.847656 27.066406 31.242188 26.085938 31.417969 Z M 28.699219 27.164062 C 28.890625 26.828125 29.039062 26.46875 29.140625 26.085938 L 31.359375 26.085938 C 31.195312 27.058594 30.816406 27.960938 30.273438 28.734375 Z M 29.140625 23.914062 C 29.039062 23.53125 28.890625 23.171875 28.699219 22.839844 L 30.273438 21.265625 C 30.816406 22.039062 31.195312 22.941406 31.359375 23.914062 L 29.136719 23.914062 Z M 19.644531 21.179688 L 21.210938 22.746094 C 20.992188 23.105469 20.824219 23.496094 20.71875 23.914062 L 18.496094 23.914062 C 18.667969 22.90625 19.066406 21.976562 19.644531 21.179688 Z M 18.496094 26.085938 L 20.71875 26.085938 C 20.824219 26.503906 20.992188 26.894531 21.210938 27.253906 L 19.644531 28.820312 C 19.066406 28.023438 18.667969 27.09375 18.496094 26.085938 Z M 18.496094 26.085938 "/>
<path style=" stroke:none;fill-rule:nonzero;fill:rgb(94.117647%,94.117647%,94.117647%);fill-opacity:1;" d="M 39.058594 25 C 39.058594 21.132812 37.503906 17.632812 34.992188 15.082031 L 32.683594 17.386719 C 34.609375 19.347656 35.796875 22.035156 35.796875 25 C 35.796875 31.003906 30.929688 35.871094 24.929688 35.871094 C 18.925781 35.871094 14.058594 31.003906 14.058594 25 C 14.058594 22 15.273438 19.28125 17.242188 17.3125 L 14.9375 15.007812 C 12.378906 17.566406 10.796875 21.097656 10.796875 25 C 10.796875 31.464844 15.140625 36.917969 21.070312 38.597656 C 20.417969 39.832031 20.519531 41.386719 21.445312 42.546875 C 22.667969 41.566406 23.929688 40.554688 25 39.699219 C 26.070312 40.554688 27.332031 41.566406 28.554688 42.546875 C 29.492188 41.375 29.582031 39.800781 28.910156 38.558594 C 34.777344 36.839844 39.058594 31.421875 39.058594 25 Z M 39.058594 25 "/>
</g>
</svg>
