<?xml version="1.0" encoding="UTF-8"?>
<svg xmlns="http://www.w3.org/2000/svg" xmlns:xlink="http://www.w3.org/1999/xlink" width="50px" height="50px" viewBox="0 0 50 50" version="1.1">
<defs>
<clipPath id="clip1">
  <path d="M 0 0.0546875 L 50 0.0546875 L 50 49.960938 L 0 49.960938 Z M 0 0.0546875 "/>
</clipPath>
<clipPath id="clip2">
  <path d="M 25 0.0546875 L 41 0.0546875 L 41 6 L 25 6 Z M 25 0.0546875 "/>
</clipPath>
</defs>
<g id="surface1">
<g clip-path="url(#clip1)" clip-rule="nonzero">
<path style=" stroke:none;fill-rule:nonzero;fill:rgb(94.117647%,94.117647%,94.117647%);fill-opacity:1;" d="M 25 49.960938 C 38.808594 49.960938 50 38.789062 50 25.007812 C 50 11.226562 38.808594 0.0546875 25 0.0546875 C 11.191406 0.0546875 0 11.226562 0 25.007812 C 0 38.789062 11.191406 49.960938 25 49.960938 Z M 25 49.960938 "/>
</g>
<path style=" stroke:none;fill-rule:nonzero;fill:rgb(20%,54.117647%,95.294118%);fill-opacity:1;" d="M 25 18.5 L 49.140625 18.5 C 48.511719 16.179688 47.558594 13.992188 46.332031 11.988281 L 25 11.988281 Z M 25 18.5 "/>
<path style=" stroke:none;fill-rule:nonzero;fill:rgb(20%,54.117647%,95.294118%);fill-opacity:1;" d="M 9.4375 44.535156 L 40.5625 44.535156 C 42.84375 42.722656 44.800781 40.519531 46.332031 38.027344 L 3.667969 38.027344 C 5.199219 40.519531 7.15625 42.722656 9.4375 44.535156 Z M 9.4375 44.535156 "/>
<g clip-path="url(#clip2)" clip-rule="nonzero">
<path style=" stroke:none;fill-rule:nonzero;fill:rgb(20%,54.117647%,95.294118%);fill-opacity:1;" d="M 25 0.0546875 L 25 5.480469 L 40.5625 5.480469 C 36.292969 2.085938 30.882812 0.0546875 25 0.0546875 Z M 25 0.0546875 "/>
</g>
<path style=" stroke:none;fill-rule:nonzero;fill:rgb(20%,54.117647%,95.294118%);fill-opacity:1;" d="M 25 18.5 L 49.140625 18.5 C 48.511719 16.179688 47.558594 13.992188 46.332031 11.988281 L 25 11.988281 Z M 25 18.5 "/>
<path style=" stroke:none;fill-rule:nonzero;fill:rgb(20%,54.117647%,95.294118%);fill-opacity:1;" d="M 0 25.007812 C 0 27.261719 0.300781 29.441406 0.859375 31.515625 L 49.140625 31.515625 C 49.699219 29.441406 50 27.261719 50 25.007812 Z M 0 25.007812 "/>
<path style=" stroke:none;fill-rule:nonzero;fill:rgb(100%,85.490196%,26.666667%);fill-opacity:1;" d="M 21.738281 14.660156 L 18.6875 16.09375 L 20.3125 19.042969 L 16.996094 18.410156 L 16.574219 21.753906 L 14.265625 19.296875 L 11.957031 21.753906 L 11.539062 18.410156 L 8.222656 19.042969 L 9.847656 16.09375 L 6.792969 14.660156 L 9.847656 13.226562 L 8.222656 10.273438 L 11.539062 10.90625 L 11.957031 7.566406 L 14.265625 10.023438 L 16.578125 7.566406 L 16.996094 10.90625 L 20.3125 10.273438 L 18.6875 13.226562 Z M 21.738281 14.660156 "/>
</g>
</svg>
