<?xml version="1.0" encoding="UTF-8"?>
<svg xmlns="http://www.w3.org/2000/svg" xmlns:xlink="http://www.w3.org/1999/xlink" width="50px" height="50px" viewBox="0 0 50 50" version="1.1">
<g id="surface1">
<path style=" stroke:none;fill-rule:nonzero;fill:rgb(94.117647%,94.117647%,94.117647%);fill-opacity:1;" d="M 1.179688 17.390625 C 0.414062 19.789062 0 22.347656 0 25 C 0 27.652344 0.414062 30.210938 1.179688 32.609375 L 25 33.695312 L 48.820312 32.609375 C 49.585938 30.210938 50 27.652344 50 25 C 50 22.347656 49.585938 19.789062 48.820312 17.390625 L 25 16.304688 Z M 1.179688 17.390625 "/>
<path style=" stroke:none;fill-rule:nonzero;fill:rgb(84.705882%,0%,15.294118%);fill-opacity:1;" d="M 48.820312 17.390625 L 25 16.304688 L 1.179688 17.390625 C 0.953125 18.101562 0.757812 18.828125 0.59375 19.566406 L 49.40625 19.566406 C 49.242188 18.828125 49.046875 18.101562 48.820312 17.390625 Z M 48.820312 17.390625 "/>
<path style=" stroke:none;fill-rule:nonzero;fill:rgb(84.705882%,0%,15.294118%);fill-opacity:1;" d="M 0.59375 30.433594 C 0.757812 31.171875 0.953125 31.898438 1.179688 32.609375 L 1.183594 32.609375 L 25 33.695312 L 48.820312 32.609375 C 49.046875 31.898438 49.242188 31.171875 49.40625 30.433594 Z M 0.59375 30.433594 "/>
<path style=" stroke:none;fill-rule:nonzero;fill:rgb(42.745098%,64.705882%,26.666667%);fill-opacity:1;" d="M 25 50 C 36.152344 50 45.601562 42.695312 48.820312 32.609375 L 1.179688 32.609375 C 4.398438 42.695312 13.847656 50 25 50 Z M 25 50 "/>
<path style=" stroke:none;fill-rule:nonzero;fill:rgb(20%,54.117647%,95.294118%);fill-opacity:1;" d="M 25 0 C 13.847656 0 4.398438 7.304688 1.179688 17.390625 L 48.820312 17.390625 C 45.601562 7.304688 36.152344 0 25 0 Z M 25 0 "/>
<path style=" stroke:none;fill-rule:nonzero;fill:rgb(94.117647%,94.117647%,94.117647%);fill-opacity:1;" d="M 11.425781 10.328125 C 11.425781 7.984375 13.070312 6.027344 15.265625 5.546875 C 14.929688 5.476562 14.578125 5.433594 14.21875 5.433594 C 11.519531 5.433594 9.328125 7.625 9.328125 10.328125 C 9.328125 13.027344 11.519531 15.21875 14.21875 15.21875 C 14.578125 15.21875 14.929688 15.175781 15.265625 15.105469 C 13.070312 14.625 11.425781 12.667969 11.425781 10.328125 Z M 11.425781 10.328125 "/>
<path style=" stroke:none;fill-rule:nonzero;fill:rgb(94.117647%,94.117647%,94.117647%);fill-opacity:1;" d="M 18.160156 12.550781 L 18.488281 13.570312 L 19.5625 13.570312 L 18.695312 14.199219 L 19.027344 15.21875 L 18.160156 14.585938 L 17.292969 15.21875 L 17.621094 14.199219 L 16.757812 13.570312 L 17.828125 13.570312 Z M 18.160156 12.550781 "/>
<path style=" stroke:none;fill-rule:nonzero;fill:rgb(94.117647%,94.117647%,94.117647%);fill-opacity:1;" d="M 21.578125 12.550781 L 21.910156 13.570312 L 22.980469 13.570312 L 22.113281 14.199219 L 22.445312 15.21875 L 21.578125 14.585938 L 20.710938 15.21875 L 21.042969 14.199219 L 20.175781 13.570312 L 21.246094 13.570312 Z M 21.578125 12.550781 "/>
<path style=" stroke:none;fill-rule:nonzero;fill:rgb(94.117647%,94.117647%,94.117647%);fill-opacity:1;" d="M 25 12.550781 L 25.328125 13.570312 L 26.402344 13.570312 L 25.535156 14.199219 L 25.867188 15.21875 L 25 14.585938 L 24.132812 15.21875 L 24.460938 14.199219 L 23.597656 13.570312 L 24.667969 13.570312 Z M 25 12.550781 "/>
<path style=" stroke:none;fill-rule:nonzero;fill:rgb(94.117647%,94.117647%,94.117647%);fill-opacity:1;" d="M 28.417969 12.550781 L 28.75 13.570312 L 29.820312 13.570312 L 28.953125 14.199219 L 29.285156 15.21875 L 28.417969 14.585938 L 27.550781 15.21875 L 27.882812 14.199219 L 27.015625 13.570312 L 28.085938 13.570312 Z M 28.417969 12.550781 "/>
<path style=" stroke:none;fill-rule:nonzero;fill:rgb(94.117647%,94.117647%,94.117647%);fill-opacity:1;" d="M 31.839844 12.550781 L 32.167969 13.570312 L 33.242188 13.570312 L 32.375 14.199219 L 32.707031 15.21875 L 31.839844 14.585938 L 30.972656 15.21875 L 31.304688 14.199219 L 30.4375 13.570312 L 31.507812 13.570312 Z M 31.839844 12.550781 "/>
<path style=" stroke:none;fill-rule:nonzero;fill:rgb(94.117647%,94.117647%,94.117647%);fill-opacity:1;" d="M 21.578125 8.992188 L 21.910156 10.011719 L 22.980469 10.011719 L 22.113281 10.640625 L 22.445312 11.660156 L 21.578125 11.03125 L 20.710938 11.660156 L 21.042969 10.640625 L 20.175781 10.011719 L 21.246094 10.011719 Z M 21.578125 8.992188 "/>
<path style=" stroke:none;fill-rule:nonzero;fill:rgb(94.117647%,94.117647%,94.117647%);fill-opacity:1;" d="M 25 8.992188 L 25.328125 10.011719 L 26.402344 10.011719 L 25.535156 10.640625 L 25.867188 11.660156 L 25 11.03125 L 24.132812 11.660156 L 24.460938 10.640625 L 23.597656 10.011719 L 24.667969 10.011719 Z M 25 8.992188 "/>
<path style=" stroke:none;fill-rule:nonzero;fill:rgb(94.117647%,94.117647%,94.117647%);fill-opacity:1;" d="M 28.417969 8.992188 L 28.75 10.011719 L 29.820312 10.011719 L 28.953125 10.640625 L 29.285156 11.660156 L 28.417969 11.03125 L 27.550781 11.660156 L 27.882812 10.640625 L 27.015625 10.011719 L 28.085938 10.011719 Z M 28.417969 8.992188 "/>
<path style=" stroke:none;fill-rule:nonzero;fill:rgb(94.117647%,94.117647%,94.117647%);fill-opacity:1;" d="M 31.839844 8.992188 L 32.167969 10.011719 L 33.242188 10.011719 L 32.375 10.640625 L 32.707031 11.660156 L 31.839844 11.03125 L 30.972656 11.660156 L 31.304688 10.640625 L 30.4375 10.011719 L 31.507812 10.011719 Z M 31.839844 8.992188 "/>
<path style=" stroke:none;fill-rule:nonzero;fill:rgb(94.117647%,94.117647%,94.117647%);fill-opacity:1;" d="M 25 5.433594 L 25.328125 6.453125 L 26.402344 6.453125 L 25.535156 7.082031 L 25.867188 8.101562 L 25 7.472656 L 24.132812 8.101562 L 24.460938 7.082031 L 23.597656 6.453125 L 24.667969 6.453125 Z M 25 5.433594 "/>
<path style=" stroke:none;fill-rule:nonzero;fill:rgb(94.117647%,94.117647%,94.117647%);fill-opacity:1;" d="M 28.417969 5.433594 L 28.75 6.453125 L 29.820312 6.453125 L 28.953125 7.082031 L 29.285156 8.101562 L 28.417969 7.472656 L 27.550781 8.101562 L 27.882812 7.082031 L 27.015625 6.453125 L 28.085938 6.453125 Z M 28.417969 5.433594 "/>
<path style=" stroke:none;fill-rule:nonzero;fill:rgb(94.117647%,94.117647%,94.117647%);fill-opacity:1;" d="M 31.839844 5.433594 L 32.167969 6.453125 L 33.242188 6.453125 L 32.375 7.082031 L 32.707031 8.101562 L 31.839844 7.472656 L 30.972656 8.101562 L 31.304688 7.082031 L 30.4375 6.453125 L 31.507812 6.453125 Z M 31.839844 5.433594 "/>
</g>
</svg>
