<?xml version="1.0" encoding="UTF-8"?>
<svg xmlns="http://www.w3.org/2000/svg" xmlns:xlink="http://www.w3.org/1999/xlink" width="50px" height="50px" viewBox="0 0 50 50" version="1.1">
<defs>
<clipPath id="clip1">
  <path d="M 7 27 L 50 27 L 50 49.902344 L 7 49.902344 Z M 7 27 "/>
</clipPath>
</defs>
<g id="surface1">
<path style=" stroke:none;fill-rule:nonzero;fill:rgb(0%,0%,0%);fill-opacity:1;" d="M 50 24.953125 C 50 23.847656 49.925781 22.761719 49.789062 21.695312 L 21.738281 21.695312 C 16.632812 16.601562 7.320312 7.308594 7.320312 7.308594 C -2.441406 17.050781 -2.441406 32.851562 7.320312 42.59375 L 21.738281 28.207031 L 49.789062 28.207031 C 49.925781 27.140625 50 26.054688 50 24.953125 Z M 50 24.953125 "/>
<path style=" stroke:none;fill-rule:nonzero;fill:rgb(94.117647%,94.117647%,94.117647%);fill-opacity:1;" d="M 49.992188 25.519531 C 49.992188 25.566406 49.992188 25.617188 49.988281 25.664062 C 49.992188 25.613281 49.992188 25.566406 49.992188 25.519531 Z M 49.992188 25.519531 "/>
<path style=" stroke:none;fill-rule:nonzero;fill:rgb(94.117647%,94.117647%,94.117647%);fill-opacity:1;" d="M 49.96875 26.199219 C 49.964844 26.25 49.964844 26.296875 49.960938 26.34375 C 49.964844 26.296875 49.964844 26.25 49.96875 26.199219 Z M 49.96875 26.199219 "/>
<path style=" stroke:none;fill-rule:nonzero;fill:rgb(94.117647%,94.117647%,94.117647%);fill-opacity:1;" d="M 49.933594 26.746094 C 49.929688 26.816406 49.925781 26.886719 49.917969 26.953125 C 49.925781 26.886719 49.929688 26.816406 49.933594 26.746094 Z M 49.933594 26.746094 "/>
<path style=" stroke:none;fill-rule:nonzero;fill:rgb(94.117647%,94.117647%,94.117647%);fill-opacity:1;" d="M 49.851562 22.230469 C 49.859375 22.316406 49.871094 22.398438 49.878906 22.480469 C 49.871094 22.398438 49.859375 22.316406 49.851562 22.230469 Z M 49.851562 22.230469 "/>
<path style=" stroke:none;fill-rule:nonzero;fill:rgb(94.117647%,94.117647%,94.117647%);fill-opacity:1;" d="M 49.960938 23.558594 C 49.964844 23.605469 49.964844 23.65625 49.96875 23.703125 C 49.964844 23.65625 49.964844 23.605469 49.960938 23.558594 Z M 49.960938 23.558594 "/>
<path style=" stroke:none;fill-rule:nonzero;fill:rgb(94.117647%,94.117647%,94.117647%);fill-opacity:1;" d="M 49.988281 24.238281 C 49.992188 24.289062 49.992188 24.335938 49.992188 24.382812 C 49.992188 24.335938 49.992188 24.289062 49.988281 24.238281 Z M 49.988281 24.238281 "/>
<path style=" stroke:none;fill-rule:nonzero;fill:rgb(94.117647%,94.117647%,94.117647%);fill-opacity:1;" d="M 49.917969 22.949219 C 49.925781 23.019531 49.929688 23.089844 49.933594 23.15625 C 49.929688 23.089844 49.925781 23.019531 49.917969 22.949219 Z M 49.917969 22.949219 "/>
<path style=" stroke:none;fill-rule:nonzero;fill:rgb(84.705882%,0%,15.294118%);fill-opacity:1;" d="M 49.789062 21.695312 C 49.800781 21.78125 49.808594 21.867188 49.820312 21.953125 C 48.335938 9.585938 37.789062 0 25 0 C 18.097656 0 11.847656 2.792969 7.320312 7.308594 L 21.738281 21.695312 Z M 49.789062 21.695312 "/>
<g clip-path="url(#clip1)" clip-rule="nonzero">
<path style=" stroke:none;fill-rule:nonzero;fill:rgb(42.745098%,64.705882%,26.666667%);fill-opacity:1;" d="M 49.789062 28.207031 L 21.738281 28.207031 L 7.320312 42.59375 C 11.847656 47.109375 18.097656 49.902344 25 49.902344 C 37.789062 49.902344 48.335938 40.316406 49.820312 27.949219 C 49.808594 28.035156 49.800781 28.121094 49.789062 28.207031 Z M 49.789062 28.207031 "/>
</g>
<path style=" stroke:none;fill-rule:nonzero;fill:rgb(94.117647%,94.117647%,94.117647%);fill-opacity:1;" d="M 49.878906 27.421875 C 49.871094 27.503906 49.859375 27.585938 49.851562 27.671875 C 49.859375 27.585938 49.871094 27.503906 49.878906 27.421875 Z M 49.878906 27.421875 "/>
<path style=" stroke:none;fill-rule:nonzero;fill:rgb(0%,0%,0%);fill-opacity:1;" d="M 49.933594 23.15625 C 49.945312 23.292969 49.953125 23.425781 49.960938 23.558594 C 49.953125 23.425781 49.945312 23.292969 49.933594 23.15625 Z M 49.933594 23.15625 "/>
<path style=" stroke:none;fill-rule:nonzero;fill:rgb(0%,0%,0%);fill-opacity:1;" d="M 49.820312 21.953125 C 49.832031 22.046875 49.839844 22.140625 49.851562 22.230469 C 49.839844 22.140625 49.832031 22.046875 49.820312 21.953125 Z M 49.820312 21.953125 "/>
<path style=" stroke:none;fill-rule:nonzero;fill:rgb(0%,0%,0%);fill-opacity:1;" d="M 49.878906 22.480469 C 49.894531 22.636719 49.90625 22.792969 49.917969 22.949219 C 49.90625 22.792969 49.894531 22.636719 49.878906 22.480469 Z M 49.878906 22.480469 "/>
<path style=" stroke:none;fill-rule:nonzero;fill:rgb(0%,0%,0%);fill-opacity:1;" d="M 50 24.953125 C 50 25.140625 49.996094 25.332031 49.992188 25.519531 C 49.996094 25.332031 50 25.140625 50 24.953125 Z M 50 24.953125 "/>
<path style=" stroke:none;fill-rule:nonzero;fill:rgb(0%,0%,0%);fill-opacity:1;" d="M 49.960938 26.34375 C 49.953125 26.476562 49.945312 26.609375 49.933594 26.746094 C 49.945312 26.609375 49.953125 26.476562 49.960938 26.34375 Z M 49.960938 26.34375 "/>
<path style=" stroke:none;fill-rule:nonzero;fill:rgb(0%,0%,0%);fill-opacity:1;" d="M 49.917969 26.953125 C 49.90625 27.109375 49.894531 27.265625 49.878906 27.421875 C 49.894531 27.265625 49.90625 27.109375 49.917969 26.953125 Z M 49.917969 26.953125 "/>
<path style=" stroke:none;fill-rule:nonzero;fill:rgb(0%,0%,0%);fill-opacity:1;" d="M 49.851562 27.671875 C 49.839844 27.761719 49.832031 27.855469 49.820312 27.949219 C 49.832031 27.855469 49.839844 27.761719 49.851562 27.671875 Z M 49.851562 27.671875 "/>
<path style=" stroke:none;fill-rule:nonzero;fill:rgb(0%,0%,0%);fill-opacity:1;" d="M 49.992188 24.382812 C 49.996094 24.574219 50 24.761719 50 24.953125 C 50 24.761719 49.996094 24.574219 49.992188 24.382812 Z M 49.992188 24.382812 "/>
<path style=" stroke:none;fill-rule:nonzero;fill:rgb(0%,0%,0%);fill-opacity:1;" d="M 49.96875 23.703125 C 49.976562 23.878906 49.984375 24.058594 49.988281 24.238281 C 49.984375 24.058594 49.976562 23.878906 49.96875 23.703125 Z M 49.96875 23.703125 "/>
<path style=" stroke:none;fill-rule:nonzero;fill:rgb(0%,0%,0%);fill-opacity:1;" d="M 49.988281 25.664062 C 49.984375 25.84375 49.976562 26.023438 49.96875 26.199219 C 49.976562 26.023438 49.984375 25.84375 49.988281 25.664062 Z M 49.988281 25.664062 "/>
<path style=" stroke:none;fill-rule:nonzero;fill:rgb(100%,85.490196%,26.666667%);fill-opacity:1;" d="M 49.976562 23.859375 L 20.820312 23.859375 L 5.84375 8.914062 C 5.359375 9.421875 4.835938 10.132812 4.511719 10.640625 L 18.832031 24.941406 L 4.5 39.25 C 4.78125 39.753906 5.402344 40.5 5.835938 40.984375 L 20.820312 26.027344 L 49.980469 26.027344 C 49.996094 25.667969 50 25.304688 50 24.941406 C 50 24.457031 49.988281 24.097656 49.976562 23.859375 Z M 49.976562 23.859375 "/>
<path style=" stroke:none;fill-rule:nonzero;fill:rgb(100%,85.490196%,26.666667%);fill-opacity:1;" d="M 6.074219 30.269531 L 6.074219 28.179688 C 8.164062 28.179688 9.863281 26.484375 9.863281 24.398438 C 9.863281 22.921875 8.660156 21.722656 7.179688 21.722656 C 6.175781 21.722656 5.355469 22.539062 5.355469 23.546875 C 5.355469 24.1875 5.878906 24.710938 6.523438 24.710938 C 6.886719 24.710938 7.183594 24.414062 7.183594 24.050781 L 9.277344 24.050781 C 9.277344 25.566406 8.042969 26.800781 6.523438 26.800781 C 4.722656 26.800781 3.261719 25.339844 3.261719 23.546875 C 3.261719 21.386719 5.019531 19.632812 7.179688 19.632812 C 9.8125 19.632812 11.957031 21.769531 11.957031 24.398438 C 11.957031 27.636719 9.316406 30.269531 6.074219 30.269531 Z M 6.074219 30.269531 "/>
</g>
</svg>
