<?xml version="1.0" encoding="UTF-8"?>
<svg xmlns="http://www.w3.org/2000/svg" xmlns:xlink="http://www.w3.org/1999/xlink" width="50px" height="50px" viewBox="0 0 50 50" version="1.1">
<g id="surface1">
<path style=" stroke:none;fill-rule:nonzero;fill:rgb(94.117647%,94.117647%,94.117647%);fill-opacity:1;" d="M 25 0 C 38.808594 0 50 11.191406 50 25 C 50 38.808594 38.808594 50 25 50 C 25 48.914062 21.738281 25 21.738281 25 Z M 25 0 "/>
<path style=" stroke:none;fill-rule:nonzero;fill:rgb(100%,85.490196%,26.666667%);fill-opacity:1;" d="M 25 50 C 11.191406 50 0 38.808594 0 25 C 0 11.191406 11.191406 0 25 0 "/>
<path style=" stroke:none;fill-rule:nonzero;fill:rgb(67.45098%,67.058824%,69.411765%);fill-opacity:1;" d="M 34.574219 21.753906 L 39.273438 27.96875 C 38.53125 29.089844 38.535156 30.601562 39.390625 31.734375 C 40.476562 33.171875 42.523438 33.453125 43.960938 32.367188 C 45.394531 31.28125 45.679688 29.238281 44.59375 27.800781 C 43.738281 26.667969 42.285156 26.253906 41.003906 26.660156 L 33.683594 16.972656 L 31.949219 18.28125 L 29.347656 20.25 L 31.96875 23.71875 Z M 41.335938 28.898438 C 41.816406 28.539062 42.496094 28.632812 42.859375 29.113281 C 43.222656 29.589844 43.128906 30.273438 42.648438 30.632812 C 42.167969 30.996094 41.488281 30.902344 41.125 30.421875 C 40.761719 29.945312 40.859375 29.261719 41.335938 28.898438 Z M 41.335938 28.898438 "/>
<path style=" stroke:none;fill-rule:nonzero;fill:rgb(100%,85.490196%,26.666667%);fill-opacity:1;" d="M 42.632812 23.71875 L 45.253906 20.25 L 42.652344 18.28125 L 40.917969 16.972656 L 33.597656 26.660156 C 32.316406 26.253906 30.863281 26.667969 30.007812 27.800781 C 28.921875 29.238281 29.207031 31.28125 30.640625 32.367188 C 32.078125 33.453125 34.125 33.167969 35.210938 31.734375 C 36.066406 30.601562 36.070312 29.089844 35.328125 27.96875 L 40.027344 21.753906 Z M 33.476562 30.421875 C 33.113281 30.902344 32.433594 30.996094 31.953125 30.632812 C 31.472656 30.273438 31.378906 29.589844 31.742188 29.113281 C 32.105469 28.632812 32.785156 28.539062 33.265625 28.898438 C 33.742188 29.261719 33.835938 29.945312 33.476562 30.421875 Z M 33.476562 30.421875 "/>
</g>
</svg>
