<?xml version="1.0" encoding="UTF-8"?>
<svg xmlns="http://www.w3.org/2000/svg" xmlns:xlink="http://www.w3.org/1999/xlink" width="50px" height="50px" viewBox="0 0 50 50" version="1.1">
<g id="surface1">
<path style=" stroke:none;fill-rule:nonzero;fill:rgb(0%,32.156863%,70.588235%);fill-opacity:1;" d="M 47.519531 35.871094 C 49.109375 32.582031 50 28.894531 50 25 C 50 21.105469 49.109375 17.417969 47.519531 14.128906 L 25 11.957031 L 2.480469 14.128906 C 0.890625 17.417969 0 21.105469 0 25 C 0 28.894531 0.890625 32.582031 2.480469 35.871094 L 25 38.042969 Z M 47.519531 35.871094 "/>
<path style=" stroke:none;fill-rule:nonzero;fill:rgb(84.705882%,0%,15.294118%);fill-opacity:1;" d="M 25 50 C 34.910156 50 43.476562 44.230469 47.519531 35.871094 L 2.480469 35.871094 C 6.523438 44.230469 15.089844 50 25 50 Z M 25 50 "/>
<path style=" stroke:none;fill-rule:nonzero;fill:rgb(94.117647%,94.117647%,94.117647%);fill-opacity:1;" d="M 43.296875 29.90625 L 41.976562 30.9375 L 42.550781 32.511719 L 41.160156 31.578125 L 39.839844 32.609375 L 40.300781 30.996094 L 38.914062 30.058594 L 40.585938 30.003906 L 41.050781 28.390625 L 41.621094 29.964844 Z M 43.296875 29.90625 "/>
<path style=" stroke:none;fill-rule:nonzero;fill:rgb(94.117647%,94.117647%,94.117647%);fill-opacity:1;" d="M 39.917969 24.050781 L 39.027344 25.472656 L 40.105469 26.753906 L 38.480469 26.351562 L 37.589844 27.773438 L 37.472656 26.101562 L 35.847656 25.695312 L 37.402344 25.066406 L 37.285156 23.394531 L 38.363281 24.679688 Z M 39.917969 24.050781 "/>
<path style=" stroke:none;fill-rule:nonzero;fill:rgb(94.117647%,94.117647%,94.117647%);fill-opacity:1;" d="M 34.734375 19.703125 L 34.386719 21.34375 L 35.839844 22.179688 L 34.171875 22.355469 L 33.824219 23.996094 L 33.140625 22.464844 L 31.476562 22.640625 L 32.722656 21.519531 L 32.039062 19.988281 L 33.492188 20.824219 Z M 34.734375 19.703125 "/>
<path style=" stroke:none;fill-rule:nonzero;fill:rgb(94.117647%,94.117647%,94.117647%);fill-opacity:1;" d="M 28.382812 17.390625 L 28.613281 19.050781 L 30.265625 19.339844 L 28.757812 20.078125 L 28.992188 21.734375 L 27.828125 20.53125 L 26.320312 21.265625 L 27.109375 19.785156 L 25.945312 18.578125 L 27.59375 18.871094 Z M 28.382812 17.390625 "/>
<path style=" stroke:none;fill-rule:nonzero;fill:rgb(94.117647%,94.117647%,94.117647%);fill-opacity:1;" d="M 21.617188 17.390625 L 22.40625 18.871094 L 24.054688 18.578125 L 22.890625 19.785156 L 23.679688 21.265625 L 22.171875 20.53125 L 21.007812 21.734375 L 21.242188 20.078125 L 19.734375 19.34375 L 21.386719 19.050781 Z M 21.617188 17.390625 "/>
<path style=" stroke:none;fill-rule:nonzero;fill:rgb(94.117647%,94.117647%,94.117647%);fill-opacity:1;" d="M 15.265625 19.703125 L 16.507812 20.824219 L 17.960938 19.988281 L 17.277344 21.519531 L 18.523438 22.640625 L 16.859375 22.464844 L 16.175781 23.996094 L 15.828125 22.355469 L 14.160156 22.179688 L 15.613281 21.34375 Z M 15.265625 19.703125 "/>
<path style=" stroke:none;fill-rule:nonzero;fill:rgb(94.117647%,94.117647%,94.117647%);fill-opacity:1;" d="M 10.082031 24.050781 L 11.636719 24.679688 L 12.714844 23.394531 L 12.597656 25.066406 L 14.152344 25.695312 L 12.527344 26.101562 L 12.410156 27.773438 L 11.519531 26.351562 L 9.894531 26.753906 L 10.972656 25.472656 Z M 10.082031 24.050781 "/>
<path style=" stroke:none;fill-rule:nonzero;fill:rgb(94.117647%,94.117647%,94.117647%);fill-opacity:1;" d="M 6.703125 29.90625 L 8.378906 29.964844 L 8.949219 28.390625 L 9.414062 30.003906 L 11.085938 30.0625 L 9.699219 30.996094 L 10.160156 32.609375 L 8.839844 31.578125 L 7.449219 32.515625 L 8.023438 30.9375 Z M 6.703125 29.90625 "/>
<path style=" stroke:none;fill-rule:nonzero;fill:rgb(100%,85.490196%,26.666667%);fill-opacity:1;" d="M 47.519531 14.128906 C 43.476562 5.769531 34.910156 0 25 0 C 15.089844 0 6.523438 5.769531 2.480469 14.128906 Z M 47.519531 14.128906 "/>
</g>
</svg>
