<?xml version="1.0" encoding="UTF-8"?>
<svg xmlns="http://www.w3.org/2000/svg" xmlns:xlink="http://www.w3.org/1999/xlink" width="50px" height="50px" viewBox="0 0 50 50" version="1.1">
<g id="surface1">
<path style=" stroke:none;fill-rule:nonzero;fill:rgb(98.823529%,98.823529%,98.823529%);fill-opacity:1;" d="M 25 50 C 38.808594 50 50 38.808594 50 25 C 50 11.191406 38.808594 0 25 0 C 11.191406 0 0 11.191406 0 25 C 0 38.808594 11.191406 50 25 50 Z M 25 50 "/>
<path style=" stroke:none;fill-rule:nonzero;fill:rgb(100%,85.490196%,26.666667%);fill-opacity:1;" d="M 29.246094 17.464844 C 29.246094 15.121094 27.34375 13.21875 25 13.21875 C 22.65625 13.21875 20.753906 15.121094 20.753906 17.464844 L 11.414062 17.464844 C 11.414062 19.773438 13.425781 21.644531 15.734375 21.644531 L 15.59375 21.644531 C 15.59375 23.953125 17.464844 25.828125 19.773438 25.828125 C 19.773438 27.871094 21.242188 29.570312 23.179688 29.933594 L 23.171875 29.957031 L 26.828125 29.957031 L 26.820312 29.933594 C 28.757812 29.570312 30.226562 27.871094 30.226562 25.828125 C 32.535156 25.828125 34.40625 23.953125 34.40625 21.644531 L 34.265625 21.644531 C 36.574219 21.644531 38.585938 19.773438 38.585938 17.464844 Z M 29.246094 17.464844 "/>
<path style=" stroke:none;fill-rule:nonzero;fill:rgb(100%,85.490196%,26.666667%);fill-opacity:1;" d="M 23.132812 29.523438 L 20.5 35.46875 C 21.890625 36.03125 23.40625 36.347656 25 36.347656 C 26.59375 36.347656 28.109375 36.03125 29.5 35.46875 L 26.867188 29.523438 Z M 23.132812 29.523438 "/>
<path style=" stroke:none;fill-rule:nonzero;fill:rgb(94.117647%,94.117647%,94.117647%);fill-opacity:1;" d="M 19.566406 19.554688 L 19.566406 26.867188 C 19.566406 31.027344 25 32.300781 25 32.300781 C 25 32.300781 30.433594 31.027344 30.433594 26.867188 L 30.433594 19.554688 Z M 19.566406 19.554688 "/>
<path style=" stroke:none;fill-rule:nonzero;fill:rgb(20%,54.117647%,95.294118%);fill-opacity:1;" d="M 6.0625 25.175781 L 9 33.398438 L 11.910156 25.175781 L 14.128906 25.175781 L 9.890625 36.046875 L 8.113281 36.046875 L 3.84375 25.175781 Z M 6.0625 25.175781 "/>
<path style=" stroke:none;fill-rule:nonzero;fill:rgb(20%,54.117647%,95.294118%);fill-opacity:1;" d="M 40.21875 36.046875 L 40.21875 25.175781 L 42.328125 25.175781 L 42.328125 36.046875 Z M 40.21875 36.046875 "/>
<path style=" stroke:none;fill-rule:nonzero;fill:rgb(84.705882%,0%,15.294118%);fill-opacity:1;" d="M 21.738281 21.914062 L 21.738281 30.777344 C 22.484375 31.328125 23.289062 31.707031 23.914062 31.949219 L 23.914062 21.914062 Z M 21.738281 21.914062 "/>
<path style=" stroke:none;fill-rule:nonzero;fill:rgb(84.705882%,0%,15.294118%);fill-opacity:1;" d="M 28.261719 21.914062 L 28.261719 30.777344 C 27.515625 31.328125 26.710938 31.707031 26.085938 31.949219 L 26.085938 21.914062 Z M 28.261719 21.914062 "/>
<path style=" stroke:none;fill-rule:nonzero;fill:rgb(0%,32.156863%,70.588235%);fill-opacity:1;" d="M 19.566406 19.554688 L 30.433594 19.554688 L 30.433594 23 L 19.566406 23 Z M 19.566406 19.554688 "/>
</g>
</svg>
