<?xml version="1.0" encoding="UTF-8"?>
<svg xmlns="http://www.w3.org/2000/svg" xmlns:xlink="http://www.w3.org/1999/xlink" width="50px" height="50px" viewBox="0 0 50 50" version="1.1">
<g id="surface1">
<path style=" stroke:none;fill-rule:nonzero;fill:rgb(94.117647%,94.117647%,94.117647%);fill-opacity:1;" d="M 25 50 C 38.808594 50 50 38.808594 50 25 C 50 11.191406 38.808594 0 25 0 C 11.191406 0 0 11.191406 0 25 C 0 38.808594 11.191406 50 25 50 Z M 25 50 "/>
<path style=" stroke:none;fill-rule:nonzero;fill:rgb(28.627451%,43.137255%,17.647059%);fill-opacity:1;" d="M 50 25 C 50 38.808594 38.808594 50 25 50 C 11.191406 50 0 38.808594 0 25 "/>
<path style=" stroke:none;fill-rule:nonzero;fill:rgb(84.705882%,0%,15.294118%);fill-opacity:1;" d="M 43.261719 17.398438 C 42.367188 14.859375 39.953125 13.042969 37.113281 13.042969 L 31.523438 13.042969 C 27.917969 13.042969 25 15.964844 25 19.566406 C 25 20.742188 25.3125 21.875 25.859375 22.824219 C 23.78125 22.808594 21.863281 22.839844 20.652344 22.824219 C 20.652344 20.3125 20.652344 17.105469 20.652344 16.4375 L 20.910156 16.179688 C 22.0625 15.027344 21.675781 13.105469 21.675781 13.105469 C 21.675781 13.105469 19.757812 12.722656 18.601562 13.875 L 17.257812 15.21875 L 15.761719 15.21875 C 12.460938 15.21875 9.78125 17.894531 9.78125 21.195312 L 14.128906 21.195312 L 14.128906 26.085938 C 14.128906 26.800781 14.273438 27.484375 14.535156 28.105469 L 13.042969 29.347656 L 10.871094 29.347656 L 10.871094 27.175781 L 8.695312 27.175781 L 8.695312 31.523438 L 18.476562 31.523438 L 18.476562 35.871094 L 16.304688 35.871094 L 16.304688 38.042969 L 20.652344 38.042969 L 20.652344 33.695312 L 22.644531 31.304688 L 27.355469 31.304688 L 29.347656 33.695312 L 29.347656 35.871094 L 27.171875 35.871094 L 27.171875 38.042969 L 35.871094 38.042969 L 35.871094 26.085938 C 35.871094 24.285156 37.328125 22.824219 39.128906 22.824219 C 39.175781 22.824219 39.222656 22.828125 39.269531 22.828125 C 39.179688 22.480469 39.128906 22.117188 39.128906 21.738281 C 39.128906 19.410156 40.960938 17.507812 43.261719 17.398438 Z M 31.523438 35.871094 L 31.523438 31.304688 L 31.703125 31.304688 L 33.695312 33.695312 L 33.695312 35.871094 Z M 31.523438 35.871094 "/>
</g>
</svg>
