<?xml version="1.0" encoding="UTF-8"?>
<svg xmlns="http://www.w3.org/2000/svg" xmlns:xlink="http://www.w3.org/1999/xlink" width="50px" height="50px" viewBox="0 0 50 50" version="1.1">
<g id="surface1">
<path style=" stroke:none;fill-rule:nonzero;fill:rgb(28.627451%,43.137255%,17.647059%);fill-opacity:1;" d="M 25 50 C 38.808594 50 50 38.808594 50 25 C 50 11.191406 38.808594 0 25 0 C 11.191406 0 0 11.191406 0 25 C 0 38.808594 11.191406 50 25 50 Z M 25 50 "/>
<path style=" stroke:none;fill-rule:nonzero;fill:rgb(84.705882%,0%,15.294118%);fill-opacity:1;" d="M 34.78125 25 L 25 25 L 25 50 C 27.921875 50 30.726562 49.496094 33.332031 48.574219 Z M 34.78125 25 "/>
<path style=" stroke:none;fill-rule:nonzero;fill:rgb(100%,59.607843%,6.666667%);fill-opacity:1;" d="M 41.667969 43.632812 C 46.78125 39.054688 50 32.402344 50 25 L 40.21875 25 Z M 41.667969 43.632812 "/>
<path style=" stroke:none;fill-rule:nonzero;fill:rgb(0%,0%,0%);fill-opacity:1;" d="M 33.332031 25 L 33.332031 48.574219 C 36.4375 47.476562 39.261719 45.785156 41.667969 43.632812 L 41.667969 25 Z M 33.332031 25 "/>
<path style=" stroke:none;fill-rule:nonzero;fill:rgb(100%,59.607843%,6.666667%);fill-opacity:1;" d="M 46.195312 16.304688 L 39.671875 16.304688 C 39.671875 15.105469 38.699219 14.128906 37.5 14.128906 C 36.300781 14.128906 35.324219 15.105469 35.324219 16.304688 L 28.804688 16.304688 C 28.804688 17.503906 29.851562 18.476562 31.050781 18.476562 L 30.976562 18.476562 C 30.976562 19.679688 31.953125 20.652344 33.152344 20.652344 C 33.152344 21.851562 34.125 22.824219 35.324219 22.824219 L 39.671875 22.824219 C 40.875 22.824219 41.847656 21.851562 41.847656 20.652344 C 43.046875 20.652344 44.023438 19.679688 44.023438 18.476562 L 43.949219 18.476562 C 45.148438 18.476562 46.195312 17.503906 46.195312 16.304688 Z M 46.195312 16.304688 "/>
</g>
</svg>
