<?xml version="1.0" encoding="UTF-8"?>
<svg xmlns="http://www.w3.org/2000/svg" xmlns:xlink="http://www.w3.org/1999/xlink" width="50px" height="50px" viewBox="0 0 50 50" version="1.1">
<g id="surface1">
<path style=" stroke:none;fill-rule:nonzero;fill:rgb(94.117647%,94.117647%,94.117647%);fill-opacity:1;" d="M 25 50 C 38.808594 50 50 38.808594 50 25 C 50 11.191406 38.808594 0 25 0 C 11.191406 0 0 11.191406 0 25 C 0 38.808594 11.191406 50 25 50 Z M 25 50 "/>
<path style=" stroke:none;fill-rule:nonzero;fill:rgb(100%,85.490196%,26.666667%);fill-opacity:1;" d="M 47.605469 14.316406 C 46.335938 11.632812 44.601562 9.214844 42.507812 7.160156 L 25 5.433594 L 7.488281 7.160156 C 7.433594 7.214844 7.378906 7.269531 7.324219 7.324219 L 14.316406 14.316406 L 25 14.644531 Z M 47.605469 14.316406 "/>
<path style=" stroke:none;fill-rule:nonzero;fill:rgb(100%,85.490196%,26.666667%);fill-opacity:1;" d="M 7.324219 42.675781 C 7.417969 42.769531 7.507812 42.859375 7.601562 42.949219 L 25 44.566406 L 42.398438 42.949219 C 44.515625 40.898438 46.269531 38.480469 47.554688 35.792969 L 15.21875 34.78125 C 12.433594 37.566406 9.226562 40.773438 7.324219 42.675781 Z M 7.324219 42.675781 "/>
<path style=" stroke:none;fill-rule:nonzero;fill:rgb(0%,0%,0%);fill-opacity:1;" d="M 49.75 21.476562 L 20.652344 20.652344 L 25 25 C 23.710938 26.289062 21.789062 28.210938 20.652344 29.347656 L 49.734375 28.632812 C 49.910156 27.445312 50 26.234375 50 25 C 50 23.804688 49.914062 22.625 49.75 21.476562 Z M 49.75 21.476562 "/>
<path style=" stroke:none;fill-rule:nonzero;fill:rgb(42.745098%,64.705882%,26.666667%);fill-opacity:1;" d="M 25 0 C 18.179688 0 12 2.730469 7.492188 7.160156 L 42.507812 7.160156 C 38 2.730469 31.820312 0 25 0 Z M 25 0 "/>
<path style=" stroke:none;fill-rule:nonzero;fill:rgb(84.705882%,0%,15.294118%);fill-opacity:1;" d="M 21.476562 21.476562 L 49.75 21.476562 C 49.394531 18.949219 48.660156 16.542969 47.605469 14.316406 L 14.316406 14.316406 Z M 21.476562 21.476562 "/>
<path style=" stroke:none;fill-rule:nonzero;fill:rgb(84.705882%,0%,15.294118%);fill-opacity:1;" d="M 14.207031 35.792969 L 47.554688 35.792969 C 48.621094 33.566406 49.367188 31.164062 49.734375 28.632812 L 21.367188 28.632812 C 18.59375 31.40625 16.246094 33.753906 14.207031 35.792969 Z M 14.207031 35.792969 "/>
<path style=" stroke:none;fill-rule:nonzero;fill:rgb(42.745098%,64.705882%,26.666667%);fill-opacity:1;" d="M 25 50 C 31.761719 50 37.898438 47.3125 42.398438 42.949219 L 7.601562 42.949219 C 12.101562 47.3125 18.238281 50 25 50 Z M 25 50 "/>
<path style=" stroke:none;fill-rule:nonzero;fill:rgb(0%,0%,0%);fill-opacity:1;" d="M 8.925781 5.851562 C 8.371094 6.320312 7.835938 6.808594 7.320312 7.320312 L 25 25 L 7.320312 42.679688 C 7.835938 43.191406 8.371094 43.679688 8.925781 44.148438 L 28.074219 25 Z M 8.925781 5.851562 "/>
<path style=" stroke:none;fill-rule:nonzero;fill:rgb(84.705882%,0%,15.294118%);fill-opacity:1;" d="M 10.050781 18.476562 L 11.671875 23.460938 L 16.910156 23.460938 L 12.671875 26.539062 L 14.289062 31.523438 L 10.050781 28.441406 L 5.8125 31.523438 L 7.433594 26.539062 L 3.195312 23.460938 L 8.433594 23.460938 Z M 10.050781 18.476562 "/>
<path style=" stroke:none;fill-rule:nonzero;fill:rgb(100%,85.490196%,26.666667%);fill-opacity:1;" d="M 14.503906 25.40625 L 10.285156 23.914062 C 10.285156 23.914062 9.972656 20.988281 9.953125 20.890625 C 9.8125 20.136719 9.148438 19.566406 8.351562 19.566406 C 7.453125 19.566406 6.722656 20.296875 6.722656 21.195312 C 6.722656 21.34375 6.742188 21.488281 6.78125 21.625 L 5.597656 22.816406 L 7.703125 22.816406 C 7.703125 25 6.074219 25 6.074219 27.175781 L 6.976562 29.347656 L 12.410156 29.347656 L 13.316406 27.175781 C 13.40625 26.964844 13.460938 26.75 13.484375 26.535156 C 14.265625 26.21875 14.503906 25.40625 14.503906 25.40625 Z M 14.503906 25.40625 "/>
</g>
</svg>
